<svg width="72" height="72" viewBox="0 0 72 72" fill="none" xmlns="http://www.w3.org/2000/svg">
<path d="M4.61719 17.5385V43.3846" stroke="black" stroke-width="3" stroke-linecap="round" stroke-linejoin="round"/>
<path d="M12 66.4615C14.6031 62.4934 18.1612 59.2334 22.352 56.9768C26.5427 54.7203 31.2337 53.5385 36 53.5385C40.7663 53.5385 45.4573 54.7203 49.648 56.9768C53.8388 59.2334 57.3969 62.4934 60 66.4615" stroke="black" stroke-width="3" stroke-linecap="round" stroke-linejoin="round"/>
<path d="M67.3864 17.5385L36.0018 27.6923L4.61719 17.5385L36.0018 7.38464L67.3864 17.5385Z" fill="#F9BA48" stroke="black" stroke-width="3" stroke-linecap="round" stroke-linejoin="round"/>
<path d="M49.616 23.0769C52.0352 25.6788 53.6336 28.9178 54.2163 32.3989C54.7989 35.8799 54.3407 39.4528 52.8974 42.6818C51.4541 45.9108 49.0882 48.6566 46.0879 50.5843C43.0877 52.512 39.5828 53.5384 36.0006 53.5384C32.4183 53.5384 28.9135 52.512 25.9132 50.5843C22.913 48.6566 20.5471 45.9108 19.1038 42.6818C17.6605 39.4528 17.2023 35.8799 17.7849 32.3989C18.3676 28.9178 19.966 25.6788 22.3852 23.0769" stroke="black" stroke-width="3" stroke-linecap="round" stroke-linejoin="round"/>
</svg>
