<svg width="72" height="72" viewBox="0 0 72 72" fill="none" xmlns="http://www.w3.org/2000/svg">
<path d="M7.78516 30.3129V11.3422C7.78516 10.6565 8.05541 9.9989 8.53646 9.51403C9.01751 9.02917 9.66996 8.75677 10.3503 8.75677H61.6525C62.3328 8.75677 62.9852 9.02917 63.4663 9.51403C63.9473 9.9989 64.2176 10.6565 64.2176 11.3422V30.3129C64.2176 57.46 41.356 66.4444 36.803 67.9634C36.2857 68.1564 35.717 68.1564 35.1998 67.9634C30.6467 66.4444 7.78516 57.46 7.78516 30.3129Z" stroke="black" stroke-width="3" stroke-linecap="round" stroke-linejoin="round"/>
<path d="M14.5938 31.7358V18.3631C14.5938 17.8797 14.7988 17.4161 15.1637 17.0743C15.5286 16.7325 16.0236 16.5405 16.5397 16.5405H55.4586C55.9747 16.5405 56.4697 16.7325 56.8346 17.0743C57.1995 17.4161 57.4046 17.8797 57.4046 18.3631V31.7358C57.4046 50.8723 40.0613 57.2056 36.6073 58.2763C36.2149 58.4124 35.7834 58.4124 35.391 58.2763C31.937 57.2056 14.5938 50.8723 14.5938 31.7358Z" fill="#F9BA48"/>
<path d="M46.7023 30.1622L32.4239 43.7838L25.2969 36.973" stroke="black" stroke-width="3" stroke-linecap="round" stroke-linejoin="round"/>
</svg>
