<svg width="72" height="72" viewBox="0 0 72 72" fill="none" xmlns="http://www.w3.org/2000/svg">
<path d="M35.9995 56.8121C24.5236 56.8121 15.1875 47.476 15.1875 36.0001C15.1875 24.5242 24.5236 15.188 35.9995 15.188C47.4755 15.188 56.8116 24.5242 56.8116 36.0001C56.8116 47.476 47.4755 56.8121 35.9995 56.8121ZM35.9995 18.9721C26.6106 18.9721 18.9715 26.6111 18.9715 36.0001C18.9715 45.3891 26.6106 53.0281 35.9995 53.0281C45.3885 53.0281 53.0276 45.3891 53.0276 36.0001C53.0276 26.6111 45.3885 18.9721 35.9995 18.9721Z" fill="#F9BA48"/>
<path d="M62.6938 36.0007C62.6938 34.928 62.6292 33.8508 62.5017 32.7872L67.8548 31.048L64.6834 21.2832L59.3241 23.0234C58.2758 21.1404 57.0099 19.3992 55.549 17.8264L58.8611 13.2702L50.5552 7.23437L47.2432 11.7918C45.2914 10.8833 43.2434 10.2168 41.1335 9.80418V4.17395H30.8668V9.80418C28.7569 10.2159 26.7088 10.8833 24.7571 11.7918L21.4461 7.23547L13.1392 13.2702L16.4513 17.8266C14.9904 19.3985 13.7244 21.1406 12.6762 23.0236L7.31797 21.2834L4.14563 31.0482L9.49966 32.7874C9.37132 33.851 9.3067 34.928 9.3067 36.001C9.3067 37.074 9.37132 38.1509 9.49879 39.2145L4.14453 40.9535L7.31687 50.7183L12.6751 48.9781C13.7233 50.8611 14.9893 52.6023 16.4502 54.1751L13.1392 58.7315L21.445 64.7673L24.756 60.211C26.7077 61.1195 28.7558 61.786 30.8657 62.1986V67.828H41.1324V62.1978C43.2423 61.786 45.2904 61.1186 47.2421 60.2101L50.5531 64.7665L58.8589 58.7306L55.5468 54.1743C57.0077 52.6023 58.2736 50.8602 59.3219 48.9773L64.6812 50.7174L67.8527 40.9527L62.4995 39.2134C62.6289 38.1507 62.6938 37.0737 62.6938 36.0007ZM65.2686 42.2707L63.3651 48.1309L58.3129 46.4883L57.9125 47.2645C56.7512 49.5191 55.2616 51.5694 53.4856 53.3599L52.8697 53.98L55.9927 58.2788L51.0093 61.8999L47.8862 57.6002L47.1061 57.9956C44.8473 59.1393 42.4378 59.9225 39.944 60.3251L39.0806 60.4626V65.7746H32.9205V60.4626L32.0571 60.3229C29.5633 59.9206 27.1539 59.1382 24.8951 57.9934L24.1147 57.598L20.9916 61.8977L16.0082 58.2766L19.1312 53.9778L18.5151 53.3577C16.7391 51.5683 15.2493 49.518 14.0882 47.2623L13.6878 46.4861L8.63561 48.1288L6.73208 42.2686L11.7793 40.6289L11.6468 39.7664C11.4569 38.5294 11.3603 37.2623 11.3603 36.0005C11.3603 34.7387 11.4569 33.4719 11.6468 32.2316L11.7793 31.369L6.73208 29.7294L8.63561 23.8692L13.6878 25.5119L14.0882 24.7357C15.249 22.4815 16.7388 20.4312 18.5149 18.6407L19.131 18.0206L16.0077 13.7221L20.9912 10.101L24.1142 14.4006L24.8946 14.0053C27.1534 12.8615 29.5629 12.0783 32.0567 11.6757L32.9201 11.5393V6.2273H39.0801V11.5393L39.9435 11.6788C42.4373 12.0814 44.8468 12.8635 47.1056 14.0083L47.8858 14.4037L51.0088 10.104L55.9923 13.7251L52.8692 18.0239L53.4851 18.644C55.2612 20.4334 56.751 22.4837 57.912 24.7394L58.3124 25.5156L63.3646 23.873L65.2682 29.7332L60.2201 31.3728L60.3526 32.2353C60.5436 33.4723 60.6402 34.7394 60.6402 36.0012C60.6402 37.263 60.5436 38.5298 60.3537 39.7701L60.2212 40.6327L65.2686 42.2707Z" fill="black" stroke="black"/>
</svg>
