<svg width="72" height="72" viewBox="0 0 72 72" fill="none" xmlns="http://www.w3.org/2000/svg">
<path d="M9.59043 39.5719C7.06862 35.3232 6.18471 30.3 7.1047 25.4457C8.02469 20.5914 10.6853 16.24 14.5868 13.2087C18.4883 10.1774 23.3623 8.67475 28.2934 8.98301C33.2245 9.29128 37.8734 11.3892 41.367 14.8828C44.8606 18.3764 46.9585 23.0253 47.2668 27.9564C47.5751 32.8875 46.0724 37.7615 43.0411 41.663C40.0098 45.5645 35.6584 48.2251 30.8041 49.1451C25.9498 50.0651 20.9266 49.1812 16.6779 46.6594L9.67481 48.6562C9.38626 48.7374 9.08132 48.7402 8.79133 48.6644C8.50134 48.5886 8.23677 48.4369 8.02483 48.225C7.81289 48.013 7.66122 47.7485 7.58542 47.4585C7.50962 47.1685 7.51243 46.8635 7.59356 46.575L9.59043 39.5719Z" stroke="black" stroke-width="3" stroke-linecap="round" stroke-linejoin="round"/>
<path d="M13.1272 37.4023C11.1034 33.9926 10.394 29.9613 11.1323 26.0656C11.8706 22.1698 14.0059 18.6776 17.137 16.2449C20.2681 13.8121 24.1796 12.6062 28.137 12.8536C32.0944 13.101 35.8253 14.7847 38.6291 17.5884C41.4328 20.3922 43.1165 24.1231 43.3639 28.0805C43.6113 32.0379 42.4054 35.9494 39.9726 39.0805C37.5399 42.2116 34.0477 44.3469 30.1519 45.0852C26.2562 45.8235 22.2249 45.1141 18.8152 43.0903L13.1949 44.6929C12.9634 44.758 12.7186 44.7602 12.4859 44.6994C12.2532 44.6386 12.0408 44.5168 11.8708 44.3467C11.7007 44.1767 11.5789 43.9643 11.5181 43.7316C11.4573 43.4989 11.4595 43.2541 11.5246 43.0226L13.1272 37.4023Z" fill="#F9BA48"/>
<path d="M25.9023 49.4719C26.8936 52.298 28.5002 54.8687 30.6061 56.9982C32.7121 59.1277 35.2647 60.7628 38.0797 61.7855C40.8946 62.8081 43.9015 63.1927 46.8833 62.9115C49.865 62.6303 52.747 61.6903 55.3211 60.1594V60.1594L62.3242 62.1563C62.6128 62.2374 62.9177 62.2402 63.2077 62.1644C63.4977 62.0886 63.7623 61.9369 63.9742 61.725C64.1861 61.513 64.3378 61.2485 64.4136 60.9585C64.4894 60.6685 64.4866 60.3636 64.4055 60.075L62.4086 53.0719C64.1913 50.0794 65.1709 46.6772 65.2523 43.1949C65.3337 39.7126 64.5143 36.2683 62.8733 33.1958C61.2324 30.1233 58.8256 27.5267 55.8862 25.6578C52.9469 23.7888 49.5746 22.7107 46.0961 22.5281" stroke="black" stroke-width="3" stroke-linecap="round" stroke-linejoin="round"/>
<circle cx="18.9033" cy="29.0959" r="2.46575" fill="black"/>
<circle cx="27.122" cy="29.0959" r="2.46575" fill="black"/>
<ellipse cx="35.3408" cy="29.0959" rx="2.46576" ry="2.46575" fill="black"/>
</svg>
