<svg width="16" height="16" viewBox="0 0 16 16" fill="none" xmlns="http://www.w3.org/2000/svg">
<path d="M3.98197 4.24329C4.2371 4.19922 4.40812 3.95679 4.36418 3.70166C4.11454 2.25513 5.23039 0.9375 6.68901 0.9375C8.14323 0.9375 9.26103 2.2489 9.01481 3.69592C8.97148 3.95117 9.14311 4.19324 9.39836 4.23669C9.65361 4.28027 9.89567 4.1084 9.93913 3.85315C10.2817 1.83911 8.72721 0 6.68901 0C4.65312 0 3.09123 1.83887 3.44035 3.86108C3.48442 4.11694 3.72782 4.28723 3.98197 4.24329Z" fill="#45484D"/>
<path d="M11.677 7.52011C11.3257 6.83054 10.4889 6.55527 9.80199 6.89511C9.48266 6.26828 8.75231 5.97214 8.08849 6.20261V3.33188C8.08849 2.56674 7.47362 1.92746 6.71764 1.90671C5.92553 1.88425 5.26916 2.51865 5.26916 3.31247V10.5338L4.7185 9.95712C4.18993 9.40378 3.30492 9.36484 2.74547 9.87058C2.15514 10.4041 2.12572 11.3127 2.6693 11.8838L5.8341 15.2594C6.27538 15.73 6.89867 16 7.54394 16H11.361C12.6533 16 13.7047 14.9486 13.7047 13.6562V8.78122C13.7047 7.74277 12.6094 7.05881 11.677 7.52011ZM12.7672 13.6562C12.7672 14.4316 12.1363 15.0625 11.361 15.0625H7.54394C7.15673 15.0625 6.78283 14.9005 6.51806 14.618C6.5067 14.6061 3.36022 11.25 3.34887 11.238C3.16759 11.0481 3.17626 10.745 3.37401 10.566C3.56042 10.3977 3.85937 10.415 4.0404 10.6046L5.39879 12.0271C5.69005 12.3322 6.20653 12.1252 6.20653 11.7035V3.31247C6.20653 3.04904 6.42504 2.83639 6.69213 2.84384C6.94518 2.8508 7.15099 3.06967 7.15099 3.33188C7.15099 8.48984 7.1422 6.15182 7.1422 8.93747C7.1422 9.19711 7.35363 9.40866 7.61535 9.40598C7.8767 9.40866 8.08849 9.19724 8.08849 8.93747V7.44211C8.13024 7.22604 8.32043 7.06247 8.54845 7.06247C8.80688 7.06247 9.0172 7.2728 9.0172 7.53122V8.93747C9.0172 9.19638 9.22704 9.40622 9.48595 9.40622C9.74486 9.40622 9.9547 9.19638 9.9547 8.93747V8.15622C9.9547 7.8978 10.165 7.68747 10.4235 7.68747C10.6819 7.68747 10.8922 7.8978 10.8922 8.15622V8.93747C10.8922 9.19638 11.102 9.40622 11.361 9.40622C11.6199 9.40622 11.8297 9.19638 11.8297 8.93747V8.78122C11.8297 8.5228 12.04 8.31247 12.2985 8.31247C12.5569 8.31247 12.7672 8.5228 12.7672 8.78122V13.6562Z" fill="#45484D"/>
</svg>
