<svg width="50" height="50" viewBox="0 0 50 50" fill="none" xmlns="http://www.w3.org/2000/svg">
<path d="M18.3226 0H6.58226C3.84193 0 1.6129 2.22903 1.6129 4.96936C1.6129 5.50565 1.69839 6.03387 1.86774 6.54113L2.26613 7.7371C0.844355 8.74032 0 10.3661 0 12.1137C0 13.3258 0.416935 14.5145 1.17419 15.4605L3.02258 17.7718C3.46613 17.2629 4.11129 16.9355 4.83871 16.9355H5.64516V15.2048C5.64516 14.2887 6.1629 13.4508 6.98226 13.0411L7.7 12.6823L7.69839 12.6839C8.1371 13.304 8.85968 13.7097 9.67742 13.7097H15.8185C17.5927 13.7097 19.246 12.979 20.4314 11.7516L23.5339 13.0815C24.4234 13.4621 25 14.3371 25 15.3048V16.9355H25.8064C26.4605 16.9355 27.0516 17.1976 27.4871 17.6194L28.6202 13.6524C28.8935 12.6952 29.0323 11.7048 29.0323 10.7097C29.0323 4.80484 24.2274 0 18.3226 0V0Z" fill="#F0BC5E"/>
<path d="M20.1615 16.129C18.8277 16.129 17.7422 17.2145 17.7422 18.5484V19.3548H19.3551V18.5484C19.3551 18.104 19.7172 17.7419 20.1615 17.7419C20.6059 17.7419 20.968 18.104 20.968 18.5484V19.3548H22.5809V18.5484C22.5809 17.2145 21.4954 16.129 20.1615 16.129Z" fill="black"/>
<path d="M12.9032 19.3548V18.5484C12.9032 17.2145 11.8177 16.129 10.4838 16.129C9.14994 16.129 8.06445 17.2145 8.06445 18.5484V19.3548H9.67736V18.5484C9.67736 18.104 10.0395 17.7419 10.4838 17.7419C10.9282 17.7419 11.2903 18.104 11.2903 18.5484V19.3548H12.9032Z" fill="black"/>
<path d="M14.6541 24.1935H12.9033V25.8064H14.6541C16.3404 25.8064 17.9259 25.15 19.1186 23.9573L17.9783 22.8169C17.0904 23.7048 15.9106 24.1935 14.6541 24.1935Z" fill="black"/>
<path d="M25.5136 22.5806H25.8063C27.5854 22.5806 29.0321 21.1339 29.0321 19.3548C29.0321 17.5758 27.5854 16.129 25.8063 16.129V15.3048C25.8063 14.0129 25.0386 12.8492 23.8515 12.3403L21.72 11.4266C22.033 10.9782 22.3136 10.5016 22.5233 9.97661L21.0257 9.37742C20.1684 11.5194 18.1249 12.9032 15.8184 12.9032H9.67731C8.78779 12.9032 8.0644 12.1798 8.0644 11.2903C8.0644 10.4008 8.78779 9.67742 9.67731 9.67742H9.79505C10.4096 9.67742 10.9628 10.0194 11.2378 10.5685L11.3757 10.8444L12.8184 10.1226L12.6805 9.84677C12.1305 8.74758 11.0241 8.06451 9.79505 8.06451H9.67731C7.89828 8.06451 6.4515 9.51129 6.4515 11.2903C6.4515 11.65 6.52408 11.9903 6.63376 12.3137L6.62166 12.3194C5.52166 12.8694 4.8386 13.9758 4.8386 15.2048V16.129C3.05957 16.129 1.61279 17.5758 1.61279 19.3548C1.61279 21.1339 3.05957 22.5806 4.8386 22.5806H5.13134C5.94828 26.0185 8.45715 28.7984 11.7305 29.9984L11.5047 30.6766C9.53295 30.8831 7.8015 32.1161 6.94424 33.9032C5.75957 34.0581 4.8386 35.0637 4.8386 36.2903V39.5161C4.8386 40.5661 5.51521 41.4532 6.4515 41.7871V48.3871C6.4515 49.2766 7.17489 50 8.0644 50H22.5805C23.47 50 24.1934 49.2766 24.1934 48.3871V41.7871C25.1297 41.4532 25.8063 40.5661 25.8063 39.5161V36.2903C25.8063 35.0637 24.8854 34.0581 23.7007 33.9024C22.8426 32.1145 21.112 30.8814 19.1394 30.6758L18.9136 29.9976C22.1878 28.7984 24.6967 26.0185 25.5136 22.5806ZM4.8386 20.9677C3.94908 20.9677 3.2257 20.2444 3.2257 19.3548C3.2257 18.4653 3.94908 17.7419 4.8386 17.7419V20.1613C4.8386 20.4339 4.85876 20.7008 4.87973 20.9677H4.8386ZM27.4192 19.3548C27.4192 20.2444 26.6959 20.9677 25.8063 20.9677H25.7652C25.7862 20.7008 25.8063 20.4339 25.8063 20.1613V17.7419C26.6959 17.7419 27.4192 18.4653 27.4192 19.3548ZM18.9588 32.2903C19.0394 32.2984 19.1217 32.2992 19.2007 32.3121L18.6717 35.4839H11.9733L11.4451 32.3121C11.5241 32.2992 11.6063 32.2984 11.687 32.2903L12.7999 33.9597C13.0991 34.4089 13.6007 34.6774 14.141 34.6774H16.5039C17.0442 34.6774 17.5459 34.4089 17.8459 33.9589L18.9588 32.2903ZM13.7096 37.0968H16.9354V38.7097H13.7096V37.0968ZM9.90795 32.9032L10.3063 35.2943C9.86521 34.7798 9.30473 34.3774 8.65795 34.1363C8.98457 33.6363 9.41037 33.2177 9.90795 32.9032ZM6.4515 36.2903C6.4515 35.8452 6.8136 35.4839 7.25795 35.4839C8.59182 35.4839 9.67731 36.5694 9.67731 37.9032C9.67731 39.2371 8.59182 40.3226 7.25795 40.3226C6.8136 40.3226 6.4515 39.9613 6.4515 39.5161V36.2903ZM8.0644 48.3871V41.854C9.90231 41.479 11.2902 39.8508 11.2902 37.9032C11.2902 37.6274 11.262 37.3573 11.2088 37.0968H12.0967V38.7097C12.0967 39.5992 12.82 40.3226 13.7096 40.3226H16.9354C17.8249 40.3226 18.5483 39.5992 18.5483 38.7097V37.0968H19.4362C19.383 37.3573 19.3547 37.6274 19.3547 37.9032C19.3547 39.85 20.7426 41.479 22.5805 41.854V48.3871H8.0644ZM24.1934 36.2903V39.5161C24.1934 39.9613 23.8313 40.3226 23.387 40.3226C22.0531 40.3226 20.9676 39.2371 20.9676 37.9032C20.9676 36.5694 22.0531 35.4839 23.387 35.4839C23.8313 35.4839 24.1934 35.8452 24.1934 36.2903ZM21.9862 34.1363C21.3394 34.3774 20.7789 34.7798 20.3378 35.2943L20.7362 32.9032C21.2346 33.2177 21.6604 33.6363 21.9862 34.1363ZM17.6588 31.3323L16.5039 33.0645H14.141L12.9862 31.3323L13.283 30.4427C13.9434 30.5734 14.6241 30.6452 15.3225 30.6452C16.0209 30.6452 16.7015 30.5734 17.362 30.4427L17.6588 31.3323ZM15.3225 29.0323C10.4313 29.0323 6.4515 25.0524 6.4515 20.1613V15.2048C6.4515 14.5903 6.79344 14.0371 7.34263 13.7621L7.52166 13.6726C8.09424 14.1911 8.84586 14.5161 9.67731 14.5161H15.8184C17.6305 14.5161 19.312 13.846 20.6023 12.7024L23.216 13.8226C23.8096 14.0774 24.1934 14.6589 24.1934 15.3048V20.1613C24.1934 25.0524 20.2136 29.0323 15.3225 29.0323Z" fill="black"/>
<path d="M37.0967 12.9032H38.7096V14.5161H37.0967V12.9032Z" fill="black"/>
<path d="M40.3223 12.9032H41.9352V14.5161H40.3223V12.9032Z" fill="black"/>
<path d="M43.5483 12.9032H45.1613V14.5161H43.5483V12.9032Z" fill="black"/>
<path d="M47.5804 8.06451H34.6772C33.3433 8.06451 32.2578 9.15 32.2578 10.4839V16.9355C32.2578 18.2694 33.3433 19.3548 34.6772 19.3548H38.886L39.3441 21.1871C39.5497 22.0081 40.2836 22.5806 41.1288 22.5806C41.9739 22.5806 42.7078 22.0081 42.9135 21.1871L43.3715 19.3548H47.5804C48.9143 19.3548 49.9997 18.2694 49.9997 16.9355V10.4839C49.9997 9.15 48.9143 8.06451 47.5804 8.06451ZM48.3868 16.9355C48.3868 17.3798 48.0247 17.7419 47.5804 17.7419H42.1118L41.3481 20.796C41.2973 20.9984 40.9594 20.9984 40.9086 20.796L40.1457 17.7419H34.6772C34.2328 17.7419 33.8707 17.3798 33.8707 16.9355V10.4839C33.8707 10.0395 34.2328 9.67742 34.6772 9.67742H47.5804C48.0247 9.67742 48.3868 10.0395 48.3868 10.4839V16.9355Z" fill="black"/>
<path d="M48.3867 37.0968H45.1609V27.4193C45.1609 26.5298 44.4375 25.8064 43.548 25.8064H33.8705C32.981 25.8064 32.2576 26.5298 32.2576 27.4193V37.0968H29.0318C28.1423 37.0968 27.4189 37.8201 27.4189 38.7097V48.3871C27.4189 49.2766 28.1423 50 29.0318 50H48.3867C49.2762 50 49.9996 49.2766 49.9996 48.3871V38.7097C49.9996 37.8201 49.2762 37.0968 48.3867 37.0968ZM42.7415 38.7097H45.1609V40.3226H42.7415V38.7097ZM37.0964 27.4193H40.3222V29.0322H37.0964V27.4193ZM33.8705 27.4193H35.4835V29.0322C35.4835 29.9218 36.2068 30.6451 37.0964 30.6451H40.3222C41.2117 30.6451 41.9351 29.9218 41.9351 29.0322V27.4193H43.548V37.0968H33.8705V27.4193ZM32.2576 38.7097H34.677V40.3226H32.2576V38.7097ZM29.0318 38.7097H30.6447V40.3226C30.6447 41.2121 31.3681 41.9355 32.2576 41.9355H34.677C35.5665 41.9355 36.2899 41.2121 36.2899 40.3226V38.7097H37.9028V48.3871H29.0318V38.7097ZM39.5157 48.3871V38.7097H41.1286V40.3226C41.1286 41.2121 41.852 41.9355 42.7415 41.9355H45.1609C46.0504 41.9355 46.7738 41.2121 46.7738 40.3226V38.7097H48.3867L48.3875 48.3871H39.5157Z" fill="black"/>
<path d="M34.6772 45.1613H36.2902V46.7742H34.6772V45.1613Z" fill="black"/>
<path d="M31.4517 45.1613H33.0646V46.7742H31.4517V45.1613Z" fill="black"/>
<path d="M45.1611 45.1613H46.7741V46.7742H45.1611V45.1613Z" fill="black"/>
<path d="M41.9351 45.1613H43.548V46.7742H41.9351V45.1613Z" fill="black"/>
<path d="M40.3223 33.871H41.9352V35.4839H40.3223V33.871Z" fill="black"/>
<path d="M37.0967 33.871H38.7096V35.4839H37.0967V33.871Z" fill="black"/>
</svg>
