<svg width="16" height="16" viewBox="0 0 16 16" fill="none" xmlns="http://www.w3.org/2000/svg">
<path d="M14.125 14.1562H1.875C0.841064 14.1562 0 13.3152 0 12.2812V3.71875C0 2.68481 0.841064 1.84375 1.875 1.84375H14.125C15.1589 1.84375 16 2.68481 16 3.71875V12.2812C16 13.3152 15.1589 14.1562 14.125 14.1562ZM1.875 3.09375C1.5304 3.09375 1.25 3.37415 1.25 3.71875V12.2812C1.25 12.6259 1.5304 12.9062 1.875 12.9062H14.125C14.4696 12.9062 14.75 12.6259 14.75 12.2812V3.71875C14.75 3.37415 14.4696 3.09375 14.125 3.09375H1.875ZM13.5 4.375H10.3125V5.625H12.25V7.59375H13.5V4.375ZM5.65625 10.375H3.75V8.40625H2.5V11.625H5.65625V10.375Z" fill="#45484D"/>
</svg>
