<svg width="16" height="16" viewBox="0 0 16 16" fill="none" xmlns="http://www.w3.org/2000/svg">
<path d="M1.09128 13.4543H3.63678V15.6364C3.63678 15.7426 3.67074 15.8295 3.73909 15.8974C3.80724 15.9658 3.89437 16 4.00051 16H5.89814C5.99663 16 6.08184 15.9658 6.15383 15.8974C6.22581 15.8295 6.26169 15.7426 6.26169 15.6364V13.4543H12.0003C12.1062 13.4543 12.1934 13.4206 12.2617 13.3522C12.3301 13.2839 12.364 13.1969 12.364 13.0907V11.6361C12.364 11.5306 12.3301 11.443 12.2617 11.3751C12.1936 11.3067 12.1062 11.2726 12.0003 11.2726H6.2615V9.93158H10.1251C11.6402 9.93158 12.8768 9.46992 13.8354 8.54529C14.7936 7.62163 15.2729 6.42849 15.2729 4.96579C15.2729 3.50407 14.7936 2.31089 13.8354 1.38629C12.877 0.462599 11.6402 0 10.1251 0H4.00032C3.89415 0 3.80721 0.0341562 3.7389 0.102124C3.67074 0.170467 3.63659 0.257975 3.63659 0.363549V7.51145H1.09128C0.985138 7.51145 0.898163 7.54736 0.829851 7.61931C0.761727 7.69129 0.727539 7.77651 0.727539 7.87496V9.56797C0.727539 9.67414 0.761507 9.76111 0.829851 9.82943C0.898195 9.8978 0.984949 9.93155 1.09128 9.93155H3.63678V11.2725H1.09128C0.985138 11.2725 0.898163 11.3067 0.829851 11.3751C0.761727 11.443 0.727539 11.5304 0.727539 11.6361V13.0907C0.727539 13.1969 0.761507 13.2838 0.829851 13.3522C0.898163 13.4206 0.985106 13.4543 1.09128 13.4543ZM6.2615 2.4207H9.89787C10.7008 2.4207 11.3484 2.65546 11.841 3.12515C12.3333 3.59487 12.5796 4.20871 12.5796 4.96598C12.5796 5.72363 12.3333 6.33765 11.841 6.80681C11.3484 7.2769 10.7008 7.51167 9.89787 7.51167H6.2615V2.4207Z" fill="white"/>
</svg>
