<svg width="51" height="34" viewBox="0 0 51 34" fill="none" xmlns="http://www.w3.org/2000/svg">
<rect x="2.65" y="3.65" width="47.4143" height="14.9381" rx="2.30238" stroke="black" stroke-width="1.3"/>
<rect width="48.7143" height="16.2381" rx="2.95238" fill="#F0BC5E"/>
<path d="M10.6797 6.7701C10.6797 7.05352 10.5832 7.28184 10.3903 7.45505C10.1974 7.62432 9.94551 7.73257 9.63453 7.77981V7.79752C10.0085 7.84083 10.2939 7.94908 10.4907 8.12229C10.6915 8.29549 10.7919 8.52184 10.7919 8.80133C10.7919 9.04933 10.7269 9.26781 10.597 9.45676C10.4671 9.64571 10.2722 9.79333 10.0124 9.89962C9.75262 10.0059 9.42983 10.059 9.04405 10.059C8.76062 10.059 8.50278 10.0394 8.27053 10C8.03827 9.96457 7.83357 9.90749 7.65643 9.82876V9.17924C7.77846 9.23829 7.9123 9.28946 8.05795 9.33276C8.20754 9.37213 8.35713 9.40362 8.50672 9.42724C8.66024 9.44692 8.80392 9.45676 8.93776 9.45676C9.31173 9.45676 9.58729 9.39771 9.76443 9.27962C9.94157 9.15759 10.0301 8.98635 10.0301 8.7659C10.0301 8.53759 9.91008 8.37225 9.66995 8.2699C9.43376 8.16362 9.11097 8.11048 8.70157 8.11048H8.22919V7.5141H8.66024C8.97516 7.5141 9.22513 7.48851 9.41014 7.43733C9.59516 7.38616 9.72703 7.31333 9.80576 7.21886C9.88843 7.12044 9.92976 7.00629 9.92976 6.87638C9.92976 6.70711 9.86087 6.57524 9.7231 6.48076C9.58532 6.38235 9.38849 6.33314 9.13262 6.33314C8.89643 6.33314 8.68583 6.3666 8.50081 6.43352C8.3158 6.49651 8.14062 6.57917 7.97529 6.68152L7.63872 6.17371C7.77256 6.08711 7.91624 6.01035 8.06976 5.94343C8.22722 5.87257 8.40043 5.81943 8.58938 5.784C8.77833 5.74463 8.985 5.72495 9.20938 5.72495C9.5243 5.72495 9.79002 5.77022 10.0065 5.86076C10.227 5.9513 10.3943 6.0753 10.5084 6.23276C10.6226 6.38629 10.6797 6.5654 10.6797 6.7701ZM14.754 10L14.3701 8.884H12.7818L12.4039 10H11.6008L13.1479 5.76629H14.01L15.557 10H14.754ZM13.8092 7.148C13.7934 7.09289 13.7698 7.0181 13.7383 6.92362C13.7068 6.82914 13.6754 6.7327 13.6439 6.63429C13.6163 6.53194 13.5947 6.4473 13.5789 6.38038C13.5592 6.45911 13.5336 6.54965 13.5021 6.652C13.4746 6.75435 13.447 6.85079 13.4195 6.94133C13.3959 7.03187 13.3762 7.10076 13.3604 7.148L12.9884 8.23448H14.1753L13.8092 7.148ZM19.9436 10H19.0697L17.3987 7.86248V10H16.6429V5.784H17.3987V7.82705L19.0402 5.784H19.861L18.2135 7.82114L19.9436 10ZM23.6302 10L23.2464 8.884H21.6581L21.2801 10H20.4771L22.0241 5.76629H22.8862L24.4333 10H23.6302ZM22.6855 7.148C22.6697 7.09289 22.6461 7.0181 22.6146 6.92362C22.5831 6.82914 22.5516 6.7327 22.5201 6.63429C22.4926 6.53194 22.4709 6.4473 22.4552 6.38038C22.4355 6.45911 22.4099 6.54965 22.3784 6.652C22.3509 6.75435 22.3233 6.85079 22.2958 6.94133C22.2721 7.03187 22.2525 7.10076 22.2367 7.148L21.8647 8.23448H23.0516L22.6855 7.148ZM28.2708 6.7701C28.2708 7.05352 28.1743 7.28184 27.9815 7.45505C27.7886 7.62432 27.5366 7.73257 27.2256 7.77981V7.79752C27.5996 7.84083 27.885 7.94908 28.0818 8.12229C28.2826 8.29549 28.383 8.52184 28.383 8.80133C28.383 9.04933 28.318 9.26781 28.1881 9.45676C28.0582 9.64571 27.8634 9.79333 27.6035 9.89962C27.3437 10.0059 27.0209 10.059 26.6352 10.059C26.3517 10.059 26.0939 10.0394 25.8616 10C25.6294 9.96457 25.4247 9.90749 25.2475 9.82876V9.17924C25.3696 9.23829 25.5034 9.28946 25.6491 9.33276C25.7987 9.37213 25.9482 9.40362 26.0978 9.42724C26.2514 9.44692 26.395 9.45676 26.5289 9.45676C26.9028 9.45676 27.1784 9.39771 27.3555 9.27962C27.5327 9.15759 27.6213 8.98635 27.6213 8.7659C27.6213 8.53759 27.5012 8.37225 27.2611 8.2699C27.0249 8.16362 26.7021 8.11048 26.2927 8.11048H25.8203V7.5141H26.2514C26.5663 7.5141 26.8162 7.48851 27.0013 7.43733C27.1863 7.38616 27.3181 7.31333 27.3969 7.21886C27.4795 7.12044 27.5209 7.00629 27.5209 6.87638C27.5209 6.70711 27.452 6.57524 27.3142 6.48076C27.1764 6.38235 26.9796 6.33314 26.7237 6.33314C26.4875 6.33314 26.2769 6.3666 26.0919 6.43352C25.9069 6.49651 25.7317 6.57917 25.5664 6.68152L25.2298 6.17371C25.3637 6.08711 25.5074 6.01035 25.6609 5.94343C25.8183 5.87257 25.9915 5.81943 26.1805 5.784C26.3695 5.74463 26.5761 5.72495 26.8005 5.72495C27.1154 5.72495 27.3811 5.77022 27.5976 5.86076C27.8181 5.9513 27.9854 6.0753 28.0995 6.23276C28.2137 6.38629 28.2708 6.5654 28.2708 6.7701ZM32.3451 10L31.9613 8.884H30.3729L29.995 10H29.1919L30.739 5.76629H31.6011L33.1481 10H32.3451ZM31.4003 7.148C31.3846 7.09289 31.3609 7.0181 31.3295 6.92362C31.298 6.82914 31.2665 6.7327 31.235 6.63429C31.2074 6.53194 31.1858 6.4473 31.17 6.38038C31.1503 6.45911 31.1248 6.54965 31.0933 6.652C31.0657 6.75435 31.0381 6.85079 31.0106 6.94133C30.987 7.03187 30.9673 7.10076 30.9515 7.148L30.5795 8.23448H31.7664L31.4003 7.148ZM35.3304 10H34.5746V6.42171H33.3641V5.784H36.5409V6.42171H35.3304V10ZM37.7178 10V5.784H38.4736V7.46686H38.9932C39.3869 7.46686 39.7057 7.52197 39.9498 7.63219C40.1978 7.73848 40.3789 7.8861 40.493 8.07505C40.6072 8.264 40.6643 8.47657 40.6643 8.71276C40.6643 8.98044 40.6052 9.21073 40.4871 9.40362C40.369 9.59257 40.188 9.74019 39.9439 9.84648C39.6998 9.94883 39.3869 10 39.005 10H37.7178ZM38.9637 9.3741C39.2589 9.3741 39.4873 9.32292 39.6487 9.22057C39.814 9.11822 39.8967 8.94895 39.8967 8.71276C39.8967 8.55137 39.8553 8.42737 39.7727 8.34076C39.6939 8.25022 39.5798 8.18724 39.4302 8.15181C39.2845 8.11244 39.1035 8.09276 38.8869 8.09276H38.4736V9.3741H38.9637Z" fill="black"/>
<path d="M36.6756 21.497V20.4591C36.6756 20.0003 36.4934 19.5603 36.1689 19.2358C35.8445 18.9114 35.4045 18.7292 34.9457 18.7292C34.4869 18.7292 34.0469 18.9114 33.7225 19.2358C33.3981 19.5603 33.2158 20.0003 33.2158 20.4591V14.9234C33.2158 14.4646 33.0335 14.0246 32.7091 13.7001C32.3847 13.3757 31.9447 13.1935 31.4859 13.1935C31.0271 13.1935 30.5871 13.3757 30.2627 13.7001C29.9382 14.0246 29.756 14.4646 29.756 14.9234V25.4153L27.8617 22.1284C27.6323 21.7304 27.2542 21.4399 26.8106 21.3206C26.3669 21.2014 25.8941 21.2633 25.4961 21.4927C25.0981 21.7221 24.8075 22.1002 24.6883 22.5439C24.569 22.9875 24.6309 23.4603 24.8603 23.8584C27.6801 29.8006 29.3927 31.8765 33.2158 31.8765C34.1245 31.8765 35.0243 31.6975 35.8638 31.3498C36.7034 31.002 37.4662 30.4923 38.1087 29.8498C38.7513 29.2072 39.261 28.4444 39.6087 27.6049C39.9565 26.7653 40.1354 25.8655 40.1354 24.9568V21.497C40.1354 21.0382 39.9532 20.5982 39.6288 20.2738C39.3043 19.9494 38.8643 19.7671 38.4055 19.7671C37.9467 19.7671 37.5067 19.9494 37.1823 20.2738C36.8579 20.5982 36.6756 21.0382 36.6756 21.497Z" fill="white" stroke="black" stroke-width="1.29167" stroke-linecap="round" stroke-linejoin="round"/>
</svg>
