<svg width="50" height="50" viewBox="0 0 50 50" fill="none" xmlns="http://www.w3.org/2000/svg">
<path d="M34.375 15.625H42.6953C43.0066 15.6229 43.3113 15.7151 43.5692 15.8894C43.8272 16.0637 44.0264 16.312 44.1406 16.6015L46.875 23.4375" stroke="black" stroke-width="1.7" stroke-linecap="round" stroke-linejoin="round"/>
<path d="M3.125 28.125H34.375" stroke="black" stroke-width="1.7" stroke-linecap="round" stroke-linejoin="round"/>
<path d="M36.7188 42.1875C39.3076 42.1875 41.4062 40.0888 41.4062 37.5C41.4062 34.9112 39.3076 32.8125 36.7188 32.8125C34.1299 32.8125 32.0312 34.9112 32.0312 37.5C32.0312 40.0888 34.1299 42.1875 36.7188 42.1875Z" stroke="black" stroke-width="1.7" stroke-miterlimit="10"/>
<path d="M36.8069 38.8889C37.5739 38.8889 38.1958 38.267 38.1958 37.5C38.1958 36.7329 37.5739 36.1111 36.8069 36.1111C36.0398 36.1111 35.418 36.7329 35.418 37.5C35.418 38.267 36.0398 38.8889 36.8069 38.8889Z" fill="#F0BC5E" stroke="#F0BC5E" stroke-width="1.7" stroke-miterlimit="10"/>
<path d="M13.2812 42.1875C15.8701 42.1875 17.9688 40.0888 17.9688 37.5C17.9688 34.9112 15.8701 32.8125 13.2812 32.8125C10.6924 32.8125 8.59375 34.9112 8.59375 37.5C8.59375 40.0888 10.6924 42.1875 13.2812 42.1875Z" stroke="black" stroke-width="1.7" stroke-miterlimit="10"/>
<path d="M13.1936 38.8889C13.9606 38.8889 14.5825 38.267 14.5825 37.5C14.5825 36.7329 13.9606 36.1111 13.1936 36.1111C12.4265 36.1111 11.8047 36.7329 11.8047 37.5C11.8047 38.267 12.4265 38.8889 13.1936 38.8889Z" fill="#F0BC5E" stroke="#F0BC5E" stroke-width="1.7" stroke-miterlimit="10"/>
<path d="M32.0312 37.5H17.9688" stroke="black" stroke-width="1.7" stroke-linecap="round" stroke-linejoin="round"/>
<path d="M8.59375 37.5H4.6875C4.2731 37.5 3.87567 37.3354 3.58265 37.0424C3.28962 36.7493 3.125 36.3519 3.125 35.9375V14.0625C3.125 13.6481 3.28962 13.2507 3.58265 12.9576C3.87567 12.6646 4.2731 12.5 4.6875 12.5H34.375V33.4375" stroke="black" stroke-width="1.7" stroke-linecap="round" stroke-linejoin="round"/>
<path d="M34.375 23.4375H46.875V35.9375C46.875 36.3519 46.7104 36.7493 46.4174 37.0424C46.1243 37.3354 45.7269 37.5 45.3125 37.5H41.4062" stroke="black" stroke-width="1.7" stroke-linecap="round" stroke-linejoin="round"/>
<rect x="4.16797" y="17.3611" width="29.1667" height="5.55556" fill="#F0BC5E"/>
</svg>
