<svg width="50" height="50" viewBox="0 0 50 50" fill="none" xmlns="http://www.w3.org/2000/svg">
<path d="M8.56205 13.7097H20.8153C20.9112 13.1863 20.9685 12.6484 20.9685 12.0968C20.9685 7.19761 16.9967 3.22583 12.0975 3.22583C7.19834 3.22583 3.22656 7.19761 3.22656 12.0968C3.22656 13.2153 3.44269 14.2815 3.82011 15.267C5.17414 14.2847 6.81769 13.7097 8.56205 13.7097Z" fill="#F0BC5E"/>
<path d="M12.9016 20.9677H11.2887C10.3992 20.9677 9.67578 20.2444 9.67578 19.3548V17.7419C9.67578 16.8524 10.3992 16.129 11.2887 16.129H12.9016C13.7911 16.129 14.5145 16.8524 14.5145 17.7419V19.3548C14.5145 20.2444 13.7911 20.9677 12.9016 20.9677Z" fill="#F0BC5E"/>
<path d="M19.3547 20.9677H17.7418C16.8523 20.9677 16.1289 20.2444 16.1289 19.3548V17.7419C16.1289 16.8524 16.8523 16.129 17.7418 16.129H19.3547C20.2442 16.129 20.9676 16.8524 20.9676 17.7419V19.3548C20.9676 20.2444 20.2442 20.9677 19.3547 20.9677Z" fill="#F0BC5E"/>
<path d="M25.8078 20.9677H24.1949C23.3054 20.9677 22.582 20.2444 22.582 19.3548V17.7419C22.582 16.8524 23.3054 16.129 24.1949 16.129H25.8078C26.6974 16.129 27.4207 16.8524 27.4207 17.7419V19.3548C27.4207 20.2444 26.6974 20.9677 25.8078 20.9677Z" fill="#F0BC5E"/>
<path d="M32.2571 20.9677H30.6442C29.7546 20.9677 29.0312 20.2444 29.0312 19.3548V17.7419C29.0312 16.8524 29.7546 16.129 30.6442 16.129H32.2571C33.1466 16.129 33.87 16.8524 33.87 17.7419V19.3548C33.87 20.2444 33.1466 20.9677 32.2571 20.9677Z" fill="#F0BC5E"/>
<path d="M35.8435 26.7129L42.6411 21.275C43.2177 20.8129 43.5484 20.1242 43.5484 19.3863V19.3548C44.4379 19.3548 45.1613 18.6315 45.1613 17.7419V16.129C45.1613 15.2395 44.4379 14.5161 43.5484 14.5161V4.83871C43.5484 3.94919 42.825 3.22581 41.9355 3.22581H40.7855C40.2145 3.22581 39.6798 3.53226 39.3919 4.02581L34.2145 12.9032H24.1645C24.1823 12.6347 24.1935 12.3653 24.1935 12.0968C24.1935 5.42661 18.7669 0 12.0968 0C5.42661 0 0 5.42661 0 12.0968C0 13.8169 0.368548 15.4661 1.0621 17.0169C0.804839 17.4202 0.575806 17.846 0.383065 18.2952C0.129032 18.8879 0 19.5161 0 20.1613C0 20.8064 0.129032 21.4347 0.383065 22.0266C1.7871 25.3024 4.99677 27.4194 8.56129 27.4194H14.4468L17.0274 29.0323H9.67742C8.7879 29.0323 8.06452 29.7556 8.06452 30.6452V38.7097H4.83871C3.94919 38.7097 3.22581 39.4331 3.22581 40.3226V48.3871C3.22581 49.2766 3.94919 50 4.83871 50H12.9032C13.1984 50 13.4718 49.9145 13.7097 49.7758C13.9476 49.9145 14.221 50 14.5161 50H22.5806C23.4702 50 24.1935 49.2766 24.1935 48.3871V40.3226C24.1935 39.4331 23.4702 38.7097 22.5806 38.7097H19.3548V30.6452C19.3548 30.5871 19.3435 30.5331 19.3379 30.4766L24.296 33.5758C24.6056 33.7685 24.9621 33.871 25.3274 33.871H28.6984C29.7718 33.871 30.6452 32.9976 30.6452 31.9242C30.6452 31.404 30.4427 30.9153 30.075 30.5476L26.9468 27.4194H33.829C34.5589 27.4194 35.2742 27.1685 35.8435 26.7129ZM12.9032 30.6452H14.5161V32.2581H12.9032V30.6452ZM9.67742 40.3226V41.9355H8.06452V40.3226H9.67742ZM4.83871 48.3871V40.3226H6.45161V41.9355C6.45161 42.825 7.175 43.5484 8.06452 43.5484H9.67742C10.5669 43.5484 11.2903 42.825 11.2903 41.9355V40.3226H12.9032V48.3871H4.83871ZM22.5815 48.3871H14.5161V40.3226H16.129V41.9355C16.129 42.825 16.8524 43.5484 17.7419 43.5484H19.3548C20.2444 43.5484 20.9677 42.825 20.9677 41.9355V40.3226H22.5806L22.5815 48.3871ZM17.7419 40.3226H19.3548V41.9355H17.7419V40.3226ZM14.5161 38.7097H12.9032H9.67742V30.6452H11.2903V32.2581C11.2903 33.1476 12.0137 33.871 12.9032 33.871H14.5161C15.4056 33.871 16.129 33.1476 16.129 32.2581V30.6452H17.7419L17.7427 38.7097H14.5161ZM43.5492 17.7419H37.0968V16.129H43.5484L43.5492 17.7419ZM22.5484 12.9032H17.7194C17.7339 12.6339 17.7419 12.3645 17.7419 12.0968C17.7419 10.7323 17.5452 9.3758 17.1855 8.06452H21.7718C22.2911 9.30645 22.5806 10.6685 22.5806 12.0968C22.5806 12.3653 22.5694 12.6347 22.5484 12.9032ZM5.64516 15.1363V18.5484C5.64516 18.9927 5.28306 19.3548 4.83871 19.3548H1.73226C1.77097 19.2121 1.80645 19.0685 1.86532 18.9314C2.61048 17.1927 3.98145 15.8637 5.64516 15.1363ZM8.11129 12.9202C8.09516 12.6452 8.06452 12.3702 8.06452 12.0968C8.06452 10.7282 8.28306 9.36774 8.68468 8.06452H15.5081C15.9105 9.36774 16.129 10.7282 16.129 12.0968C16.129 12.3645 16.1 12.6339 16.0839 12.9032H8.56048C8.41048 12.9032 8.26129 12.9121 8.11129 12.9202ZM12.0968 2.15081L13.3871 3.87097C13.9879 4.67177 14.4887 5.54113 14.8992 6.45161H9.29516C9.70565 5.54193 10.2065 4.67177 10.8073 3.87097L12.0968 2.15081ZM20.9169 6.45161H16.6476C16.1484 5.19113 15.4935 3.99113 14.6774 2.90323L13.8258 1.76774C16.7984 2.26452 19.3484 4.00968 20.9169 6.45161ZM10.3677 1.76774L9.51613 2.90323C8.7 3.99113 8.04516 5.19113 7.54597 6.45161H3.27661C4.84516 4.00968 7.39516 2.26452 10.3677 1.76774ZM2.42177 8.06452H7.00806C6.64839 9.3758 6.45161 10.7323 6.45161 12.0968C6.45161 12.4468 6.46774 12.7984 6.49194 13.1492C4.85565 13.5395 3.37097 14.3823 2.20565 15.5726C1.81371 14.4629 1.6129 13.2992 1.6129 12.0968C1.6129 10.6685 1.90242 9.30645 2.42177 8.06452ZM29.0323 31.9242C29.0323 32.1081 28.8823 32.2581 28.6984 32.2581H25.3274C25.2645 32.2581 25.2032 32.2403 25.15 32.2073L13.0113 24.6202C12.9435 24.5782 12.9032 24.5048 12.9032 24.425C12.9032 24.2968 13.0065 24.1935 13.1347 24.1935H21.3444C21.4056 24.1935 21.4645 24.2185 21.5081 24.2613L28.9347 31.6879C28.9968 31.75 29.0323 31.8363 29.0323 31.9242ZM22.6484 23.121C22.3048 22.7774 21.8298 22.5806 21.3444 22.5806H13.1347C12.1177 22.5806 11.2903 23.4081 11.2903 24.425C11.2903 24.9677 11.5331 25.4597 11.9339 25.8064H8.56129C5.64355 25.8064 3.01532 24.0734 1.86532 21.3903C1.80645 21.2532 1.77097 21.1105 1.73226 20.9677H4.83871C6.17258 20.9677 7.25806 19.8823 7.25806 18.5484V14.646C7.68387 14.5685 8.11694 14.5161 8.56129 14.5161H34.2145C34.7855 14.5161 35.3202 14.2097 35.6081 13.7161L40.7855 4.83871H41.9355V14.5161H37.0968C36.2073 14.5161 35.4839 15.2395 35.4839 16.129V17.7419C35.4839 18.6315 36.2073 19.3548 37.0968 19.3548H41.9355V19.3863C41.9355 19.6323 41.825 19.8621 41.6331 20.0161L34.8363 25.4532C34.5516 25.6806 34.1936 25.8064 33.829 25.8064H25.3339L22.6484 23.121Z" fill="black"/>
<path d="M45.1602 20.9677H49.9989V22.5806H45.1602V20.9677Z" fill="black"/>
<path d="M45.1602 8.06451H49.9989V9.67742H45.1602V8.06451Z" fill="black"/>
<path d="M46.7734 11.2903H49.9992V12.9032H46.7734V11.2903Z" fill="black"/>
<path d="M33.8711 29.0323H37.0969V30.6452H33.8711V29.0323Z" fill="black"/>
<path d="M38.7109 29.0323H45.1626V30.6452H38.7109V29.0323Z" fill="black"/>
<path d="M33.8711 32.2581H40.3227V33.871H33.8711V32.2581Z" fill="black"/>
<path d="M30.6445 9.67743H33.8703V11.2903H30.6445V9.67743Z" fill="black"/>
<path d="M25.8047 6.4516H33.8692V8.0645H25.8047V6.4516Z" fill="black"/>
</svg>
