<svg width="50" height="50" viewBox="0 0 50 50" fill="none" xmlns="http://www.w3.org/2000/svg">
<path d="M39.8438 26.9367V46.8109L26.6352 36.2445C26.7648 36.1352 26.8969 36.0289 27.0203 35.9109L34.6445 28.65L33.5672 27.518L25.943 34.7797C24.6297 36.0297 22.9078 36.7187 21.0938 36.7187C19.2797 36.7187 17.5578 36.0297 16.2445 34.7789L3.51562 22.6562H23.9031V21.0938H0.78125V49.2187H41.4062V26.9367H39.8438ZM25.2969 37.1758L38.3969 47.6562H3.79063L16.8914 37.175C18.1633 37.8914 19.6008 38.2812 21.0938 38.2812C22.5867 38.2812 24.0242 37.8914 25.2969 37.1758ZM15.5531 36.2437L2.34375 46.8117V23.6977L15.1672 35.9094C15.2914 36.0281 15.4234 36.1344 15.5531 36.2437Z" fill="black"/>
<path d="M36.7188 41.4062H38.2812V42.9688H36.7188V41.4062Z" fill="black"/>
<path d="M36.7188 32.0312H38.2812V39.8437H36.7188V32.0312Z" fill="black"/>
<path d="M35.1562 28.9062C27.4023 28.9062 21.0938 22.5977 21.0938 14.8437C21.0938 7.08984 27.4023 0.78125 35.1562 0.78125C42.9102 0.78125 49.2187 7.08984 49.2187 14.8437C49.2187 22.5977 42.9102 28.9062 35.1562 28.9062Z" fill="#F0BC5E"/>
<path d="M35.1602 5.4664H34.9031C34.9023 5.4664 34.9023 5.4664 34.9016 5.4664C32.4664 5.4664 30.1758 6.41484 28.4531 8.13671C26.7297 9.85937 25.7805 12.1508 25.7813 14.5867V14.8445C25.7813 17.3484 26.757 19.7031 28.5281 21.4734C30.2984 23.2437 32.6523 24.2187 35.1555 24.2187H35.157H36.7188V22.6562H35.157C35.1562 22.6562 35.1563 22.6562 35.1555 22.6562C33.0695 22.6562 31.1078 21.8437 29.6328 20.3687C28.1563 18.8922 27.3438 16.9312 27.3438 14.8445V14.5867C27.3438 12.5672 28.1297 10.6695 29.5578 9.24218C30.9852 7.81484 32.8828 7.0289 34.9016 7.0289H34.9031H35.1602C39.4656 7.03046 42.9688 10.5344 42.9688 14.8398V17.5781C42.9688 18.6555 42.093 19.5312 41.0156 19.5312C39.9383 19.5312 39.0625 18.6555 39.0625 17.5781V15.625V14.0625C39.0625 11.9086 37.3102 10.1562 35.1563 10.1562C33.0023 10.1562 31.25 11.9086 31.25 14.0625V15.625C31.25 17.7789 33.0023 19.5312 35.1563 19.5312C36.1164 19.5312 36.9859 19.1695 37.6672 18.5922C38.1055 20.0344 39.432 21.0937 41.0156 21.0937C42.9539 21.0937 44.5312 19.5164 44.5312 17.5781V14.8398C44.5312 9.67343 40.3273 5.46796 35.1602 5.4664ZM35.1563 17.9687C33.8641 17.9687 32.8125 16.9172 32.8125 15.625V14.0625C32.8125 12.7703 33.8641 11.7187 35.1563 11.7187C36.4484 11.7187 37.5 12.7703 37.5 14.0625V15.625C37.5 16.9172 36.4484 17.9687 35.1563 17.9687Z" fill="black"/>
<path d="M8.59375 24.2188H10.1562V25.7812H8.59375V24.2188Z" fill="black"/>
<path d="M11.7188 24.2188H13.2812V25.7812H11.7188V24.2188Z" fill="black"/>
<path d="M14.8438 24.2188H16.4062V25.7812H14.8438V24.2188Z" fill="black"/>
</svg>
