<svg width="50" height="50" viewBox="0 0 50 50" fill="none" xmlns="http://www.w3.org/2000/svg">
<path d="M35.4873 22.5806H14.5195V8.06451H35.4873V22.5806Z" fill="#F0BC5E"/>
<path d="M33.0633 0H16.9342C13.8213 0 11.2891 2.53306 11.2891 5.64516V44.3548C11.2891 47.4669 13.8213 50 16.9342 50H33.0633C36.1762 50 38.7084 47.4669 38.7084 44.3548V5.64516C38.7084 2.53306 36.1762 0 33.0633 0ZM33.0633 48.3871H16.9342C14.7108 48.3871 12.902 46.5782 12.902 44.3548V6.45161H33.8697V4.83871H12.9834C13.3584 3.00081 14.9874 1.6129 16.9342 1.6129H33.0633C35.01 1.6129 36.6391 3.00081 37.0141 4.83871H35.4826V6.45161H37.0955V44.3548C37.0955 46.5782 35.2866 48.3871 33.0633 48.3871Z" fill="black"/>
<path d="M14.5195 44.3548C14.5195 45.6887 15.605 46.7742 16.9389 46.7742H33.0679C34.4018 46.7742 35.4873 45.6887 35.4873 44.3548V25.8065H14.5195V44.3548ZM16.1324 44.3548V41.9355H19.3582V45.1613H16.9389C16.4945 45.1613 16.1324 44.8 16.1324 44.3548ZM24.1969 41.9355V45.1613H20.9711V41.9355H24.1969ZM20.9711 40.3226V37.0968H24.1969V40.3226H20.9711ZM25.8099 41.9355H29.0357V45.1613H25.8099V41.9355ZM25.8099 40.3226V37.0968H29.0357V40.3226H25.8099ZM30.6486 37.0968H33.8744V40.3226H30.6486V37.0968ZM30.6486 35.4839V32.2581H33.8744V35.4839H30.6486ZM29.0357 35.4839H25.8099V32.2581H29.0357V35.4839ZM25.8099 30.6452V27.4194H29.0357V30.6452H25.8099ZM24.1969 30.6452H20.9711V27.4194H24.1969V30.6452ZM24.1969 32.2581V35.4839H20.9711V32.2581H24.1969ZM19.3582 35.4839H16.1324V32.2581H19.3582V35.4839ZM19.3582 37.0968V40.3226H16.1324V37.0968H19.3582ZM33.0679 45.1613H30.6486V41.9355H33.8744V44.3548C33.8744 44.8 33.5123 45.1613 33.0679 45.1613ZM33.8744 30.6452H30.6486V27.4194H33.8744V30.6452ZM19.3582 27.4194V30.6452H16.1324V27.4194H19.3582Z" fill="black"/>
<path d="M29.0325 11.2903H17.7422V12.9032H29.0325V11.2903Z" fill="black"/>
<path d="M32.2613 11.2903H30.6484V12.9032H32.2613V11.2903Z" fill="black"/>
</svg>
