<svg width="36" height="36" viewBox="0 0 36 36" fill="none" xmlns="http://www.w3.org/2000/svg">
<path d="M18 29C24.0751 29 29 24.0751 29 18C29 11.9249 24.0751 7 18 7C11.9249 7 7 11.9249 7 18C7 24.0751 11.9249 29 18 29Z" fill="#F9BA48"/>
<path d="M18 31.5C25.4558 31.5 31.5 25.4558 31.5 18C31.5 10.5442 25.4558 4.5 18 4.5C10.5442 4.5 4.5 10.5442 4.5 18C4.5 25.4558 10.5442 31.5 18 31.5Z" stroke="black" stroke-width="1.2" stroke-miterlimit="10"/>
<path d="M5.27344 13.5H30.7266" stroke="black" stroke-width="1.2" stroke-linecap="round" stroke-linejoin="round"/>
<path d="M5.27344 22.5H30.7266" stroke="black" stroke-width="1.2" stroke-linecap="round" stroke-linejoin="round"/>
<path d="M18 31.1344C21.1066 31.1344 23.625 25.2539 23.625 18C23.625 10.7461 21.1066 4.86563 18 4.86563C14.8934 4.86563 12.375 10.7461 12.375 18C12.375 25.2539 14.8934 31.1344 18 31.1344Z" stroke="black" stroke-width="1.2" stroke-miterlimit="10"/>
</svg>
