<svg width="36" height="36" viewBox="0 0 36 36" fill="none" xmlns="http://www.w3.org/2000/svg">
<path d="M18 27C22.9706 27 27 22.9706 27 18C27 13.0294 22.9706 9 18 9C13.0294 9 9 13.0294 9 18C9 22.9706 13.0294 27 18 27Z" fill="#F9BA48"/>
<path d="M18 11.25V18" stroke="black" stroke-width="1.5" stroke-linecap="round" stroke-linejoin="round"/>
<path d="M23.85 21.375L18 18" stroke="black" stroke-width="1.5" stroke-linecap="round" stroke-linejoin="round"/>
<path d="M25.9023 14.0203H31.5273V8.39531" stroke="black" stroke-width="1.5" stroke-linecap="round" stroke-linejoin="round"/>
<path d="M26.7462 26.7469C25.0159 28.4786 22.8109 29.6582 20.4101 30.1365C18.0094 30.6148 15.5206 30.3703 13.2588 29.434C10.997 28.4976 9.06368 26.9115 7.70345 24.8762C6.34322 22.841 5.61719 20.448 5.61719 18C5.61719 15.552 6.34322 13.1591 7.70345 11.1238C9.06368 9.0885 10.997 7.50237 13.2588 6.56603C15.5206 5.62969 18.0094 5.38522 20.4101 5.86353C22.8109 6.34184 25.0159 7.52145 26.7462 9.25313L31.5275 14.0203" stroke="black" stroke-width="1.5" stroke-linecap="round" stroke-linejoin="round"/>
</svg>
