<svg width="36" height="36" viewBox="0 0 36 36" fill="none" xmlns="http://www.w3.org/2000/svg">
<path d="M28.9091 6H7.09091C6.48842 6 6 6.1221 6 6.27273V11.7273C6 11.8779 6.48842 12 7.09091 12H28.9091C29.5116 12 30 11.8779 30 11.7273V6.27273C30 6.1221 29.5116 6 28.9091 6Z" fill="#F9BA48"/>
<path d="M29.25 5.625H6.75C6.12868 5.625 5.625 6.12868 5.625 6.75V29.25C5.625 29.8713 6.12868 30.375 6.75 30.375H29.25C29.8713 30.375 30.375 29.8713 30.375 29.25V6.75C30.375 6.12868 29.8713 5.625 29.25 5.625Z" stroke="black" stroke-width="1.2" stroke-linecap="round" stroke-linejoin="round"/>
<path d="M24.75 3.375V7.875" stroke="black" stroke-width="1.2" stroke-linecap="round" stroke-linejoin="round"/>
<path d="M11.25 3.375V7.875" stroke="black" stroke-width="1.2" stroke-linecap="round" stroke-linejoin="round"/>
<path d="M5.625 12.375H30.375" stroke="black" stroke-width="1.2" stroke-linecap="round" stroke-linejoin="round"/>
</svg>
