<svg width="72" height="72" viewBox="0 0 72 72" fill="none" xmlns="http://www.w3.org/2000/svg">
<path d="M12.3283 19.7419H29.9729C30.1111 18.9882 30.1936 18.2137 30.1936 17.4193C30.1936 10.3645 24.4742 4.64514 17.4194 4.64514C10.3645 4.64514 4.64517 10.3645 4.64517 17.4193C4.64517 19.0301 4.9564 20.5653 5.49988 21.9844C7.44969 20.5699 9.8164 19.7419 12.3283 19.7419Z" fill="#F0BC5E"/>
<path d="M18.5806 30.1936H16.2581C14.9772 30.1936 13.9355 29.1519 13.9355 27.871V25.5484C13.9355 24.2675 14.9772 23.2258 16.2581 23.2258H18.5806C19.8615 23.2258 20.9032 24.2675 20.9032 25.5484V27.871C20.9032 29.1519 19.8615 30.1936 18.5806 30.1936Z" fill="#F0BC5E"/>
<path d="M27.871 30.1936H25.5484C24.2675 30.1936 23.2258 29.1519 23.2258 27.871V25.5484C23.2258 24.2675 24.2675 23.2258 25.5484 23.2258H27.871C29.1519 23.2258 30.1935 24.2675 30.1935 25.5484V27.871C30.1935 29.1519 29.1519 30.1936 27.871 30.1936Z" fill="#F0BC5E"/>
<path d="M37.1613 30.1936H34.8387C33.5578 30.1936 32.5161 29.1519 32.5161 27.871V25.5484C32.5161 24.2675 33.5578 23.2258 34.8387 23.2258H37.1613C38.4422 23.2258 39.4839 24.2675 39.4839 25.5484V27.871C39.4839 29.1519 38.4422 30.1936 37.1613 30.1936Z" fill="#F0BC5E"/>
<path d="M46.4516 30.1936H44.129C42.8481 30.1936 41.8065 29.1519 41.8065 27.871V25.5484C41.8065 24.2675 42.8481 23.2258 44.129 23.2258H46.4516C47.7325 23.2258 48.7742 24.2675 48.7742 25.5484V27.871C48.7742 29.1519 47.7325 30.1936 46.4516 30.1936Z" fill="#F0BC5E"/>
<path d="M51.6147 38.4666L61.4032 30.636C62.2335 29.9706 62.7097 28.9788 62.7097 27.9163V27.871C63.9906 27.871 65.0323 26.8293 65.0323 25.5484V23.2258C65.0323 21.9449 63.9906 20.9032 62.7097 20.9032V6.96774C62.7097 5.68684 61.668 4.64516 60.3871 4.64516H58.7311C57.9089 4.64516 57.139 5.08645 56.7244 5.79716L49.2689 18.5806H34.7969C34.8225 18.1939 34.8387 17.8061 34.8387 17.4194C34.8387 7.81432 27.0244 0 17.4194 0C7.81432 0 0 7.81432 0 17.4194C0 19.8964 0.53071 22.2712 1.52942 24.5044C1.15897 25.085 0.829161 25.6982 0.551613 26.345C0.185806 27.1986 0 28.1032 0 29.0323C0 29.9613 0.185806 30.8659 0.551613 31.7183C2.57342 36.4355 7.19535 39.4839 12.3283 39.4839H20.8034L24.5195 41.8064H13.9355C12.6546 41.8064 11.6129 42.8481 11.6129 44.129V55.7419H6.96774C5.68684 55.7419 4.64516 56.7836 4.64516 58.0645V69.6774C4.64516 70.9583 5.68684 72 6.96774 72H18.5806C19.0057 72 19.3994 71.8769 19.7419 71.6772C20.0845 71.8769 20.4782 72 20.9032 72H32.5161C33.797 72 34.8387 70.9583 34.8387 69.6774V58.0645C34.8387 56.7836 33.797 55.7419 32.5161 55.7419H27.871V44.129C27.871 44.0454 27.8547 43.9676 27.8466 43.8863L34.9862 48.3492C35.4321 48.6267 35.9454 48.7742 36.4715 48.7742H41.3257C42.8714 48.7742 44.129 47.5165 44.129 45.9708C44.129 45.2218 43.8375 44.5181 43.308 43.9885L38.8034 39.4839H48.7138C49.7648 39.4839 50.7948 39.1227 51.6147 38.4666ZM18.5806 44.129H20.9032V46.4516H18.5806V44.129ZM13.9355 58.0645V60.3871H11.6129V58.0645H13.9355ZM6.96774 69.6774V58.0645H9.29032V60.3871C9.29032 61.668 10.332 62.7097 11.6129 62.7097H13.9355C15.2164 62.7097 16.2581 61.668 16.2581 60.3871V58.0645H18.5806V69.6774H6.96774ZM32.5173 69.6774H20.9032V58.0645H23.2258V60.3871C23.2258 61.668 24.2675 62.7097 25.5484 62.7097H27.871C29.1519 62.7097 30.1935 61.668 30.1935 60.3871V58.0645H32.5161L32.5173 69.6774ZM25.5484 58.0645H27.871V60.3871H25.5484V58.0645ZM20.9032 55.7419H18.5806H13.9355V44.129H16.2581V46.4516C16.2581 47.7325 17.2997 48.7742 18.5806 48.7742H20.9032C22.1841 48.7742 23.2258 47.7325 23.2258 46.4516V44.129H25.5484L25.5495 55.7419H20.9032ZM62.7108 25.5484H53.4194V23.2258H62.7097L62.7108 25.5484ZM32.4697 18.5806H25.5159C25.5368 18.1928 25.5484 17.8049 25.5484 17.4194C25.5484 15.4545 25.265 13.5012 24.7471 11.6129H31.3514C32.0992 13.4013 32.5161 15.3627 32.5161 17.4194C32.5161 17.8061 32.4999 18.1939 32.4697 18.5806ZM8.12903 21.7963V26.7097C8.12903 27.3495 7.60761 27.871 6.96774 27.871H2.49445C2.55019 27.6654 2.60129 27.4587 2.68606 27.2613C3.7591 24.7575 5.73329 22.8437 8.12903 21.7963ZM11.6803 18.605C11.657 18.209 11.6129 17.813 11.6129 17.4194C11.6129 15.4486 11.9276 13.4895 12.5059 11.6129H22.3316C22.9111 13.4895 23.2258 15.4486 23.2258 17.4194C23.2258 17.8049 23.184 18.1928 23.1608 18.5806H12.3271C12.1111 18.5806 11.8963 18.5934 11.6803 18.605ZM17.4194 3.09716L19.2774 5.57419C20.1426 6.72736 20.8637 7.97923 21.4548 9.29032H13.385C13.9761 7.98039 14.6973 6.72736 15.5625 5.57419L17.4194 3.09716ZM30.1204 9.29032H23.9725C23.2537 7.47523 22.3107 5.74723 21.1355 4.18064L19.9092 2.54555C24.1897 3.2609 27.8617 5.77394 30.1204 9.29032ZM14.9295 2.54555L13.7032 4.18064C12.528 5.74723 11.585 7.47523 10.8662 9.29032H4.71832C6.97703 5.77394 10.649 3.2609 14.9295 2.54555ZM3.48735 11.6129H10.0916C9.57368 13.5012 9.29032 15.4545 9.29032 17.4194C9.29032 17.9234 9.31355 18.4297 9.34839 18.9348C6.99213 19.4969 4.85419 20.7105 3.17613 22.4245C2.61174 20.8266 2.32258 19.1508 2.32258 17.4194C2.32258 15.3627 2.73948 13.4013 3.48735 11.6129ZM41.8064 45.9708C41.8064 46.2356 41.5905 46.4516 41.3257 46.4516H36.4715C36.3809 46.4516 36.2926 46.4261 36.216 46.3785L18.7363 35.453C18.6387 35.3926 18.5806 35.287 18.5806 35.172C18.5806 34.9874 18.7293 34.8387 18.9139 34.8387H30.7359C30.8241 34.8387 30.9089 34.8747 30.9716 34.9363L41.6659 45.6306C41.7554 45.72 41.8064 45.8443 41.8064 45.9708ZM32.6137 33.2942C32.119 32.7995 31.435 32.5161 30.7359 32.5161H18.9139C17.4495 32.5161 16.2581 33.7076 16.2581 35.172C16.2581 35.9535 16.6076 36.6619 17.1848 37.1613H12.3283C8.12671 37.1613 4.34206 34.6657 2.68606 30.8021C2.60129 30.6046 2.55019 30.3991 2.49445 30.1935H6.96774C8.88852 30.1935 10.4516 28.6305 10.4516 26.7097V21.0902C11.0648 20.9787 11.6884 20.9032 12.3283 20.9032H49.2689C50.0911 20.9032 50.861 20.4619 51.2756 19.7512L58.7311 6.96774H60.3871V20.9032H53.4194C52.1385 20.9032 51.0968 21.9449 51.0968 23.2258V25.5484C51.0968 26.8293 52.1385 27.871 53.4194 27.871H60.3871V27.9163C60.3871 28.2705 60.228 28.6014 59.9516 28.8232L50.1643 36.6526C49.7543 36.9801 49.2387 37.1613 48.7138 37.1613H36.4808L32.6137 33.2942Z" fill="black"/>
<path d="M65.0323 30.1935H72V32.5161H65.0323V30.1935Z" fill="black"/>
<path d="M65.0323 11.6129H72V13.9355H65.0323V11.6129Z" fill="black"/>
<path d="M67.3548 16.2581H72V18.5806H67.3548V16.2581Z" fill="black"/>
<path d="M48.7742 41.8065H53.4194V44.1291H48.7742V41.8065Z" fill="black"/>
<path d="M55.7419 41.8065H65.0323V44.1291H55.7419V41.8065Z" fill="black"/>
<path d="M48.7742 46.4517H58.0645V48.7743H48.7742V46.4517Z" fill="black"/>
<path d="M44.129 13.9354H48.7742V16.258H44.129V13.9354Z" fill="black"/>
<path d="M37.1613 9.29028H48.7742V11.6129H37.1613V9.29028Z" fill="black"/>
</svg>
