<svg width="72" height="72" viewBox="0 0 72 72" fill="none" xmlns="http://www.w3.org/2000/svg">
<path d="M39.4839 60.3872L36 58.0646L32.5161 60.3872L34.8387 65.0323L33.6774 70.8388H38.3226L37.1613 65.0323L39.4839 60.3872Z" fill="#F0BC5E"/>
<path d="M43.7122 26.9082C42.0236 24.5964 39.3398 23.2258 36.4587 23.2258H36C29.5964 23.2258 24.3871 28.4352 24.3871 34.8387V42.9678H25.5484C25.5484 41.0432 27.1077 39.4839 29.0322 39.4839V37.1613C31.3038 37.1613 33.5254 36.4888 35.4148 35.2289L36 34.8387L36.5852 35.2289C38.4745 36.4888 40.6962 37.1613 42.9677 37.1613V39.4839C44.8923 39.4839 46.4516 41.0432 46.4516 42.9678H47.6129V32.7044C47.6129 30.1425 46.0615 27.8619 43.7122 26.9082Z" fill="#F0BC5E"/>
<path d="M69.6774 62.4449C69.6774 60.0378 68.1629 57.853 65.91 57.0076L60.3871 54.9373V53.9535C61.266 53.1648 61.943 52.1594 62.332 51.018C64.5202 50.6426 66.1935 48.7441 66.1935 46.4516V41.8064C66.1935 40.0889 65.7694 38.4711 65.0322 37.0405V31.09C65.0322 28.683 63.5177 26.4982 61.2649 25.6527L55.7419 23.5825V22.5987C56.6208 21.8099 57.2979 20.8046 57.6869 19.6631C59.875 19.2877 61.5484 17.3893 61.5484 15.0968V10.4516C61.5484 4.68939 56.8601 0 51.0968 0C45.3334 0 40.6451 4.68939 40.6451 10.4516V15.0968C40.6451 17.3893 42.3185 19.2877 44.5067 19.6631C44.8957 20.8034 45.5727 21.8088 46.4516 22.5987V23.5825L42.0877 25.2184C42.6927 25.7066 43.2427 26.2663 43.7122 26.9081C43.7854 26.9382 43.85 26.9802 43.9221 27.013L46.7431 25.955C47.3889 27.7434 49.0878 29.0323 51.0968 29.0323C53.1058 29.0323 54.8046 27.7434 55.4505 25.9538L60.4489 27.8279C61.8013 28.3354 62.7097 29.6452 62.7097 31.09V34.0386C60.8583 32.3755 58.42 31.3548 55.7419 31.3548C52.4599 31.3548 49.53 32.8785 47.6129 35.2521V41.8064C47.6129 37.324 51.2606 33.6774 55.7419 33.6774C60.2232 33.6774 63.871 37.324 63.871 41.8064V42.4523C63.1848 42.0525 62.3984 41.8064 61.5484 41.8064H49.9355C49.0656 41.8064 48.2599 42.0622 47.563 42.479C47.356 40.542 45.9719 38.9662 44.129 38.4876V36H42.9677C40.919 36 38.9344 35.3984 37.2299 34.2626L36 33.4427L34.7701 34.2626C33.0656 35.3984 31.0809 36 29.0322 36H27.871V38.4876C25.8722 39.0064 24.3871 40.8102 24.3871 42.9677V42.4523C23.701 42.0525 22.9145 41.8064 22.0645 41.8064H21.8649C20.0566 41.8064 18.3567 41.1028 17.0791 39.8241L16.2581 39.0019L15.437 39.8241C14.1583 41.1028 12.4595 41.8064 10.6512 41.8064H10.4516C9.60162 41.8064 8.81514 42.0525 8.12902 42.4523V41.8064C8.12902 37.324 11.7768 33.6774 16.2581 33.6774C20.7393 33.6774 24.3871 37.324 24.3871 41.8064V35.2521C22.4699 32.8785 19.5401 31.3548 16.2581 31.3548C13.5799 31.3548 11.1417 32.3755 9.29031 34.0386V31.09C9.29031 29.6452 10.1987 28.3354 11.5511 27.8279L16.5484 25.9538C17.1954 27.7434 18.8942 29.0323 20.9032 29.0323C22.9122 29.0323 24.6111 27.7434 25.2569 25.9538L27.6073 26.835C28.2231 26.1891 28.9092 25.6136 29.6583 25.1231L25.5484 23.5825V22.58C26.4205 21.7918 27.1055 20.7989 27.4933 19.6631C29.6815 19.2877 31.3548 17.3893 31.3548 15.0968V10.4516C31.3548 4.68939 26.6666 0 20.9032 0C15.1399 0 10.4516 4.68939 10.4516 10.4516V15.0968C10.4516 17.3893 12.1249 19.2877 14.3131 19.6631C14.701 20.8 15.386 21.7918 16.2581 22.58V23.5825L10.7363 25.6539C8.48229 26.4982 6.96773 28.683 6.96773 31.09V37.0405C6.23058 38.4711 5.80644 40.0889 5.80644 41.8064V46.4516C5.80644 48.7441 7.47977 50.6426 9.66796 51.018C10.0558 52.1549 10.7408 53.1466 11.6129 53.9348V54.9373L6.09109 57.0076C3.83712 57.853 2.32257 60.0378 2.32257 62.4449V69.6774H18.5806V72H53.4193V69.6774H69.6774V62.4449ZM58.0645 17.0967V13.098C58.7557 13.5011 59.2258 14.2423 59.2258 15.0979C59.2258 15.9536 58.7557 16.6935 58.0645 17.0967ZM44.129 17.0967C43.4378 16.6935 42.9677 15.9524 42.9677 15.0968C42.9677 14.2411 43.4378 13.5 44.129 13.0968V17.0967ZM45.2903 10.4516C44.4403 10.4516 43.6538 10.6977 42.9677 11.0975V10.4516C42.9677 5.96919 46.6155 2.32258 51.0968 2.32258C55.578 2.32258 59.2258 5.96919 59.2258 10.4516V11.0975C58.5397 10.6977 57.7532 10.4516 56.9032 10.4516C55.7329 10.4516 54.5874 9.97644 53.7596 9.1497L52.4055 7.79561L51.0282 8.71421C49.3236 9.84999 47.339 10.4516 45.2903 10.4516ZM53.4193 24.3871C53.4193 25.668 52.3777 26.7097 51.0968 26.7097C49.8158 26.7097 48.7742 25.668 48.7742 24.3871V23.9805C49.5023 24.2397 50.2814 24.3871 51.0968 24.3871C51.9122 24.3871 52.6913 24.2385 53.4193 23.9805V24.3871ZM51.0968 22.0645C48.5349 22.0645 46.4516 19.9812 46.4516 17.4194V12.692C48.4606 12.5071 50.3965 11.8766 52.1084 10.7828L52.1174 10.7918C53.1012 11.7756 54.381 12.426 55.7419 12.6665V17.4194C55.7419 19.9812 53.6586 22.0645 51.0968 22.0645ZM23.2258 24.3871C23.2258 25.668 22.1842 26.7097 20.9032 26.7097C19.6223 26.7097 18.5806 25.668 18.5806 24.3871V23.9783C19.3087 24.2374 20.0867 24.3871 20.9032 24.3871C21.7197 24.3871 22.4977 24.2374 23.2258 23.9783V24.3871ZM25.5484 17.4194C25.5484 19.9812 23.4651 22.0645 20.9032 22.0645C18.3413 22.0645 16.2581 19.9812 16.2581 17.4194V12.7742H25.5484V17.4194ZM27.871 17.0967V13.098C28.5622 13.5011 29.0322 14.2423 29.0322 15.0979C29.0322 15.9536 28.5622 16.6935 27.871 17.0967ZM13.9355 17.0967C13.2443 16.6935 12.7742 15.9524 12.7742 15.0968C12.7742 14.2411 13.2443 13.5 13.9355 13.0968V17.0967ZM15.0968 10.4516C14.2468 10.4516 13.4603 10.6977 12.7742 11.0975V10.4516C12.7742 5.96919 16.4219 2.32258 20.9032 2.32258C25.3845 2.32258 29.0322 5.96919 29.0322 10.4516V11.0975C28.3461 10.6977 27.5597 10.4516 26.7097 10.4516H15.0968ZM9.29031 48.4515C8.5991 48.0484 8.12902 47.3073 8.12902 46.4516C8.12902 45.596 8.5991 44.8548 9.29031 44.4517V48.4515ZM51.0968 54.9543L48.2026 56.1077L40.6451 52.6714V50.79C41.8076 49.9774 42.7438 48.8683 43.3522 47.5732C44.0746 47.5131 44.7482 47.2937 45.3391 46.9393C45.5597 49.0078 47.123 50.6692 49.1507 51.0168C49.5408 52.1583 50.2179 53.1636 51.0968 53.9535V54.9543ZM36 56.1287L33.6774 53.0326V51.9156C34.4134 52.1362 35.1931 52.2581 36 52.2581C36.8069 52.2581 37.5866 52.1362 38.3226 51.9156V53.0326L36 56.1287ZM32.147 54.863L34.3953 57.8615L30.5893 60.9059L28.417 56.5596L32.147 54.863ZM39.853 54.863L43.5841 56.5585L41.4118 60.9048L37.6058 57.8604L39.853 54.863ZM53.4193 55.3354C54.1474 55.5945 54.9265 55.7419 55.7419 55.7419C56.5573 55.7419 57.3364 55.5934 58.0645 55.3354V55.3552L55.7419 58.4524L53.4193 55.3552V55.3354ZM55.7419 53.4194C53.1801 53.4194 51.0968 51.3361 51.0968 48.7742V44.129H60.3871V48.7742C60.3871 51.3361 58.3038 53.4194 55.7419 53.4194ZM63.871 46.4516C63.871 47.3073 63.4009 48.0484 62.7097 48.4515V44.4528C63.4009 44.8548 63.871 45.596 63.871 46.4516ZM48.7742 44.4517V48.4504C48.083 48.0473 47.6129 47.3061 47.6129 46.4505C47.6129 45.5948 48.083 44.8548 48.7742 44.4517ZM45.2903 42.9677C45.2903 43.8432 44.7981 44.5968 44.0814 44.9932C44.1114 44.7085 44.129 44.4205 44.129 44.129V40.9678C44.8202 41.371 45.2903 42.1121 45.2903 42.9677ZM30.1935 38.2704C32.2632 38.081 34.2501 37.3864 36 36.2348C37.7499 37.3864 39.7368 38.081 41.8064 38.2704V44.129C41.8064 47.3305 39.2015 49.9355 36 49.9355C32.7985 49.9355 30.1935 47.3305 30.1935 44.129V38.2704ZM27.871 40.9678V44.129C27.871 44.4205 27.8885 44.7085 27.9186 44.9932C27.2019 44.5968 26.7097 43.8432 26.7097 42.9677C26.7097 42.1121 27.1797 41.371 27.871 40.9678ZM23.2258 44.4517C23.917 44.8548 24.3871 45.596 24.3871 46.4516C24.3871 47.3073 23.917 48.0484 23.2258 48.4515V44.4517ZM22.8482 51.018C24.8759 50.6704 26.4437 49.0089 26.6654 46.9427C27.2557 47.2959 27.9277 47.5142 28.6478 47.5743C29.2562 48.8695 30.1924 49.9786 31.3548 50.7911V52.6726L23.7974 56.1077L20.9032 54.9543V53.9348C21.7753 53.1466 22.4603 52.1537 22.8482 51.018ZM11.6129 44.0502C13.3129 43.871 14.917 43.2513 16.2581 42.1966C17.5991 43.2524 19.2032 43.871 20.9032 44.0502V48.7742C20.9032 51.3361 18.8199 53.4194 16.2581 53.4194C13.6962 53.4194 11.6129 51.3361 11.6129 48.7742V44.0502ZM16.2581 55.7419C17.0746 55.7419 17.8526 55.5922 18.5806 55.3331V55.3552L16.2581 58.4524L13.9355 55.3552V55.3331C14.6635 55.5922 15.4415 55.7419 16.2581 55.7419ZM4.64515 67.3548V62.4449C4.64515 61.0001 5.55354 59.6902 6.90592 59.1827L12.3676 57.1357L16.2581 62.323L20.1377 57.1505L21.3319 57.6256C19.6155 59.1459 18.5806 61.3511 18.5806 63.7116V67.3548H4.64515ZM51.0968 69.6774H46.4516V65.0323H44.129V69.6774H27.871V65.0323H25.5484V69.6774H20.9032V63.7116C20.9032 61.4406 22.2386 59.3664 24.3083 58.4257L26.3008 57.5196L29.7989 64.5134L36 59.5518L42.2022 64.5145L45.6991 57.5213L47.6917 58.4268C49.7614 59.3664 51.0968 61.4418 51.0968 63.7116V69.6774ZM67.3548 67.3548H53.4193V63.7116C53.4193 61.3511 52.3845 59.1447 50.6681 57.6256L51.8623 57.1493L55.7419 62.323L59.6324 57.1357L65.0941 59.1838C66.4464 59.6902 67.3548 61.0001 67.3548 62.4449V67.3548Z" fill="black"/>
</svg>
