<svg width="72" height="72" viewBox="0 0 72 72" fill="none" xmlns="http://www.w3.org/2000/svg">
<path d="M62.7097 44.9244V45.2902H55.0603C52.6913 46.7128 51.0968 49.299 51.0968 52.258C51.0968 55.2169 52.6913 57.8031 55.0603 59.2257H61.5484C62.3509 59.2257 63.1255 59.1131 63.8675 58.9226C65.9729 57.4513 67.3549 55.0149 67.3549 52.258C67.3549 49.0238 65.4515 46.2321 62.7097 44.9244ZM59.2258 54.5806C57.9449 54.5806 56.9033 53.5389 56.9033 52.258C56.9033 50.9771 57.9449 49.9354 59.2258 49.9354C60.5067 49.9354 61.5484 50.9771 61.5484 52.258C61.5484 53.5389 60.5067 54.5806 59.2258 54.5806Z" fill="#F0BC5E"/>
<path d="M26.2301 45.2904H17.899C15.5299 46.713 13.9355 49.2992 13.9355 52.2581C13.9355 55.015 15.3174 57.4514 17.4228 58.9228C18.1649 59.1132 18.9395 59.2259 19.7419 59.2259H26.2301C28.5991 57.8033 30.1936 55.2171 30.1936 52.2581C30.1936 49.2992 28.5991 46.713 26.2301 45.2904ZM22.0645 54.5807C20.7836 54.5807 19.7419 53.539 19.7419 52.2581C19.7419 50.9772 20.7836 49.9356 22.0645 49.9356C23.3454 49.9356 24.3871 50.9772 24.3871 52.2581C24.3871 53.539 23.3454 54.5807 22.0645 54.5807Z" fill="#F0BC5E"/>
<path d="M44.8107 45.2904H36.4796C34.1106 46.713 32.5161 49.2992 32.5161 52.2581C32.5161 55.2171 34.1106 57.8033 36.4796 59.2259H44.8107C47.1797 57.8033 48.7742 55.2171 48.7742 52.2581C48.7742 49.2992 47.1797 46.713 44.8107 45.2904ZM40.6452 54.5807C39.3642 54.5807 38.3226 53.539 38.3226 52.2581C38.3226 50.9772 39.3642 49.9356 40.6452 49.9356C41.9261 49.9356 42.9677 50.9772 42.9677 52.2581C42.9677 53.539 41.9261 54.5807 40.6452 54.5807Z" fill="#F0BC5E"/>
<path d="M62.7097 62.7097V60.3186C67.9274 59.7379 72 55.3053 72 49.9355C72 44.1732 67.3107 39.4839 61.5484 39.4839H51.0968V34.8387H55.7419L50.5161 27.871H44.129V25.5484H46.4516V17.4194C46.4516 15.4986 44.8885 13.9355 42.9677 13.9355H41.8064V11.6129H48.7742C50.0551 11.6129 51.0968 10.5712 51.0968 9.29032V6.96774C51.0968 5.68684 50.0551 4.64516 48.7742 4.64516H46.3343C45.7943 1.99858 43.4485 0 40.6452 0C37.8418 0 35.496 1.99858 34.956 4.64516H2.32258C1.04168 4.64516 0 5.68684 0 6.96774V9.29032C0 10.5712 1.04168 11.6129 2.32258 11.6129H4.64516V23.2258H2.32258C1.04168 23.2258 0 24.2675 0 25.5484V37.1613C0 38.4422 1.04168 39.4839 2.32258 39.4839H4.64516V65.0323H0V72H65.0323V69.6774H60.3871V65.0323C61.668 65.0323 62.7097 63.9906 62.7097 62.7097ZM46.4516 6.96774H48.7742L48.7754 9.29032H46.4516V6.96774ZM61.5484 41.8064C66.031 41.8064 69.6774 45.4529 69.6774 49.9355C69.6774 54.4181 66.031 58.0645 61.5484 58.0645H19.7419C15.2594 58.0645 11.6129 54.4181 11.6129 49.9355C11.6129 45.4529 15.2594 41.8064 19.7419 41.8064H61.5484ZM13.9355 23.2258H11.6129V11.6129H27.871V15.0968C27.871 19.1834 30.9054 22.5662 34.8387 23.1329V25.5484H37.1613V27.871H30.7742L25.5484 34.8387H30.1935V39.4839H19.7419C16.4601 39.4839 13.5302 41.0075 11.6129 43.3812V39.4839H13.9355C15.2164 39.4839 16.2581 38.4422 16.2581 37.1613V25.5484C16.2581 24.2675 15.2164 23.2258 13.9355 23.2258ZM36.5806 32.5161H30.1935L31.9355 30.1935H38.3226L36.5806 32.5161ZM39.4839 32.5161V39.4839H32.5161V34.8387H37.7419L39.4839 32.5161ZM41.8064 27.871H41.2258H40.0645H39.4839V25.5484H41.8064V27.871ZM43.5484 34.8387H48.7742V39.4839H41.8064V32.5161L43.5484 34.8387ZM49.3548 30.1935L51.0968 32.5161H44.7097L42.9677 30.1935H49.3548ZM44.129 23.2258H37.1613V20.9032H44.129V23.2258ZM42.9677 16.2581C43.6076 16.2581 44.129 16.7795 44.129 17.4194V18.5806H37.1613V17.4194C37.1613 16.7795 37.6827 16.2581 38.3226 16.2581H42.9677ZM40.6452 2.32258C42.1572 2.32258 43.4346 3.2969 43.9154 4.64516H37.3761C37.8557 3.2969 39.1332 2.32258 40.6452 2.32258ZM37.1613 6.96774H44.129V9.29032H37.1613V6.96774ZM39.4839 11.6129V13.9355H38.3226C36.4018 13.9355 34.8387 15.4986 34.8387 17.4194V20.7859C32.1921 20.2459 30.1935 17.9013 30.1935 15.0968V11.6129H39.4839ZM2.32258 9.29032V6.96774H34.8387V9.29032H2.32258ZM9.29032 11.6129V23.2258H6.96774V11.6129H9.29032ZM2.32258 25.5484H13.9355L13.9366 32.5161H2.32258V25.5484ZM2.32258 37.1613V34.8387H13.9366V37.1613H2.32258ZM9.29032 39.4839V65.0323H6.96774V39.4839H9.29032ZM20.9032 69.6774H2.32258V67.3548H16.2581V65.0323H11.6129V56.4898C13.3014 58.579 15.7738 60.0062 18.5806 60.3186V62.7097C18.5806 63.9906 19.6223 65.0323 20.9032 65.0323V69.6774ZM25.5484 69.6774H23.2258V65.0323H25.5484V69.6774ZM53.4194 69.6774H27.871V65.0323H53.4194V69.6774ZM58.0645 69.6774H55.7419V65.0323H58.0645V69.6774ZM20.9032 62.7097V60.3871H60.3871V62.7097H20.9032Z" fill="black"/>
<path d="M59.2258 48.7742C57.305 48.7742 55.7419 50.3373 55.7419 52.258C55.7419 54.1788 57.305 55.7419 59.2258 55.7419C61.1466 55.7419 62.7097 54.1788 62.7097 52.258C62.7097 50.3373 61.1466 48.7742 59.2258 48.7742ZM59.2258 53.4193C58.5859 53.4193 58.0645 52.8979 58.0645 52.258C58.0645 51.6182 58.5859 51.0967 59.2258 51.0967C59.8657 51.0967 60.3871 51.6182 60.3871 52.258C60.3871 52.8979 59.8657 53.4193 59.2258 53.4193Z" fill="black"/>
<path d="M22.0645 48.7742C20.1437 48.7742 18.5806 50.3373 18.5806 52.258C18.5806 54.1788 20.1437 55.7419 22.0645 55.7419C23.9853 55.7419 25.5484 54.1788 25.5484 52.258C25.5484 50.3373 23.9853 48.7742 22.0645 48.7742ZM22.0645 53.4193C21.4246 53.4193 20.9032 52.8979 20.9032 52.258C20.9032 51.6182 21.4246 51.0967 22.0645 51.0967C22.7044 51.0967 23.2258 51.6182 23.2258 52.258C23.2258 52.8979 22.7044 53.4193 22.0645 53.4193Z" fill="black"/>
<path d="M40.6452 48.7742C38.7244 48.7742 37.1613 50.3373 37.1613 52.258C37.1613 54.1788 38.7244 55.7419 40.6452 55.7419C42.5659 55.7419 44.129 54.1788 44.129 52.258C44.129 50.3373 42.5659 48.7742 40.6452 48.7742ZM40.6452 53.4193C40.0053 53.4193 39.4839 52.8979 39.4839 52.258C39.4839 51.6182 40.0053 51.0967 40.6452 51.0967C41.285 51.0967 41.8065 51.6182 41.8065 52.258C41.8065 52.8979 41.285 53.4193 40.6452 53.4193Z" fill="black"/>
<path d="M4.64514 27.871H6.96772V30.1936H4.64514V27.871Z" fill="black"/>
<path d="M9.29034 27.871H11.6129V30.1936H9.29034V27.871Z" fill="black"/>
<path d="M17.4194 44.129H63.871V46.4516H17.4194V44.129Z" fill="black"/>
</svg>
