<svg width="71" height="71" viewBox="0 0 71 71" fill="none" xmlns="http://www.w3.org/2000/svg">
<path d="M48.0187 22.8384V18.2708H22.8965V28.548H28.6061V33.1157H57.1541V22.8384H48.0187Z" fill="#F0BC5E"/>
<path d="M0.0581484 0V44.5349H1.20007C1.20007 42.4852 2.55889 40.7712 4.41952 40.1919C3.51234 38.4679 3.76381 36.295 5.21296 34.8447C5.38748 34.6708 5.57371 34.5158 5.76775 34.3752V11.4192C8.92196 11.4192 11.4773 8.8627 11.4773 5.7096H59.438C59.438 8.8627 61.9939 11.4192 65.1476 11.4192V41.1091C61.9939 41.1091 59.438 43.6656 59.438 46.8187H27.975C27.4029 47.7895 26.4868 48.5349 25.3872 48.8778C25.9733 49.9908 26.068 51.2905 25.6761 52.462L25.8896 52.5283H70.8572V0L0.0581484 0Z" fill="#F0BC5E"/>
<path d="M57.1541 15.9869H13.7612V9.13538H57.1541V15.9869Z" fill="#F0BC5E"/>
<path d="M65.1475 10.2772C62.6284 10.2772 60.5799 8.22868 60.5799 5.70955V4.56763H10.3354V5.70955C10.3354 8.22868 8.28685 10.2772 5.76771 10.2772H4.62579V33.8466C4.55386 33.9113 4.47636 33.9687 4.40666 34.0384C2.9302 35.5149 2.40607 37.6309 2.95529 39.5858C1.18442 40.5816 0.0581121 42.4461 0.0581121 44.5348C0.0581121 46.6235 1.18442 48.488 2.95529 49.4839C2.40607 51.4399 2.9302 53.5548 4.40666 55.0312C4.62468 55.2492 4.85997 55.4388 5.10308 55.6161L0.510308 67.8667L6.40614 66.3924L9.47783 70.9997L13.8927 59.2794C14.2228 59.3385 14.5585 59.3798 14.9031 59.3798C15.2482 59.3798 15.5839 59.3385 15.914 59.2794L20.3283 70.9997L23.4 66.3924L29.2969 67.8667L24.7031 55.6161C24.9462 55.4399 25.1815 55.2492 25.3995 55.0312C26.8765 53.5548 27.4006 51.4387 26.8509 49.4839C27.5406 49.0969 28.1288 48.5739 28.5938 47.9606H60.5799V46.8187C60.5799 44.2995 62.6284 42.251 65.1475 42.251H66.2895V10.2772H65.1475ZM24.1527 40.0859C23.1424 37.9928 21.4462 36.2972 19.3531 35.2863L19.7769 35.0638C21.115 34.359 22.7253 34.5954 23.7853 35.6543C24.8436 36.7114 25.08 38.3228 24.3763 39.6621L24.1527 40.0859ZM22.8965 44.5348C22.8965 48.9425 19.3096 52.5283 14.9031 52.5283C10.4965 52.5283 6.90963 48.9425 6.90963 44.5348C6.90963 40.1272 10.4965 36.5414 14.9031 36.5414C19.3096 36.5414 22.8965 40.1272 22.8965 44.5348ZM14.9031 34.2575C13.7132 34.2575 12.5735 34.4711 11.5108 34.8458L11.6524 34.3914C12.0996 32.9456 13.406 31.9737 14.9031 31.9737C16.4002 31.9737 17.7066 32.9456 18.1554 34.3902L18.297 34.8447C17.2326 34.4711 16.0929 34.2575 14.9031 34.2575ZM5.65341 40.0859L5.42982 39.661C4.72616 38.3217 4.96257 36.7103 6.02141 35.6532C7.07969 34.5954 8.69221 34.359 10.0293 35.0627L10.453 35.2852C8.35989 36.2972 6.6643 37.9928 5.65341 40.0859ZM2.34195 44.5348C2.34195 43.0388 3.31381 41.7313 4.75849 41.2825L5.21292 41.1408C4.83934 42.2053 4.62579 43.3449 4.62579 44.5348C4.62579 45.7247 4.83934 46.8644 5.21404 47.9288L4.75961 47.7872C3.31381 47.3383 2.34195 46.0308 2.34195 44.5348ZM5.42982 49.4086L5.65341 48.9837C6.6643 51.0769 8.35989 52.7725 10.453 53.7845L10.0293 54.007C8.68998 54.7117 7.07969 54.4753 6.02141 53.4165C4.96257 52.3582 4.72616 50.7479 5.42982 49.4086ZM8.90911 66.0306L7.41312 63.7863L4.1736 64.5959L7.19065 56.5523C8.0917 56.7514 9.03846 56.7385 9.95401 56.4826C10.4017 57.2799 11.0324 57.9362 11.7734 58.4274L8.90911 66.0306ZM11.6513 54.6794L11.5096 54.225C12.5735 54.5985 13.7132 54.8121 14.9031 54.8121C16.0929 54.8121 17.2326 54.5985 18.2959 54.2239L18.1543 54.6783C17.7066 56.1241 16.4002 57.0959 14.9031 57.0959C13.406 57.0959 12.0996 56.1241 11.6513 54.6794ZM25.6314 64.5959L22.393 63.7863L20.897 66.0306L18.0333 58.4285C18.7743 57.9362 19.4044 57.2799 19.8521 56.4837C20.7671 56.7396 21.7133 56.7536 22.6144 56.5545L25.6314 64.5959ZM23.7853 53.4165C22.7253 54.4742 21.1128 54.7106 19.7769 54.007L19.3531 53.7845C21.4462 52.7725 23.1424 51.0769 24.1527 48.9848L24.3763 49.4097C25.08 50.7479 24.8436 52.3593 23.7853 53.4165ZM25.0482 47.7872L24.5938 47.9288C24.9668 46.8644 25.1803 45.7247 25.1803 44.5348C25.1803 43.3449 24.9668 42.2053 24.5927 41.1408L25.0471 41.2825C26.4923 41.7313 27.4642 43.0388 27.4642 44.5348C27.4642 46.0308 26.4923 47.3383 25.0482 47.7872ZM64.0056 40.0619C61.1408 40.5437 58.8742 42.8119 58.3908 45.6767H29.6203C29.6967 45.3054 29.748 44.9262 29.748 44.5348C29.748 42.4461 28.6223 40.5816 26.8509 39.5858C27.4006 37.6298 26.8765 35.5149 25.3995 34.0384C23.923 32.5631 21.8098 32.0401 19.8521 32.587C18.8574 30.8156 16.9918 29.6899 14.9031 29.6899C12.8144 29.6899 10.9487 30.8156 9.95401 32.587C8.94368 32.3049 7.89431 32.3127 6.90963 32.5837V12.4663C9.77502 11.9834 12.0416 9.7163 12.5244 6.85147H58.3908C58.8742 9.7163 61.1408 11.9834 64.0056 12.4663V40.0619Z" fill="black"/>
<path d="M14.9031 38.8253C11.755 38.8253 9.19347 41.3868 9.19347 44.5349C9.19347 47.683 11.755 50.2445 14.9031 50.2445C18.0517 50.2445 20.6127 47.683 20.6127 44.5349C20.6127 41.3868 18.0517 38.8253 14.9031 38.8253ZM14.9031 47.9607C13.0145 47.9607 11.4773 46.4234 11.4773 44.5349C11.4773 42.6464 13.0145 41.1092 14.9031 41.1092C16.7921 41.1092 18.3288 42.6464 18.3288 44.5349C18.3288 46.4234 16.7921 47.9607 14.9031 47.9607Z" fill="black"/>
<path d="M45.7349 41.1091H57.1541V43.393H45.7349V41.1091Z" fill="black"/>
<path d="M32.0319 41.1091H43.4511V43.393H32.0319V41.1091Z" fill="black"/>
<path d="M22.8965 18.2708H48.0187V20.5546H22.8965V18.2708Z" fill="black"/>
<path d="M13.7612 22.8384H16.045V25.1222H13.7612V22.8384Z" fill="black"/>
<path d="M18.3288 22.8384H20.6127V25.1222H18.3288V22.8384Z" fill="black"/>
<path d="M22.8965 22.8384H57.1541V25.1222H22.8965V22.8384Z" fill="black"/>
<path d="M22.8965 27.406H57.1541V29.6898H22.8965V27.406Z" fill="black"/>
<path d="M28.6061 31.9738H57.1541V34.2576H28.6061V31.9738Z" fill="black"/>
</svg>
