<svg width="72" height="72" viewBox="0 0 72 72" fill="none" xmlns="http://www.w3.org/2000/svg">
<path d="M56.9031 58.0645H15.0969V37.1613H56.9033V58.0645H56.9031Z" fill="#F9BA48"/>
<path d="M16.2581 30.1938C16.8995 30.1938 17.4195 29.6738 17.4195 29.0324C17.4195 28.391 16.8995 27.871 16.2581 27.871C15.6166 27.871 15.0966 28.391 15.0966 29.0324C15.0966 29.6738 15.6166 30.1938 16.2581 30.1938Z" fill="#333333"/>
<path d="M20.9032 30.1938C21.5447 30.1938 22.0646 29.6738 22.0646 29.0324C22.0646 28.391 21.5447 27.871 20.9032 27.871C20.2618 27.871 19.7418 28.391 19.7418 29.0324C19.7418 29.6738 20.2618 30.1938 20.9032 30.1938Z" fill="#333333"/>
<path d="M25.5484 30.1938C26.1898 30.1938 26.7098 29.6738 26.7098 29.0324C26.7098 28.391 26.1898 27.871 25.5484 27.871C24.907 27.871 24.387 28.391 24.387 29.0324C24.387 29.6738 24.907 30.1938 25.5484 30.1938Z" fill="#333333"/>
<path d="M72 29.0324C72 22.7836 67.5639 17.5508 61.5227 16.4662C61.0258 7.30219 53.4137 0 44.129 0C37.8569 0 32.033 3.44782 28.965 8.87932C27.9002 8.38706 26.74 8.12916 25.5484 8.12916C22.7021 8.12916 20.0775 9.63072 18.6131 12.0264C17.4646 11.7524 16.2858 11.6129 15.0967 11.6129C6.77277 11.6129 0 18.3857 0 26.7098C0 33.2839 4.2572 39.0486 10.4515 41.0494V72H61.5483V41.5882C67.5743 40.4895 72 35.2708 72 29.0324ZM59.2257 32.5161H51.0968V25.5484H59.2257V32.5161ZM48.7742 32.5161H12.7743V25.5484H48.7742V32.5161ZM12.7743 69.6774V34.8387H59.2259V69.6774H12.7743ZM61.5483 39.2156V23.2258H10.4517V38.5838C5.60095 36.6943 2.32283 32.0132 2.32283 26.7096C2.32283 19.6663 8.05384 13.9352 15.0969 13.9352C16.379 13.9352 17.6437 14.1258 18.8606 14.5008L19.8397 14.8016L20.2613 13.8691C21.2008 11.7928 23.2761 10.4515 25.5486 10.4515C26.7123 10.4515 27.8341 10.7941 28.7933 11.4432L29.9138 12.1993L30.4921 10.9765C32.9819 5.71937 38.3353 2.32258 44.129 2.32258C52.4532 2.32258 59.2257 9.0951 59.2282 17.3474L59.2225 18.5308L60.2687 18.6342C65.6338 19.1648 69.6774 23.6358 69.6774 29.0324C69.6774 33.9897 66.2608 38.1565 61.5483 39.2156Z" fill="#333333"/>
<path d="M36.0001 41.8064H19.7421V53.4193H36.0001V41.8064ZM33.6776 51.0967H22.0646V44.129H33.6776V51.0967Z" fill="#333333"/>
<path d="M52.2582 41.8064H38.3227V44.129H52.2582V41.8064Z" fill="#333333"/>
<path d="M52.2582 46.4517H38.3227V48.7742H52.2582V46.4517Z" fill="#333333"/>
<path d="M52.2582 51.0968H38.3227V53.4194H52.2582V51.0968Z" fill="#333333"/>
<path d="M15.0969 68.5162H26.7098V60.3871H15.0969V68.5162ZM17.4195 62.7097H24.3872V66.1937H17.4195V62.7097Z" fill="#333333"/>
<path d="M29.0324 68.5162H42.9679V60.3871H29.0324V68.5162ZM31.355 62.7097H40.6453V66.1937H31.355V62.7097Z" fill="#333333"/>
<path d="M45.2902 68.5162H56.9031V60.3871H45.2902V68.5162ZM47.6128 62.7097H54.5805V66.1937H47.6128V62.7097Z" fill="#333333"/>
</svg>
