<svg width="72" height="72" viewBox="0 0 72 72" fill="none" xmlns="http://www.w3.org/2000/svg">
<path d="M54.3746 29.25L55.125 40.5L52.875 42.75L50.625 40.5L51.3754 29.25H54.3746Z" fill="#F0BC5E"/>
<path d="M16.875 28.125C10.6718 28.125 5.625 23.0783 5.625 16.875C5.625 10.6718 10.6718 5.625 16.875 5.625C23.0783 5.625 28.125 10.6718 28.125 16.875C28.125 23.0783 23.0783 28.125 16.875 28.125ZM16.875 13.5C15.0142 13.5 13.5 15.0142 13.5 16.875C13.5 18.7358 15.0142 20.25 16.875 20.25C18.7358 20.25 20.25 18.7358 20.25 16.875C20.25 15.0142 18.7358 13.5 16.875 13.5Z" fill="#F0BC5E"/>
<path d="M70.6016 45.225L65.7416 33.075C64.539 30.0679 61.6691 28.125 58.4302 28.125H58.3751C59.8387 26.694 60.75 24.7027 60.75 22.5C60.75 18.1586 57.2175 14.625 52.875 14.625C48.9386 14.625 45.6772 17.532 45.1001 21.3086L42.8569 16.8233L45.5366 10.125H37.6132L34.7794 14.8489C34.3969 14.7173 34.0009 14.625 33.5891 14.625H32.9467C32.7836 14.625 32.6272 14.6531 32.4697 14.6734C31.3999 6.966 24.8164 1.125 16.875 1.125C8.19 1.125 1.125 8.19 1.125 16.875C1.125 25.1798 7.59038 31.9871 15.75 32.5676V38.9092L14.2954 37.4546L12.7046 39.0454L16.875 43.2158L21.0454 39.0454L19.4546 37.4546L18 38.9092V32.5778C24.0818 32.1525 29.2815 28.3095 31.4966 22.7227L36.3094 29.6741C38.4053 32.7004 41.4653 34.8401 45 35.7694V46.9384L42.426 51.228C41.9018 52.1021 41.625 53.1034 41.625 54.1215V66.9375C41.625 69.1087 43.3913 70.875 45.5625 70.875C47.7337 70.875 49.5 69.1087 49.5 66.9375V54.1755L52.1618 49.8521L57.9791 68.2729C58.4707 69.8299 59.8973 70.875 61.5285 70.875C63.5805 70.875 65.25 69.2055 65.25 67.1524V66.7485C65.25 66.3952 65.1994 66.042 65.0993 65.6977L59.625 47.088V38.925L63.5198 48.2726C64.116 49.7014 65.502 50.625 67.05 50.625C69.1594 50.625 70.875 48.9094 70.875 46.8V46.6448C70.875 46.1543 70.7828 45.6772 70.6016 45.225ZM52.875 16.875C55.9766 16.875 58.5 19.3984 58.5 22.5C58.5 25.6016 55.9766 28.125 52.875 28.125C49.7734 28.125 47.25 25.6016 47.25 22.5C47.25 19.3984 49.7734 16.875 52.875 16.875ZM45 22.5C45 24.6397 45.8606 26.5815 47.2523 28.0024C45.918 27.7279 44.703 26.9786 43.875 25.875L41.3438 22.5H45ZM40.9297 18L42.0547 20.25H39.6562L37.9688 18H40.9297ZM38.8868 12.375H42.2134L40.8634 15.75H36.8617L38.8868 12.375ZM16.875 30.375C9.43087 30.375 3.375 24.3191 3.375 16.875C3.375 9.43087 9.43087 3.375 16.875 3.375C23.9355 3.375 29.7315 8.76488 30.312 15.7354C30.3075 15.7399 30.3041 15.7455 30.2996 15.75H21.2141C20.7113 13.8139 18.9641 12.375 16.8739 12.375C14.3921 12.375 12.3739 14.3932 12.3739 16.875C12.3739 19.3568 14.3921 21.375 16.8739 21.375C18.9641 21.375 20.7113 19.9361 21.2141 18H29.2815C29.2736 18.108 29.25 18.2115 29.25 18.3217C29.25 19.0699 29.475 19.791 29.8958 20.4064C28.3084 26.2969 23.0276 30.375 16.875 30.375ZM18.8123 18C18.4219 18.6694 17.7041 19.125 16.875 19.125C15.6341 19.125 14.625 18.1159 14.625 16.875C14.625 15.6341 15.6341 14.625 16.875 14.625C17.7041 14.625 18.4219 15.0806 18.8123 15.75H16.875V18H18.8123ZM68.625 46.8C68.625 47.6685 67.9185 48.375 67.05 48.375C66.4121 48.375 65.8418 47.9948 65.5965 47.4064L60.3754 34.875H57.375V47.25L62.9392 66.3323C62.9797 66.4684 63 66.6079 63 66.7485V67.1524C63 67.9646 62.3396 68.625 61.5285 68.625C60.8839 68.625 60.3191 68.2121 60.1245 67.5967L53.6996 47.25H51.1211L47.583 52.9965C47.3659 53.352 47.25 53.7592 47.25 54.1755V66.9375C47.25 67.8679 46.4929 68.625 45.5625 68.625C44.6321 68.625 43.875 67.8679 43.875 66.9375V54.1215C43.875 53.5106 44.0415 52.9099 44.3554 52.3845L47.25 47.5616V33.9536L46.3455 33.7725C43.0054 33.1042 40.0984 31.194 38.16 28.3939L31.7565 19.1453C31.5889 18.9023 31.5 18.6176 31.5 18.3217C31.5 17.5241 32.1491 16.875 32.9467 16.875H33.5891C34.0414 16.875 34.4745 17.091 34.7467 17.4533L42.075 27.225C43.5544 29.1971 45.9101 30.375 48.375 30.375H58.4302C60.7432 30.375 62.793 31.7621 63.6525 33.9109L68.5125 46.0631C68.5868 46.2487 68.625 46.4445 68.625 46.6459V46.8Z" fill="black"/>
<path d="M31.5 43.875H6.75C3.64838 43.875 1.125 46.3984 1.125 49.5V65.25C1.125 68.3516 3.64838 70.875 6.75 70.875H31.5C34.6016 70.875 37.125 68.3516 37.125 65.25V49.5C37.125 46.3984 34.6016 43.875 31.5 43.875ZM34.875 65.25C34.875 67.1108 33.3607 68.625 31.5 68.625H6.75C4.88925 68.625 3.375 67.1108 3.375 65.25V49.5C3.375 47.6393 4.88925 46.125 6.75 46.125H31.5C33.3607 46.125 34.875 47.6393 34.875 49.5V65.25Z" fill="black"/>
<path d="M9.46575 50.625H12.375V48.375H5.625V55.125H7.875V52.2158L8.45437 52.7951C14.3089 58.6508 22.095 61.875 30.375 61.875V59.625C22.6957 59.625 15.4755 56.6347 10.0451 51.2044L9.46575 50.625Z" fill="black"/>
<path d="M25.875 48.375C23.3932 48.375 21.375 50.3932 21.375 52.875C21.375 55.3568 23.3932 57.375 25.875 57.375C28.3568 57.375 30.375 55.3568 30.375 52.875C30.375 50.3932 28.3568 48.375 25.875 48.375ZM25.875 55.125C24.6341 55.125 23.625 54.1159 23.625 52.875C23.625 51.6341 24.6341 50.625 25.875 50.625C27.1159 50.625 28.125 51.6341 28.125 52.875C28.125 54.1159 27.1159 55.125 25.875 55.125Z" fill="black"/>
<path d="M13.8296 58.8296L11.25 61.4092L8.67039 58.8296L7.07964 60.4203L9.65926 63L7.07964 65.5796L8.67039 67.1703L11.25 64.5907L13.8296 67.1703L15.4204 65.5796L12.8408 63L15.4204 60.4203L13.8296 58.8296Z" fill="black"/>
</svg>
