<svg width="26" height="26" viewBox="0 0 26 26" fill="none" xmlns="http://www.w3.org/2000/svg">
<path d="M25.1102 7.0361L18.4864 0.153258C18.3921 0.0553516 18.262 0 18.1261 0H8.25371C7.14886 0 6.24999 0.898524 6.24999 2.00291V9.00001H2.24908C1.42247 9.00001 0.749969 9.67231 0.749969 10.4987V18.0013C0.749969 18.8277 1.42247 19.5 2.24908 19.5H6.24999V24.0006C6.24999 25.1031 7.14886 26 8.25371 26H23.2463C24.3511 26 25.25 25.1036 25.25 24.0017V7.38283C25.25 7.25354 25.1999 7.12928 25.1102 7.0361ZM18.25 1.34982L23.6876 6.99999H18.25V1.34982ZM2.24908 18.5C1.97385 18.5 1.75 18.2763 1.75 18.0013V10.4987C1.75 10.2237 1.9739 10 2.24908 10H15.7509C16.0261 10 16.25 10.2237 16.25 10.4987V18.0013C16.25 18.2763 16.0261 18.5 15.7509 18.5H2.24908ZM24.25 24.0017C24.25 24.5522 23.7997 25 23.2462 25H8.25371C7.70025 25 7.24997 24.5517 7.24997 24.0006V19.5H15.7509C16.5775 19.5 17.25 18.8277 17.25 18.0013V10.4987C17.25 9.67231 16.5775 9.00001 15.7509 9.00001H7.24997V2.00291C7.24997 1.44986 7.70025 0.999984 8.25371 0.999984H17.25V7.49998C17.25 7.77613 17.4739 7.99998 17.75 7.99998H24.25V24.0017Z" fill="white"/>
<path d="M6.72755 12.6899C6.56155 12.4741 6.35548 12.3339 6.10939 12.2695C5.94923 12.2265 5.60549 12.205 5.07813 12.205H3.68652V16.5H4.55371V14.8798H5.11916C5.51175 14.8798 5.81156 14.8593 6.0186 14.8183C6.17094 14.7851 6.32085 14.7172 6.46831 14.6147C6.61578 14.5121 6.73735 14.371 6.83308 14.1914C6.9288 14.0117 6.97663 13.79 6.97663 13.5263C6.97658 13.1845 6.89356 12.9057 6.72755 12.6899ZM5.98488 13.872C5.91947 13.9678 5.82913 14.038 5.71386 14.083C5.59859 14.1279 5.37012 14.1504 5.02831 14.1504H4.55371V12.9316H4.97266C5.28516 12.9316 5.49316 12.9414 5.59666 12.9609C5.73727 12.9863 5.85351 13.0498 5.94527 13.1514C6.03708 13.2529 6.08299 13.3818 6.08299 13.5381C6.08304 13.665 6.05028 13.7763 5.98488 13.872Z" fill="white"/>
<path d="M11.1455 13.3784C11.0518 13.104 10.915 12.8721 10.7354 12.6826C10.5557 12.4931 10.3398 12.3613 10.0879 12.2871C9.90042 12.2324 9.62793 12.205 9.27053 12.205H7.68555V16.5H9.3174C9.63773 16.5 9.89357 16.4697 10.085 16.4091C10.3408 16.3271 10.544 16.2128 10.6943 16.0663C10.8936 15.873 11.0469 15.6201 11.1543 15.3076C11.2422 15.0517 11.2861 14.747 11.2861 14.3935C11.2861 13.9912 11.2393 13.6528 11.1455 13.3784ZM10.3017 15.1421C10.2431 15.3345 10.1675 15.4727 10.0747 15.5566C9.98193 15.6406 9.86523 15.7002 9.72462 15.7353C9.61722 15.7627 9.44238 15.7763 9.2002 15.7763H8.55274V12.9316H8.94238C9.29587 12.9316 9.53322 12.9453 9.65429 12.9727C9.81638 13.0078 9.95019 13.0752 10.0557 13.1748C10.1611 13.2744 10.2431 13.4131 10.3017 13.5908C10.3603 13.7685 10.3896 14.0234 10.3896 14.3555C10.3896 14.6875 10.3603 14.9497 10.3017 15.1421Z" fill="white"/>
<path d="M14.9717 12.9316V12.205H12.0273V16.5H12.8945V14.6748H14.6875V13.9482H12.8945V12.9316H14.9717Z" fill="white"/>
</svg>
