<svg width="70" height="70" viewBox="0 0 70 70" fill="none" xmlns="http://www.w3.org/2000/svg">
<path d="M29.4525 24.4683C28.84 24.2233 28.4375 23.6294 28.4375 22.9688C28.4375 22.3081 28.84 21.7142 29.4525 21.4692L29.5312 21.4375V18.5938H18.5938V29.5312H29.5312V24.5L29.4525 24.4683Z" fill="#F9BA48"/>
<path d="M16.4062 29.5312H5.46875V18.5938H16.4062V29.5312Z" fill="#F9BA48"/>
<path d="M16.4062 42.6562H5.46875V31.7188H16.4062V42.6562Z" fill="#F9BA48"/>
<path d="M51.4062 30.1722V27.3438H64.5312C66.9441 27.3438 68.9062 25.3816 68.9062 22.9688C68.9062 20.5559 66.9441 18.5938 64.5312 18.5938H51.4062V8.75C51.4062 6.94094 49.9341 5.46875 48.125 5.46875H42.6562V4.375C42.6562 2.56594 41.1841 1.09375 39.375 1.09375H37.1875C35.3784 1.09375 33.9062 2.56594 33.9062 4.375V5.46875H18.5938V4.375C18.5938 2.56594 17.1216 1.09375 15.3125 1.09375H13.125C11.3159 1.09375 9.84375 2.56594 9.84375 4.375V5.46875H4.375C2.56594 5.46875 1.09375 6.94094 1.09375 8.75V43.75C1.09375 45.5591 2.56594 47.0312 4.375 47.0312H21.4222L24.0625 49.6716L25.3389 48.3952C25.7042 50.3519 26.6284 52.1533 28.0273 53.6189C27.5909 54.2052 27.3438 54.9052 27.3438 55.6489C27.3438 57.4908 28.8116 58.9859 30.637 59.0505C30.7005 60.8355 32.1333 62.2683 33.9183 62.3317C33.9817 64.1167 35.4145 65.5495 37.1995 65.613C37.2641 67.4384 38.7603 68.9062 40.6011 68.9062C41.5133 68.9062 42.3708 68.5508 43.015 67.9066L43.2031 67.7184L43.3913 67.9066C44.0355 68.5508 44.893 68.9062 45.8052 68.9062C47.647 68.9062 49.1422 67.4384 49.2067 65.613C50.9917 65.5495 52.4245 64.1167 52.488 62.3317C54.273 62.2683 55.7058 60.8355 55.7692 59.0505C57.5947 58.9859 59.0625 57.4897 59.0625 55.6489C59.0625 54.7367 58.707 53.8792 58.0628 53.235L57.8353 53.0075C58.9302 51.6644 59.6575 50.0861 59.9736 48.3952L61.25 49.6716L68.2653 42.6562L53.5938 27.9847L51.4062 30.1722ZM32.8125 24.6345L29.8594 23.4533C29.6603 23.3734 29.5312 23.1831 29.5312 22.9688C29.5312 22.7544 29.6603 22.5641 29.8594 22.4842L32.8125 21.303V24.6345ZM35 20.7812H55.7812V25.1562H35V20.7812ZM57.9688 20.7812H60.1562V25.1562H57.9688V20.7812ZM66.7188 22.9688C66.7188 24.1752 65.7377 25.1562 64.5312 25.1562H62.3438V20.7812H64.5312C65.7377 20.7812 66.7188 21.7623 66.7188 22.9688ZM36.0938 4.375C36.0938 3.77234 36.5848 3.28125 37.1875 3.28125H39.375C39.9777 3.28125 40.4688 3.77234 40.4688 4.375V8.75C40.4688 9.35266 39.9777 9.84375 39.375 9.84375H37.1875C36.5848 9.84375 36.0938 9.35266 36.0938 8.75V4.375ZM12.0312 4.375C12.0312 3.77234 12.5223 3.28125 13.125 3.28125H15.3125C15.9152 3.28125 16.4062 3.77234 16.4062 4.375V8.75C16.4062 9.35266 15.9152 9.84375 15.3125 9.84375H13.125C12.5223 9.84375 12.0312 9.35266 12.0312 8.75V4.375ZM4.375 7.65625H9.84375V8.75C9.84375 10.5591 11.3159 12.0312 13.125 12.0312H15.3125C17.1216 12.0312 18.5938 10.5591 18.5938 8.75V7.65625H33.9062V8.75C33.9062 10.5591 35.3784 12.0312 37.1875 12.0312H39.375C41.1841 12.0312 42.6562 10.5591 42.6562 8.75V7.65625H48.125C48.7277 7.65625 49.2188 8.14734 49.2188 8.75V14.2188H3.28125V8.75C3.28125 8.14734 3.77234 7.65625 4.375 7.65625ZM4.375 44.8438C3.77234 44.8438 3.28125 44.3527 3.28125 43.75V16.4062H49.2188V18.5938H33.6963L29.0478 20.4531C28.012 20.8677 27.3438 21.8542 27.3438 22.9688C27.3438 24.0833 28.012 25.0698 29.0467 25.4844L33.6952 27.3438H49.2188V32.3597L46.5784 35L47.8548 36.2764C45.9091 36.6406 44.1175 37.5572 42.6552 38.943C41.195 37.5616 39.3859 36.6483 37.4511 36.283L38.7341 35L31.7188 27.9847L17.0472 42.6562L19.2347 44.8438H4.375ZM20.1403 42.6562L31.7188 31.0778L35.6409 35L24.0625 46.5784L20.1403 42.6562ZM29.5312 55.6489C29.5312 55.3208 29.6592 55.0134 29.89 54.7816L30.7191 53.9525C30.9509 53.7217 31.2583 53.5938 31.5864 53.5938C32.2623 53.5938 32.8125 54.1439 32.8125 54.8198C32.8125 55.148 32.6845 55.4553 32.4538 55.6872L31.6247 56.5163C31.3928 56.747 31.0855 56.875 30.7573 56.875C30.0814 56.875 29.5312 56.3248 29.5312 55.6489ZM32.8125 58.9302C32.8125 58.602 32.9405 58.2947 33.1712 58.0628L34.0003 57.2337C34.2322 57.003 34.5395 56.875 34.8677 56.875C35.5436 56.875 36.0938 57.4252 36.0938 58.1011C36.0938 58.4292 35.9658 58.7366 35.735 58.9684L34.9059 59.7975C34.6741 60.0283 34.3667 60.1562 34.0386 60.1562C33.3627 60.1562 32.8125 59.6061 32.8125 58.9302ZM36.0938 62.2114C36.0938 61.8833 36.2217 61.5759 36.4525 61.3441L37.2816 60.515C37.5134 60.2842 37.8208 60.1562 38.1489 60.1562C38.8248 60.1562 39.375 60.7064 39.375 61.3823C39.375 61.7105 39.247 62.0178 39.0163 62.2497L38.1872 63.0788C37.9553 63.3095 37.648 63.4375 37.3198 63.4375C36.6439 63.4375 36.0938 62.8873 36.0938 62.2114ZM41.4684 66.36C41.2366 66.5908 40.9292 66.7188 40.6011 66.7188C39.9252 66.7188 39.375 66.1686 39.375 65.4927C39.375 65.1645 39.503 64.8572 39.7337 64.6253L40.5628 63.7962C40.7947 63.5655 41.102 63.4375 41.4302 63.4375C42.1061 63.4375 42.6562 63.9877 42.6562 64.6636C42.6562 64.9917 42.5283 65.2991 42.2975 65.5309L41.4684 66.36ZM55.6489 56.875C55.3208 56.875 55.0134 56.747 54.7816 56.5163L52.1795 53.9142L50.633 55.4608L53.235 58.0628C53.4658 58.2947 53.5938 58.602 53.5938 58.9302C53.5938 59.6061 53.0436 60.1562 52.3677 60.1562C52.0395 60.1562 51.7322 60.0283 51.5003 59.7975L48.8983 57.1955L47.3517 58.742L49.9538 61.3441C50.1845 61.5759 50.3125 61.8833 50.3125 62.2114C50.3125 62.8873 49.7623 63.4375 49.0864 63.4375C48.7583 63.4375 48.4509 63.3095 48.2191 63.0788L45.617 60.4767L44.0705 62.0233L46.6725 64.6253C46.9033 64.8572 47.0312 65.1645 47.0312 65.4927C47.0312 66.1686 46.4811 66.7188 45.8052 66.7188C45.477 66.7188 45.1697 66.5908 44.9378 66.36L44.5725 65.9947C44.7486 65.5791 44.8438 65.1295 44.8438 64.6636C44.8438 62.8217 43.3759 61.3266 41.5505 61.262C41.487 59.477 40.0542 58.0442 38.2692 57.9808C38.2058 56.1958 36.773 54.763 34.988 54.6995C34.9234 52.8741 33.4272 51.4062 31.5864 51.4062C30.8503 51.4062 30.1569 51.6469 29.5761 52.0745C28.1389 50.5498 27.3438 48.5723 27.3438 46.468C27.3438 46.4406 27.3459 46.4144 27.3459 46.3881L35.4408 38.2933C37.5233 38.2747 39.5544 39.0458 41.0988 40.4797L35.7733 45.8052C35.2745 46.3039 35 46.9667 35 47.6722C35 49.128 36.1845 50.3125 37.6403 50.3125H41.7495C42.6256 50.3125 43.4503 49.9712 44.0705 49.3511L45.2966 48.125H46.1245C47.2172 48.125 48.2759 47.9161 49.2625 47.5278L56.5163 54.7816C56.747 55.0134 56.875 55.3208 56.875 55.6489C56.875 56.3248 56.3248 56.875 55.6489 56.875V56.875ZM57.9688 46.468C57.9688 48.2934 57.3683 50.0227 56.2734 51.4445L51.2444 46.4155C51.5703 46.1705 51.8864 45.9102 52.1806 45.617L50.6341 44.0705C49.4287 45.2747 47.8286 45.9375 46.1245 45.9375H44.3909L42.5239 47.8045C42.3172 48.0113 42.0416 48.125 41.7495 48.125H37.6403C37.3909 48.125 37.1875 47.9216 37.1875 47.6722C37.1875 47.553 37.2356 47.4359 37.3198 47.3517L43.9928 40.6788C45.5602 39.1125 47.6962 38.2769 49.8728 38.2933L57.9666 46.387C57.9666 46.4155 57.9688 46.4417 57.9688 46.468V46.468ZM61.25 46.5784L49.6716 35L53.5938 31.0778L65.1722 42.6562L61.25 46.5784Z" fill="white"/>
</svg>
