<svg width="70" height="70" viewBox="0 0 70 70" fill="none" xmlns="http://www.w3.org/2000/svg">
<path d="M35.0006 59.8165C21.3165 59.8165 10.1839 48.684 10.1839 34.9998C10.1839 21.3157 21.3165 10.1832 35.0006 10.1832C48.6847 10.1832 59.8173 21.3157 59.8173 34.9998C59.8173 48.684 48.6847 59.8165 35.0006 59.8165ZM35.0006 14.6953C23.805 14.6953 14.6961 23.8042 14.6961 34.9998C14.6961 46.1954 23.805 55.3044 35.0006 55.3044C46.1962 55.3044 55.3052 46.1954 55.3052 34.9998C55.3052 23.8042 46.1962 14.6953 35.0006 14.6953Z" fill="#F9BA48"/>
<path d="M64.3294 35.0007C64.3294 33.822 64.2584 32.6385 64.1184 31.4699L70 29.559L66.5154 18.8302L60.6271 20.7421C59.4753 18.6733 58.0844 16.7602 56.4793 15.0321L60.1183 10.0262L50.9925 3.39442L47.3535 8.40179C45.2091 7.40359 42.9588 6.6713 40.6406 6.21792V0.0318604H29.3603V6.21792C27.0422 6.67034 24.7919 7.40359 22.6475 8.40179L19.0096 3.39562L9.88263 10.0262L13.5217 15.0323C11.9166 16.7594 10.5256 18.6735 9.37391 20.7424L3.48673 18.8305L0.00120323 29.5592L5.88381 31.4702C5.74279 32.6388 5.6718 33.822 5.6718 35.0009C5.6718 36.1799 5.74279 37.3631 5.88285 38.5317L0 40.4424L3.48553 51.1712L9.3727 49.2592C10.5244 51.3281 11.9154 53.2412 13.5205 54.9693L9.88263 59.9755L19.0084 66.6072L22.6463 61.601C24.7907 62.5993 27.041 63.3315 29.3591 63.7849V69.97H40.6394V63.784C42.9576 63.3315 45.2079 62.5983 47.3523 61.6001L50.9901 66.6063L60.1159 59.9745L56.4769 54.9683C58.082 53.2412 59.4729 51.3271 60.6246 49.2583L66.513 51.1702L69.9976 40.4415L64.116 38.5305C64.2582 37.3629 64.3294 36.1796 64.3294 35.0007ZM67.1584 41.8897L65.067 48.3284L59.516 46.5236L59.0761 47.3764C57.8002 49.8536 56.1635 52.1063 54.2121 54.0736L53.5354 54.7549L56.9668 59.4781L51.4914 63.4567L48.06 58.7325L47.2028 59.1669C44.721 60.4236 42.0737 61.2841 39.3337 61.7264L38.3851 61.8776V67.714H31.6169V61.8776L30.6682 61.724C27.9282 61.282 25.2809 60.4224 22.7991 59.1645L21.9417 58.7301L18.5103 63.4543L13.0349 59.4757L16.4662 54.7525L15.7893 54.0712C13.8379 52.1051 12.201 49.8524 10.9254 47.374L10.4855 46.5212L4.93446 48.326L2.843 41.8873L8.38846 40.0858L8.24287 39.1381C8.03423 37.779 7.9281 36.3868 7.9281 35.0005C7.9281 33.6141 8.03423 32.2222 8.24287 30.8594L8.38846 29.9117L2.843 28.1103L4.93446 21.6715L10.4855 23.4764L10.9254 22.6235C12.2008 20.1468 13.8377 17.8941 15.7891 15.9268L16.466 15.2455L13.0344 10.5226L18.5098 6.544L21.9412 11.2681L22.7986 10.8338C25.2804 9.57711 27.9278 8.71655 30.6678 8.27425L31.6164 8.12432V2.28792H38.3846V8.12432L39.3332 8.27762C42.0732 8.71992 44.7206 9.57927 47.2023 10.8371L48.0595 11.2715L51.4909 6.54737L56.9663 10.526L53.535 15.2491L54.2117 15.9304C56.1631 17.8965 57.7999 20.1492 59.0756 22.6276L59.5155 23.4805L65.0665 21.6756L67.158 28.1144L61.6115 29.9158L61.7571 30.8635C61.967 32.2227 62.0731 33.6148 62.0731 35.0012C62.0731 36.3875 61.967 37.7794 61.7583 39.1422L61.6127 40.0899L67.1584 41.8897Z" fill="white"/>
<path d="M43.2239 21.5424L39.9639 23.688L41.2047 25.5718L46.4546 22.1166L45.6932 15.7228L43.453 15.989L43.8479 19.3053C36.9084 15.3944 28.0059 16.4705 22.2393 22.2371C15.8773 28.5994 15.2004 38.7864 20.6645 45.9348L22.4569 44.5643C17.6762 38.3107 18.2696 29.3981 23.8353 23.8321C29.0128 18.6546 37.0884 17.7873 43.2239 21.5424Z" fill="white"/>
<path d="M47.5452 25.4354C52.3259 31.689 51.7325 40.6016 46.1668 46.1676C40.9869 51.3463 32.9113 52.2138 26.776 48.4585L30.0372 46.3119L28.7965 44.4282L23.5465 47.8834L24.3079 54.2771L26.5481 54.0109L26.1532 50.7001C28.8999 52.2477 31.9501 53.025 34.997 53.025C39.6479 53.025 44.2785 51.2462 47.7606 47.7628C54.1226 41.4006 54.7995 31.2135 49.3354 24.0651L47.5452 25.4354Z" fill="white"/>
</svg>
