<svg width="70" height="70" viewBox="0 0 70 70" fill="none" xmlns="http://www.w3.org/2000/svg">
<path d="M40.4239 49.2023L35 67.8125H37.1875L41.5625 60.1562L40.4688 57.9687L42.6563 55.7812L43.5083 50.9512L40.4239 49.2023Z" fill="#F9BA48"/>
<path d="M29.5739 49.1969L35 67.8125H32.8125L28.4375 60.1562L29.5313 57.9687L27.3438 55.7812L26.4917 50.9512L29.5739 49.1969Z" fill="#F9BA48"/>
<path d="M36.4678 15.4022L37.1875 25.1563L35 27.3438L32.8125 25.1563L33.5322 15.4011L36.4678 15.4022Z" fill="#F9BA48"/>
<path d="M55.0616 21.9647L55.7812 30.625L53.5938 32.8125L51.4062 30.625L52.1259 21.9636L55.0616 21.9647Z" fill="#F9BA48"/>
<path d="M17.8741 21.9647L18.5938 30.625L16.4062 32.8125L14.2188 30.625L14.9384 21.9636L17.8741 21.9647Z" fill="#F9BA48"/>
<path d="M58.0037 21.56C59.9638 20.172 61.25 17.8916 61.25 15.3125C61.25 11.0906 57.8145 7.65625 53.5938 7.65625C49.373 7.65625 45.9375 11.0906 45.9375 15.3125C45.9375 17.8916 47.2237 20.172 49.1838 21.56C48.487 21.8094 47.8155 22.1091 47.1789 22.4678C45.7691 18.9503 42.9067 16.2487 39.4155 14.9942C41.3722 13.6062 42.6562 11.3269 42.6562 8.75C42.6562 4.52813 39.2208 1.09375 35 1.09375C30.7792 1.09375 27.3438 4.52813 27.3438 8.75C27.3438 11.3269 28.6278 13.6062 30.5845 14.9942C27.0922 16.2487 24.2309 18.9503 22.8211 22.4678C22.1845 22.1091 21.513 21.8094 20.8162 21.56C22.7762 20.172 24.0625 17.8916 24.0625 15.3125C24.0625 11.0906 20.627 7.65625 16.4062 7.65625C12.1855 7.65625 8.75 11.0906 8.75 15.3125C8.75 17.8916 10.0363 20.172 11.9963 21.56C6.92453 23.3778 3.28125 28.2177 3.28125 33.9062V42.6562C3.28125 45.0691 5.24344 47.0312 7.65625 47.0312H8.75V64.5312C8.75 66.9441 10.7122 68.9062 13.125 68.9062C14.4386 68.9062 15.6034 68.3134 16.4062 67.3947C17.2091 68.3134 18.3739 68.9062 19.6875 68.9062H20.7812H49.2188H50.3125C51.6261 68.9062 52.7909 68.3134 53.5938 67.3947C54.3966 68.3134 55.5614 68.9062 56.875 68.9062C59.2878 68.9062 61.25 66.9441 61.25 64.5312V47.0312H62.3438C64.7566 47.0312 66.7188 45.0691 66.7188 42.6562V33.9062C66.7188 28.2177 63.0755 23.3778 58.0037 21.56ZM48.125 15.3125C48.125 12.297 50.5783 9.84375 53.5938 9.84375C56.6092 9.84375 59.0625 12.297 59.0625 15.3125C59.0625 18.328 56.6092 20.7812 53.5938 20.7812C50.5783 20.7812 48.125 18.328 48.125 15.3125ZM29.5312 8.75C29.5312 5.73453 31.9845 3.28125 35 3.28125C38.0155 3.28125 40.4688 5.73453 40.4688 8.75C40.4688 11.7655 38.0155 14.2188 35 14.2188C31.9845 14.2188 29.5312 11.7655 29.5312 8.75ZM35 16.4062C39.6583 16.4062 43.7992 19.3856 45.3195 23.7289C42.4233 26.0881 40.5563 29.657 40.4808 33.658C38.9802 32.4472 37.0748 31.7188 35 31.7188C32.9252 31.7188 31.0198 32.4472 29.5192 33.658C29.4438 29.657 27.5767 26.0881 24.6805 23.7289C26.2019 19.3845 30.3417 16.4062 35 16.4062ZM44.8438 47.0312H45.9375V51.648C44.2356 49.9089 42.1258 48.5756 39.7622 47.7991C40.5683 47.273 41.2803 46.6189 41.8742 45.8642C42.6672 46.5981 43.7183 47.0312 44.8438 47.0312ZM24.0625 47.0312H25.1562C26.2828 47.0312 27.3328 46.5992 28.1258 45.8653C28.7197 46.62 29.4317 47.2741 30.2378 47.7991C27.8742 48.5745 25.7644 49.9078 24.0625 51.648V47.0312ZM41.5625 40.4688C41.5625 44.088 38.6192 47.0312 35 47.0312C31.3808 47.0312 28.4375 44.088 28.4375 40.4688C28.4375 36.8495 31.3808 33.9062 35 33.9062C38.6192 33.9062 41.5625 36.8495 41.5625 40.4688ZM35 49.2188C36.4273 49.2188 37.8 49.455 39.0873 49.8794L35 63.9034L30.9116 49.8794C32.2 49.455 33.5716 49.2188 35 49.2188ZM10.9375 15.3125C10.9375 12.297 13.3908 9.84375 16.4062 9.84375C19.4217 9.84375 21.875 12.297 21.875 15.3125C21.875 18.328 19.4217 20.7812 16.4062 20.7812C13.3908 20.7812 10.9375 18.328 10.9375 15.3125ZM17.5 64.5312V41.5625H15.3125V64.5312C15.3125 65.7377 14.3314 66.7188 13.125 66.7188C11.9186 66.7188 10.9375 65.7377 10.9375 64.5312V29.5312H8.75V44.8438H7.65625C6.44984 44.8438 5.46875 43.8627 5.46875 42.6562V33.9062C5.46875 27.8753 10.3753 22.9688 16.4062 22.9688C22.4372 22.9688 27.3438 27.8753 27.3438 33.9062V36.2425C26.6481 37.497 26.25 38.9364 26.25 40.4688C26.25 41.6795 26.4972 42.8323 26.9434 43.8823C26.5409 44.4697 25.888 44.8438 25.1562 44.8438H24.0625V29.5312H21.875V54.4972C20.4958 56.7952 19.6875 59.4738 19.6875 62.3438V66.7188C18.4811 66.7188 17.5 65.7377 17.5 64.5312ZM21.875 62.3438C21.875 57.3147 24.7209 52.943 28.8838 50.7402L33.542 66.7188H27.3438V61.25H25.1562V66.7188H21.875V62.3438ZM48.125 66.7188H44.8438V61.25H42.6562V66.7188H36.458L41.1152 50.7391C45.2791 52.943 48.125 57.3147 48.125 62.3438V66.7188ZM64.5312 42.6562C64.5312 43.8627 63.5502 44.8438 62.3438 44.8438H61.25V29.5312H59.0625V64.5312C59.0625 65.7377 58.0814 66.7188 56.875 66.7188C55.6686 66.7188 54.6875 65.7377 54.6875 64.5312V41.5625H52.5V64.5312C52.5 65.7377 51.5189 66.7188 50.3125 66.7188V62.3438C50.3125 59.4738 49.5042 56.7952 48.125 54.4972V29.5312H45.9375V44.8438H44.8438C44.1131 44.8438 43.4591 44.4697 43.0566 43.8823C43.5028 42.8323 43.75 41.6795 43.75 40.4688C43.75 38.9364 43.3519 37.4959 42.6562 36.2425V33.9062C42.6562 27.8753 47.5628 22.9688 53.5938 22.9688C59.6247 22.9688 64.5312 27.8753 64.5312 33.9062V42.6562Z" fill="white"/>
</svg>
