<svg width="70" height="70" viewBox="0 0 70 70" fill="none" xmlns="http://www.w3.org/2000/svg">
<path d="M55.0758 28.0525C54.1844 25.6539 51.8962 24.0625 49.3369 24.0625C46.6627 24.0625 44.298 25.7983 43.4962 28.3489L39.5139 41.0189C40.1636 42.5862 40.9445 43.75 42.1028 43.75C45.6575 43.75 45.6575 32.8125 49.2111 32.8125C52.768 32.8125 52.768 43.75 56.3248 43.75C57.7905 43.75 58.6512 41.8939 59.407 39.7108L55.0758 28.0525Z" fill="#F9BA48"/>
<path d="M20.7812 17.5C20.7812 14.2811 23.1011 11.6091 26.1581 11.0502L26.1614 11.0458C25.6977 8.49625 23.4653 6.5625 20.7812 6.5625C20.2934 6.5625 19.8308 6.64672 19.3802 6.76594C18.5391 4.11141 16.0573 2.1875 13.125 2.1875C9.50031 2.1875 6.5625 5.12531 6.5625 8.75C6.5625 9.12297 6.59313 9.48938 6.65328 9.84484L6.66203 9.85359C6.62813 9.8525 6.59641 9.84375 6.5625 9.84375C4.14641 9.84375 2.1875 11.8027 2.1875 14.2188C2.1875 16.6348 4.14641 18.5938 6.5625 18.5938H20.8731L20.8786 18.5861C20.8195 18.2317 20.7812 17.8708 20.7812 17.5V17.5Z" fill="#F9BA48"/>
<path d="M56.1006 27.6719C55.1709 25.1683 52.9134 23.4041 50.3125 23.0442V16.0825L67.6769 9.88094L50.5159 3.28125H48.125V23.0727C45.4814 23.5167 43.2797 25.3925 42.4528 28.0208L36.9491 45.5328C36.6045 44.3822 35.8958 43.3573 34.8972 42.6442L29.6614 38.9047L31.5022 30.625H34.6478C37.9794 30.625 40.9773 28.7755 42.4703 25.7961L46.6309 17.4978C46.8934 16.9761 47.0312 16.3909 47.0312 15.8069C47.0312 13.7244 45.3381 12.0312 43.2195 12.0312C41.7812 12.0312 40.4863 12.8308 39.8431 14.1181L36.3245 21.1553C35.7656 22.2742 34.6412 22.9688 33.39 22.9688H32.6922C34.1141 21.5775 35 19.6416 35 17.5C35 13.2781 31.5656 9.84375 27.3438 9.84375C23.1219 9.84375 19.6875 13.2781 19.6875 17.5C19.6875 19.6416 20.5734 21.5775 21.9953 22.9688H21.4244C17.2769 22.9688 13.3514 25.1628 11.1781 28.6945L6.01016 37.0923C5.65578 37.6666 5.46875 38.3283 5.46875 39.0053C5.46875 39.5259 5.5825 40.0203 5.78047 40.4688H1.09375V55.7812H14.9472L13.2573 62.7605C13.1698 63.1247 13.125 63.4977 13.125 63.8695V64.1889C13.125 66.7898 15.2414 68.9062 17.8413 68.9062C20.0583 68.9062 21.9997 67.3313 22.4569 65.1613L26.028 48.1983L28.4375 49.8039V60.1562C28.4375 62.5691 30.3997 64.5312 32.8125 64.5312H68.9062V62.1469L56.1006 27.6719ZM50.3125 5.54641L61.3856 9.80547L50.3125 13.7605V5.54641ZM21.875 17.5C21.875 14.4845 24.3283 12.0312 27.3438 12.0312C30.3592 12.0312 32.8125 14.4845 32.8125 17.5C32.8125 20.5155 30.3592 22.9688 27.3438 22.9688C24.3283 22.9688 21.875 20.5155 21.875 17.5ZM17.5503 40.4688H12.9303L18.3422 31.9638C18.608 31.5459 18.9689 31.2113 19.3867 30.9816L17.5503 40.4688ZM17.9178 42.6562L17.8741 42.7448C16.5517 45.3884 13.8939 47.0312 10.9375 47.0312C7.98109 47.0312 5.32328 45.3884 4.00203 42.7448L3.95719 42.6562H9.11969H9.53312H17.9178ZM3.28125 45.5897C5.14281 47.8592 7.91 49.2188 10.9375 49.2188C13.965 49.2188 16.7322 47.8592 18.5938 45.5897V53.5938H3.28125V45.5897ZM30.625 60.1562V49.8039C30.625 49.0711 30.2608 48.3908 29.6505 47.9839L26.5814 45.9375H24.2692L20.3175 64.7106C20.0714 65.8744 19.0302 66.7188 17.8413 66.7188C16.4478 66.7188 15.3125 65.5834 15.3125 64.19V63.8706C15.3125 63.6705 15.3366 63.4703 15.3836 63.2756L17.1981 55.7812H20.7812V40.4688H19.7783L22.1069 28.4375H20.7812C19.0356 28.4375 17.4333 29.3169 16.497 30.7891L10.7691 39.7906C10.4978 40.2161 10.0362 40.4688 9.53312 40.4688H9.11969C8.31359 40.4688 7.65625 39.8114 7.65625 39.0053C7.65625 38.7341 7.73062 38.4694 7.87281 38.2386L13.0408 29.8408C14.8192 26.9511 18.0316 25.1562 21.4244 25.1562H33.39C35.4747 25.1562 37.3494 23.998 38.2812 22.1331L41.7998 15.0959C42.07 14.5556 42.6147 14.2188 43.2556 14.2188C44.1306 14.2188 44.8438 14.9308 44.8438 15.8069C44.8438 16.053 44.7858 16.2991 44.6753 16.5178L40.5147 24.8161C39.3958 27.0495 37.147 28.4375 34.6489 28.4375H29.7478L27.2125 39.8442L33.6262 44.4248C34.4859 45.0395 35 46.0381 35 47.0958V60.1562C35 61.3627 34.0189 62.3438 32.8125 62.3438C31.6061 62.3438 30.625 61.3627 30.625 60.1562V60.1562ZM36.5794 62.3438C36.9556 61.6973 37.1875 60.9569 37.1875 60.1562V52.0713L44.5397 28.6759C45.2025 26.5705 47.1297 25.1562 49.3369 25.1562C51.4281 25.1562 53.3225 26.4731 54.0509 28.4342L66.6455 62.3438H36.5794Z" fill="white"/>
<path d="M61.25 57.9688H63.4375V60.1562H61.25V57.9688Z" fill="white"/>
<path d="M56.875 57.9688H59.0625V60.1562H56.875V57.9688Z" fill="white"/>
<path d="M52.5 57.9688H54.6875V60.1562H52.5V57.9688Z" fill="white"/>
</svg>
