<svg width="26" height="26" viewBox="0 0 26 26" fill="none" xmlns="http://www.w3.org/2000/svg">
<path d="M7.12903 14.6772C4.81296 14.6772 2.93549 16.5547 2.93549 18.8708C2.93549 21.1869 4.81296 23.0643 7.12903 23.0643C9.44511 23.0643 11.3226 21.1869 11.3226 18.8708C11.3226 16.5547 9.44511 14.6772 7.12903 14.6772ZM7.12903 21.3869C5.73931 21.3869 4.61291 20.2605 4.61291 18.8708C4.61291 17.4811 5.73931 16.3547 7.12903 16.3547C8.51876 16.3547 9.64516 17.4811 9.64516 18.8708C9.64516 20.2605 8.51876 21.3869 7.12903 21.3869Z" fill="#F0BC5E"/>
<path d="M22.2258 3.77402V1.67725H9.22581V6.7095H24.3226V3.77402H22.2258Z" fill="#F0BC5E"/>
<path d="M9.22581 7.54834H24.3226V11.7419H9.22581V7.54834Z" fill="#F0BC5E"/>
<path d="M10.0645 18.871C10.0645 17.2524 8.74727 15.9355 7.12903 15.9355C5.51078 15.9355 4.19354 17.2524 4.19354 18.871C4.19354 20.4897 5.51078 21.8065 7.12903 21.8065C8.74727 21.8065 10.0645 20.4897 10.0645 18.871ZM7.12903 20.9678C5.97293 20.9678 5.03225 20.0271 5.03225 18.871C5.03225 17.7149 5.97293 16.7743 7.12903 16.7743C8.28512 16.7743 9.2258 17.7149 9.2258 18.871C9.2258 20.0271 8.28512 20.9678 7.12903 20.9678Z" fill="#9D9EA2"/>
<path d="M26 3.60055L22.3994 0H7.54839V11.7419H5.54437L5.25995 12.8704C4.89425 12.984 4.54165 13.1296 4.20645 13.3057L3.20843 12.7094L0.966687 14.9508L1.56337 15.9484C1.38727 16.284 1.24127 16.6366 1.12845 17.0019L0 17.2863V20.456L1.12845 20.7405C1.24168 21.1058 1.38727 21.4579 1.56337 21.794L0.966687 22.7916L3.20843 25.0329L4.20645 24.4366C4.54165 24.6127 4.89425 24.7587 5.25995 24.872L5.54437 26H22.7723L25.9175 23.9032L22.7723 21.8065L12.6822 21.8161C12.864 21.4739 13.0139 21.1133 13.1292 20.74L14.2581 20.4556V17.2859L13.1296 17.0015C13.0164 16.6362 12.8708 16.284 12.6947 15.948L13.2914 14.9504L11.0496 12.709L10.0516 13.3053C9.71642 13.1292 9.36382 12.9832 8.99811 12.87L8.71369 11.7419H8.3871V0.83871H21.8065V4.19355H25.1613V20.129H15.1064V20.9677H26V3.60055ZM23.0645 24.7972V23.0096L24.4051 23.9032L23.0645 24.7972ZM22.2258 22.6452V23.4839H14.2581V24.3226H22.2258V25.1613H11.7419V24.3226H13.4194V23.4839H11.7419V22.6452H22.2258ZM9.84972 14.1524L10.0633 14.2757L10.9184 13.7646L12.2354 15.0812L11.7243 15.9363L11.848 16.1499C12.0837 16.5573 12.2653 16.9974 12.3886 17.4581L12.4518 17.6964L13.4194 17.9395V19.802L12.4518 20.0455L12.3886 20.2838C12.2653 20.7445 12.0833 21.1846 11.848 21.5921L11.8044 21.6672L11.7868 21.8173L10.6772 21.8181C11.5163 20.8088 11.8779 19.5285 11.6959 18.2127C11.4074 16.1316 9.67485 14.4774 7.57644 14.2789C6.19982 14.1495 4.85022 14.6305 3.87535 15.6009C2.90026 16.5713 2.4117 17.9174 2.53497 19.295C2.72417 21.4084 4.38234 23.1509 6.47727 23.439C6.67814 23.4667 6.89929 23.4755 7.12698 23.4798L7.96569 23.4839L7.96979 22.6452L7.12862 22.6411C6.92263 22.6327 6.75411 22.6304 6.59132 22.6079C4.88012 22.3726 3.525 20.9481 3.3704 19.2199C3.26925 18.0918 3.66895 16.9894 4.46691 16.1955C5.26425 15.4017 6.36711 15.0071 7.49801 15.114C9.21332 15.2764 10.6295 16.6278 10.8655 18.3279C11.0148 19.4068 10.7191 20.456 10.033 21.2818C9.82801 21.5284 9.78604 21.8636 9.92323 22.1566C10.0645 22.4582 10.3577 22.6452 10.688 22.6452H10.9032V25.1613H6.19756L5.9541 24.1942L5.71617 24.1305C5.25402 24.0068 4.81419 23.8248 4.40834 23.5895L4.19478 23.4663L3.33969 23.9774L2.02265 22.6607L2.53374 21.8056L2.41006 21.5921C2.17438 21.1846 1.99275 20.7445 1.86949 20.2838L1.80622 20.0455L0.83871 19.8024V17.9399L1.80622 17.6964L1.86949 17.4581C1.99275 16.9974 2.17479 16.5573 2.41006 16.1499L2.53374 15.9363L2.02265 15.0812L3.33969 13.7646L4.19478 14.2757L4.40834 14.1524C4.81419 13.9171 5.25443 13.7351 5.71617 13.6114L5.9541 13.5477L6.19756 12.5806H8.06009L8.30355 13.5477L8.54149 13.6114C9.00405 13.7351 9.44429 13.9171 9.84972 14.1524ZM22.6452 1.4317L24.5683 3.35484H22.6452V1.4317Z" fill="#9D9EA2"/>
<path d="M9.2258 7.54834H10.0645V8.38705H9.2258V7.54834Z" fill="#9D9EA2"/>
<path d="M10.9032 7.54834H24.3226V8.38705H10.9032V7.54834Z" fill="#9D9EA2"/>
<path d="M9.2258 9.22559H24.3226V10.0643H9.2258V9.22559Z" fill="#9D9EA2"/>
<path d="M23.4839 10.9033H24.3226V11.742H23.4839V10.9033Z" fill="#9D9EA2"/>
<path d="M9.2258 10.9033H22.6452V11.742H9.2258V10.9033Z" fill="#9D9EA2"/>
<path d="M20.9677 12.5806C19.1179 12.5806 17.6129 14.0856 17.6129 15.9354C17.6129 17.7852 19.1179 19.2902 20.9677 19.2902C22.8176 19.2902 24.3226 17.7852 24.3226 15.9354C24.3226 14.0856 22.8176 12.5806 20.9677 12.5806ZM20.5484 13.457V15.5161H18.4893C18.6672 14.4648 19.4971 13.6349 20.5484 13.457ZM18.4893 16.3548H20.5484V18.4139C19.4971 18.2359 18.6672 17.406 18.4893 16.3548ZM21.3871 18.4139V13.457C22.5751 13.6574 23.4839 14.6909 23.4839 15.9354C23.4839 17.18 22.5751 18.213 21.3871 18.4139Z" fill="#9D9EA2"/>
<path d="M8.80646 22.645H9.64517V23.4837H8.80646V22.645Z" fill="#9D9EA2"/>
</svg>
