<svg width="26" height="26" viewBox="0 0 26 26" fill="none" xmlns="http://www.w3.org/2000/svg">
<path d="M0.419353 0.419434H25.5806V3.77427H0.419353V0.419434Z" fill="#F0BC5E"/>
<path d="M6.70967 23.9032C6.70967 24.1348 6.52191 24.3226 6.29032 24.3226C6.05873 24.3226 5.87096 24.1348 5.87096 23.9032C5.87096 23.6717 6.05873 23.4839 6.29032 23.4839C6.52191 23.4839 6.70967 23.6717 6.70967 23.9032Z" fill="#9D9EA2"/>
<path d="M0 0V16.7742H11.1489L10.0645 17.8586L9.64516 17.4393L4.83732 22.2471C4.42206 22.6624 4.19355 23.2142 4.19355 23.8017C4.19355 25.0137 5.17989 26 6.39188 26C6.97894 26 7.53119 25.7715 7.94645 25.3562L12.7543 20.5484L12.3349 20.129L13.6583 18.8056L13.0653 18.2127L11.7419 19.536L10.6575 18.4516L11.9809 17.1282L11.3879 16.5352L11.383 16.5401V15.9355H0.83871V0.83871H25.1613V15.9355H23.0033V16.7742H26V0H0ZM7.35345 24.7632C7.09668 25.02 6.75493 25.1613 6.39188 25.1613C5.64204 25.1613 5.03226 24.5515 5.03226 23.8017C5.03226 23.4386 5.17354 23.0969 5.43032 22.8401L8.3871 19.8833L10.3102 21.8065L7.35345 24.7632ZM10.9032 21.2135L8.98009 19.2903L9.64516 18.6253L11.5683 20.5484L10.9032 21.2135Z" fill="#9D9EA2"/>
<path d="M17.1935 20.1292C13.2625 20.1292 10.0645 16.9312 10.0645 13.0001C10.0645 9.06908 13.2625 5.87109 17.1935 5.87109C21.1246 5.87109 24.3226 9.06908 24.3226 13.0001C24.3226 16.9312 21.1246 20.1292 17.1935 20.1292ZM17.1935 7.96787C14.4186 7.96787 12.1613 10.2252 12.1613 13.0001C12.1613 15.7751 14.4186 18.0324 17.1935 18.0324C19.9685 18.0324 22.2258 15.7751 22.2258 13.0001C22.2258 10.2252 19.9685 7.96787 17.1935 7.96787Z" fill="#F0BC5E"/>
<path d="M17.1935 18.4516C14.1876 18.4516 11.7419 16.0059 11.7419 13C11.7419 9.99403 14.1876 7.54834 17.1935 7.54834C20.1995 7.54834 22.6452 9.99403 22.6452 13C22.6452 16.0059 20.1995 18.4516 17.1935 18.4516ZM17.1935 8.38705C14.6502 8.38705 12.5806 10.4566 12.5806 13C12.5806 15.5433 14.6502 17.6129 17.1935 17.6129C19.7369 17.6129 21.8065 15.5433 21.8065 13C21.8065 10.4566 19.7369 8.38705 17.1935 8.38705Z" fill="#9D9EA2"/>
<path d="M14.2581 14.2583H20.129V15.097H14.2581V14.2583Z" fill="#9D9EA2"/>
<path d="M14.2581 12.5806H15.0968V13.4193H14.2581V12.5806Z" fill="#9D9EA2"/>
<path d="M15.9355 12.5806H16.7742V13.4193H15.9355V12.5806Z" fill="#9D9EA2"/>
<path d="M17.6129 12.5806H18.4516V13.4193H17.6129V12.5806Z" fill="#9D9EA2"/>
<path d="M19.2903 12.5806H20.129V13.4193H19.2903V12.5806Z" fill="#9D9EA2"/>
<path d="M14.2581 10.9033H20.129V11.742H14.2581V10.9033Z" fill="#9D9EA2"/>
<path d="M1.67742 1.67725H2.51613V2.51596H1.67742V1.67725Z" fill="#9D9EA2"/>
<path d="M3.35484 1.67725H4.19355V2.51596H3.35484V1.67725Z" fill="#9D9EA2"/>
<path d="M5.03226 1.67725H5.87097V2.51596H5.03226V1.67725Z" fill="#9D9EA2"/>
<path d="M9.2258 10.9032V5.87094H8.38709V10.9032H7.54839V6.70965H6.70968V10.9032H5.87097V7.54836H5.03226V10.9032H4.19355V8.38706H3.35484V10.9032H2.51613V5.03223H1.67742V11.7419H10.0645V10.9032H9.2258Z" fill="#9D9EA2"/>
</svg>
