<svg width="15" height="15" viewBox="0 0 15 15" fill="none" xmlns="http://www.w3.org/2000/svg">
<g opacity="0.7">
<path d="M10.7292 3.85413H4.27084C4.04168 3.85413 3.85419 4.04162 3.85419 4.27078V10.7291C3.85419 10.9583 4.04168 11.1458 4.27084 11.1458H10.7292C10.9584 11.1458 11.1458 10.9583 11.1458 10.7291V4.27081C11.1458 4.04165 10.9584 3.85413 10.7292 3.85413ZM10.3125 10.3125H4.6875V8.74998H5.52084C5.75 8.74998 5.93749 8.56248 5.93749 8.33332C5.93749 8.10415 5.75 7.91666 5.52084 7.91666H4.6875V7.08332H6.35418C6.58334 7.08332 6.77083 6.89583 6.77083 6.66667C6.77083 6.4375 6.58334 6.25001 6.35418 6.25001H4.6875V4.6875H10.3125V10.3125Z" fill="white"/>
<path d="M15 6.41667C15 6.18751 14.8125 6.00002 14.5833 6.00002H13.25V4.68753H14.5833C14.8125 4.68753 15 4.50004 15 4.27087C15 4.04171 14.8125 3.85422 14.5833 3.85422H13.25V2.95835C13.25 2.29168 12.7083 1.75003 12.0417 1.75003H11.1458V0.416655C11.1458 0.18749 10.9584 0 10.7292 0C10.5 0 10.3125 0.18749 10.3125 0.416655V1.75H8.97916V0.416655C8.97916 0.18749 8.79167 0 8.5625 0C8.33334 0 8.14585 0.18749 8.14585 0.416655V1.75H6.81251V0.416655C6.81251 0.18749 6.62502 0 6.39585 0C6.16669 0 5.9792 0.18749 5.9792 0.416655V1.75H4.68753V0.416655C4.6875 0.18749 4.50001 0 4.27084 0C4.04168 0 3.85419 0.18749 3.85419 0.416655V1.75H2.95835C2.29168 1.75 1.75003 2.29168 1.75003 2.95832V3.85416H0.416655C0.18749 3.85416 0 4.04168 0 4.27084C0 4.50001 0.18749 4.6875 0.416655 4.6875H1.75V6.02084H0.416655C0.18749 6.02084 0 6.20833 0 6.4375C0 6.66666 0.18749 6.85415 0.416655 6.85415H1.75V8.18749H0.416655C0.18749 8.18749 0 8.37501 0 8.60418C0 8.83334 0.18749 9.02083 0.416655 9.02083H1.75V10.3125H0.416655C0.18749 10.3125 0 10.5 0 10.7292C0 10.9584 0.18749 11.1458 0.416655 11.1458H1.75V12.0417C1.75 12.7084 2.29168 13.25 2.95832 13.25H3.85416V14.5833C3.85416 14.8125 4.04165 15 4.27081 15C4.49998 15 4.68747 14.8125 4.68747 14.5833V13.25H6.02081V14.5833C6.02081 14.8125 6.2083 15 6.43747 15C6.66663 15 6.85412 14.8125 6.85412 14.5833V13.25H8.18746V14.5833C8.18746 14.8125 8.37496 15 8.60412 15C8.83328 15 9.02077 14.8125 9.02077 14.5833V13.25H10.3124V14.5833C10.3124 14.8125 10.4999 15 10.7291 15C10.9583 15 11.1458 14.8125 11.1458 14.5833V13.25H12.0416C12.7083 13.25 13.2499 12.7083 13.2499 12.0417V11.1458H14.5833C14.8124 11.1458 14.9999 10.9584 14.9999 10.7292C14.9999 10.5 14.8124 10.3125 14.5833 10.3125H13.2499V8.97916H14.5833C14.8124 8.97916 14.9999 8.79167 14.9999 8.5625C14.9999 8.33334 14.8124 8.14585 14.5833 8.14585H13.2499V6.81251H14.5833V6.83333C14.8125 6.83333 15 6.64584 15 6.41667ZM12.4375 12.0417H12.4167C12.4167 12.25 12.25 12.4167 12.0417 12.4167H2.95835C2.75001 12.4167 2.58334 12.25 2.58334 12.0417V2.95835C2.58334 2.75001 2.75001 2.58334 2.95835 2.58334H12.0625C12.2709 2.58334 12.4375 2.75001 12.4375 2.95835V12.0417H12.4375Z" fill="white"/>
</g>
</svg>
