<svg width="24" height="24" viewBox="0 0 24 24" fill="none" xmlns="http://www.w3.org/2000/svg">
<path d="M17.16 0H6.84C3.08002 0 0 3.08002 0 6.84V17.16C0 20.92 3.08002 24 6.84 24H17.16C20.92 24 24 20.92 24 17.16V6.84C24 3.08002 20.92 0 17.16 0ZM23.2 17.16C23.2 20.48 20.48 23.2 17.16 23.2H6.84C3.51998 23.2 0.800016 20.48 0.800016 17.16V6.84C0.800016 3.51998 3.52003 0.800016 6.84 0.800016H17.16C20.48 0.800016 23.2 3.52003 23.2 6.84V17.16Z" fill="white"/>
<path d="M17.16 2.3999H6.83996C4.39998 2.3999 2.39996 4.39992 2.39996 6.8399V17.1599C2.39996 19.5999 4.39998 21.5999 6.83996 21.5999H17.16C19.5999 21.5999 21.6 19.5999 21.6 17.1599V6.8399C21.6 4.39992 19.5999 2.3999 17.16 2.3999ZM20.7999 17.1599C20.7999 19.1599 19.1599 20.7999 17.16 20.7999H6.83996C4.83995 20.7999 3.19998 19.1599 3.19998 17.1599V6.8399C3.19998 4.83989 4.83999 3.19992 6.83996 3.19992H17.16C19.16 3.19992 20.7999 4.83993 20.7999 6.8399V17.1599Z" fill="white"/>
<path d="M12 5.6001C8.48004 5.6001 5.60004 8.4801 5.60004 12.0001C5.60004 15.5201 8.48004 18.4001 12 18.4001C15.52 18.4001 18.4 15.5201 18.4 12.0001C18.4 8.4801 15.52 5.6001 12 5.6001ZM12 17.6001C8.92001 17.6001 6.40001 15.0801 6.40001 12.0001C6.40001 8.92007 8.92001 6.40007 12 6.40007C15.08 6.40007 17.6 8.92007 17.6 12.0001C17.6 15.0801 15.08 17.6001 12 17.6001Z" fill="white"/>
<path d="M12 7.6001C9.56001 7.6001 7.59998 9.56008 7.59998 12.0001C7.59998 14.4401 9.55996 16.4001 12 16.4001C14.44 16.4001 16.4 14.4401 16.4 12.0001C16.4 9.56008 14.44 7.6001 12 7.6001ZM12 15.6001C9.99998 15.6001 8.39999 14.0001 8.39999 12.0001C8.39999 10.0001 9.99998 8.40011 12 8.40011C14 8.40011 15.6 10.0001 15.6 12.0001C15.6 14.0001 14 15.6001 12 15.6001Z" fill="white"/>
<path d="M18.4 4.3999C17.72 4.3999 17.2 4.91989 17.2 5.5999C17.2 6.27991 17.72 6.7999 18.4 6.7999C19.08 6.7999 19.6 6.27991 19.6 5.5999C19.6 4.91989 19.08 4.3999 18.4 4.3999Z" fill="white"/>
</svg>
