<svg width="92" height="92" viewBox="0 0 92 92" fill="none" xmlns="http://www.w3.org/2000/svg">
<ellipse opacity="0.3" cx="46.5" cy="86.5" rx="9.5" ry="3.5" fill="#FF9000"/>
<path d="M45.9979 5.74854C37.6135 5.75848 29.5753 9.09359 23.6466 15.0223C17.7179 20.951 14.3828 28.9891 14.3729 37.3735C14.3729 64.4333 43.1229 84.8728 44.347 85.7291C44.8311 86.0672 45.4074 86.2485 45.9979 86.2485C46.5884 86.2485 47.1646 86.0672 47.6488 85.7291C48.8729 84.8728 77.6229 64.4333 77.6229 37.3735C77.6129 28.9891 74.2778 20.951 68.3492 15.0223C62.4205 9.09359 54.3823 5.75848 45.9979 5.74854ZM46 25.8746C48.2745 25.8746 50.4979 26.549 52.3891 27.8127C54.2802 29.0763 55.7542 30.8724 56.6246 32.9737C57.495 35.0751 57.7228 37.3873 57.279 39.6181C56.8353 41.8489 55.74 43.898 54.1317 45.5063C52.5234 47.1146 50.4743 48.2099 48.2435 48.6536C46.0128 49.0973 43.7005 48.8696 41.5991 47.9992C39.4978 47.1288 37.7017 45.6548 36.4381 43.7636C35.1745 41.8725 34.5 39.6491 34.5 37.3746C34.5 35.8644 34.7974 34.3689 35.3753 32.9737C35.9532 31.5784 36.8003 30.3106 37.8682 29.2428C38.9361 28.1749 40.2038 27.3278 41.5991 26.7499C42.9944 26.172 44.4898 25.8745 46 25.8746Z" fill="#FF9000"/>
</svg>
