<svg width="26" height="26" viewBox="0 0 26 26" fill="none" xmlns="http://www.w3.org/2000/svg">
<path d="M19.0938 13.4062H3.65625V6.09375H19.0938V13.4062Z" fill="#F9BA48"/>
<path d="M19.5 19.9062C17.9319 19.9062 16.6562 18.6302 16.6562 17.0625C16.6562 15.4948 17.9319 14.2188 19.5 14.2188C21.0681 14.2188 22.3438 15.4948 22.3438 17.0625C22.3438 18.6302 21.0681 19.9062 19.5 19.9062ZM19.5 16.25C19.0519 16.25 18.6875 16.6144 18.6875 17.0625C18.6875 17.5106 19.0519 17.875 19.5 17.875C19.9481 17.875 20.3125 17.5106 20.3125 17.0625C20.3125 16.6144 19.9481 16.25 19.5 16.25Z" fill="#F9BA48"/>
<path d="M6.90625 11.7812V7.71875H5.28125V8.53125H6.09375V11.7812H6.90625Z" fill="#F9BA48"/>
<path d="M7.71875 8.53125H8.53125V11.7812H9.34375V7.71875H7.71875V8.53125Z" fill="#F9BA48"/>
<path d="M14.2188 10.9688V8.53125C14.2188 8.08316 13.8543 7.71875 13.4062 7.71875H12.5938C12.1457 7.71875 11.7812 8.08316 11.7812 8.53125V10.9688C11.7812 11.4168 12.1457 11.7812 12.5938 11.7812H13.4062C13.8543 11.7812 14.2188 11.4168 14.2188 10.9688ZM12.5938 8.53125H13.4062L13.4067 10.9688H12.5938V8.53125Z" fill="#F9BA48"/>
<path d="M16.6562 7.71875H15.8438C15.3957 7.71875 15.0312 8.08316 15.0312 8.53125V10.9688C15.0312 11.4168 15.3957 11.7812 15.8438 11.7812H16.6562C17.1043 11.7812 17.4688 11.4168 17.4688 10.9688V8.53125C17.4688 8.08316 17.1043 7.71875 16.6562 7.71875ZM15.8438 10.9688V8.53125H16.6562L16.6567 10.9688H15.8438Z" fill="#F9BA48"/>
<path d="M10.1562 10.9688H10.9688V11.7812H10.1562V10.9688Z" fill="#F9BA48"/>
<path d="M23.1562 4.46875H2.84375C2.39566 4.46875 2.03125 4.83316 2.03125 5.28125V20.7188C2.03125 21.1668 2.39566 21.5312 2.84375 21.5312H23.1562C23.6043 21.5312 23.9688 21.1668 23.9688 20.7188V5.28125C23.9688 4.83316 23.6043 4.46875 23.1562 4.46875ZM2.84375 20.7188V5.28125H23.1562L23.1567 20.7188H2.84375Z" fill="#9D9EA2"/>
<path d="M23.5625 2.84375H2.4375C1.31747 2.84375 0.40625 3.75497 0.40625 4.875V21.125C0.40625 22.245 1.31747 23.1562 2.4375 23.1562H23.5625C24.6825 23.1562 25.5938 22.245 25.5938 21.125V4.875C25.5938 3.75497 24.6825 2.84375 23.5625 2.84375ZM24.7812 21.125C24.7812 21.7969 24.2344 22.3438 23.5625 22.3438H2.4375C1.76556 22.3438 1.21875 21.7969 1.21875 21.125V4.875C1.21875 4.20306 1.76556 3.65625 2.4375 3.65625H23.5625C24.2344 3.65625 24.7812 4.20306 24.7812 4.875V21.125Z" fill="#9D9EA2"/>
<path d="M21.125 6.09375C20.4531 6.09375 19.9062 6.64056 19.9062 7.3125C19.9062 7.98444 20.4531 8.53125 21.125 8.53125C21.7969 8.53125 22.3438 7.98444 22.3438 7.3125C22.3438 6.64056 21.7969 6.09375 21.125 6.09375ZM21.125 7.71875C20.9012 7.71875 20.7188 7.53634 20.7188 7.3125C20.7188 7.08866 20.9012 6.90625 21.125 6.90625C21.3488 6.90625 21.5312 7.08866 21.5312 7.3125C21.5312 7.53634 21.3488 7.71875 21.125 7.71875Z" fill="#9D9EA2"/>
<path d="M21.125 9.34375C20.4531 9.34375 19.9062 9.89056 19.9062 10.5625C19.9062 11.2344 20.4531 11.7812 21.125 11.7812C21.7969 11.7812 22.3438 11.2344 22.3438 10.5625C22.3438 9.89056 21.7969 9.34375 21.125 9.34375ZM21.125 10.9688C20.9012 10.9688 20.7188 10.7863 20.7188 10.5625C20.7188 10.3387 20.9012 10.1562 21.125 10.1562C21.3488 10.1562 21.5312 10.3387 21.5312 10.5625C21.5312 10.7863 21.3488 10.9688 21.125 10.9688Z" fill="#9D9EA2"/>
<path d="M19.5 15.8438C18.8281 15.8438 18.2812 16.3906 18.2812 17.0625C18.2812 17.7344 18.8281 18.2812 19.5 18.2812C20.1719 18.2812 20.7188 17.7344 20.7188 17.0625C20.7188 16.3906 20.1719 15.8438 19.5 15.8438ZM19.5 17.4688C19.2762 17.4688 19.0938 17.2867 19.0938 17.0625C19.0938 16.8382 19.2762 16.6562 19.5 16.6562C19.7238 16.6562 19.9062 16.8382 19.9062 17.0625C19.9062 17.2867 19.7238 17.4688 19.5 17.4688Z" fill="#9D9EA2"/>
<path d="M13.4062 19.0938H15.8438V15.0312H13.4062V19.0938ZM14.2188 15.8438H15.0312V18.2812H14.2188V15.8438Z" fill="#9D9EA2"/>
<path d="M10.1562 19.0938H12.5938V15.0312H10.1562V19.0938ZM10.9688 15.8438H11.7812V18.2812H10.9688V15.8438Z" fill="#9D9EA2"/>
<path d="M8.125 17.4688C7.45306 17.4688 6.90625 18.0156 6.90625 18.6875C6.90625 19.3594 7.45306 19.9062 8.125 19.9062C8.79694 19.9062 9.34375 19.3594 9.34375 18.6875C9.34375 18.0156 8.79694 17.4688 8.125 17.4688ZM8.125 19.0938C7.90116 19.0938 7.71875 18.9117 7.71875 18.6875C7.71875 18.4632 7.90116 18.2812 8.125 18.2812C8.34884 18.2812 8.53125 18.4632 8.53125 18.6875C8.53125 18.9117 8.34884 19.0938 8.125 19.0938Z" fill="#9D9EA2"/>
<path d="M4.875 17.4688C4.20306 17.4688 3.65625 18.0156 3.65625 18.6875C3.65625 19.3594 4.20306 19.9062 4.875 19.9062C5.54694 19.9062 6.09375 19.3594 6.09375 18.6875C6.09375 18.0156 5.54694 17.4688 4.875 17.4688ZM4.875 19.0938C4.65116 19.0938 4.46875 18.9117 4.46875 18.6875C4.46875 18.4632 4.65116 18.2812 4.875 18.2812C5.09884 18.2812 5.28125 18.4632 5.28125 18.6875C5.28125 18.9117 5.09884 19.0938 4.875 19.0938Z" fill="#9D9EA2"/>
<path d="M4.875 14.2188C4.20306 14.2188 3.65625 14.7656 3.65625 15.4375C3.65625 16.1094 4.20306 16.6562 4.875 16.6562C5.54694 16.6562 6.09375 16.1094 6.09375 15.4375C6.09375 14.7656 5.54694 14.2188 4.875 14.2188ZM4.875 15.8438C4.65116 15.8438 4.46875 15.6617 4.46875 15.4375C4.46875 15.2132 4.65116 15.0312 4.875 15.0312C5.09884 15.0312 5.28125 15.2132 5.28125 15.4375C5.28125 15.6617 5.09884 15.8438 4.875 15.8438Z" fill="#9D9EA2"/>
<path d="M8.125 14.2188C7.45306 14.2188 6.90625 14.7656 6.90625 15.4375C6.90625 16.1094 7.45306 16.6562 8.125 16.6562C8.79694 16.6562 9.34375 16.1094 9.34375 15.4375C9.34375 14.7656 8.79694 14.2188 8.125 14.2188ZM8.125 15.8438C7.90116 15.8438 7.71875 15.6617 7.71875 15.4375C7.71875 15.2132 7.90116 15.0312 8.125 15.0312C8.34884 15.0312 8.53125 15.2132 8.53125 15.4375C8.53125 15.6617 8.34884 15.8438 8.125 15.8438Z" fill="#9D9EA2"/>
</svg>
