<svg width="25" height="25" viewBox="0 0 25 25" fill="none" xmlns="http://www.w3.org/2000/svg">
<g clip-path="url(#clip0)">
<path d="M1.66667 20.84H2.5V20.0066H1.66667C1.20635 20.0066 0.833333 19.6336 0.833333 19.1733V2.50663C0.833333 2.04632 1.20635 1.6733 1.66667 1.6733H20C20.4603 1.6733 20.8333 2.04632 20.8333 2.50663V3.33997H21.6667V2.50663C21.6667 1.58622 20.9204 0.839966 20 0.839966H1.66667C0.74625 0.839966 0 1.58622 0 2.50663V19.1733C0 20.0937 0.74625 20.84 1.66667 20.84Z" fill="#9D9EA2"/>
<path d="M1.66663 2.50659H2.49997V3.33993H1.66663V2.50659Z" fill="#9D9EA2"/>
<path d="M3.33331 2.50659H4.16665V3.33993H3.33331V2.50659Z" fill="#9D9EA2"/>
<path d="M5 2.50659H5.83333V3.33993H5V2.50659Z" fill="#9D9EA2"/>
<path d="M3.33331 22.5066C3.33331 23.427 4.07956 24.1733 4.99998 24.1733H23.3333C24.2537 24.1733 25 23.427 25 22.5066V5.83995C25 4.91953 24.2537 4.17328 23.3333 4.17328H4.99998C4.07956 4.17328 3.33331 4.91953 3.33331 5.83995V22.5066ZM4.16665 5.83995C4.16665 5.37963 4.53967 5.00661 4.99998 5.00661H23.3333C23.7936 5.00661 24.1667 5.37963 24.1667 5.83995V22.5066C24.1667 22.9669 23.7936 23.3399 23.3333 23.3399H4.99998C4.53967 23.3399 4.16665 22.9669 4.16665 22.5066V5.83995Z" fill="#9D9EA2"/>
<path d="M5 5.8399H5.83333V6.67323H5V5.8399Z" fill="#9D9EA2"/>
<path d="M6.66663 5.8399H7.49997V6.67323H6.66663V5.8399Z" fill="#9D9EA2"/>
<path d="M8.33331 5.8399H9.16664V6.67323H8.33331V5.8399Z" fill="#9D9EA2"/>
<path d="M5 7.50665H23.3333V8.33998H5V7.50665Z" fill="#9D9EA2"/>
<path d="M5 9.58997H8.33332V10.4233H5V9.58997Z" fill="#9D9EA2"/>
<path d="M5 11.2567H7.50001V12.09H5V11.2567Z" fill="#9D9EA2"/>
<path d="M14.1667 12.9233C12.5557 12.9233 11.25 14.2291 11.25 15.84C11.25 17.4509 12.5557 18.7566 14.1667 18.7566C15.7776 18.7566 17.0833 17.4509 17.0833 15.84C17.0815 14.23 15.7767 12.9252 14.1667 12.9233ZM14.1667 17.9233C13.0161 17.9233 12.0833 16.9905 12.0833 15.84C12.0833 14.6895 13.0161 13.7567 14.1667 13.7567C15.3172 13.7567 16.25 14.6895 16.25 15.84C16.2485 16.99 15.3167 17.9219 14.1667 17.9233Z" fill="#F9BA48"/>
<path d="M14.1667 17.9233C13.0161 17.9233 12.0833 16.9905 12.0833 15.84C12.0833 14.6895 13.0161 13.7567 14.1667 13.7567C15.3172 13.7567 16.25 14.6895 16.25 15.84C16.2485 16.99 15.3167 17.9219 14.1667 17.9233Z" fill="#F9BA48"/>
<path d="M20.8333 14.5899C20.8333 14.3597 20.6469 14.1733 20.4167 14.1733H19.3154C19.2272 13.8995 19.1172 13.6332 18.9858 13.3774L19.7646 12.5992C19.9271 12.4364 19.9271 12.1728 19.7646 12.0099L17.9967 10.242C17.8339 10.0795 17.5702 10.0795 17.4074 10.242L16.6292 11.0204C16.373 10.8895 16.1069 10.7795 15.8333 10.6912V9.58995C15.8333 9.35974 15.6469 9.17328 15.4167 9.17328H12.9167C12.6865 9.17328 12.5 9.35974 12.5 9.58995V10.6912C12.2265 10.7795 11.9603 10.8895 11.7042 11.0204L10.9259 10.242C10.7631 10.0795 10.4995 10.0795 10.3367 10.242L8.56875 12.0099C8.40625 12.1728 8.40625 12.4364 8.56875 12.5992L9.34708 13.3774C9.31229 13.4457 9.27875 13.5141 9.24708 13.5833C9.15917 13.7754 9.08271 13.9722 9.01792 14.1733H7.91667C7.68646 14.1733 7.5 14.3597 7.5 14.5899V17.0899C7.5 17.3202 7.68646 17.5066 7.91667 17.5066H9.01792C9.10615 17.7804 9.21615 18.0467 9.3475 18.3024L8.56875 19.0807C8.40625 19.2435 8.40625 19.5071 8.56875 19.6699L10.3367 21.4379C10.4995 21.6004 10.7631 21.6004 10.9259 21.4379L11.7042 20.6595C11.9603 20.7904 12.2265 20.9004 12.5 20.9887V22.0899C12.5 22.3202 12.6865 22.5066 12.9167 22.5066H15.4167C15.6469 22.5066 15.8333 22.3202 15.8333 22.0899V20.9887C16.1069 20.9004 16.373 20.7904 16.6292 20.6595L17.4074 21.4379C17.5702 21.6004 17.8339 21.6004 17.9967 21.4379L19.7646 19.6699C19.9271 19.5071 19.9271 19.2435 19.7646 19.0807L18.9858 18.3024C19.1172 18.0467 19.2272 17.7804 19.3154 17.5066H20.4167C20.6469 17.5066 20.8333 17.3202 20.8333 17.0899V14.5899ZM20 16.6733H19.0025C18.8125 16.6733 18.6467 16.8019 18.5992 16.9858C18.4927 17.3993 18.3286 17.7962 18.1117 18.1641C18.0151 18.3277 18.0417 18.536 18.1758 18.6704L18.8803 19.3753L17.702 20.5541L16.9971 19.8491C16.8626 19.7147 16.6543 19.6883 16.4906 19.7849C16.1227 20.0019 15.726 20.1661 15.3125 20.2724C15.1286 20.3199 15 20.4858 15 20.6758V21.6733H13.3333V20.6758C13.3333 20.4858 13.2047 20.3199 13.0208 20.2724C12.6073 20.1661 12.2106 20.0019 11.8427 19.7849C11.6791 19.6883 11.4707 19.7147 11.3362 19.8491L10.6314 20.5541L9.45302 19.3753L10.1575 18.6704C10.2917 18.536 10.3182 18.3277 10.2217 18.1641C10.0047 17.7962 9.84062 17.3993 9.73417 16.9858C9.68667 16.8019 9.52083 16.6733 9.33083 16.6733H8.33333V15.0066H9.33083C9.52083 15.0066 9.68667 14.878 9.73417 14.6941C9.80146 14.4318 9.89219 14.1764 10.0051 13.9305C10.0702 13.7879 10.1425 13.6488 10.2217 13.5138C10.3179 13.3502 10.2916 13.1421 10.1575 13.0079L9.45302 12.303L10.6314 11.1241L11.3362 11.8293C11.4707 11.9637 11.6791 11.9899 11.8427 11.8932C12.2106 11.6764 12.6073 11.512 13.0208 11.4057C13.2047 11.3583 13.3333 11.1922 13.3333 11.0025V10.0066H15V11.0041C15 11.1941 15.1286 11.3599 15.3125 11.4074C15.726 11.5138 16.1227 11.678 16.4906 11.8949C16.6543 11.9916 16.8626 11.9652 16.9971 11.8308L17.702 11.1258L18.8803 12.3046L18.1758 13.0095C18.0417 13.1439 18.0151 13.3522 18.1117 13.5158C18.3286 13.8837 18.4927 14.2806 18.5992 14.6941C18.6467 14.878 18.8125 15.0066 19.0025 15.0066H20V16.6733Z" fill="#F9BA48"/>
<path d="M20.8333 21.6733H23.3333V22.5066H20.8333V21.6733Z" fill="#9D9EA2"/>
</g>
<defs>
<clipPath id="clip0">
<rect width="25" height="25" fill="white"/>
</clipPath>
</defs>
</svg>
