<svg width="24" height="24" viewBox="0 0 24 24" fill="none" xmlns="http://www.w3.org/2000/svg">
<path d="M22.8811 0.253662H1.11894C0.500974 0.253662 0 0.754636 0 1.3726V4.67969C0 5.29765 0.500974 5.79863 1.11894 5.79863H4.44592V10.2744C3.8591 10.9457 1.39246 13.86 1.09407 15.7895C1.09221 15.8143 1.09221 15.8393 1.09407 15.8641V23.2491C1.09407 23.5237 1.31674 23.7464 1.59138 23.7464H7.61873C7.78148 23.7462 7.93377 23.6663 8.02652 23.5326L10.5727 19.8674C10.6046 19.8204 10.6281 19.7683 10.6424 19.7133C10.6424 19.6337 10.9059 18.7485 11.1993 17.5351H19.0568C19.3314 17.5351 19.5541 17.3124 19.5541 17.0377V5.79863H22.8811C23.499 5.79863 24 5.29765 24 4.67969V1.3726C24 0.754636 23.499 0.253662 22.8811 0.253662ZM11.2242 12.2487C10.8576 14.6483 10.3511 17.0246 9.70742 19.3651L7.35516 22.7468H2.08371V15.9238C2.27766 14.7899 3.49109 13.0494 4.44592 11.8508V17.0377C4.44592 17.3124 4.66859 17.5351 4.94322 17.5351H6.7385C6.79979 17.5346 6.86053 17.5228 6.91753 17.5002L6.97223 17.4704C7.00785 17.4529 7.04123 17.4312 7.0717 17.4058L7.11645 17.356C7.13952 17.3284 7.15953 17.2984 7.17613 17.2665L7.20597 17.2019C7.20597 17.2019 7.20597 17.2019 7.20597 17.167C7.70327 15.327 8.7874 12.1492 9.60796 11.4431C10.1649 10.9457 10.4882 10.891 10.6274 10.891C10.7325 10.8887 10.8323 10.9367 10.896 11.0203C11.1396 11.3816 11.2552 11.814 11.2242 12.2487ZM18.5595 16.5404H11.438C11.7464 15.1927 12.0597 13.6411 12.2138 12.368C12.2745 11.6587 12.0747 10.9516 11.6519 10.3788C11.4029 10.088 11.0401 9.91931 10.6573 9.91632C10.0238 9.97215 9.43116 10.2526 8.98632 10.707C7.83257 11.7017 6.72855 15.327 6.37547 16.5603H5.44053V3.54583H18.5595V16.5404ZM23.0054 4.67471C23.0054 4.7434 22.9498 4.79904 22.8811 4.79904H19.5541V3.54583H20.4542C20.7288 3.54583 20.9515 3.32316 20.9515 3.04852C20.9515 2.77389 20.7288 2.55122 20.4542 2.55122H3.54579C3.27116 2.55122 3.04849 2.77389 3.04849 3.04852C3.04849 3.32316 3.27116 3.54583 3.54579 3.54583H4.45089V4.82391H1.11894C1.05025 4.82391 0.994613 4.76827 0.994613 4.69958V1.3726C0.994613 1.30391 1.05025 1.24827 1.11894 1.24827H22.8811C22.9498 1.24827 23.0054 1.30391 23.0054 1.3726V4.67471Z" fill="#9D9EA2"/>
<rect x="7.38464" y="5.53845" width="9.23077" height="0.923077" rx="0.461538" fill="#F9BA48"/>
<rect x="7.38464" y="8.30768" width="9.23077" height="0.923077" rx="0.461538" fill="#F9BA48"/>
<rect x="12.9231" y="11.0769" width="3.69231" height="0.923077" rx="0.461538" fill="#F9BA48"/>
</svg>
