<svg width="25" height="25" viewBox="0 0 25 25" fill="none" xmlns="http://www.w3.org/2000/svg">
<path d="M12.9086 16.4196H12.0914V25H12.9086V16.4196Z" fill="#F9BA48"/>
<path d="M10.8657 16.4196H10.0485V22.957H10.8657V16.4196Z" fill="#F9BA48"/>
<path d="M8.82269 20.0969H8.00549V20.9141H8.82269V20.0969Z" fill="#F9BA48"/>
<path d="M8.82269 16.4196H8.00549V19.2797H8.82269V16.4196Z" fill="#F9BA48"/>
<path d="M14.9516 22.1399H14.1344V22.9571H14.9516V22.1399Z" fill="#F9BA48"/>
<path d="M14.9516 16.4196H14.1344V21.3227H14.9516V16.4196Z" fill="#F9BA48"/>
<path d="M16.9945 16.4196H16.1773V20.9141H16.9945V16.4196Z" fill="#F9BA48"/>
<path d="M12.5 9.88213C14.0796 9.88213 15.3601 8.60162 15.3601 7.02203C15.3601 5.44244 14.0796 4.16193 12.5 4.16193C10.9204 4.16193 9.63989 5.44244 9.63989 7.02203C9.63989 8.60162 10.9204 9.88213 12.5 9.88213Z" fill="#F9BA48"/>
<path d="M17.4031 9.94219V7.26064C17.4031 4.66816 16.0977 2.28976 13.9105 0.897681L12.5 0L11.0896 0.897251C8.90242 2.28976 7.59692 4.66816 7.59692 7.26064V9.94219C5.47713 10.3516 3.91962 12.2053 3.91962 14.3995V19.2797H4.73681C4.73681 17.9277 5.8363 16.8282 7.18832 16.8282H17.8116C19.1636 16.8282 20.2631 17.9277 20.2631 19.2797H21.0803V14.3995C21.0804 12.2054 19.5229 10.3516 17.4031 9.94219ZM11.5284 1.58694L12.5 0.969155L13.4717 1.58737C15.4215 2.82827 16.5859 4.94926 16.5859 7.26064V12.3337H8.41411V7.26064C8.41411 4.94926 9.57856 2.82827 11.5284 1.58694ZM7.18832 16.011C6.21298 16.011 5.33615 16.4405 4.73681 17.1199V14.3995C4.73681 12.6544 5.9385 11.1733 7.59692 10.7795V16.011H7.18832ZM8.41411 16.011V13.1509H16.5859V16.011H8.41411ZM20.2632 17.1199C19.6638 16.4405 18.7869 16.011 17.8117 16.011H17.4031V10.779C19.0616 11.1733 20.2632 12.6544 20.2632 14.3991V17.1199Z" fill="#9D9EA2"/>
<path d="M1.87662 3.34473H1.05951V4.16192H0.24231V4.97912H1.05951V5.79623H1.87662V4.97912H2.69381V4.16192H1.87662V3.34473Z" fill="#9D9EA2"/>
<path d="M3.91958 4.16195H4.73678V2.93616H5.96257V2.11896H4.73678V0.89325H3.91958V2.11896H2.69379V2.93616H3.91958V4.16195Z" fill="#9D9EA2"/>
<path d="M5.55401 7.83922V7.02202H6.37112V6.20483H5.55401V5.38763H4.73681V6.20483H3.91962V7.02202H4.73681V7.83922H5.55401Z" fill="#9D9EA2"/>
<path d="M19.8546 5.38766H20.6718V4.57055H21.489V3.75335H20.6718V2.93616H19.8546V3.75335H19.0374V4.57055H19.8546V5.38766Z" fill="#9D9EA2"/>
<path d="M24.7577 6.61343H23.5319V5.38763H22.7148V6.61343H21.489V7.43062H22.7148V8.65642H23.5319V7.43062H24.7577V6.61343Z" fill="#9D9EA2"/>
<path d="M19.0374 9.065H19.8546V8.2478H20.6718V7.4306H19.8546V6.6134H19.0374V7.4306H18.2203V8.2478H19.0374V9.065Z" fill="#9D9EA2"/>
</svg>
