<svg width="24" height="24" viewBox="0 0 24 24" fill="none" xmlns="http://www.w3.org/2000/svg">
<path d="M14 4.5C14 6.38176 12.845 7.99375 11.2052 8.66569C11.5 3.5 9.5 4 9.5 4C9.5 4 8 4 8 8.72133C6.41906 8.08627 5.5 6.43589 5.5 4.5C5.5 2.01472 7.01472 0.5 9.5 0.5C11.9853 0.5 14 2.01472 14 4.5Z" fill="#F9BA48"/>
<path d="M18.8052 11.4061C18.7952 11.4058 18.7852 11.4056 18.7752 11.4055C18.3354 11.4096 17.9118 11.572 17.5819 11.8629C17.3411 11.0677 16.6163 10.5174 15.7856 10.4991C15.3724 10.5053 14.9735 10.652 14.6547 10.9149C14.4911 10.0172 13.7246 9.35452 12.8127 9.3224C12.4234 9.32329 12.0446 9.44855 11.7316 9.67999V8.67376C13.9955 7.55314 14.9222 4.80947 13.8016 2.54567C12.6809 0.281824 9.93727 -0.644879 7.67348 0.475741C5.40963 1.59636 4.48293 4.34004 5.60354 6.60383C6.04813 7.50195 6.77536 8.22917 7.67348 8.67376V13.0687L6.72546 11.7922C6.06872 10.925 4.83432 10.7521 3.96458 11.4055C3.15165 12.1016 3.041 13.3185 3.71511 14.1498L7.37826 21.3514C8.53001 23.6174 10.3678 23.9334 11.1204 23.9625C11.7691 23.9917 12.4343 24 13.0705 24C15.0746 24 16.8127 23.896 16.8127 23.896H16.8542C19.8604 23.896 20.7003 20.6653 20.7253 18.9439V13.4346C20.7552 12.3442 19.8956 11.436 18.8052 11.4061ZM7.65684 5.70852V7.69659C6.59605 7.00804 5.95479 5.8303 5.95208 4.56566C5.94179 2.49895 7.60882 0.815185 9.67553 0.804894C11.7422 0.794603 13.426 2.46163 13.4363 4.52834C13.4427 5.80946 12.7933 7.00481 11.715 7.69665V5.70914C11.7152 4.58852 10.8069 3.67991 9.68624 3.67975C8.56556 3.6796 7.657 4.5879 7.65684 5.70852ZM16.7461 23.0644C16.717 23.0644 13.7815 23.2474 11.1329 23.131C10.5425 23.106 9.05392 22.8441 8.11422 20.973L4.43859 13.734C4.42575 13.7089 4.41047 13.6852 4.39285 13.6633C3.97903 13.1896 4.0255 12.4706 4.4968 12.0542C5.00204 11.6906 5.70562 11.7998 6.07682 12.2995L7.74 14.5905L7.76495 14.6113C7.80154 14.6504 7.84354 14.684 7.88969 14.7111L7.96037 14.7361H8.04353H8.07264H8.11838H8.20154L8.27638 14.7028H8.31796L8.33875 14.682C8.36047 14.6635 8.38002 14.6426 8.39696 14.6196C8.41281 14.6002 8.42674 14.5794 8.43854 14.5573C8.44899 14.5345 8.4573 14.5108 8.46349 14.4866C8.46624 14.4589 8.46624 14.4311 8.46349 14.4034C8.46349 14.4034 8.46349 14.4034 8.46349 14.3743V5.70914C8.46349 5.04777 8.9996 4.51165 9.66098 4.51165C10.3224 4.51165 10.8585 5.04777 10.8585 5.70914V13.0687C10.8585 13.2983 11.0446 13.4845 11.2743 13.4845C11.5039 13.4845 11.6901 13.2983 11.6901 13.0687V11.3515C11.6259 10.7556 12.0569 10.2205 12.6529 10.1563C13.2488 10.0921 13.7839 10.5232 13.848 11.1192C13.8563 11.1964 13.8563 11.2743 13.848 11.3515V14.3411C13.848 14.5707 14.0342 14.7569 14.2638 14.7569C14.4935 14.7569 14.6796 14.5707 14.6796 14.3411V12.5282C14.6154 11.9323 15.0465 11.3972 15.6424 11.3331C16.2383 11.2689 16.7735 11.7 16.8376 12.2959C16.8459 12.3731 16.8459 12.4511 16.8376 12.5283V15.8546C16.8376 16.0843 17.0238 16.2704 17.2534 16.2704C17.483 16.2704 17.6692 16.0843 17.6692 15.8546V13.4347C17.605 12.8388 18.0361 12.3037 18.632 12.2396C19.2279 12.1754 19.763 12.6065 19.8272 13.2024C19.8355 13.2796 19.8355 13.3575 19.8272 13.4348L19.8521 18.9357C19.8521 19.1061 19.7523 23.0935 16.7461 23.0644Z" fill="#9D9EA2"/>
</svg>
