<svg width="26" height="26" viewBox="0 0 26 26" fill="none" xmlns="http://www.w3.org/2000/svg">
<g clip-path="url(#clip0)">
<path d="M25.6019 14.8281C25.5999 14.8285 25.5966 14.8285 25.5938 14.8281H0.406262C0.28845 14.8281 0.176731 14.777 0.0991374 14.688C0.0223561 14.599 -0.0125814 14.4808 0.00407489 14.3642L1.6307 2.98919C1.65914 2.78931 1.83057 2.64062 2.03289 2.64062H23.9671C24.1694 2.64062 24.3409 2.78931 24.3693 2.98919L25.9846 14.2854C26 14.328 26.0081 14.374 26.0081 14.4219C26.0081 14.6465 25.8261 14.8281 25.6019 14.8281ZM0.874669 14.0156H25.1249L23.6145 3.45313H2.38511L0.874669 14.0156Z" fill="#9D9EA2"/>
<path d="M16.241 21.7328H9.75891C9.53426 21.7328 9.35266 21.5512 9.35266 21.3265V15.6418C9.35266 15.4172 9.53426 15.2356 9.75891 15.2356H16.2406C16.4653 15.2356 16.6469 15.4172 16.6469 15.6418V21.3265C16.6473 21.5512 16.4653 21.7328 16.241 21.7328ZM10.1652 20.9203H15.8344V16.0481H10.1652V20.9203Z" fill="#9D9EA2"/>
<path d="M25.5938 16.0481H0.40625C0.181594 16.0481 0 15.8665 0 15.6418V14.4219C0 14.1972 0.181594 14.0156 0.40625 14.0156H25.5938C25.8184 14.0156 26 14.1972 26 14.4219V15.6418C26 15.8665 25.8184 16.0481 25.5938 16.0481ZM0.8125 15.2356H25.1875V14.8281H0.8125V15.2356Z" fill="#9D9EA2"/>
<path d="M19.9062 23.3594H6.09375C5.86909 23.3594 5.6875 23.1778 5.6875 22.9531V21.3281C5.6875 21.1035 5.86909 20.9219 6.09375 20.9219H19.9062C20.1309 20.9219 20.3125 21.1035 20.3125 21.3281V22.9531C20.3125 23.1778 20.1309 23.3594 19.9062 23.3594ZM6.5 22.5469H19.5V21.7344H6.5V22.5469Z" fill="#9D9EA2"/>
<path d="M9.34421 13.2048C9.3308 13.2048 9.3174 13.204 9.30318 13.2028C9.07974 13.1804 8.91724 12.9813 8.93918 12.7579L9.75168 4.63252C9.77402 4.40949 9.97268 4.25024 10.1965 4.26852C10.42 4.29086 10.5825 4.48992 10.5605 4.71336L9.74802 12.8388C9.7269 13.0484 9.55059 13.2048 9.34421 13.2048Z" fill="#9D9EA2"/>
<path d="M9.34373 13.2048H2.43707C2.21242 13.2048 2.03082 13.0232 2.03082 12.7985C2.03082 12.5739 2.21242 12.3923 2.43707 12.3923H9.34373C9.56839 12.3923 9.74998 12.5739 9.74998 12.7985C9.74998 13.0232 9.56839 13.2048 9.34373 13.2048Z" fill="#9D9EA2"/>
<path d="M10.1562 5.07928H3.59814C3.37349 5.07928 3.19189 4.89769 3.19189 4.67303C3.19189 4.44838 3.37349 4.26678 3.59814 4.26678H10.1562C10.3809 4.26678 10.5625 4.44838 10.5625 4.67303C10.5625 4.89769 10.3809 5.07928 10.1562 5.07928Z" fill="#9D9EA2"/>
<path d="M22.5814 5.48553H11.7422C11.5176 5.48553 11.336 5.30394 11.336 5.07928C11.336 4.85463 11.5176 4.67303 11.7422 4.67303H22.5814C22.8061 4.67303 22.9877 4.85463 22.9877 5.07928C22.9877 5.30394 22.8061 5.48553 22.5814 5.48553Z" fill="#F9BA48"/>
<path d="M22.8056 6.70435H11.6204C11.3957 6.70435 11.2141 6.52275 11.2141 6.2981C11.2141 6.07344 11.3957 5.89185 11.6204 5.89185H22.8056C23.0303 5.89185 23.2119 6.07344 23.2119 6.2981C23.2119 6.52275 23.0299 6.70435 22.8056 6.70435Z" fill="#F9BA48"/>
<path d="M22.9938 7.9231H11.4985C11.2739 7.9231 11.0923 7.7415 11.0923 7.51685C11.0923 7.29219 11.2739 7.1106 11.4985 7.1106H22.9938C23.2184 7.1106 23.4 7.29219 23.4 7.51685C23.4 7.7415 23.218 7.9231 22.9938 7.9231Z" fill="#F9BA48"/>
<path d="M23.1538 9.14185H11.3766C11.152 9.14185 10.9704 8.96025 10.9704 8.7356C10.9704 8.51094 11.152 8.32935 11.3766 8.32935H23.1538C23.3785 8.32935 23.5601 8.51094 23.5601 8.7356C23.5601 8.96025 23.3785 9.14185 23.1538 9.14185Z" fill="#F9BA48"/>
<path d="M23.3285 10.3606H11.2548C11.0301 10.3606 10.8485 10.179 10.8485 9.95435C10.8485 9.72969 11.0301 9.5481 11.2548 9.5481H23.3285C23.5532 9.5481 23.7347 9.72969 23.7347 9.95435C23.7347 10.179 23.5532 10.3606 23.3285 10.3606Z" fill="#F9BA48"/>
<path d="M23.5028 11.5793H11.1329C10.9082 11.5793 10.7266 11.3978 10.7266 11.1731C10.7266 10.9484 10.9082 10.7668 11.1329 10.7668H23.5024C23.727 10.7668 23.9086 10.9484 23.9086 11.1731C23.9086 11.3978 23.727 11.5793 23.5028 11.5793Z" fill="#F9BA48"/>
<path d="M17.4687 12.7981H11.011C10.7863 12.7981 10.6047 12.6165 10.6047 12.3918C10.6047 12.1672 10.7863 11.9856 11.011 11.9856H17.4687C17.6934 11.9856 17.875 12.1672 17.875 12.3918C17.875 12.6165 17.6934 12.7981 17.4687 12.7981Z" fill="#F9BA48"/>
<path d="M2.43709 13.2043C2.418 13.2043 2.3985 13.2031 2.379 13.2003C2.15678 13.1686 2.0024 12.9626 2.03409 12.7404L3.19556 4.61703C3.22725 4.39481 3.43281 4.24246 3.65544 4.27212C3.87766 4.30381 4.03203 4.50978 4.00035 4.73199L2.83887 12.8558C2.81003 13.0585 2.63616 13.2043 2.43709 13.2043Z" fill="#9D9EA2"/>
</g>
<defs>
<clipPath id="clip0">
<rect width="26" height="26" fill="white"/>
</clipPath>
</defs>
</svg>
