<svg width="26" height="26" viewBox="0 0 26 26" fill="none" xmlns="http://www.w3.org/2000/svg">
<path d="M10.1562 10.1562V12.1875H12.7969C13.3579 12.1875 13.8125 12.6421 13.8125 13.2031C13.8125 13.7642 13.3579 14.2188 12.7969 14.2188H10.1562V16.6562H15.0312V10.1562H10.1562Z" fill="#F9BA48"/>
<path d="M22.0764 4.9083L22.3438 8.53125L21.5312 9.34375L20.7188 8.53125L20.9861 4.9079L22.0764 4.9083Z" fill="#F9BA48"/>
<path d="M23.0328 4.76003C23.6015 4.31316 23.9688 3.62131 23.9688 2.84375C23.9688 1.49947 22.8755 0.40625 21.5313 0.40625C20.6436 0.40625 19.8673 0.884812 19.4411 1.59616C19.188 1.36378 18.8541 1.21875 18.4844 1.21875C17.7003 1.21875 17.0625 1.85656 17.0625 2.64062V6.54266L15.5773 6.70759C15.9961 6.21237 16.25 5.57294 16.25 4.875C16.25 3.30687 14.9744 2.03125 13.4063 2.03125C11.8381 2.03125 10.5625 3.30687 10.5625 4.875C10.5625 5.70294 10.92 6.44678 11.4863 6.96678C10.2676 7.16016 9.21214 7.84428 8.53127 8.81359C7.88555 9.60091 7.7188 11.0859 7.71877 12.3679C7.71965 12.6558 7.71877 12.5938 7.71877 12.5938C7.71877 13.7138 8.62998 14.625 9.75002 14.625H12.7969C13.581 14.625 14.2188 13.9872 14.2188 13.2031C14.2188 12.4191 13.581 11.7812 12.7969 11.7812H9.34377V12.5938H12.7969C13.1329 12.5938 13.4063 12.8672 13.4063 13.2031C13.4063 13.5391 13.1329 13.8125 12.7969 13.8125H9.75002C9.07808 13.8125 8.53127 13.2657 8.53127 12.5938V11.375C8.53127 9.35919 10.1717 7.71875 12.1875 7.71875H13.8125L17.875 7.26984V2.64062C17.875 2.30466 18.1484 2.03125 18.4844 2.03125C18.8204 2.03125 19.0938 2.30466 19.0938 2.64062V7.50303C19.0938 8.11647 18.6347 8.63647 18.0261 8.71244L15.8438 8.98503V23.7656C15.8438 24.3258 15.388 24.7812 14.8281 24.7812C14.2683 24.7812 13.8125 24.3258 13.8125 23.7656V16.6562H13V23.7656C13 24.3258 12.5442 24.7812 11.9844 24.7812C11.4246 24.7812 10.9688 24.3258 10.9688 23.7656V16.6562H10.1563V23.7656C10.1563 24.7735 10.9765 25.5938 11.9844 25.5938C12.5617 25.5938 13.0711 25.3195 13.4063 24.9007C13.7414 25.3195 14.2509 25.5938 14.8281 25.5938C15.836 25.5938 16.6563 24.7735 16.6563 23.7656V9.70247L17.4688 9.60091V10.9688C17.4688 11.8649 18.1976 12.5938 19.0938 12.5938V19.2969C19.0938 20.0809 19.7316 20.7188 20.5156 20.7188C20.9138 20.7188 21.2729 20.5534 21.5313 20.2889C21.7896 20.5534 22.1488 20.7188 22.5469 20.7188C23.331 20.7188 23.9688 20.0809 23.9688 19.2969V12.5938C24.865 12.5938 25.5938 11.8649 25.5938 10.9688V8.53125C25.5938 6.82175 24.531 5.35844 23.0328 4.76003ZM11.375 4.875C11.375 3.75497 12.2862 2.84375 13.4063 2.84375C14.5263 2.84375 15.4375 3.75497 15.4375 4.875C15.4375 5.99503 14.5263 6.90625 13.4063 6.90625C12.2862 6.90625 11.375 5.99503 11.375 4.875ZM21.5313 1.21875C22.4275 1.21875 23.1563 1.94756 23.1563 2.84375C23.1563 3.73994 22.4275 4.46875 21.5313 4.46875C20.6351 4.46875 19.9063 3.73994 19.9063 2.84375C19.9063 1.94756 20.6351 1.21875 21.5313 1.21875ZM20.0359 4.7645C19.9928 4.78156 19.9489 4.79619 19.9063 4.81488V4.65562C19.9485 4.69341 19.9912 4.72997 20.0359 4.7645ZM18.2813 10.9688V9.48431C18.5823 9.42256 18.8589 9.29947 19.0938 9.12194V11.7812C18.6457 11.7812 18.2813 11.4168 18.2813 10.9688ZM24.7813 10.9688C24.7813 11.4168 24.4169 11.7812 23.9688 11.7812V8.9375H23.1563V19.2969C23.1563 19.6328 22.8829 19.9062 22.5469 19.9062C22.2109 19.9062 21.9375 19.6328 21.9375 19.2969V11.375H21.125V19.2969C21.125 19.6328 20.8516 19.9062 20.5156 19.9062C20.1797 19.9062 19.9063 19.6328 19.9063 19.2969V8.9375H19.3014C19.6731 8.56741 19.9063 8.06081 19.9063 7.50303V5.7265C20.3995 5.43969 20.9544 5.28125 21.5313 5.28125C23.3232 5.28125 24.7813 6.73928 24.7813 8.53125V10.9688Z" fill="#9D9EA2"/>
</svg>
