<svg width="25" height="25" viewBox="0 0 25 25" fill="none" xmlns="http://www.w3.org/2000/svg">
<g clip-path="url(#clip0)">
<path d="M15.675 -0.000517828L14.0321 2.46399L16.4966 4.1069L18.1395 1.64239L15.675 -0.000517828Z" fill="#F9BA48"/>
<path d="M14.7534 20.8695C14.9152 20.8108 15.0655 20.7204 15.1928 20.5955C15.4705 20.3228 15.6003 19.9454 15.5489 19.5593L14.854 14.3478V10.6453L17.8846 9.56309C18.2649 9.42711 18.5463 9.09609 18.6186 8.69858L19.0793 6.1633L22.8476 8.56102L23.2886 7.86779L19.212 5.27382C19.2025 5.00808 19.1064 4.75057 18.9323 4.54196C18.7019 4.26596 18.3635 4.10746 18.0038 4.10746C17.8361 4.10746 17.6781 4.144 17.5326 4.20481L14.2532 2.11804L13.8121 2.81135L16.9195 4.78851C16.8677 4.89566 16.8275 5.00992 16.8082 5.1331L16.4271 7.61003L14.0162 8.42609C13.5665 8.02769 12.9874 7.80383 12.3898 7.80383C11.8608 7.80383 11.352 7.97548 10.9027 8.31227L10.7758 8.41741C10.745 8.44414 10.0723 9.05526 9.51494 9.5616V8.25848C9.51494 7.63587 9.073 7.09458 8.48693 6.99925C8.12595 6.93967 7.76076 7.04157 7.48521 7.27603C7.20878 7.51058 7.05072 7.85264 7.05072 8.21449V11.5629C7.05072 12.434 7.75962 13.1429 8.63071 13.1429C9.02209 13.1429 9.39753 12.9988 9.68745 12.7372L9.92568 12.5232V14.348L9.23491 19.5294C9.15606 20.1208 9.49452 20.6781 10.0271 20.8691C9.37203 21.0539 8.73427 21.3135 8.13094 21.6557L3.49042 24.2854L3.89538 25L8.53591 22.3703C10.9135 21.0236 13.8673 21.0232 16.2444 22.3703L20.8849 25L21.2899 24.2854L16.6494 21.6557C16.0458 21.3139 15.408 21.0544 14.7534 20.8695ZM9.13775 12.1268C8.99852 12.2525 8.81821 12.3215 8.63053 12.3215C8.21243 12.3215 7.87195 11.981 7.87195 11.5629V8.21449C7.87195 8.09376 7.92452 7.97959 8.01695 7.90153C8.11062 7.82223 8.23013 7.79025 8.35498 7.80953C8.54476 7.84072 8.69344 8.03786 8.69344 8.25839V11.4179L9.38018 10.7937C9.38018 10.7937 11.2447 9.09907 11.3072 9.0437L11.4103 8.95783C12.0864 8.45185 13.0446 8.55366 13.6031 9.17179L13.7838 9.37182L17.1626 8.22799L17.6194 5.25778C17.6206 5.25077 17.6247 5.24543 17.626 5.23851L18.3307 5.68702L17.8099 8.55164C17.7898 8.6609 17.7126 8.75202 17.6079 8.78943L14.0325 10.0668V14.3751L14.7344 19.6678C14.7513 19.7951 14.7086 19.9195 14.6169 20.0095C14.5636 20.0625 14.4465 20.148 14.267 20.1196C14.0974 20.0937 13.9557 19.9339 13.9298 19.7392L13.1598 13.9643H11.6192L10.8446 19.7745C10.829 19.8904 10.7645 19.9934 10.6667 20.0579C10.5677 20.1236 10.4467 20.1413 10.3255 20.1084C10.1419 20.0575 10.0199 19.8514 10.0483 19.6382L10.7428 14.4292L10.7469 10.6787L9.13775 12.1268ZM11.2816 20.61C11.4849 20.4182 11.6217 20.1643 11.6591 19.8834L12.3384 14.7858H12.4406L13.1158 19.8481C13.156 20.1492 13.2998 20.4153 13.5055 20.6112C12.7676 20.5159 12.0197 20.5155 11.2816 20.61Z" fill="#9D9EA2"/>
<path d="M14.8539 5.33964C14.8539 3.98062 13.7487 2.87543 12.3897 2.87543C11.0307 2.87543 9.92548 3.98062 9.92548 5.33964C9.92548 6.69867 11.0307 7.80386 12.3897 7.80386C13.7487 7.80386 14.8539 6.69867 14.8539 5.33964ZM12.3897 6.98246C11.4837 6.98246 10.7469 6.24569 10.7469 5.33964C10.7469 4.4336 11.4837 3.69683 12.3897 3.69683C13.2957 3.69683 14.0325 4.4336 14.0325 5.33964C14.0325 6.24569 13.2957 6.98246 12.3897 6.98246Z" fill="#9D9EA2"/>
<path d="M22.2466 11.0895H21.4252V11.9109H20.6038V12.7323H21.4252V13.5537H22.2466V12.7323H23.068V11.9109H22.2466V11.0895Z" fill="#9D9EA2"/>
<path d="M18.9609 15.1965V14.7857H19.3717V13.9643H18.9609V13.5536H18.1395V13.9643H17.7289V14.7857H18.1395V15.1965H18.9609Z" fill="#9D9EA2"/>
<path d="M21.4252 14.7858H20.6038V15.6072H19.7823V16.4286H20.6038V17.25H21.4252V16.4286H22.2466V15.6072H21.4252V14.7858Z" fill="#9D9EA2"/>
<path d="M6.22912 3.69682H7.05053V2.87542H7.87193V2.05401H7.05053V1.2326H6.22912V2.05401H5.40771V2.87542H6.22912V3.69682Z" fill="#9D9EA2"/>
<path d="M2.94349 2.46465V2.05399H3.35423V1.23259H2.94349V0.821838H2.12208V1.23259H1.71143V2.05399H2.12208V2.46465H2.94349Z" fill="#9D9EA2"/>
<path d="M4.17565 6.16106V5.33965H4.99706V4.51824H4.17565V3.69684H3.35424V4.51824H2.53284V5.33965H3.35424V6.16106H4.17565Z" fill="#9D9EA2"/>
</g>
<defs>
<clipPath id="clip0">
<rect width="25" height="25" fill="white"/>
</clipPath>
</defs>
</svg>
