<svg width="26" height="26" viewBox="0 0 26 26" fill="none" xmlns="http://www.w3.org/2000/svg">
<path d="M15.8438 14.625H3.65625C3.20816 14.625 2.84375 14.2606 2.84375 13.8125V6.5C2.84375 6.05191 3.20816 5.6875 3.65625 5.6875H15.8438C16.2918 5.6875 16.6562 6.05191 16.6562 6.5V13.8125C16.6562 14.2606 16.2918 14.625 15.8438 14.625Z" fill="#F9BA48"/>
<path d="M23.1562 22.75H10.9688V17.0625H23.1562V22.75Z" fill="#F9BA48"/>
<path d="M24.375 1.625H1.625C0.953062 1.625 0.40625 2.17181 0.40625 2.84375V3.65625C0.40625 4.18519 0.747094 4.63206 1.21875 4.80025V24.375H24.7812V4.80025C25.2529 4.63206 25.5938 4.18519 25.5938 3.65625V2.84375C25.5938 2.17181 25.0469 1.625 24.375 1.625ZM23.9688 4.875V15.4375H2.03125V4.875H23.9688ZM4.46875 18.2812C4.46875 18.0574 4.65116 17.875 4.875 17.875C5.09884 17.875 5.28125 18.0574 5.28125 18.2812C5.28125 18.5051 5.09884 18.6875 4.875 18.6875C4.65116 18.6875 4.46875 18.5051 4.46875 18.2812ZM7.71875 18.2812C7.71875 18.0574 7.90116 17.875 8.125 17.875C8.34884 17.875 8.53125 18.0574 8.53125 18.2812C8.53125 18.5051 8.34884 18.6875 8.125 18.6875C7.90116 18.6875 7.71875 18.5051 7.71875 18.2812ZM8.53125 23.5625V19.4253C9.00291 19.2571 9.34375 18.8102 9.34375 18.2812C9.34375 17.6093 8.79694 17.0625 8.125 17.0625C7.45306 17.0625 6.90625 17.6093 6.90625 18.2812C6.90625 18.8102 7.24709 19.2571 7.71875 19.4253V23.5625H5.28125V19.4253C5.75291 19.2571 6.09375 18.8102 6.09375 18.2812C6.09375 17.6093 5.54694 17.0625 4.875 17.0625C4.20306 17.0625 3.65625 17.6093 3.65625 18.2812C3.65625 18.8102 3.99709 19.2571 4.46875 19.4253V23.5625H2.03125V16.25H23.9688V23.5625H8.53125ZM24.7812 3.65625C24.7812 3.88009 24.5988 4.0625 24.375 4.0625H1.625C1.40116 4.0625 1.21875 3.88009 1.21875 3.65625V2.84375C1.21875 2.61991 1.40116 2.4375 1.625 2.4375H24.375C24.5988 2.4375 24.7812 2.61991 24.7812 2.84375V3.65625Z" fill="#9D9EA2"/>
<path d="M21.9375 8.125C22.6094 8.125 23.1562 7.57819 23.1562 6.90625C23.1562 6.23431 22.6094 5.6875 21.9375 5.6875C21.2656 5.6875 20.7188 6.23431 20.7188 6.90625C20.7188 7.57819 21.2656 8.125 21.9375 8.125ZM21.9375 6.5C22.1613 6.5 22.3438 6.68241 22.3438 6.90625C22.3438 7.13009 22.1613 7.3125 21.9375 7.3125C21.7137 7.3125 21.5312 7.13009 21.5312 6.90625C21.5312 6.68241 21.7137 6.5 21.9375 6.5Z" fill="#9D9EA2"/>
<path d="M21.9375 11.375C22.6094 11.375 23.1562 10.8282 23.1562 10.1562C23.1562 9.48431 22.6094 8.9375 21.9375 8.9375C21.2656 8.9375 20.7188 9.48431 20.7188 10.1562C20.7188 10.8282 21.2656 11.375 21.9375 11.375ZM21.9375 9.75C22.1613 9.75 22.3438 9.93241 22.3438 10.1562C22.3438 10.3801 22.1613 10.5625 21.9375 10.5625C21.7137 10.5625 21.5312 10.3801 21.5312 10.1562C21.5312 9.93241 21.7137 9.75 21.9375 9.75Z" fill="#9D9EA2"/>
<path d="M21.9375 14.625C22.6094 14.625 23.1562 14.0782 23.1562 13.4062C23.1562 12.7343 22.6094 12.1875 21.9375 12.1875C21.2656 12.1875 20.7188 12.7343 20.7188 13.4062C20.7188 14.0782 21.2656 14.625 21.9375 14.625ZM21.9375 13C22.1613 13 22.3438 13.1824 22.3438 13.4062C22.3438 13.6301 22.1613 13.8125 21.9375 13.8125C21.7137 13.8125 21.5312 13.6301 21.5312 13.4062C21.5312 13.1824 21.7137 13 21.9375 13Z" fill="#9D9EA2"/>
<path d="M18.6875 8.125C19.3594 8.125 19.9062 7.57819 19.9062 6.90625C19.9062 6.23431 19.3594 5.6875 18.6875 5.6875C18.0156 5.6875 17.4688 6.23431 17.4688 6.90625C17.4688 7.57819 18.0156 8.125 18.6875 8.125ZM18.6875 6.5C18.9113 6.5 19.0938 6.68241 19.0938 6.90625C19.0938 7.13009 18.9113 7.3125 18.6875 7.3125C18.4637 7.3125 18.2812 7.13009 18.2812 6.90625C18.2812 6.68241 18.4637 6.5 18.6875 6.5Z" fill="#9D9EA2"/>
<path d="M18.6875 11.375C19.3594 11.375 19.9062 10.8282 19.9062 10.1562C19.9062 9.48431 19.3594 8.9375 18.6875 8.9375C18.0156 8.9375 17.4688 9.48431 17.4688 10.1562C17.4688 10.8282 18.0156 11.375 18.6875 11.375ZM18.6875 9.75C18.9113 9.75 19.0938 9.93241 19.0938 10.1562C19.0938 10.3801 18.9113 10.5625 18.6875 10.5625C18.4637 10.5625 18.2812 10.3801 18.2812 10.1562C18.2812 9.93241 18.4637 9.75 18.6875 9.75Z" fill="#9D9EA2"/>
<path d="M18.6875 14.625C19.3594 14.625 19.9062 14.0782 19.9062 13.4062C19.9062 12.7343 19.3594 12.1875 18.6875 12.1875C18.0156 12.1875 17.4688 12.7343 17.4688 13.4062C17.4688 14.0782 18.0156 14.625 18.6875 14.625ZM18.6875 13C18.9113 13 19.0938 13.1824 19.0938 13.4062C19.0938 13.6301 18.9113 13.8125 18.6875 13.8125C18.4637 13.8125 18.2812 13.6301 18.2812 13.4062C18.2812 13.1824 18.4637 13 18.6875 13Z" fill="#9D9EA2"/>
<path d="M5.43644 11.375L6.55322 13.609L7.80325 10.2749L8.97 12.2188L10.5211 9.11584L12.0969 13.0552L14.0298 10.1562H16.6562V9.34375H13.5952L12.2781 11.3197L10.6039 7.13416L8.905 10.5312L7.63425 8.41262L6.44678 11.5785L5.93856 10.5625H2.84375V11.375H5.43644Z" fill="#F9BA48"/>
<path d="M20.3125 18.6875C19.6406 18.6875 19.0938 19.2343 19.0938 19.9062C19.0938 20.5782 19.6406 21.125 20.3125 21.125C20.9844 21.125 21.5312 20.5782 21.5312 19.9062C21.5312 19.2343 20.9844 18.6875 20.3125 18.6875ZM20.3125 20.3125C20.0887 20.3125 19.9062 20.1301 19.9062 19.9062C19.9062 19.6824 20.0887 19.5 20.3125 19.5C20.5363 19.5 20.7188 19.6824 20.7188 19.9062C20.7188 20.1301 20.5363 20.3125 20.3125 20.3125Z" fill="#F9BA48"/>
<path d="M17.0625 18.6875C16.3906 18.6875 15.8438 19.2343 15.8438 19.9062C15.8438 20.5782 16.3906 21.125 17.0625 21.125C17.7344 21.125 18.2812 20.5782 18.2812 19.9062C18.2812 19.2343 17.7344 18.6875 17.0625 18.6875ZM17.0625 20.3125C16.8387 20.3125 16.6562 20.1301 16.6562 19.9062C16.6562 19.6824 16.8387 19.5 17.0625 19.5C17.2863 19.5 17.4688 19.6824 17.4688 19.9062C17.4688 20.1301 17.2863 20.3125 17.0625 20.3125Z" fill="#F9BA48"/>
<path d="M13.8125 18.6875C13.1406 18.6875 12.5938 19.2343 12.5938 19.9062C12.5938 20.5782 13.1406 21.125 13.8125 21.125C14.4844 21.125 15.0312 20.5782 15.0312 19.9062C15.0312 19.2343 14.4844 18.6875 13.8125 18.6875ZM13.8125 20.3125C13.5887 20.3125 13.4062 20.1301 13.4062 19.9062C13.4062 19.6824 13.5887 19.5 13.8125 19.5C14.0363 19.5 14.2188 19.6824 14.2188 19.9062C14.2188 20.1301 14.0363 20.3125 13.8125 20.3125Z" fill="#F9BA48"/>
</svg>
