<svg width="26" height="26" viewBox="0 0 26 26" fill="none" xmlns="http://www.w3.org/2000/svg">
<path d="M16.4868 7.5205C15.4785 6.87741 14.2846 6.5 13 6.5C11.3815 6.5 9.90478 7.09516 8.76688 8.07381C8.56172 8.32975 8.32934 8.56212 8.07341 8.76728C7.09516 9.90478 6.5 11.3815 6.5 13C6.5 14.2846 6.87741 15.4785 7.5205 16.4868C8.68116 16.8781 9.62569 17.732 10.1392 18.8301C11.0037 19.255 11.9722 19.5 13 19.5C16.59 19.5 19.5 16.59 19.5 13C19.5 11.9722 19.255 11.0037 18.8301 10.1392C17.7316 9.62569 16.8781 8.68116 16.4868 7.5205Z" fill="#F9BA48"/>
<path d="M20.4315 13.9316L21.0059 14.506L21.4593 14.0526C20.9381 18.261 17.3469 21.5313 13 21.5313C12.6197 21.5313 12.2366 21.5057 11.8609 21.4557L11.7536 22.2609C12.1647 22.3162 12.5844 22.3438 13 22.3438C17.8372 22.3438 21.827 18.6493 22.297 13.934L22.869 14.506L23.4434 13.9316L21.9375 12.4256L20.4315 13.9316Z" fill="#9D9EA2"/>
<path d="M12.7753 4.91765L12.1229 4.59143C12.417 4.52237 12.7124 4.46874 13 4.46874C13.7844 4.46874 14.5604 4.57477 15.3071 4.78399L15.526 4.00156C14.7083 3.77243 13.858 3.65624 13 3.65624C12.5584 3.65624 12.1391 3.7444 11.7329 3.84921L12.1448 3.02534L11.418 2.66174L10.424 4.65034L12.4125 5.64443L12.7753 4.91765Z" fill="#9D9EA2"/>
<path d="M2.66217 14.5824L4.65076 15.5765L5.64486 13.5879L4.91808 13.2243L4.56911 13.9222C4.5102 13.6785 4.46876 13.3953 4.46876 13C4.46876 12.3358 4.54514 11.6744 4.69667 11.0342L3.9057 10.8477C3.73995 11.5489 3.65626 12.2732 3.65626 13C3.65626 13.5505 3.72776 13.9336 3.8147 14.2501L3.02576 13.8556L2.66217 14.5824Z" fill="#9D9EA2"/>
<path d="M20.7188 1.21875C18.0306 1.21875 15.8438 3.40559 15.8438 6.09375C15.8438 6.31109 15.8628 6.52397 15.8909 6.734C14.9858 6.31434 14.0018 6.09375 13 6.09375C11.8832 6.09375 10.831 6.36634 9.89666 6.83881C10.0624 6.34888 10.1562 5.82644 10.1562 5.28125C10.1562 2.59309 7.96941 0.40625 5.28125 0.40625C2.59309 0.40625 0.40625 2.59309 0.40625 5.28125C0.40625 7.96941 2.59309 10.1562 5.28125 10.1562C5.82644 10.1562 6.34888 10.0624 6.83881 9.89666C6.36634 10.831 6.09375 11.8832 6.09375 13C6.09375 14.0018 6.31434 14.9858 6.734 15.8909C6.52397 15.8628 6.31109 15.8438 6.09375 15.8438C3.40559 15.8438 1.21875 18.0306 1.21875 20.7188C1.21875 23.4069 3.40559 25.5938 6.09375 25.5938C8.78191 25.5938 10.9688 23.4069 10.9688 20.7188C10.9688 20.3125 10.9135 19.9201 10.8193 19.5427C11.5229 19.7799 12.2525 19.9062 13 19.9062C16.8082 19.9062 19.9062 16.8082 19.9062 13C19.9062 12.2525 19.7799 11.5229 19.5427 10.8193C19.9201 10.9135 20.3125 10.9688 20.7188 10.9688C23.4069 10.9688 25.5938 8.78191 25.5938 6.09375C25.5938 3.40559 23.4069 1.21875 20.7188 1.21875ZM20.7188 2.03125C22.9588 2.03125 24.7812 3.85369 24.7812 6.09375C24.7812 6.92941 24.5269 7.70656 24.0927 8.35331C23.7177 7.43966 22.9925 6.72628 22.0919 6.36228C22.4937 5.99097 22.75 5.46406 22.75 4.875C22.75 3.75497 21.8388 2.84375 20.7188 2.84375C19.5987 2.84375 18.6875 3.75497 18.6875 4.875C18.6875 5.46406 18.9438 5.99097 19.3456 6.36228C18.4446 6.72628 17.7198 7.43925 17.3448 8.35331C16.9106 7.70656 16.6562 6.92941 16.6562 6.09375C16.6562 3.85369 18.4787 2.03125 20.7188 2.03125ZM19.5 4.875C19.5 4.20306 20.0468 3.65625 20.7188 3.65625C21.3907 3.65625 21.9375 4.20306 21.9375 4.875C21.9375 5.54694 21.3907 6.09375 20.7188 6.09375C20.0468 6.09375 19.5 5.54694 19.5 4.875ZM17.0954 9.34375H16.1135C15.8458 8.51987 15.4911 7.81178 15.0682 7.27228C15.4456 7.40959 15.8096 7.58631 16.157 7.79756C16.3723 8.37241 16.6924 8.89484 17.0954 9.34375ZM19.073 13.4062C19.0149 14.2817 18.7757 15.1076 18.3853 15.8438H16.3402C16.5149 15.0962 16.6201 14.2752 16.6457 13.4062H19.073ZM15.5021 15.8438H10.4979C10.3102 15.104 10.1948 14.2764 10.1664 13.4062H15.834C15.8056 14.2764 15.6898 15.104 15.5021 15.8438ZM13 19.0938C12.0933 19.0938 11.2718 18.124 10.7469 16.6562H15.2531C14.7282 18.124 13.9067 19.0938 13 19.0938ZM6.92087 13.4062H9.35431C9.37991 14.2752 9.48512 15.0962 9.65981 15.8438H7.61759C7.21581 15.0865 6.97816 14.2577 6.92087 13.4062ZM7.61434 10.1562H9.65941C9.48472 10.9038 9.3795 11.7248 9.35391 12.5938H6.92656C6.98506 11.7183 7.22434 10.8924 7.61434 10.1562ZM10.166 12.5938C10.1944 11.7236 10.3098 10.896 10.4975 10.1562H15.5021C15.6898 10.896 15.8052 11.7236 15.8336 12.5938H10.166ZM10.7469 9.34375C11.2718 7.87597 12.0933 6.90625 13 6.90625C13.9067 6.90625 14.7282 7.87597 15.2531 9.34375H10.7469ZM10.9289 7.27634C10.5072 7.81544 10.1538 8.52191 9.8865 9.34375H8.13637C8.21112 9.24463 8.28628 9.14631 8.36672 9.05206C8.61697 8.84691 8.84691 8.61697 9.05206 8.36672C9.60213 7.8975 10.2367 7.52781 10.9289 7.27634ZM5.28125 1.21875C7.52131 1.21875 9.34375 3.04119 9.34375 5.28125C9.34375 6.11691 9.08944 6.89406 8.65516 7.54081C8.28019 6.62716 7.55503 5.91378 6.65437 5.54978C7.05616 5.17847 7.3125 4.65156 7.3125 4.0625C7.3125 2.94247 6.40128 2.03125 5.28125 2.03125C4.16122 2.03125 3.25 2.94247 3.25 4.0625C3.25 4.65156 3.50634 5.17847 3.90812 5.54978C3.00706 5.91378 2.28231 6.62675 1.90734 7.54081C1.47306 6.89406 1.21875 6.11691 1.21875 5.28125C1.21875 3.04119 3.04119 1.21875 5.28125 1.21875ZM4.0625 4.0625C4.0625 3.39056 4.60931 2.84375 5.28125 2.84375C5.95319 2.84375 6.5 3.39056 6.5 4.0625C6.5 4.73444 5.95319 5.28125 5.28125 5.28125C4.60931 5.28125 4.0625 4.73444 4.0625 4.0625ZM5.28125 9.34375C4.21688 9.34375 3.25 8.92897 2.52484 8.25703C2.83359 6.99197 3.96012 6.09375 5.28125 6.09375C6.58897 6.09375 7.70697 6.97328 8.02913 8.21763C7.95722 8.29238 7.88816 8.36997 7.8195 8.44797C7.12359 9.00697 6.24122 9.34375 5.28125 9.34375ZM3.33734 23.6945C3.64609 22.4295 4.77262 21.5312 6.09375 21.5312C7.41488 21.5312 8.54141 22.4295 8.85016 23.6945C8.125 24.3665 7.15812 24.7812 6.09375 24.7812C5.02938 24.7812 4.0625 24.3665 3.33734 23.6945ZM4.875 19.5C4.875 18.8281 5.42181 18.2812 6.09375 18.2812C6.76569 18.2812 7.3125 18.8281 7.3125 19.5C7.3125 20.1719 6.76569 20.7188 6.09375 20.7188C5.42181 20.7188 4.875 20.1719 4.875 19.5ZM9.46766 22.9783C9.09269 22.0647 8.36753 21.3513 7.46687 20.9873C7.86866 20.616 8.125 20.0891 8.125 19.5C8.125 18.38 7.21378 17.4688 6.09375 17.4688C4.97372 17.4688 4.0625 18.38 4.0625 19.5C4.0625 20.0891 4.31884 20.616 4.72062 20.9873C3.81956 21.3513 3.09481 22.0643 2.71984 22.9783C2.28556 22.3316 2.03125 21.5544 2.03125 20.7188C2.03125 18.4787 3.85369 16.6562 6.09375 16.6562C8.33381 16.6562 10.1562 18.4787 10.1562 20.7188C10.1562 21.5544 9.90194 22.3316 9.46766 22.9783ZM8.78272 16.6562H9.8865C10.1538 17.4785 10.5077 18.1854 10.9297 18.7245C10.7632 18.6635 10.5995 18.5912 10.4366 18.5152C10.0531 17.7625 9.48269 17.121 8.78272 16.6562ZM15.0711 18.7237C15.4928 18.1846 15.8462 17.4781 16.1135 16.6562H17.8636C17.158 17.5923 16.1919 18.3166 15.0711 18.7237ZM19.0706 12.5938H16.6457C16.6201 11.7248 16.5149 10.9038 16.3402 10.1562H18.0294C18.185 10.2594 18.3479 10.3517 18.5148 10.4366C18.837 11.1256 19.0206 11.8491 19.0706 12.5938ZM17.9623 9.06953C18.2711 7.80447 19.3976 6.90625 20.7188 6.90625C22.0399 6.90625 23.1664 7.80447 23.4752 9.06953C22.75 9.74147 21.7831 10.1562 20.7188 10.1562C19.6544 10.1562 18.6875 9.74147 17.9623 9.06953Z" fill="#9D9EA2"/>
</svg>
