<svg width="26" height="26" viewBox="0 0 26 26" fill="none" xmlns="http://www.w3.org/2000/svg">
<path d="M18.8816 4.41177L14.7333 1.50757V0H13.8666V1.3H12.1333V0H11.2666V1.50757L7.11834 4.4109C6.92188 4.54756 6.87334 4.81758 7.00995 5.01405C7.09115 5.13077 7.2244 5.20027 7.36664 5.2H18.6333C18.8726 5.19984 19.0665 5.00565 19.0663 4.76634C19.0662 4.62513 18.9972 4.4928 18.8816 4.41177ZM8.74117 4.33333L11.8365 2.16667H14.1635L17.2588 4.33333H8.74117Z" fill="#F9BA48"/>
<path d="M8.74117 4.33333L11.8365 2.16667H14.1635L17.2588 4.33333H8.74117Z" fill="#F9BA48"/>
<path d="M5.63328 16.9H4.76661C4.04863 16.9 3.46661 17.482 3.46661 18.2V18.6334C3.46661 19.3513 4.04863 19.9334 4.76661 19.9334H5.63328C6.35126 19.9334 6.93328 19.3513 6.93328 18.6334V18.2C6.93328 17.482 6.35126 16.9 5.63328 16.9ZM6.06661 18.6334C6.06661 18.8727 5.87259 19.0667 5.63328 19.0667H4.76661C4.52731 19.0667 4.33328 18.8727 4.33328 18.6334V18.2C4.33328 17.9607 4.52731 17.7667 4.76661 17.7667H5.63328C5.87259 17.7667 6.06661 17.9607 6.06661 18.2V18.6334Z" fill="#9D9EA2"/>
<path d="M21.2333 16.9H20.3666C19.6486 16.9 19.0666 17.482 19.0666 18.2V18.6334C19.0666 19.3513 19.6486 19.9334 20.3666 19.9334H21.2333C21.9512 19.9334 22.5333 19.3513 22.5333 18.6334V18.2C22.5333 17.482 21.9512 16.9 21.2333 16.9ZM21.6666 18.6334C21.6666 18.8727 21.4726 19.0667 21.2333 19.0667H20.3666C20.1273 19.0667 19.9333 18.8727 19.9333 18.6334V18.2C19.9333 17.9607 20.1273 17.7667 20.3666 17.7667H21.2333C21.4726 17.7667 21.6666 17.9607 21.6666 18.2V18.6334Z" fill="#9D9EA2"/>
<path d="M16.8999 16.9H9.09993C8.38195 16.9 7.79993 17.482 7.79993 18.2V18.6334C7.79993 19.3513 8.38195 19.9334 9.09993 19.9334H16.8999C17.6179 19.9334 18.1999 19.3513 18.1999 18.6334V18.2C18.1999 17.482 17.6179 16.9 16.8999 16.9ZM17.3333 18.6334C17.3333 18.8727 17.1392 19.0667 16.8999 19.0667H9.09993C8.86062 19.0667 8.66659 18.8727 8.66659 18.6334V18.2C8.66659 17.9607 8.86062 17.7667 9.09993 17.7667H16.8999C17.1392 17.7667 17.3333 17.9607 17.3333 18.2V18.6334Z" fill="#9D9EA2"/>
<path d="M22.9042 15.6282L21.9435 15.2438L19.0697 11.2923C18.6611 10.7325 18.0102 10.4011 17.3173 10.4H8.68265C7.9897 10.4011 7.33878 10.7325 6.93025 11.2923L4.05639 15.2438L3.09569 15.6282C2.271 15.9549 1.73047 16.7531 1.73329 17.6402V25.1334C1.73329 25.612 2.12128 26 2.59995 26H5.19995C5.67862 26 6.06662 25.612 6.06662 25.1334V23.4H19.9333V25.1334C19.9333 25.612 20.3213 26 20.8 26H23.4C23.8786 26 24.2666 25.612 24.2666 25.1334V17.6402C24.2694 16.7531 23.7289 15.9549 22.9042 15.6282ZM7.63095 11.8023C7.87606 11.4663 8.26676 11.2673 8.68265 11.2667H17.3173C17.7331 11.2673 18.1238 11.4663 18.369 11.8023L20.8156 15.1667H5.18435L7.63095 11.8023ZM5.19995 25.1334H2.59995V23.3259C2.63635 23.3389 2.67579 23.3459 2.71392 23.3554C2.73905 23.3619 2.76332 23.3706 2.78932 23.3753C2.86965 23.3912 2.95139 23.3995 3.03329 23.4H5.19995V25.1334ZM23.4 25.1334H20.8V23.4H22.9666C23.0485 23.3995 23.1303 23.3912 23.2106 23.3753C23.2366 23.3706 23.2609 23.3619 23.2864 23.3554C23.3241 23.3459 23.3636 23.3389 23.4 23.3259V25.1334ZM23.4 22.1C23.4 22.3393 23.2059 22.5334 22.9666 22.5334H5.63329H3.03329C2.79398 22.5334 2.59995 22.3393 2.59995 22.1V21.6667H23.4V22.1ZM23.4 20.8H2.59995V17.6402C2.59811 17.108 2.92241 16.6291 3.41722 16.4333L4.41649 16.0334H21.5834L22.5827 16.4333C23.0775 16.6291 23.4018 17.108 23.4 17.6402V20.8Z" fill="#9D9EA2"/>
<path d="M13.4333 6.06665H12.5666V7.36665H13.4333V6.06665Z" fill="#F9BA48"/>
<path d="M13.4333 8.23334H12.5666V9.53334H13.4333V8.23334Z" fill="#F9BA48"/>
<path d="M8.33181 5.7918L7.508 6.79749L8.17845 7.34669L9.00226 6.34101L8.33181 5.7918Z" fill="#F9BA48"/>
<path d="M6.95932 7.46852L6.13538 8.47406L6.80574 9.02335L7.62968 8.01781L6.95932 7.46852Z" fill="#F9BA48"/>
<path d="M5.58615 9.14429L4.76221 10.1498L5.43257 10.6991L6.25651 9.69359L5.58615 9.14429Z" fill="#F9BA48"/>
<path d="M4.21243 10.8221L3.38849 11.8277L4.05886 12.377L4.8828 11.3714L4.21243 10.8221Z" fill="#F9BA48"/>
<path d="M10.4175 5.94714L10.0531 7.19501L10.885 7.43793L11.2494 6.19006L10.4175 5.94714Z" fill="#F9BA48"/>
<path d="M9.8101 8.02369L9.44519 9.27142L10.277 9.51469L10.6419 8.26697L9.8101 8.02369Z" fill="#F9BA48"/>
<path d="M5.87287 5.65907L4.91724 6.54047L5.50454 7.17723L6.46017 6.29584L5.87287 5.65907Z" fill="#F9BA48"/>
<path d="M4.27972 7.12941L3.3241 8.0108L3.9114 8.64757L4.86703 7.76617L4.27972 7.12941Z" fill="#F9BA48"/>
<path d="M2.68805 8.59748L1.73242 9.47888L2.31973 10.1157L3.27536 9.23425L2.68805 8.59748Z" fill="#F9BA48"/>
<path d="M1.09583 10.0665L0.140198 10.9479L0.727505 11.5846L1.68314 10.7032L1.09583 10.0665Z" fill="#F9BA48"/>
<path d="M17.6691 5.8827L16.9988 6.43146L17.8223 7.4374L18.4926 6.88864L17.6691 5.8827Z" fill="#F9BA48"/>
<path d="M19.0397 7.55614L18.3693 8.10535L19.1931 9.11102L19.8635 8.56182L19.0397 7.55614Z" fill="#F9BA48"/>
<path d="M20.4138 9.23345L19.7434 9.78265L20.5672 10.7882L21.2376 10.239L20.4138 9.23345Z" fill="#F9BA48"/>
<path d="M21.7837 10.9115L21.1133 11.4608L21.9371 12.4663L22.6075 11.9171L21.7837 10.9115Z" fill="#F9BA48"/>
<path d="M15.5823 6.04121L14.7503 6.28387L15.1143 7.53187L15.9463 7.2892L15.5823 6.04121Z" fill="#F9BA48"/>
<path d="M16.1891 8.11454L15.3572 8.35773L15.722 9.60546L16.5538 9.36227L16.1891 8.11454Z" fill="#F9BA48"/>
<path d="M20.1261 5.7484L19.5388 6.38507L20.4943 7.26646L21.0816 6.62979L20.1261 5.7484Z" fill="#F9BA48"/>
<path d="M21.7195 7.21863L21.1321 7.85522L22.0875 8.73676L22.6749 8.10016L21.7195 7.21863Z" fill="#F9BA48"/>
<path d="M23.3103 8.68836L22.7229 9.32495L23.6783 10.2065L24.2657 9.56989L23.3103 8.68836Z" fill="#F9BA48"/>
<path d="M24.9033 10.1559L24.316 10.7926L25.2715 11.674L25.8589 11.0373L24.9033 10.1559Z" fill="#F9BA48"/>
</svg>
