<svg width="26" height="26" viewBox="0 0 26 26" fill="none" xmlns="http://www.w3.org/2000/svg">
<path d="M21.5312 0.40625H4.46875C4.36101 0.40625 4.25767 0.449051 4.18149 0.525238C4.1053 0.601425 4.0625 0.704756 4.0625 0.8125V25.1875C4.0625 25.2952 4.1053 25.3986 4.18149 25.4748C4.25767 25.5509 4.36101 25.5938 4.46875 25.5938H21.5312C21.639 25.5938 21.7423 25.5509 21.8185 25.4748C21.8947 25.3986 21.9375 25.2952 21.9375 25.1875V0.8125C21.9375 0.704756 21.8947 0.601425 21.8185 0.525238C21.7423 0.449051 21.639 0.40625 21.5312 0.40625ZM6.5 24.7812H4.875V1.21875H6.5V24.7812ZM17.0625 24.7812H8.9375V19.9062H17.0625V24.7812ZM17.4688 19.0938H8.53125C8.42351 19.0938 8.32017 19.1366 8.24399 19.2127C8.1678 19.2889 8.125 19.3923 8.125 19.5V24.7812H7.3125V15.0312H18.6875V24.7812H17.875V19.5C17.875 19.3923 17.8322 19.2889 17.756 19.2127C17.6798 19.1366 17.5765 19.0938 17.4688 19.0938ZM7.3125 14.2188V6.90625H18.6875V14.2188H7.3125ZM7.3125 6.09375V1.21875H18.6875V6.09375H7.3125ZM21.125 24.7812H19.5V1.21875H21.125V24.7812Z" fill="#9D9EA2"/>
<path d="M8.5 8H17.5V13H8.5V8Z" fill="#F9BA48"/>
<path d="M17.4688 7.71875H8.53125C8.42351 7.71875 8.32017 7.76155 8.24399 7.83774C8.1678 7.91392 8.125 8.01726 8.125 8.125V13C8.125 13.1077 8.1678 13.2111 8.24399 13.2873C8.32017 13.3634 8.42351 13.4062 8.53125 13.4062H17.4688C17.5765 13.4062 17.6798 13.3634 17.756 13.2873C17.8322 13.2111 17.875 13.1077 17.875 13V8.125C17.875 8.01726 17.8322 7.91392 17.756 7.83774C17.6798 7.76155 17.5765 7.71875 17.4688 7.71875ZM17.0625 12.5938H8.9375V8.53125H17.0625V12.5938Z" fill="#9D9EA2"/>
<path d="M17.875 16.25C17.875 16.1423 17.8322 16.0389 17.756 15.9627C17.6798 15.8866 17.5765 15.8438 17.4688 15.8438H14.2188C14.111 15.8438 14.0077 15.8866 13.9315 15.9627C13.8553 16.0389 13.8125 16.1423 13.8125 16.25V17.875C13.8125 17.9827 13.8553 18.0861 13.9315 18.1623C14.0077 18.2384 14.111 18.2812 14.2188 18.2812H17.4688C17.5765 18.2812 17.6798 18.2384 17.756 18.1623C17.8322 18.0861 17.875 17.9827 17.875 17.875V16.25ZM17.0625 17.4688H14.625V16.6562H17.0625V17.4688Z" fill="#9D9EA2"/>
<path d="M11.7812 15.8438H8.53125C8.42351 15.8438 8.32017 15.8866 8.24399 15.9627C8.1678 16.0389 8.125 16.1423 8.125 16.25V17.875C8.125 17.9827 8.1678 18.0861 8.24399 18.1623C8.32017 18.2384 8.42351 18.2812 8.53125 18.2812H11.7812C11.889 18.2812 11.9923 18.2384 12.0685 18.1623C12.1447 18.0861 12.1875 17.9827 12.1875 17.875V16.25C12.1875 16.1423 12.1447 16.0389 12.0685 15.9627C11.9923 15.8866 11.889 15.8438 11.7812 15.8438ZM11.375 17.4688H8.9375V16.6562H11.375V17.4688Z" fill="#9D9EA2"/>
<path d="M13 22.3438C13.4487 22.3438 13.8125 21.98 13.8125 21.5312C13.8125 21.0825 13.4487 20.7188 13 20.7188C12.5513 20.7188 12.1875 21.0825 12.1875 21.5312C12.1875 21.98 12.5513 22.3438 13 22.3438Z" fill="#9D9EA2"/>
</svg>
