<svg width="23" height="22" viewBox="0 0 23 22" fill="none" xmlns="http://www.w3.org/2000/svg">
<path d="M17.5 15.8125H6.88627C6.72527 15.8125 6.56937 15.756 6.44576 15.6528C6.32214 15.5497 6.23866 15.4064 6.20986 15.248L3.91514 2.62702C3.88634 2.46861 3.80285 2.32533 3.67924 2.22217C3.55563 2.11901 3.39973 2.0625 3.23873 2.0625H1.6875" stroke="#BFC7D1" stroke-width="1.5" stroke-linecap="round" stroke-linejoin="round"/>
<path d="M7.1875 19.25C8.13674 19.25 8.90625 18.4805 8.90625 17.5312C8.90625 16.582 8.13674 15.8125 7.1875 15.8125C6.23826 15.8125 5.46875 16.582 5.46875 17.5312C5.46875 18.4805 6.23826 19.25 7.1875 19.25Z" stroke="#BFC7D1" stroke-width="1.5" stroke-linecap="round" stroke-linejoin="round"/>
<path d="M17.5 19.25C18.4492 19.25 19.2188 18.4805 19.2188 17.5312C19.2188 16.582 18.4492 15.8125 17.5 15.8125C16.5508 15.8125 15.7812 16.582 15.7812 17.5312C15.7812 18.4805 16.5508 19.25 17.5 19.25Z" stroke="#BFC7D1" stroke-width="1.5" stroke-linecap="round" stroke-linejoin="round"/>
<path d="M4.4375 5.5H19.4262C19.5269 5.5 19.6264 5.52212 19.7176 5.5648C19.8088 5.60748 19.8895 5.66967 19.9541 5.74698C20.0186 5.8243 20.0653 5.91484 20.091 6.01221C20.1167 6.10958 20.1207 6.21141 20.1026 6.31048L18.9776 12.498C18.9488 12.6564 18.8654 12.7997 18.7417 12.9028C18.6181 13.006 18.4622 13.0625 18.3012 13.0625H5.8125" stroke="#BFC7D1" stroke-width="1.5" stroke-linecap="round" stroke-linejoin="round"/>
</svg>
