<svg width="26" height="26" viewBox="0 0 26 26" fill="none" xmlns="http://www.w3.org/2000/svg">
<path d="M25.7396 18.5126C25.7396 18.5995 25.4791 20.5093 24.6544 21.4208C23.6561 22.5059 22.571 22.6361 22.0067 22.6796H21.8331C18.3173 22.94 13.0652 22.9834 12.9784 22.9834C12.935 22.9834 7.63946 22.94 4.16699 22.5927H4.03678C3.42903 22.5494 2.3439 22.4191 1.389 21.334C0.520868 20.4225 0.260434 18.4692 0.260434 18.3824C0.260434 18.3824 0 16.1687 0 13.955V11.915C0 9.74466 0.260434 7.53097 0.260434 7.48758C0.260434 7.40076 0.520868 5.49094 1.34556 4.57942C2.25708 3.53769 3.3422 3.40747 4.03673 3.32064C4.16694 3.32064 4.25377 3.32064 4.38399 3.27725C6.38063 3.10365 12.7179 3.01682 12.9783 3.01682C13.0217 3.01682 18.3172 3.01682 21.8331 3.40747H21.9633C22.571 3.45086 23.6561 3.58108 24.611 4.66625C25.4791 5.57777 25.7396 7.53102 25.7396 7.61785C25.7396 7.61785 26 9.83154 26 12.0452V14.0853C26 16.2556 25.7396 18.4692 25.7396 18.5126ZM25.1319 11.9584C25.1319 9.7881 24.8714 7.61785 24.8714 7.61785C24.7846 7.14037 24.5242 5.75143 23.9599 5.14373C23.222 4.2756 22.3539 4.18882 21.8764 4.14538H21.7462C18.2738 3.88495 13.0217 3.88495 12.9783 3.88495C12.9349 3.88495 6.42407 3.97178 4.5142 4.18877C4.38399 4.18877 4.25377 4.23216 4.12355 4.23216C3.51586 4.27555 2.64778 4.40577 1.95325 5.18707C1.43239 5.75132 1.12856 7.14032 1.08512 7.6178C1.08512 7.66119 0.82469 9.83149 0.82469 11.9583V13.9984C0.82469 16.1687 1.08512 18.339 1.08512 18.339C1.12851 18.8165 1.43239 20.2054 1.95325 20.8131C2.73456 21.6812 3.55925 21.7681 4.08011 21.8114H4.21033C7.6828 22.0719 12.9349 22.1153 12.9783 22.1153C13.0216 22.1153 18.2738 22.0719 21.7462 21.8114H21.9198C22.3973 21.7681 23.2653 21.6812 24.0033 20.8131C24.5241 20.2054 24.7846 18.8165 24.8714 18.339C24.9148 18.2521 25.1318 16.0819 25.1318 13.9984V11.9584H25.1319Z" fill="white"/>
<path d="M18.404 12.9567L10.1569 17.7747C10.0267 17.8616 9.85312 17.8616 9.7229 17.7747C9.59269 17.6879 9.50586 17.5577 9.50586 17.3841V7.96506C9.50586 7.79146 9.59269 7.66124 9.7229 7.57441C9.80973 7.53102 9.85312 7.53102 9.93995 7.53102C10.0268 7.53102 10.0702 7.53102 10.157 7.57441L18.404 12.1754C18.5343 12.2622 18.6211 12.3924 18.6211 12.566C18.6211 12.7397 18.5342 12.8699 18.404 12.9567ZM10.374 8.70298V16.6462L17.3189 12.5661L10.374 8.70298Z" fill="white"/>
</svg>
