<svg width="36" height="36" viewBox="0 0 36 36" fill="none" xmlns="http://www.w3.org/2000/svg">
<path d="M25.5479 16.2581H10.4512V5.80646H25.5479V16.2581Z" fill="#F0BC5E"/>
<path d="M23.8063 0H12.1934C9.95213 0 8.12891 1.82381 8.12891 4.06452V31.9355C8.12891 34.1762 9.95213 36 12.1934 36H23.8063C26.0476 36 27.8708 34.1762 27.8708 31.9355V4.06452C27.8708 1.82381 26.0476 0 23.8063 0ZM23.8063 34.8387H12.1934C10.5926 34.8387 9.2902 33.5363 9.2902 31.9355V4.64516H24.387V3.48387H9.34884C9.61884 2.16058 10.7917 1.16129 12.1934 1.16129H23.8063C25.208 1.16129 26.3809 2.16058 26.6509 3.48387H25.5483V4.64516H26.7096V31.9355C26.7096 33.5363 25.4072 34.8387 23.8063 34.8387Z" fill="black"/>
<path d="M10.4512 31.9355C10.4512 32.8959 11.2327 33.6774 12.1931 33.6774H23.806C24.7664 33.6774 25.5479 32.8959 25.5479 31.9355V18.5806H10.4512V31.9355ZM11.6125 31.9355V30.1935H13.935V32.5161H12.1931C11.8732 32.5161 11.6125 32.256 11.6125 31.9355ZM17.4189 30.1935V32.5161H15.0963V30.1935H17.4189ZM15.0963 29.0322V26.7097H17.4189V29.0322H15.0963ZM18.5802 30.1935H20.9028V32.5161H18.5802V30.1935ZM18.5802 29.0322V26.7097H20.9028V29.0322H18.5802ZM22.0641 26.7097H24.3867V29.0322H22.0641V26.7097ZM22.0641 25.5484V23.2258H24.3867V25.5484H22.0641ZM20.9028 25.5484H18.5802V23.2258H20.9028V25.5484ZM18.5802 22.0645V19.7419H20.9028V22.0645H18.5802ZM17.4189 22.0645H15.0963V19.7419H17.4189V22.0645ZM17.4189 23.2258V25.5484H15.0963V23.2258H17.4189ZM13.935 25.5484H11.6125V23.2258H13.935V25.5484ZM13.935 26.7097V29.0322H11.6125V26.7097H13.935ZM23.806 32.5161H22.0641V30.1935H24.3867V31.9355C24.3867 32.256 24.1259 32.5161 23.806 32.5161ZM24.3867 22.0645H22.0641V19.7419H24.3867V22.0645ZM13.935 19.7419V22.0645H11.6125V19.7419H13.935Z" fill="black"/>
<path d="M20.9025 8.12903H12.7734V9.29032H20.9025V8.12903Z" fill="black"/>
<path d="M23.2257 8.12903H22.0645V9.29032H23.2257V8.12903Z" fill="black"/>
</svg>
