<svg width="36" height="36" viewBox="0 0 36 36" fill="none" xmlns="http://www.w3.org/2000/svg">
<path d="M19.1612 8.12903C18.9649 8.12903 18.7739 8.14819 18.5805 8.15806V18.5806H8.15794C8.14807 18.774 8.12891 18.965 8.12891 19.1613C8.12891 25.254 13.0685 30.1935 19.1612 30.1935C25.2539 30.1935 30.1934 25.254 30.1934 19.1613C30.1934 13.0686 25.2539 8.12903 19.1612 8.12903Z" fill="#F0BC5E"/>
<path d="M19.161 2.32257H18.5803V3.48386H19.161C27.8056 3.48386 34.8384 10.5166 34.8384 19.1613C34.8384 27.8059 27.8056 34.8387 19.161 34.8387C10.5163 34.8387 3.48356 27.8059 3.48356 19.1613V18.5806H2.32227V19.1613C2.32227 28.4458 9.87588 36 19.161 36C28.4461 36 35.9997 28.4458 35.9997 19.1613C35.9997 9.87676 28.4461 2.32257 19.161 2.32257Z" fill="black"/>
<path d="M25.3777 24.5572L19.7414 18.9209V9.87097H18.5801V19.4017L24.5567 25.3783L25.3777 24.5572Z" fill="black"/>
<path d="M17.4194 6.3871V5.80645V2.32258H13.9355V1.74194C13.9355 0.781548 13.1539 0 12.1935 0H5.22581C4.26542 0 3.48387 0.781548 3.48387 1.74194V2.32258H0V5.80645V6.3871V17.4194H17.4194V6.3871ZM4.64516 1.74194C4.64516 1.42142 4.90587 1.16129 5.22581 1.16129H12.1935C12.5135 1.16129 12.7742 1.42142 12.7742 1.74194V2.32258H4.64516V1.74194ZM1.16129 3.48387H16.2581V5.80645V6.3871C16.2581 7.34748 15.4765 8.12903 14.5161 8.12903H11.0323V5.80645H6.3871V8.12903H2.90323C1.94284 8.12903 1.16129 7.34748 1.16129 6.3871V5.80645V3.48387ZM9.87097 6.96774V9.87097C9.87097 10.1915 9.61026 10.4516 9.29032 10.4516H8.12903C7.8091 10.4516 7.54839 10.1915 7.54839 9.87097V6.96774H9.87097ZM1.16129 16.2581V8.69458C1.64787 9.06329 2.2471 9.29032 2.90323 9.29032H6.3871V9.87097C6.3871 10.8314 7.16864 11.6129 8.12903 11.6129H9.29032C10.2507 11.6129 11.0323 10.8314 11.0323 9.87097V9.29032H14.5161C15.1723 9.29032 15.7715 9.06329 16.2581 8.69458V16.2581H1.16129Z" fill="black"/>
<path d="M12.9948 31.0018L13.857 29.5084L12.8514 28.9277L11.9903 30.4188C10.3488 29.3696 8.95176 27.9726 7.90253 26.3311L9.39363 25.47L8.81298 24.4643L7.31956 25.3266C6.43872 23.6421 5.90627 21.7492 5.81976 19.7413H7.54776V18.58H4.64453V19.7413H4.65905C4.96563 27.4779 11.351 33.6774 19.1607 33.6774C27.1649 33.6774 33.6768 27.1655 33.6768 19.1613C33.6768 11.3516 27.4772 4.96624 19.7413 4.65966V4.64514H18.58V7.54837H19.7413V5.82095C21.7492 5.90746 23.6421 6.43992 25.3265 7.32075L24.4643 8.81417L25.4699 9.39482L26.331 7.90372C27.9725 8.95295 29.3696 10.35 30.4188 11.9915L28.9277 12.8526L29.5083 13.8582L31.0018 12.996C31.8826 14.6804 32.415 16.5733 32.5016 18.5812H30.7736V19.7425H32.501C32.4145 21.7504 31.882 23.6433 31.0012 25.3277L29.5078 24.4655L28.9271 25.4711L30.4182 26.3322C29.369 27.9737 27.972 29.3708 26.3305 30.42L25.4694 28.9289L24.4637 29.5095L25.326 31.0029C23.6415 31.8838 21.7486 32.4162 19.7407 32.5028V30.7742H18.5794V32.5016C16.5721 32.4151 14.6792 31.8826 12.9948 31.0018Z" fill="black"/>
</svg>
