<svg width="36" height="36" viewBox="0 0 36 36" fill="none" xmlns="http://www.w3.org/2000/svg">
<path d="M28.6875 19.3944V33.7039L19.1773 26.0961C19.2707 26.0173 19.3657 25.9408 19.4546 25.8559L24.9441 20.628L24.1684 19.8129L18.6789 25.0414C17.7334 25.9414 16.4936 26.4375 15.1875 26.4375C13.8814 26.4375 12.6416 25.9414 11.6961 25.0408L2.53125 16.3125H17.2103V15.1875H0.5625V35.4375H29.8125V19.3944H28.6875ZM18.2138 26.7666L27.6458 34.3125H2.72925L12.1618 26.766C13.0776 27.2818 14.1126 27.5625 15.1875 27.5625C16.2624 27.5625 17.2974 27.2818 18.2138 26.7666ZM11.1983 26.0955L1.6875 33.7044V17.0623L10.9204 25.8548C11.0098 25.9403 11.1049 26.0167 11.1983 26.0955Z" fill="black"/>
<path d="M26.4375 29.8125H27.5625V30.9375H26.4375V29.8125Z" fill="black"/>
<path d="M26.4375 23.0625H27.5625V28.6875H26.4375V23.0625Z" fill="black"/>
<path d="M25.3125 20.8125C19.7297 20.8125 15.1875 16.2703 15.1875 10.6875C15.1875 5.10469 19.7297 0.5625 25.3125 0.5625C30.8953 0.5625 35.4375 5.10469 35.4375 10.6875C35.4375 16.2703 30.8953 20.8125 25.3125 20.8125Z" fill="#F0BC5E"/>
<path d="M25.3153 3.93579H25.1302C25.1297 3.93579 25.1297 3.93579 25.1291 3.93579C23.3758 3.93579 21.7266 4.61867 20.4862 5.85842C19.2454 7.09873 18.5619 8.74854 18.5625 10.5024V10.688C18.5625 12.4909 19.2651 14.1862 20.5402 15.4609C21.8149 16.7355 23.5097 17.4375 25.3119 17.4375H25.3131H26.4375V16.3125H25.3131C25.3125 16.3125 25.3125 16.3125 25.3119 16.3125C23.8101 16.3125 22.3976 15.7275 21.3356 14.6655C20.2725 13.6024 19.6875 12.1905 19.6875 10.688V10.5024C19.6875 9.04835 20.2534 7.68204 21.2816 6.65435C22.3093 5.62667 23.6756 5.06079 25.1291 5.06079H25.1302H25.3153C28.4153 5.06192 30.9375 7.58473 30.9375 10.6847V12.6562C30.9375 13.4319 30.3069 14.0625 29.5312 14.0625C28.7556 14.0625 28.125 13.4319 28.125 12.6562V11.25V10.125C28.125 8.57417 26.8633 7.31248 25.3125 7.31248C23.7617 7.31248 22.5 8.57417 22.5 10.125V11.25C22.5 12.8008 23.7617 14.0625 25.3125 14.0625C26.0038 14.0625 26.6299 13.802 27.1204 13.3864C27.4359 14.4247 28.3911 15.1875 29.5312 15.1875C30.9268 15.1875 32.0625 14.0518 32.0625 12.6562V10.6847C32.0625 6.96485 29.0357 3.93692 25.3153 3.93579ZM25.3125 12.9375C24.3821 12.9375 23.625 12.1804 23.625 11.25V10.125C23.625 9.1946 24.3821 8.43748 25.3125 8.43748C26.2429 8.43748 27 9.1946 27 10.125V11.25C27 12.1804 26.2429 12.9375 25.3125 12.9375Z" fill="black"/>
<path d="M6.1875 17.4375H7.3125V18.5625H6.1875V17.4375Z" fill="black"/>
<path d="M8.4375 17.4375H9.5625V18.5625H8.4375V17.4375Z" fill="black"/>
<path d="M10.6875 17.4375H11.8125V18.5625H10.6875V17.4375Z" fill="black"/>
</svg>
