<svg width="36" height="36" viewBox="0 0 36 36" fill="none" xmlns="http://www.w3.org/2000/svg">
<path d="M31.3546 29.0322H16.2578V36H31.3546V29.0322Z" fill="#F0BC5E"/>
<path d="M31.3546 0H16.2578V6.96774H31.3546V0Z" fill="#F0BC5E"/>
<path d="M23.8056 26.7097H21.483C21.1619 26.7097 20.9023 26.4502 20.9023 26.1291V23.8065C20.9023 23.4854 21.1619 23.2258 21.483 23.2258H23.8056C24.1267 23.2258 24.3862 23.4854 24.3862 23.8065V26.1291C24.3862 26.4502 24.1267 26.7097 23.8056 26.7097Z" fill="#F0BC5E"/>
<path d="M28.4521 26.7097H26.1295C25.8084 26.7097 25.5488 26.4502 25.5488 26.1291V23.8065C25.5488 23.4854 25.8084 23.2258 26.1295 23.2258H28.4521C28.7732 23.2258 29.0327 23.4854 29.0327 23.8065V26.1291C29.0327 26.4502 28.7732 26.7097 28.4521 26.7097Z" fill="#F0BC5E"/>
<path d="M33.0966 26.7097H30.774C30.4529 26.7097 30.1934 26.4502 30.1934 26.1291V23.8065C30.1934 23.4854 30.4529 23.2258 30.774 23.2258H33.0966C33.4177 23.2258 33.6772 23.4854 33.6772 23.8065V26.1291C33.6772 26.4502 33.4177 26.7097 33.0966 26.7097Z" fill="#F0BC5E"/>
<path d="M23.8056 22.0645H21.483C21.1619 22.0645 20.9023 21.8049 20.9023 21.4839V19.1613C20.9023 18.8402 21.1619 18.5806 21.483 18.5806H23.8056C24.1267 18.5806 24.3862 18.8402 24.3862 19.1613V21.4839C24.3862 21.8049 24.1267 22.0645 23.8056 22.0645Z" fill="#F0BC5E"/>
<path d="M28.4521 22.0645H26.1295C25.8084 22.0645 25.5488 21.8049 25.5488 21.4839V19.1613C25.5488 18.8402 25.8084 18.5806 26.1295 18.5806H28.4521C28.7732 18.5806 29.0327 18.8402 29.0327 19.1613V21.4839C29.0327 21.8049 28.7732 22.0645 28.4521 22.0645Z" fill="#F0BC5E"/>
<path d="M33.0966 22.0645H30.774C30.4529 22.0645 30.1934 21.8049 30.1934 21.4839V19.1613C30.1934 18.8402 30.4529 18.5806 30.774 18.5806H33.0966C33.4177 18.5806 33.6772 18.8402 33.6772 19.1613V21.4839C33.6772 21.8049 33.4177 22.0645 33.0966 22.0645Z" fill="#F0BC5E"/>
<path d="M23.8056 17.4194H21.483C21.1619 17.4194 20.9023 17.1598 20.9023 16.8387V14.5161C20.9023 14.195 21.1619 13.9355 21.483 13.9355H23.8056C24.1267 13.9355 24.3862 14.195 24.3862 14.5161V16.8387C24.3862 17.1598 24.1267 17.4194 23.8056 17.4194Z" fill="#F0BC5E"/>
<path d="M28.4521 17.4194H26.1295C25.8084 17.4194 25.5488 17.1598 25.5488 16.8387V14.5161C25.5488 14.195 25.8084 13.9355 26.1295 13.9355H28.4521C28.7732 13.9355 29.0327 14.195 29.0327 14.5161V16.8387C29.0327 17.1598 28.7732 17.4194 28.4521 17.4194Z" fill="#F0BC5E"/>
<path d="M33.0966 17.4194H30.774C30.4529 17.4194 30.1934 17.1598 30.1934 16.8387V14.5161C30.1934 14.195 30.4529 13.9355 30.774 13.9355H33.0966C33.4177 13.9355 33.6772 14.195 33.6772 14.5161V16.8387C33.6772 17.1598 33.4177 17.4194 33.0966 17.4194Z" fill="#F0BC5E"/>
<path d="M33.0968 4.64516H31.3548V5.80645H32.5161V6.96774H15.0968V5.80645H16.2581V4.64516H12.7742V2.90323C12.7742 1.30239 11.4718 0 9.87097 0H5.22581C3.62497 0 2.32258 1.30239 2.32258 2.90323V4.70381C0.99929 4.97381 0 6.14671 0 7.54839V26.129C0 27.7299 1.30239 29.0323 2.90323 29.0323H6.96774V33.0968C6.96774 34.6976 8.27013 36 9.87097 36H11.0323C12.6331 36 13.9355 34.6976 13.9355 33.0968V29.0323H27.871V27.871H8.12903V25.5484H9.87097C11.4718 25.5484 12.7742 24.246 12.7742 22.6452V18.9209L11.6129 17.7596V8.95006L12.7742 7.78877V5.80645H13.9355V8.12903H33.6774V5.91329C34.3515 6.15368 34.8387 6.79239 34.8387 7.54839V26.129C34.8387 27.0894 34.0572 27.871 33.0968 27.871H29.0323V29.0323H33.0968C34.6976 29.0323 36 27.7299 36 26.129V7.54839C36 5.94755 34.6976 4.64516 33.0968 4.64516ZM12.7742 29.0323V33.0968C12.7742 34.0572 11.9926 34.8387 11.0323 34.8387H9.87097C8.91058 34.8387 8.12903 34.0572 8.12903 33.0968V29.0323H12.7742ZM6.96774 27.871H2.90323C1.94284 27.871 1.16129 27.0894 1.16129 26.129V7.54839C1.16129 6.79239 1.64845 6.15368 2.32258 5.91329V7.78877L3.48387 8.95006V17.7596L2.32258 18.9209V22.6452C2.32258 24.246 3.62497 25.5484 5.22581 25.5484H6.96774V27.871ZM11.6129 7.308L10.4516 8.46929V18.2404L11.6129 19.4017V22.6452C11.6129 23.6055 10.8314 24.3871 9.87097 24.3871H5.22581C4.26542 24.3871 3.48387 23.6055 3.48387 22.6452V19.4017L4.64516 18.2404V8.46929L3.48387 7.308V2.90323C3.48387 1.94284 4.26542 1.16129 5.22581 1.16129H9.87097C10.8314 1.16129 11.6129 1.94284 11.6129 2.90323V7.308Z" fill="black"/>
<path d="M33.6765 9.29034H20.9023V12.7742H33.6765V9.29034ZM32.5152 11.6129H22.0636V10.4516H32.5152V11.6129Z" fill="black"/>
<path d="M8.1284 2.32257H4.64453V3.48386H8.1284V2.32257Z" fill="black"/>
<path d="M8.1284 22.0645H4.64453V23.2258H8.1284V22.0645Z" fill="black"/>
<path d="M15.6775 21.4839V22.147C14.6788 22.4065 13.9355 23.3077 13.9355 24.3871C13.9355 25.668 14.9772 26.7097 16.2581 26.7097C17.539 26.7097 18.5807 25.668 18.5807 24.3871C18.5807 23.3077 17.8375 22.4065 16.8388 22.147V21.4839H15.6775ZM17.4194 24.3871C17.4194 25.0276 16.8986 25.5484 16.2581 25.5484C15.6177 25.5484 15.0968 25.0276 15.0968 24.3871C15.0968 23.9592 15.332 23.5887 15.6775 23.3872V23.8065H16.8388V23.3872C17.1843 23.5887 17.4194 23.9592 17.4194 24.3871Z" fill="black"/>
<path d="M19.742 16.8387C19.742 15.2379 18.4396 13.9355 16.8388 13.9355C15.2379 13.9355 13.9355 15.2379 13.9355 16.8387C13.9355 18.4396 15.2379 19.7419 16.8388 19.7419C18.4396 19.7419 19.742 18.4396 19.742 16.8387ZM16.8388 18.5806C15.8784 18.5806 15.0968 17.7991 15.0968 16.8387C15.0968 15.8783 15.8784 15.0968 16.8388 15.0968C17.7992 15.0968 18.5807 15.8783 18.5807 16.8387C18.5807 17.7991 17.7992 18.5806 16.8388 18.5806Z" fill="black"/>
<path d="M29.0317 2.32257H18.5801V3.48386H29.0317V2.32257Z" fill="black"/>
<path d="M29.0317 4.64514H18.5801V5.80643H29.0317V4.64514Z" fill="black"/>
<path d="M29.0317 30.1935H18.5801V31.3548H29.0317V30.1935Z" fill="black"/>
<path d="M26.7091 32.5161H18.5801V33.6774H26.7091V32.5161Z" fill="black"/>
<path d="M29.0324 32.5161H27.8711V33.6774H29.0324V32.5161Z" fill="black"/>
<path d="M10.4523 2.32257H9.29102V3.48386H10.4523V2.32257Z" fill="black"/>
<path d="M10.4523 22.0645H9.29102V23.2258H10.4523V22.0645Z" fill="black"/>
</svg>
