<svg width="36" height="36" viewBox="0 0 36 36" fill="none" xmlns="http://www.w3.org/2000/svg">
<path d="M33.0968 6.96771H23.2258V11.0322H12.7742V6.96771H2.90323C1.30239 6.96771 0 8.2701 0 9.87094V33.0967C0 34.6976 1.30239 36 2.90323 36H33.0968C34.6976 36 36 34.6976 36 33.0967V9.87094C36 8.2701 34.6976 6.96771 33.0968 6.96771Z" fill="#F0BC5E"/>
<path d="M21.4834 0.580627H14.5156V11.0322H21.4834V0.580627Z" fill="#F0BC5E"/>
<path d="M17.1918 28.0463L13.935 27.3948V27.2421C15.0092 26.6185 15.8093 25.578 16.1159 24.3424C17.1872 24.1362 17.9995 23.195 17.9995 22.0645V19.1613C17.9995 15.6397 15.134 12.7742 11.6124 12.7742C8.09081 12.7742 5.22533 15.6397 5.22533 19.1613V22.0645C5.22533 23.195 6.03765 24.1362 7.10894 24.3429C7.41552 25.5786 8.21565 26.6191 9.28985 27.2427V27.3954L6.03359 28.0469C4.53436 28.3465 3.3423 29.4457 2.92249 30.9158L2.13281 33.6774H21.092L20.3029 30.9153C19.8826 29.4451 18.6905 28.3453 17.1918 28.0463ZM10.4511 27.7182C10.8233 27.8146 11.2106 27.8709 11.6124 27.8709C12.0142 27.8709 12.4015 27.8146 12.7737 27.7182V27.8709C12.7737 28.5114 12.2529 29.0322 11.6124 29.0322C10.972 29.0322 10.4511 28.5114 10.4511 27.8709V27.7182ZM16.2576 23.0644V21.0646C16.6031 21.2661 16.8382 21.6366 16.8382 22.0645C16.8382 22.4924 16.6031 22.8629 16.2576 23.0644ZM11.6124 13.9355C14.4936 13.9355 16.8382 16.2801 16.8382 19.1613V20.0648C16.4951 19.865 16.102 19.7419 15.6769 19.7419C14.3345 19.7419 13.0722 19.2193 12.1228 18.2706L11.6124 17.7584L11.1026 18.27C10.1527 19.2193 8.89036 19.7419 7.54791 19.7419C7.12288 19.7419 6.72978 19.865 6.38662 20.0648V19.1613C6.38662 16.2801 8.73127 13.9355 11.6124 13.9355ZM6.38662 22.0645C6.38662 21.6366 6.62178 21.2661 6.96727 21.0646V23.0644C6.62178 22.8629 6.38662 22.4924 6.38662 22.0645ZM8.12856 23.2258V20.8759C9.42165 20.7563 10.6311 20.2389 11.6124 19.3819C12.5937 20.2384 13.8032 20.7563 15.0963 20.8759V23.2258C15.0963 25.1471 13.5338 26.7097 11.6124 26.7097C9.69107 26.7097 8.12856 25.1471 8.12856 23.2258ZM16.7111 32.5161L16.2402 30.6337L15.1137 30.9147L15.5138 32.5161H7.71107L8.11114 30.9147L6.98468 30.6337L6.51378 32.5161H3.67268L4.03907 31.234C4.33926 30.1837 5.19049 29.3992 6.2612 29.1849L9.40481 28.5561C9.6992 29.5014 10.5719 30.1935 11.6124 30.1935C12.6529 30.1935 13.5257 29.5014 13.82 28.5561L16.9637 29.1849C18.0344 29.3992 18.8856 30.1848 19.1858 31.234L19.5522 32.5161H16.7111Z" fill="black"/>
<path d="M33.6771 16.2581H20.3223V17.4193H33.6771V16.2581Z" fill="black"/>
<path d="M21.4836 19.7419H20.3223V20.9032H21.4836V19.7419Z" fill="black"/>
<path d="M33.6768 19.7419H22.6445V20.9032H33.6768V19.7419Z" fill="black"/>
<path d="M33.6771 23.2258H20.3223V24.3871H33.6771V23.2258Z" fill="black"/>
<path d="M31.3545 26.7097H20.3223V27.8709H31.3545V26.7097Z" fill="black"/>
<path d="M24.9687 10.4516H23.8074V0H12.1945V10.4516H11.0332V11.6129H24.9687V10.4516ZM22.6461 10.4516H21.4848V8.12903H20.3235V10.4516H15.6784V1.16129H20.3235V6.96774H21.4848V1.16129H22.6461V10.4516ZM13.3558 1.16129H14.5171V10.4516H13.3558V1.16129Z" fill="black"/>
<path d="M33.6769 26.7097H32.5156V27.8709H33.6769V26.7097Z" fill="black"/>
</svg>
