<svg width="36" height="36" viewBox="0 0 36 36" fill="none" xmlns="http://www.w3.org/2000/svg">
<g clip-path="url(#clip0)">
<path d="M31.3548 12.7742H24.6193V13.9355H25.5484V24.3871H10.4516V18.5807H14.5161V17.4194H9.29032V25.5484H26.7097V13.9355H30.1935V25.5484H34.8387V29.0323H33.6774V30.1936H34.8387V34.8387H31.3548V30.1936H32.5161V29.0323H30.1935V34.8387H26.7097V29.0323H9.29032V34.8387H5.80645V29.0323H1.16129V25.5484H5.80645V17.4194H3.48387V18.5807H4.64516V24.3871H1.16129V18.5807H2.32258V17.4194H1.16129V13.9355H11.3807V12.7742H0V36H36V12.7742H31.3548ZM1.16129 30.1936H4.64516V34.8387H1.16129V30.1936ZM25.5484 34.8387H10.4516V30.1936H25.5484V34.8387ZM34.8387 24.3871H31.3548V13.9355H34.8387V24.3871Z" fill="black"/>
<path d="M18.0007 23.2258C17.4393 23.2258 16.9225 22.9454 16.6166 22.4745L10.6868 13.3526C9.77356 11.9475 9.29102 10.3186 9.29102 8.6422C9.29102 3.87683 13.1678 0 17.9332 0H18.0682C22.8335 0 26.7104 3.87683 26.7104 8.6422C26.7104 10.3186 26.2278 11.9475 25.3146 13.3526L19.3848 22.4745C19.0789 22.9454 18.5621 23.2258 18.0007 23.2258Z" fill="#F0BC5E"/>
<path d="M17.9992 13.9355C15.1181 13.9355 12.7734 11.5908 12.7734 8.70969C12.7734 5.82858 15.1181 3.48389 17.9992 3.48389C20.8804 3.48389 23.225 5.82858 23.225 8.70969C23.225 11.5908 20.8804 13.9355 17.9992 13.9355ZM17.9992 4.64518C15.758 4.64518 13.9347 6.46848 13.9347 8.70969C13.9347 10.9509 15.758 12.7742 17.9992 12.7742C20.2405 12.7742 22.0638 10.9509 22.0638 8.70969C22.0638 6.46848 20.2405 4.64518 17.9992 4.64518Z" fill="black"/>
<path d="M17.4199 8.12903H18.5812V9.29032H17.4199V8.12903Z" fill="black"/>
<path d="M19.7422 8.12903H20.9035V9.29032H19.7422V8.12903Z" fill="black"/>
<path d="M15.0977 8.12903H16.2589V9.29032H15.0977V8.12903Z" fill="black"/>
</g>
<defs>
<clipPath id="clip0">
<rect width="36" height="36" fill="white"/>
</clipPath>
</defs>
</svg>
