<svg width="36" height="36" viewBox="0 0 36 36" fill="none" xmlns="http://www.w3.org/2000/svg">
<g clip-path="url(#clip0)">
<path d="M18.0929 24.3979C18.7716 24.3979 19.4214 24.6418 19.9318 25.0884L22.8266 27.6232C23.4356 28.1512 23.7837 28.9228 23.7837 29.7292C23.7837 30.4079 23.5401 31.0573 23.0934 31.568L22.9716 31.7071L16.2714 25.0072L16.2598 24.9896C16.7472 24.6069 17.3562 24.3979 17.9828 24.3979H18.0929Z" fill="#F0BC5E"/>
<path d="M11.6022 17.9067V18.0169C11.6022 18.6435 11.3935 19.2527 11.0048 19.7399L4.29892 13.034L4.29297 13.0283L4.43233 12.9065C4.94274 12.4599 5.59251 12.216 6.27118 12.216C7.07759 12.216 7.84888 12.5641 8.37685 13.1734L10.9119 16.0679C11.3586 16.5783 11.6022 17.2281 11.6022 17.9067Z" fill="#F0BC5E"/>
<path d="M24.3635 0.0340576C20.2054 0.0340576 16.8223 3.41718 16.8223 7.57527V11.0558H17.4157C17.4157 10.9799 17.4058 10.9057 17.4134 10.8281C17.5281 9.62146 18.6107 8.73546 19.8224 8.73546H20.1618C21.7375 8.73546 23.2492 8.10976 24.3635 6.99518C25.4778 8.10976 26.9889 8.73546 28.5652 8.73546H28.9045C30.1163 8.73546 31.1988 9.62146 31.3136 10.8281C31.3212 10.9057 31.3113 10.9794 31.3113 11.0558H31.9047V7.57527C31.9047 3.41718 28.5216 0.0340576 24.3635 0.0340576Z" fill="#F0BC5E"/>
<path d="M36.0001 22.9625C36.0001 21.1588 34.7889 19.5533 33.0549 19.0585L27.8788 17.5797V16.0657C28.5127 15.4862 29.003 14.754 29.2913 13.9263C30 13.855 30.6679 13.5388 31.1511 13.0069C31.6992 12.4036 31.9694 11.5898 31.8918 10.7729C31.7513 9.30541 30.4399 8.15542 28.905 8.15542H28.5656C27.1333 8.15542 25.787 7.59799 24.7741 6.58509L24.3639 6.17523L23.9538 6.58509C22.9409 7.59799 21.5946 8.15542 20.1622 8.15542H19.7232V8.15741C18.2319 8.20556 16.9734 9.33714 16.836 10.7735C16.7584 11.5898 17.0286 12.4042 17.5767 13.0075C18.0599 13.5388 18.7278 13.855 19.4365 13.9269C19.7303 14.7698 20.2325 15.5128 20.8834 16.0971V17.5802L15.7073 19.0591C13.9732 19.5533 12.7621 21.1588 12.7621 22.9625V26.0346C12.395 25.9406 12.048 25.7641 11.7718 25.4883L10.5119 24.2281C10.099 23.8145 9.86159 23.2427 9.86159 22.6578C9.86159 22.0731 10.099 21.5012 10.5119 21.0874L11.1923 20.4065C11.8305 19.7689 12.182 18.9209 12.182 18.019V17.908C12.182 17.0902 11.8848 16.3005 11.3467 15.6845L8.81385 12.7899C8.17173 12.0566 7.24607 11.636 6.27198 11.636C5.45339 11.636 4.66398 11.9331 4.04791 12.4716L1.85925 14.3869C0.677531 15.4207 0 16.9138 0 18.4835C0 19.4163 0.241895 20.3394 0.699058 21.1526C3.75446 26.5839 8.17994 31.1731 13.4982 34.4233L14.8034 35.221C15.6382 35.7302 16.5958 35.9999 17.5745 35.9999C19.1077 35.9999 20.5656 35.3382 21.5742 34.1848L23.5281 31.9514C24.0668 31.3359 24.3639 30.5465 24.3639 29.7279C24.3639 29.4942 24.3384 29.2634 24.2914 29.0388H36.0001V22.9625ZM29.6893 19.3038L27.6774 22.924L25.223 20.8787L27.4409 18.6611L29.6893 19.3038ZM30.7367 10.8831C30.7843 11.3819 30.6266 11.8595 30.2926 12.226C30.0924 12.4458 29.8371 12.6007 29.5604 12.6948C29.5749 12.537 29.5848 12.3781 29.5848 12.2161V9.44052C30.2091 9.67703 30.6742 10.2271 30.7367 10.8831ZM18.4353 12.2266C18.1013 11.8595 17.9435 11.3825 17.9911 10.8837C18.0537 10.2277 18.5188 9.6776 19.1431 9.44109V12.2161C19.1431 12.3781 19.153 12.537 19.1674 12.6953C18.8907 12.6007 18.6355 12.4464 18.4353 12.2266ZM20.3033 12.2161V9.30938C21.8056 9.27737 23.2253 8.74486 24.3639 7.78267C25.5026 8.74486 26.9222 9.27737 28.4246 9.30938V12.2161C28.4246 14.4549 26.603 16.2767 24.3639 16.2767C22.1248 16.2767 20.3033 14.4549 20.3033 12.2161ZM24.3639 17.4369C25.2114 17.4369 26.0096 17.2299 26.7186 16.8696V17.7428L24.3639 20.0975L22.0436 17.7771V16.886C22.7437 17.2358 23.5298 17.4369 24.3639 17.4369ZM21.2946 18.6685L23.5048 20.8787L21.0505 22.924L19.044 19.312L21.2946 18.6685ZM22.6557 31.1881L20.7018 33.4215C19.913 34.3225 18.7729 34.8397 17.5745 34.8397C16.8094 34.8397 16.0605 34.6293 15.4085 34.2302L14.1032 33.4325C8.95435 30.2856 4.66851 25.8426 1.71026 20.5835C1.35053 19.9437 1.16019 19.2174 1.16019 18.4835C1.16019 17.2486 1.69326 16.0739 2.6226 15.2604L4.81126 13.3451C5.21631 12.9913 5.73494 12.7962 6.27198 12.7962C6.91127 12.7962 7.51912 13.0723 7.94031 13.5533L10.4731 16.4481C10.8269 16.8523 11.0218 17.3709 11.0218 17.908V18.019C11.0218 18.6113 10.7915 19.1676 10.372 19.5862L9.69164 20.2674C9.06226 20.8968 8.7014 21.7681 8.7014 22.6578C8.7014 23.5477 9.06226 24.419 9.69164 25.0484L10.9515 26.3083C11.5897 26.947 12.4389 27.2985 13.3422 27.2985C14.2454 27.2985 15.0946 26.947 15.7328 26.3083L16.4131 25.6273C16.8326 25.2084 17.3895 24.9781 17.9818 24.9781H18.092C18.629 24.9781 19.1476 25.1733 19.5521 25.5271L22.4466 28.0596C22.9276 28.4802 23.2037 29.0889 23.2037 29.7279C23.2037 30.2652 23.0089 30.7839 22.6557 31.1881ZM34.8399 27.8786H31.3423V23.8179H30.1821V27.8786H23.8071C23.6405 27.6251 23.4434 27.3903 23.2108 27.1866L20.3166 24.6541C19.7 24.1151 18.9105 23.8179 18.092 23.8179H17.9818C17.0796 23.8179 16.2316 24.1689 15.5934 24.807L14.9131 25.4883C14.6363 25.7641 14.2899 25.9406 13.9228 26.0346V22.9625C13.9228 21.674 14.7879 20.5277 16.0262 20.1739L17.8988 19.6392L20.7168 24.7119L23.7838 22.1561V26.7184H24.944V22.1561L28.0116 24.7119L30.8342 19.631L32.7365 20.1745C33.9748 20.5277 34.8399 21.6746 34.8399 22.9631V27.8786Z" fill="black"/>
</g>
<defs>
<clipPath id="clip0">
<rect width="36" height="36" fill="white"/>
</clipPath>
</defs>
</svg>
