<svg width="72" height="72" viewBox="0 0 72 72" fill="none" xmlns="http://www.w3.org/2000/svg">
<path d="M18 38.25C16.1392 38.25 14.625 36.7358 14.625 34.875C14.625 33.0142 16.1392 31.5 18 31.5C19.8608 31.5 21.375 33.0142 21.375 34.875C21.375 36.7358 19.8608 38.25 18 38.25Z" fill="#F0BC5E"/>
<path d="M35.3745 24.75H42.75C43.6624 24.75 44.5219 24.8029 45.3544 24.8805C49.7711 22.9894 52.875 18.6007 52.875 13.5C52.875 6.67688 47.3231 1.125 40.5 1.125C33.6769 1.125 28.125 6.67688 28.125 13.5C28.125 18.4939 31.1051 22.797 35.3745 24.75Z" fill="#F0BC5E"/>
<path d="M70.875 58.5V36H63.4264C62.9224 35.5669 62.2924 35.1461 61.5645 34.7456C60.129 30.4009 54.837 23.625 42.75 23.625H29.4896C28.8956 22.9601 28.0271 22.5 26.9438 22.5H21.42C19.917 22.5 18.6525 23.4675 18.1946 24.7995C13.8611 25.2484 10.4749 28.8394 9.03375 34.6016C8.88525 35.1979 7.85363 35.7019 6.76125 36.2362C4.51688 37.3331 1.125 38.9914 1.125 43.875V48.375C1.125 51.7376 3.82612 53.478 6.68587 55.3208C10.6695 57.8869 15.6251 61.0819 16.8863 69.9086L17.0246 70.875H25.3879L26.4679 69.0739C27.8831 66.7147 30.4706 65.25 33.2201 65.25H39.9038C42.3022 65.25 43.8806 66.3221 45.531 69.0739L46.6132 70.875H54.9765L55.1149 69.9097C55.386 68.0119 57.0184 65.9306 58.5979 63.9169C59.931 62.217 61.1865 60.6094 61.7648 58.9905C62.2687 58.8375 62.7401 58.6721 63.189 58.5H70.875ZM38.25 56.25H47.25V54H34.875C34.2551 54 33.75 53.4949 33.75 52.875C33.75 52.2551 34.2551 51.75 34.875 51.75H45V49.5H31.5C30.8801 49.5 30.375 48.9949 30.375 48.375C30.375 47.7551 30.8801 47.25 31.5 47.25H34.875H45V45H34.875C34.2551 45 33.75 44.4949 33.75 43.875C33.75 43.2551 34.2551 42.75 34.875 42.75H47.25C49.7318 42.75 51.75 40.7318 51.75 38.25C51.75 37.0091 50.7409 36 49.5 36H45C44.3801 36 43.875 35.4949 43.875 34.875C43.875 34.2551 44.3801 33.75 45 33.75H48.375C53.631 33.75 59.607 35.7401 61.875 37.6279V56.5763C58.2919 57.8228 52.7467 58.5 49.0669 58.5H38.25C37.6301 58.5 37.125 57.9949 37.125 57.375C37.125 56.7551 37.6301 56.25 38.25 56.25ZM64.125 38.25H68.625V56.25H64.125V38.25ZM21.42 24.75H26.9438C27.6739 24.75 28.125 25.3339 28.125 25.875C28.125 28.512 27.6604 31.8982 27.333 33.9536C24.0176 31.2638 20.25 27.5591 20.25 25.875C20.25 25.2551 20.7754 24.75 21.42 24.75ZM56.826 62.5286C55.2938 64.4816 53.7154 66.4943 53.0966 68.625H47.8868L47.4615 67.9162C46.0035 65.4851 43.965 63 39.9049 63H33.2213C29.6854 63 26.3587 64.8832 24.5396 67.9162L24.1133 68.625H18.9585C17.3306 59.5035 11.9036 56.007 7.90425 53.4296C5.01187 51.5655 3.375 50.4112 3.375 48.375V43.875C3.375 40.3954 5.50012 39.357 7.749 38.2579C9.25537 37.521 10.8135 36.7594 11.2174 35.1484C11.6685 33.345 13.4629 27.6964 18.2396 27.0641C19.5266 30.7946 26.0291 35.8346 27.45 36.9L28.8934 37.9823L29.2297 36.2093C29.277 35.964 30.375 30.1343 30.375 25.875H42.75C51.7579 25.875 56.3906 30.0386 58.4167 33.3484C55.3286 32.238 51.5981 31.5 48.375 31.5H45C43.1393 31.5 41.625 33.0142 41.625 34.875C41.625 36.7358 43.1393 38.25 45 38.25H49.5C49.5 39.4909 48.4909 40.5 47.25 40.5H34.875C33.0142 40.5 31.5 42.0142 31.5 43.875C31.5 44.271 31.581 44.6467 31.707 45H31.5C29.6392 45 28.125 46.5142 28.125 48.375C28.125 50.2358 29.6392 51.75 31.5 51.75H31.707C31.581 52.1033 31.5 52.479 31.5 52.875C31.5 54.7357 33.0142 56.25 34.875 56.25H35.082C34.956 56.6032 34.875 56.979 34.875 57.375C34.875 59.2357 36.3893 60.75 38.25 60.75H49.0669C51.8839 60.75 55.5986 60.3889 58.9039 59.7015C58.3447 60.5914 57.5989 61.542 56.826 62.5286Z" fill="black"/>
</svg>
