<svg width="72" height="72" viewBox="0 0 72 72" fill="none" xmlns="http://www.w3.org/2000/svg">
<path d="M70.875 46.125V43.875C70.875 42.6341 69.8659 41.625 68.625 41.625H64.125V25.668C65.4311 25.2022 66.375 23.9648 66.375 22.5V11.25C66.375 9.38925 64.8607 7.875 63 7.875H56.8384C53.7795 3.63713 48.8903 1.125 43.6376 1.125H28.3624C23.1098 1.125 18.2194 3.63713 15.1616 7.875H9C7.13925 7.875 5.625 9.38925 5.625 11.25V22.5C5.625 23.9648 6.56887 25.2022 7.875 25.668V41.625H3.375C2.13412 41.625 1.125 42.6341 1.125 43.875V46.125C1.125 47.3659 2.13412 48.375 3.375 48.375V64.332C2.06887 64.7977 1.125 66.0352 1.125 67.5V70.875H70.875V67.5C70.875 66.0352 69.9311 64.7977 68.625 64.332V48.375C69.8659 48.375 70.875 47.3659 70.875 46.125ZM9 10.125H15.75H16.3519H50.375V7.875H18.0923C20.7248 5.0355 24.4181 3.375 28.3624 3.375H43.6376C47.5909 3.375 51.3034 5.02537 53.937 7.875H41.625V10.125H63C63.621 10.125 64.125 10.6301 64.125 11.25V19.125H41.625V21.375H64.125V22.5C64.125 23.1199 63.621 23.625 63 23.625H9C8.379 23.625 7.875 23.1199 7.875 22.5V21.375H50.375V19.125H7.875V11.25C7.875 10.6301 8.379 10.125 9 10.125ZM10.125 25.875H61.875V41.625H10.125V25.875ZM3.375 43.875H7.875H64.125H68.625L68.6273 46.125H3.375V43.875ZM43.875 64.125V54C43.875 52.1393 42.3607 50.625 40.5 50.625H31.5C29.6392 50.625 28.125 52.1393 28.125 54V64.125H10.125V48.375H61.875V64.125H43.875ZM30.375 64.125V54C30.375 53.379 30.879 52.875 31.5 52.875H34.875V64.125H30.375ZM37.125 52.875H40.5C41.121 52.875 41.625 53.379 41.625 54V64.125H37.125V52.875ZM7.875 48.375V64.125H5.625V48.375H7.875ZM68.625 68.625H3.375V67.5C3.375 66.879 3.879 66.375 4.5 66.375H67.5C68.121 66.375 68.625 66.879 68.625 67.5V68.625ZM66.375 64.125H64.125V48.375H66.375V64.125Z" fill="black"/>
<path d="M59.625 61.875H46.125V50.625H59.625V61.875Z" fill="#F9BA48"/>
<path d="M25.875 61.875H12.375V50.625H25.875V61.875Z" fill="#F9BA48"/>
<path d="M22.5 39.375H12.375V28.125H22.5V39.375Z" fill="#F9BA48"/>
<path d="M34.875 39.375H24.75V28.125H34.875V39.375Z" fill="#F9BA48"/>
<path d="M47.25 39.375H37.125V28.125H47.25V39.375Z" fill="#F9BA48"/>
<path d="M59.625 39.375H49.5V28.125H59.625V39.375Z" fill="#F9BA48"/>
</svg>
