<svg width="92" height="92" viewBox="0 0 92 92" fill="none" xmlns="http://www.w3.org/2000/svg">
<path d="M53.1875 33.0625V35.9375H57.5V41.6875H66.125V33.0625H53.1875Z" fill="#F9BA48"/>
<path d="M38.8125 33.0625V35.9375H34.5V41.6875H25.875V33.0625H38.8125Z" fill="#F9BA48"/>
<path d="M15.8125 67.5625H7.1875V56.0625H15.8125V67.5625Z" fill="#F9BA48"/>
<path d="M84.8125 67.5625H76.1875V56.0625H84.8125V67.5625Z" fill="#F9BA48"/>
<path d="M79.0625 84.8125H70.4375V76.1875H79.0625V84.8125Z" fill="#F9BA48"/>
<path d="M21.5625 84.8125H12.9375V76.1875H21.5625V84.8125Z" fill="#F9BA48"/>
<path d="M71.875 44.5625V30.1875C73.4606 30.1875 74.75 28.8981 74.75 27.3125V24.4375C74.75 22.8519 73.4606 21.5625 71.875 21.5625H68.9267C68.1821 10.3428 58.8426 1.4375 47.4375 1.4375H44.5625C33.1574 1.4375 23.8179 10.3428 23.0733 21.5625H20.125C18.5394 21.5625 17.25 22.8519 17.25 24.4375V27.3125C17.25 28.8981 18.5394 30.1875 20.125 30.1875V44.5625H1.4375V90.5625H90.5625V44.5625H71.875ZM87.6875 50.3125H63.8451L60.9701 47.4375H87.6875V50.3125ZM46 36.5326L62.6549 53.1875H58.5896L46 40.5993L33.4104 53.1875H29.3451L46 36.5326ZM64.6875 70.4375V56.0625H69.5951L66.7201 53.1875H70.4375V70.4375H64.6875ZM58.9375 81.9375H33.0625V79.0625H58.9375V81.9375ZM50.3125 70.4375V56.0625H56.0625V70.4375H50.3125ZM35.9375 70.4375V56.0625H41.6875V70.4375H35.9375ZM44.5625 56.0625H47.4375V70.4375H44.5625V56.0625ZM58.9375 56.0625H61.8125V70.4375H58.9375V56.0625ZM37.4771 53.1875L46 44.6646L54.5229 53.1875H37.4771ZM33.0625 56.0625V70.4375H30.1875V56.0625H33.0625ZM58.9375 76.1875H33.0625V73.3125H58.9375V76.1875ZM27.3125 56.0625V70.4375H21.5625V53.1875H25.2799L22.4049 56.0625H27.3125ZM18.6875 70.4375H4.3125V53.1875H18.6875V70.4375ZM24.4375 73.3125V87.6875H10.0625V73.3125H24.4375ZM27.3125 73.3125H30.1875V87.6875H27.3125V73.3125ZM33.0625 84.8125H58.9375V87.6875H33.0625V84.8125ZM61.8125 73.3125H64.6875V87.6875H61.8125V73.3125ZM67.5625 73.3125H81.9375V87.6875H67.5625V73.3125ZM73.3125 70.4375V53.1875H87.6875V70.4375H73.3125ZM66.0517 21.5625H57.4382C57.0472 13.0352 53.314 7.56556 50.3441 4.56263C58.8052 5.89231 65.3876 12.9016 66.0517 21.5625ZM46 4.59856C48.0887 6.08781 54.0414 11.2413 54.5646 21.5625H37.4354C37.9586 11.2413 43.9113 6.08781 46 4.59856ZM41.6544 4.56263C38.686 7.56556 34.9528 13.0352 34.5618 21.5625H25.9483C26.6124 12.9016 33.1947 5.89231 41.6544 4.56263V4.56263ZM20.125 24.4375H71.875V27.3125H20.125V24.4375ZM23 30.1875H69V44.5625H58.0951L46 32.4674L33.9049 44.5625H23V30.1875ZM31.0299 47.4375L28.1549 50.3125H4.3125V47.4375H31.0299ZM4.3125 73.3125H7.1875V87.6875H4.3125V73.3125ZM84.8125 87.6875V73.3125H87.6875V87.6875H84.8125Z" fill="black"/>
<path d="M25.875 33.0625H28.75V35.9375H25.875V33.0625Z" fill="black"/>
<path d="M25.875 38.8125H28.75V41.6875H25.875V38.8125Z" fill="black"/>
<path d="M31.625 33.0625H34.5V35.9375H31.625V33.0625Z" fill="black"/>
<path d="M31.625 38.8125H34.5V41.6875H31.625V38.8125Z" fill="black"/>
<path d="M63.25 33.0625H66.125V35.9375H63.25V33.0625Z" fill="black"/>
<path d="M63.25 38.8125H66.125V41.6875H63.25V38.8125Z" fill="black"/>
<path d="M57.5 38.8125H60.375V41.6875H57.5V38.8125Z" fill="black"/>
<path d="M57.5 33.0625H60.375V35.9375H57.5V33.0625Z" fill="black"/>
<path d="M51.75 33.0625H54.625V35.9375H51.75V33.0625Z" fill="black"/>
<path d="M37.375 33.0625H40.25V35.9375H37.375V33.0625Z" fill="black"/>
</svg>
