<svg width="72" height="72" viewBox="0 0 72 72" fill="none" xmlns="http://www.w3.org/2000/svg">
<g clip-path="url(#clip0)">
<path d="M47.066 17.4194H34.5418C30.411 17.4194 26.5914 19.6132 24.5104 23.1805L19.7422 31.3548H59.2261L58.5212 27.1231C57.5873 21.5236 52.7426 17.4194 47.066 17.4194Z" fill="#F9BA48"/>
<path d="M37.1621 46.4516H39.4847V48.7742H37.1621V46.4516Z" fill="black"/>
<path d="M32.5156 46.4516H34.8382V48.7742H32.5156V46.4516Z" fill="black"/>
<path d="M27.8711 46.4516H30.1937V48.7742H27.8711V46.4516Z" fill="black"/>
<path d="M3.58008 36.5693C4.24408 36.935 4.9954 37.1613 5.8074 37.1613C8.37267 37.1613 10.4526 35.0814 10.4526 32.5161C10.4526 31.8413 10.3017 31.2051 10.0426 30.6256L9.68252 30.6647C6.50088 31.0191 4.03768 33.4857 3.58008 36.5693Z" fill="#F9BA48"/>
<path d="M66.4573 29.5341C64.9303 30.2945 63.8711 31.8555 63.8711 33.6774C63.8711 36.2427 65.951 38.3226 68.5163 38.3226C69.3662 38.3226 70.1539 38.0776 70.8388 37.6779V36C70.8388 33.0667 69.0238 30.5604 66.4573 29.5341Z" fill="#F9BA48"/>
<path d="M64.8208 27.9254L64.3473 25.7134C62.5957 17.5424 55.2611 11.6129 46.9058 11.6129H34.4741C28.497 11.6129 22.9485 14.5825 19.6314 19.5559L13.2698 29.0986L9.55513 29.5108C5.43107 29.9707 2.32258 33.4427 2.32258 37.5911V44.9359C0.864163 47.0124 0 49.5335 0 52.2581V53.4194H5.80645V51.0968H2.38779C2.9673 45.8778 7.40323 41.8065 12.7742 41.8065C18.1452 41.8065 22.5777 45.8789 23.1572 51.0968H19.7419V53.4194H52.2581V51.0968H48.8428C49.4223 45.8789 53.8548 41.8065 59.2258 41.8065C64.5968 41.8065 69.0327 45.8778 69.6122 51.0968H66.1936V53.4194H72V36C72 31.8391 68.8575 28.3983 64.8208 27.9254ZM14.041 39.5479C14.2967 38.102 15.0457 36.7802 16.1951 35.8225L20.1621 32.5161H41.8064V34.8387H34.8387V38.3226C34.8387 40.2431 36.402 41.8065 38.3226 41.8065H41.8064V51.0968H25.4894C24.9377 45.0142 20.1099 40.1479 14.041 39.5479ZM47.0646 18.5806C52.1951 18.5806 56.5307 22.2539 57.3744 27.3147L57.8553 30.1935H44.129V18.5806H47.0646ZM41.8064 30.1935H21.764L25.5127 23.7656C27.3788 20.5675 30.8394 18.5806 34.5416 18.5806H41.8064V30.1935ZM41.8064 39.4839H38.3226C37.6818 39.4839 37.1613 38.9622 37.1613 38.3226V37.1613H41.8064V39.4839ZM46.5106 51.0968H44.129V32.5161H58.0645V39.5428C51.9468 40.0968 47.0646 44.979 46.5106 51.0968ZM60.3871 39.5428V31.3548L59.6658 26.9314C58.635 20.7479 53.336 16.2581 47.0646 16.2581H34.5416C30.0172 16.2581 25.7877 18.6861 23.5059 22.5964L18.8409 30.5944L14.7055 34.0398C13.026 35.4392 11.965 37.4017 11.6895 39.5394C9.02778 39.764 6.59406 40.8005 4.64516 42.4115V37.5911C4.64516 34.6283 6.86567 32.147 9.81086 31.8192L14.6012 31.2874L21.5627 20.8443C24.4489 16.5183 29.2749 13.9355 34.4741 13.9355H46.9058C54.1741 13.9355 60.5544 19.0938 62.0769 26.201L62.9314 30.1935H63.871C67.0725 30.1935 69.6774 32.7985 69.6774 36V44.9359C67.5743 41.9437 64.2265 39.8904 60.3871 39.5428Z" fill="black"/>
<path d="M59.2267 60.3871C54.7454 60.3871 51.0977 56.7405 51.0977 52.2581C51.0977 47.7756 54.7454 44.129 59.2267 44.129C63.708 44.129 67.3557 47.7756 67.3557 52.2581C67.3557 56.7405 63.708 60.3871 59.2267 60.3871ZM59.2267 49.9355C57.9458 49.9355 56.9041 50.9771 56.9041 52.2581C56.9041 53.539 57.9458 54.5806 59.2267 54.5806C60.5076 54.5806 61.5493 53.539 61.5493 52.2581C61.5493 50.9771 60.5076 49.9355 59.2267 49.9355Z" fill="#F9BA48"/>
<path d="M12.7736 60.3871C8.29228 60.3871 4.64453 56.7405 4.64453 52.2581C4.64453 47.7756 8.29228 44.129 12.7736 44.129C17.2549 44.129 20.9026 47.7756 20.9026 52.2581C20.9026 56.7405 17.2549 60.3871 12.7736 60.3871ZM12.7736 49.9355C11.4926 49.9355 10.451 50.9771 10.451 52.2581C10.451 53.539 11.4926 54.5806 12.7736 54.5806C14.0545 54.5806 15.0961 53.539 15.0961 52.2581C15.0961 50.9771 14.0545 49.9355 12.7736 49.9355Z" fill="#F9BA48"/>
<path d="M59.2261 55.7419C57.3055 55.7419 55.7422 54.1786 55.7422 52.2581C55.7422 50.3375 57.3055 48.7742 59.2261 48.7742C61.1466 48.7742 62.7099 50.3375 62.7099 52.2581C62.7099 54.1786 61.1466 55.7419 59.2261 55.7419ZM59.2261 51.0968C58.5853 51.0968 58.0648 51.6184 58.0648 52.2581C58.0648 52.8977 58.5853 53.4194 59.2261 53.4194C59.8668 53.4194 60.3873 52.8977 60.3873 52.2581C60.3873 51.6184 59.8668 51.0968 59.2261 51.0968Z" fill="black"/>
<path d="M12.7749 55.7419C10.8543 55.7419 9.29102 54.1786 9.29102 52.2581C9.29102 50.3375 10.8543 48.7742 12.7749 48.7742C14.6954 48.7742 16.2588 50.3375 16.2588 52.2581C16.2588 54.1786 14.6954 55.7419 12.7749 55.7419ZM12.7749 51.0968C12.1341 51.0968 11.6136 51.6184 11.6136 52.2581C11.6136 52.8977 12.1341 53.4194 12.7749 53.4194C13.4156 53.4194 13.9362 52.8977 13.9362 52.2581C13.9362 51.6184 13.4156 51.0968 12.7749 51.0968Z" fill="black"/>
</g>
<defs>
<clipPath id="clip0">
<rect width="72" height="72" fill="white"/>
</clipPath>
</defs>
</svg>
