<svg width="72" height="72" viewBox="0 0 72 72" fill="none" xmlns="http://www.w3.org/2000/svg">
<path d="M67.9355 2.32287C67.053 2.32287 66.2411 2.61308 65.5734 3.09277C64.8557 1.93853 63.5854 1.16156 62.129 1.16156C61.2464 1.16156 60.4346 1.45176 59.7668 1.93146C59.0494 0.777217 57.779 0.000244141 56.3226 0.000244141C54.0815 0.000244141 52.258 1.82342 52.258 4.06484V17.3858C49.4582 15.8658 46.4656 15.0968 43.3336 15.0968C36.8781 15.0968 32.1899 17.9977 29.3946 20.4318C28.3611 21.3307 27.8083 22.6337 27.8768 24.0062C27.9465 25.3882 28.634 26.6424 29.7651 27.4423C31.4512 28.6348 33.7297 28.5119 35.3044 27.145C36.929 25.7352 39.6394 24.0559 43.3336 24.0559C48.0054 24.0559 51.1375 27.4643 52.258 28.9148V40.7635C51.1375 42.2141 48.0054 45.6212 43.3336 45.6212C39.6384 45.6212 36.9278 43.9419 35.3044 42.5345C33.7285 41.1642 31.4488 41.0457 29.7651 42.236C28.634 43.0362 27.9453 44.2904 27.8768 45.6722C27.8083 47.0449 28.3611 48.3477 29.3946 49.2466C32.1911 51.6794 36.8781 54.5803 43.3336 54.5803C45.1824 54.5803 47.0055 54.304 48.7743 53.7582V71.9997H68.5162V49.6204C70.6808 48.1038 72.0001 45.6129 72.0001 42.9674V6.38674C72.0001 4.14605 70.177 2.32287 67.9355 2.32287ZM69.6775 42.9679C69.6775 45.0188 68.5638 46.9405 66.7708 47.9836L66.1936 48.3191V69.6776H51.0967V50.3769L49.4952 51.0342C47.5152 51.847 45.4423 52.2581 43.3333 52.2581C37.5965 52.2581 33.4149 49.6685 30.9191 47.4946C30.4267 47.0649 30.1631 46.4435 30.1955 45.7875C30.2292 45.121 30.5601 44.516 31.1059 44.1304C31.9141 43.5568 33.0151 43.6207 33.7814 44.2872C35.7033 45.9548 38.9212 47.9419 43.3331 47.9419C49.4613 47.9419 53.3225 43.263 54.3595 41.8278L54.5802 41.5259V28.1525L54.3595 27.8481C53.3225 26.4139 49.4611 21.7328 43.3331 21.7328C38.9237 21.7328 35.7046 23.7208 33.7814 25.3897C33.0161 26.054 31.9163 26.1179 31.1059 25.5452C30.5601 25.1597 30.2292 24.5546 30.1955 23.8881C30.1631 23.2331 30.4267 22.6107 30.9191 22.181C33.4158 20.0094 37.5965 17.4197 43.3333 17.4197C46.6768 17.4197 49.8493 18.4267 52.7653 20.4135L54.5804 21.6514V4.06484C54.5804 3.10448 55.362 2.32287 56.3224 2.32287C57.2828 2.32287 58.0644 3.10448 58.0644 4.06484V5.22616V27.8713H60.387V5.22616C60.387 4.26579 61.1686 3.48419 62.129 3.48419C63.0893 3.48419 63.8709 4.26579 63.8709 5.22616V6.38747V27.8713H66.1936V6.38723C66.1936 5.42686 66.9752 4.64526 67.9355 4.64526C68.8959 4.64526 69.6775 5.42686 69.6775 6.38723V42.9679Z" fill="black"/>
<path d="M24.3871 48.7745H17.4763L18.1881 47.1476C18.4493 46.5531 18.5808 45.9283 18.5808 45.2908C18.5808 42.7289 16.4974 40.6455 13.9355 40.6455C11.3737 40.6455 9.29027 42.7289 9.29027 45.2908C9.29027 45.9283 9.42147 46.5531 9.6829 47.1476L10.3948 48.7745H3.48394C1.56321 48.7745 0 47.2113 0 45.2905V38.3797L1.62686 39.0916C2.22142 39.3528 2.84622 39.4842 3.4837 39.4842C6.04556 39.4842 8.12895 37.4008 8.12895 34.839C8.12895 32.2771 6.04556 30.1937 3.4837 30.1937C2.84622 30.1937 2.22142 30.3249 1.62686 30.5863L0 31.2982V24.3874C0 22.4666 1.56321 20.9034 3.48394 20.9034H7.06641C7.00032 20.5213 6.96764 20.1335 6.96764 19.7421C6.96764 15.8994 10.0926 12.7745 13.9353 12.7745C17.778 12.7745 20.9029 15.8994 20.9029 19.7421C20.9029 20.1335 20.8705 20.5213 20.8042 20.9034H24.3871C26.3078 20.9034 27.871 22.4666 27.871 24.3874V27.9698C28.2532 27.9037 28.6409 27.8711 29.0324 27.8711C32.875 27.8711 36 30.996 36 34.8387C36 38.6814 32.875 41.8063 29.0324 41.8063C28.6409 41.8063 28.2532 41.7739 27.871 41.7076V45.29C27.871 47.2113 26.3078 48.7745 24.3871 48.7745Z" fill="#F9BA48"/>
</svg>
