<svg width="72" height="72" viewBox="0 0 72 72" fill="none" xmlns="http://www.w3.org/2000/svg">
<path d="M51.098 38.3224H20.9043V12.7741H51.0977V38.3224H51.098Z" fill="#F9BA48"/>
<path d="M11.6133 0V72H60.3874V0H11.6133ZM58.0648 69.6773H13.9357V2.32268H58.0648V69.6773Z" fill="black"/>
<path d="M53.1437 40.6451H47.8912C46.457 40.6451 45.291 41.8112 45.291 43.2441V47.3354C45.291 48.7696 46.457 49.9356 47.89 49.9356H53.1425C54.5767 49.9356 55.7427 48.7696 55.7427 47.3366V43.2453C55.7427 41.8112 54.5767 40.6451 53.1437 40.6451ZM47.89 42.9678H53.1425C53.297 42.9678 53.4201 43.0909 53.4201 43.2441V44.129H47.6137V43.2441C47.6137 43.0909 47.7368 42.9678 47.89 42.9678ZM53.1437 47.6129H47.8912C47.7368 47.6129 47.6137 47.4899 47.6137 47.3366V46.4517H53.4201V47.3366C53.4201 47.4899 53.297 47.6129 53.1437 47.6129Z" fill="black"/>
<path d="M24.3868 44.129H16.2578V46.4517H24.3868V44.129Z" fill="black"/>
<path d="M55.7417 52.258H16.2578V54.5807H55.7417V52.258Z" fill="black"/>
<path d="M24.3867 67.3549H47.6126V56.9032H24.3867V67.3549ZM26.7094 65.0322V63.871H45.2901V65.0322H26.7094ZM45.2899 59.2259V61.5485H26.7094V59.2259H45.2899Z" fill="black"/>
<path d="M18.5805 15.0968H16.2578V17.4195H18.5805V15.0968Z" fill="black"/>
<path d="M18.5805 19.7419H16.2578V22.0646H18.5805V19.7419Z" fill="black"/>
<path d="M18.5805 24.3871H16.2578V26.7098H18.5805V24.3871Z" fill="black"/>
<path d="M18.5805 29.0322H16.2578V31.3549H18.5805V29.0322Z" fill="black"/>
<path d="M18.5805 33.6773H16.2578V36H18.5805V33.6773Z" fill="black"/>
<path d="M55.7426 15.0968H53.4199V17.4195H55.7426V15.0968Z" fill="black"/>
<path d="M55.7426 19.7419H53.4199V22.0646H55.7426V19.7419Z" fill="black"/>
<path d="M55.7426 24.3871H53.4199V26.7098H55.7426V24.3871Z" fill="black"/>
<path d="M55.7426 29.0322H53.4199V31.3549H55.7426V29.0322Z" fill="black"/>
<path d="M55.7426 33.6773H53.4199V36H55.7426V33.6773Z" fill="black"/>
<path d="M42.9676 10.4517H55.7417V8.12904H42.9676V5.56025C42.9676 4.4151 42.0361 3.48392 40.8912 3.48392H31.1085C29.9634 3.48392 29.0322 4.41534 29.0322 5.56025V8.12904H16.2578V10.4517H29.032H42.9676ZM31.3546 5.80636H40.6449V8.12904H31.3546V5.80636Z" fill="black"/>
</svg>
