<svg width="72" height="72" viewBox="0 0 72 72" fill="none" xmlns="http://www.w3.org/2000/svg">
<path d="M41.6926 46.2474H30.3066V61.0491H41.6926V46.2474Z" fill="#F9BA48"/>
<path d="M5.25802 63.3262V64.4648H3.41578L0 71.2963H72L68.5842 64.4648H66.742V63.3262C66.742 61.8438 65.7867 60.5913 64.4648 60.1199V43.7606C65.7867 43.2893 66.742 42.0368 66.742 40.5544V39.4158H69.0192V32.5842H64.4648V21.1983H67.8806V14.7413L42.1245 4.20367L41.2614 6.31235L60.9511 14.3667H48.5245V16.6439H65.6034V18.9211H6.39661V16.6439H23.4755V14.3667H11.0489L30.7386 6.31235L29.8755 4.20367L4.11943 14.7413V21.1983H7.5352V32.5842H2.98083V39.4158H5.25802V40.5544C5.25802 42.0368 6.2133 43.2893 7.5352 43.7606V60.1211C6.2133 60.5913 5.25802 61.8438 5.25802 63.3262ZM12.0896 43.9701V59.9104H9.81238V43.9701H12.0896ZM16.6439 40.5544V39.4158H55.3561V40.5544C55.3561 42.0368 56.3113 43.2893 57.6332 43.7606V60.1211C56.3113 60.5924 55.3561 61.8449 55.3561 63.3273V64.4659H52.6439L50.3668 59.9116H46.2473V43.9701H48.5245V41.6929H23.4755V43.9701H25.7527V59.9104H21.6332L19.3561 64.4648H16.6439V63.3262C16.6439 61.8438 15.6887 60.5913 14.3668 60.1199V43.7606C15.6887 43.2893 16.6439 42.0368 16.6439 40.5544ZM59.9104 59.9104V43.9701H62.1876V59.9104H59.9104ZM34.8614 43.9701V59.9104H28.0299V43.9701H34.8614ZM37.1386 59.9104V43.9701H43.9701V59.9104H37.1386ZM48.9594 62.1876L50.098 64.4648H21.902L23.0405 62.1876H48.9594ZM7.5352 63.3262C7.5352 62.6988 8.04529 62.1876 8.67379 62.1876H13.2282C13.8567 62.1876 14.3668 62.6988 14.3668 63.3262V64.4648H7.5352V63.3262ZM68.3155 69.0192H3.68448L4.82308 66.742H67.1769L68.3155 69.0192ZM57.6332 64.4648V63.3262C57.6332 62.6988 58.1433 62.1876 58.7718 62.1876H63.3262C63.9547 62.1876 64.4648 62.6988 64.4648 63.3262V64.4648H57.6332ZM64.4648 40.5544C64.4648 41.1817 63.9547 41.6929 63.3262 41.6929H58.7718C58.1433 41.6929 57.6332 41.1817 57.6332 40.5544V39.4158H64.4648V40.5544ZM9.81238 21.1983H62.1876V32.5842H9.81238V21.1983ZM5.25802 34.8614H66.742V37.1386H5.25802V34.8614ZM14.3668 39.4158V40.5544C14.3668 41.1817 13.8567 41.6929 13.2282 41.6929H8.67379C8.04529 41.6929 7.5352 41.1817 7.5352 40.5544V39.4158H14.3668Z" fill="black"/>
<path d="M14.3672 30.3071H23.4759V23.4755H14.3672V30.3071ZM16.6444 25.7527H21.1987V28.0299H16.6444V25.7527Z" fill="black"/>
<path d="M25.7529 30.3071H34.8617V23.4755H25.7529V30.3071ZM28.0301 25.7527H32.5845V28.0299H28.0301V25.7527Z" fill="black"/>
<path d="M37.1387 30.3071H46.2474V23.4755H37.1387V30.3071ZM39.4159 25.7527H43.9702V28.0299H39.4159V25.7527Z" fill="black"/>
<path d="M48.5244 23.4755V30.3071H57.6331V23.4755H48.5244ZM55.356 28.0299H50.8016V25.7527H55.356V28.0299Z" fill="black"/>
<path d="M36.0003 18.9211C41.031 18.9211 45.1091 14.843 45.1091 9.81241C45.1091 4.78179 41.031 0.703674 36.0003 0.703674C30.9697 0.703674 26.8916 4.78179 26.8916 9.81241C26.8916 14.843 30.9697 18.9211 36.0003 18.9211Z" fill="#F9BA48"/>
</svg>
