<svg width="72" height="72" viewBox="0 0 72 72" fill="none" xmlns="http://www.w3.org/2000/svg">
<path d="M15.75 52.875C11.4086 52.875 7.875 49.3425 7.875 45C7.875 40.6575 11.4086 37.125 15.75 37.125C20.0914 37.125 23.625 40.6575 23.625 45C23.625 49.3425 20.0914 52.875 15.75 52.875ZM15.75 42.75C14.5091 42.75 13.5 43.7591 13.5 45C13.5 46.2409 14.5091 47.25 15.75 47.25C16.9909 47.25 18 46.2409 18 45C18 43.7591 16.9909 42.75 15.75 42.75Z" fill="#F9BA48"/>
<path d="M15.75 52.875C11.4086 52.875 7.875 49.3425 7.875 45C7.875 40.6575 11.4086 37.125 15.75 37.125C20.0914 37.125 23.625 40.6575 23.625 45C23.625 49.3425 20.0914 52.875 15.75 52.875ZM15.75 42.75C14.5091 42.75 13.5 43.7591 13.5 45C13.5 46.2409 14.5091 47.25 15.75 47.25C16.9909 47.25 18 46.2409 18 45C18 43.7591 16.9909 42.75 15.75 42.75Z" fill="#F9BA48"/>
<path d="M56.25 52.875C51.9086 52.875 48.375 49.3425 48.375 45C48.375 40.6575 51.9086 37.125 56.25 37.125C60.5914 37.125 64.125 40.6575 64.125 45C64.125 49.3425 60.5914 52.875 56.25 52.875ZM56.25 42.75C55.0091 42.75 54 43.7591 54 45C54 46.2409 55.0091 47.25 56.25 47.25C57.4909 47.25 58.5 46.2409 58.5 45C58.5 43.7591 57.4909 42.75 56.25 42.75Z" fill="#F9BA48"/>
<path d="M70.875 33.75V29.25C70.875 27.3892 69.3607 25.875 67.5 25.875H61.875V13.5C61.875 6.67688 56.3231 1.125 49.5 1.125H22.5C15.6769 1.125 10.125 6.67688 10.125 13.5V25.875H4.5C2.63925 25.875 1.125 27.3892 1.125 29.25V33.75C1.125 35.6107 2.63925 37.125 4.5 37.125H6.21112C4.44037 39.2659 3.375 42.0109 3.375 45C3.375 46.917 3.51 48.8228 3.76537 50.7105C2.25675 51.048 1.125 52.3924 1.125 54V67.5C1.125 69.3607 2.63925 70.875 4.5 70.875H11.25C13.1108 70.875 14.625 69.3607 14.625 67.5V64.125H57.375V67.5C57.375 69.3607 58.8893 70.875 60.75 70.875H67.5C69.3607 70.875 70.875 69.3607 70.875 67.5V54C70.875 52.3924 69.7432 51.048 68.2346 50.7105C68.49 48.8228 68.625 46.917 68.625 45C68.625 42.0109 67.5596 39.2659 65.7889 37.125H67.5C69.3607 37.125 70.875 35.6107 70.875 33.75ZM67.5 28.125C68.121 28.125 68.625 28.6301 68.625 29.25V33.75C68.625 34.3699 68.121 34.875 67.5 34.875H63.3431C62.8763 34.5476 62.3857 34.2529 61.875 33.9907V28.125H67.5ZM22.5 3.375H49.5C54.9596 3.375 59.4101 7.72088 59.6059 13.1321C57.3638 9.95738 53.6738 7.875 49.5 7.875H22.5C18.3263 7.875 14.6363 9.95738 12.3941 13.1321C12.5899 7.72088 17.0404 3.375 22.5 3.375ZM22.5 10.125H49.5C55.0834 10.125 59.625 14.6678 59.625 20.25V33.1042C58.8994 32.8984 58.1479 32.7521 57.375 32.6812V20.25C57.375 15.9075 53.8414 12.375 49.5 12.375H22.5C18.1586 12.375 14.625 15.9075 14.625 20.25V32.6824C13.851 32.7521 13.1006 32.8984 12.375 33.1054V20.25C12.375 14.6678 16.9166 10.125 22.5 10.125ZM32.5114 32.625C31.9883 30.0611 29.7169 28.125 27 28.125C24.2831 28.125 22.0117 30.0611 21.4886 32.625H19.125V31.5C19.125 28.3984 21.6484 25.875 24.75 25.875H29.25C32.3516 25.875 34.875 28.3984 34.875 31.5V32.625H32.5114ZM30.168 32.625H23.8331C24.2989 31.3189 25.5364 30.375 27.0011 30.375C28.4659 30.375 29.7022 31.3189 30.168 32.625ZM55.125 31.5C55.125 28.4648 53.3959 25.8289 50.8736 24.5149C52.0875 23.4832 52.875 21.9634 52.875 20.2489V15.7793C54.2329 16.8075 55.125 18.4207 55.125 20.25V31.5ZM50.625 20.2489C50.625 22.1096 49.1107 23.6239 47.25 23.6239V23.625H42.75V23.6239C40.8893 23.6239 39.375 22.1096 39.375 20.2489V14.625H49.5C49.8848 14.625 50.2616 14.6644 50.625 14.7386V20.2489ZM39.1264 24.5149C37.8304 25.1899 36.7492 26.2159 36 27.4646C35.2508 26.2159 34.1696 25.1899 32.8736 24.5149C34.0875 23.4832 34.875 21.9634 34.875 20.2489V14.625H37.125V20.2489C37.125 21.9634 37.9125 23.4832 39.1264 24.5149ZM32.625 20.2489C32.625 22.1096 31.1108 23.6239 29.25 23.6239V23.625H24.75V23.6239C22.8892 23.6239 21.375 22.1096 21.375 20.2489V14.7386C21.7384 14.6644 22.1152 14.625 22.5 14.625H32.625V20.2489ZM21.1264 24.5149C18.6041 25.8289 16.875 28.4648 16.875 31.5V20.25C16.875 18.4196 17.7671 16.8064 19.125 15.7793V20.2489C19.125 21.9634 19.9125 23.4832 21.1264 24.5149ZM37.125 31.5C37.125 28.3984 39.6484 25.875 42.75 25.875H47.25C50.3516 25.875 52.875 28.3984 52.875 31.5V32.625H37.125V31.5ZM3.375 33.75V29.25C3.375 28.6301 3.879 28.125 4.5 28.125H10.125V33.9907C9.61425 34.2529 9.12375 34.5476 8.65688 34.875H4.5C3.879 34.875 3.375 34.3699 3.375 33.75ZM64.125 59.625V60.75C64.125 61.3699 63.621 61.875 63 61.875H9C8.379 61.875 7.875 61.3699 7.875 60.75V59.625H64.125ZM48.375 57.375H46.125V50.625H48.375V57.375ZM43.875 57.375H41.625V50.625H43.875V57.375ZM39.375 57.375H37.125V50.625H39.375V57.375ZM34.875 57.375H32.625V50.625H34.875V57.375ZM30.375 57.375H28.125V50.625H30.375V57.375ZM25.875 57.375H23.625V50.625H25.875V57.375ZM12.375 67.5C12.375 68.1199 11.871 68.625 11.25 68.625H4.5C3.879 68.625 3.375 68.1199 3.375 67.5V54C3.375 53.5117 3.69225 53.1056 4.12762 52.9504C4.48312 54.828 4.959 56.6854 5.5665 58.509L5.625 58.6834V60.75C5.625 62.6107 7.13925 64.125 9 64.125H12.375V67.5ZM67.8724 52.9504C68.3078 53.1056 68.625 53.5117 68.625 54V67.5C68.625 68.1199 68.121 68.625 67.5 68.625H60.75C60.129 68.625 59.625 68.1199 59.625 67.5V64.125H63C64.8607 64.125 66.375 62.6107 66.375 60.75V58.6811L66.4324 58.509C67.041 56.6854 67.5158 54.828 67.8724 52.9504ZM64.4355 57.375H61.875V55.125H59.625V57.375H55.125V52.785C54.3307 52.6702 53.5747 52.4385 52.875 52.1044V57.375H50.625V50.625H50.7499C50.0895 49.9793 49.5484 49.2176 49.1468 48.375H22.8555C22.4539 49.2176 21.9116 49.9793 21.2524 50.625H21.375V57.375H19.125V52.1044C18.4252 52.4385 17.6693 52.6702 16.875 52.785V57.375H12.375V55.125H10.125V57.375H7.5645C6.2775 53.3711 5.625 49.2098 5.625 45C5.625 39.4178 10.1666 34.875 15.75 34.875H16.875V37.215C17.6693 37.3298 18.4252 37.5615 19.125 37.8956V34.875H52.875V37.8956C53.5747 37.5615 54.3307 37.3298 55.125 37.215V34.875H56.25C61.8334 34.875 66.375 39.4178 66.375 45C66.375 49.2098 65.7236 53.37 64.4355 57.375Z" fill="black"/>
<path d="M31.2626 18.7391L31.3807 18.5018L29.3681 17.4971L29.25 17.7334C28.8214 18.5906 27.9596 19.1239 27 19.1239H23.625V21.3739H27C28.8169 21.3739 30.4504 20.3648 31.2626 18.7391Z" fill="black"/>
<path d="M47.25 17.7334C46.8214 18.5906 45.9596 19.1239 45 19.1239H41.625V21.3739H45C46.8169 21.3739 48.4504 20.3648 49.2626 18.7391L49.3808 18.5018L47.3681 17.4971L47.25 17.7334Z" fill="black"/>
<path d="M15.75 41.625C13.8892 41.625 12.375 43.1392 12.375 45C12.375 46.8608 13.8892 48.375 15.75 48.375C17.6108 48.375 19.125 46.8608 19.125 45C19.125 43.1392 17.6108 41.625 15.75 41.625ZM15.75 46.125C15.129 46.125 14.625 45.6199 14.625 45C14.625 44.3801 15.129 43.875 15.75 43.875C16.371 43.875 16.875 44.3801 16.875 45C16.875 45.6199 16.371 46.125 15.75 46.125Z" fill="black"/>
<path d="M56.25 41.625C54.3892 41.625 52.875 43.1392 52.875 45C52.875 46.8608 54.3892 48.375 56.25 48.375C58.1108 48.375 59.625 46.8608 59.625 45C59.625 43.1392 58.1108 41.625 56.25 41.625ZM56.25 46.125C55.629 46.125 55.125 45.6199 55.125 45C55.125 44.3801 55.629 43.875 56.25 43.875C56.871 43.875 57.375 44.3801 57.375 45C57.375 45.6199 56.871 46.125 56.25 46.125Z" fill="black"/>
</svg>
