<svg width="72" height="72" viewBox="0 0 72 72" fill="none" xmlns="http://www.w3.org/2000/svg">
<g clip-path="url(#clip0)">
<path d="M11.6136 6.96774H60.3878V10.4516H62.7104V4.64516H57.6218L55.2992 0H16.7022L14.3796 4.64516H9.29102V15.0968H11.6136V6.96774ZM18.1379 2.32258H53.8635L55.0248 4.64516H16.9766L18.1379 2.32258Z" fill="black"/>
<path d="M68.6312 62.0315L63.871 60.6729V58.5987C65.2925 57.3223 66.1936 55.4771 66.1936 53.4194V51.0968C66.1936 48.5247 64.7884 46.2787 62.7097 45.072V21.4017H60.3871V34.8387H51.7749C51.1002 33.2839 49.7682 32.0676 48.1193 31.572L40.6452 29.3294V27.5642C42.7483 26.0933 44.129 23.6579 44.129 20.9032V17.4194C44.129 12.9381 40.4824 9.29032 36 9.29032C31.5176 9.29032 27.871 12.9381 27.871 17.4194V20.9032C27.871 23.6579 29.2517 26.0944 31.3548 27.5642V29.3294L23.8796 31.572C21.4051 32.3143 19.7419 34.5495 19.7419 37.1346V39.4839H11.6129V24.3871H9.29032V45.072C7.21157 46.2787 5.80645 48.5247 5.80645 51.0968V53.4194C5.80645 55.476 6.70747 57.3211 8.12903 58.5987V60.674L3.36876 62.0326C1.38527 62.598 0 64.4352 0 66.4992V72H72V66.4992C72 64.4352 70.6147 62.598 68.6312 62.0315ZM63.871 51.0968V53.4194C63.871 55.9812 61.7877 58.0645 59.2258 58.0645C56.6639 58.0645 54.5806 55.9812 54.5806 53.4194V51.0968C54.5806 48.5349 56.6639 46.4516 59.2258 46.4516C61.7877 46.4516 63.871 48.5349 63.871 51.0968ZM61.5484 59.9805V61.2291C61.2603 61.6737 60.4602 62.7097 59.2258 62.7097C57.9914 62.7097 57.1913 61.6726 56.9032 61.2291V59.9805C57.6313 60.2397 58.4104 60.3871 59.2258 60.3871C60.0412 60.3871 60.8203 60.2385 61.5484 59.9805ZM30.1935 20.9032V17.4194C30.1935 14.2179 32.7985 11.6129 36 11.6129C39.2015 11.6129 41.8064 14.2179 41.8064 17.4194V20.9032C41.8064 24.1047 39.2015 26.7097 36 26.7097C32.7985 26.7097 30.1935 24.1047 30.1935 20.9032ZM36 29.0323C36.8069 29.0323 37.5866 28.9103 38.3226 28.6898V29.8732C38.0345 30.3189 37.2344 31.3548 36 31.3548C34.7656 31.3548 33.9655 30.3177 33.6774 29.8743V28.6909C34.4134 28.9103 35.1931 29.0323 36 29.0323ZM22.0645 37.1346C22.0645 35.5844 23.0619 34.2428 24.5476 33.7971L32.0251 31.5533C32.701 32.4311 34.0086 33.6774 36 33.6774C37.9914 33.6774 39.299 32.4311 39.9749 31.5533L47.4513 33.7971C48.0807 33.9865 48.6245 34.359 49.0492 34.8387H44.8095L40.1643 39.4839H22.0645V37.1346ZM11.6129 41.8065H41.126L45.7712 37.1613H60.3871V44.129H11.6129V41.8065ZM36 58.0645C33.4381 58.0645 31.3548 55.9812 31.3548 53.4194V51.0968C31.3548 48.5349 33.4381 46.4516 36 46.4516C38.5619 46.4516 40.6452 48.5349 40.6452 51.0968V53.4194C40.6452 55.9812 38.5619 58.0645 36 58.0645ZM38.3226 59.9805V61.2291C38.0345 61.6737 37.2344 62.7097 36 62.7097C34.7656 62.7097 33.9655 61.6726 33.6774 61.2291V59.9805C34.4055 60.2397 35.1846 60.3871 36 60.3871C36.8154 60.3871 37.5945 60.2385 38.3226 59.9805ZM8.12903 51.0968C8.12903 48.5349 10.2123 46.4516 12.7742 46.4516C15.3361 46.4516 17.4194 48.5349 17.4194 51.0968V53.4194C17.4194 55.9812 15.3361 58.0645 12.7742 58.0645C10.2123 58.0645 8.12903 55.9812 8.12903 53.4194V51.0968ZM15.0968 59.9805V61.2291C14.8087 61.6737 14.0086 62.7097 12.7742 62.7097C11.5398 62.7097 10.7397 61.6726 10.4516 61.2291V59.9805C11.1797 60.2397 11.9588 60.3871 12.7742 60.3871C13.5896 60.3871 14.3687 60.2385 15.0968 59.9805ZM23.2258 69.6774H2.32258V66.4992C2.32258 65.4666 3.01607 64.5491 4.00668 64.2656L8.79076 62.8991C9.4644 63.7768 10.7743 65.0323 12.7742 65.0323C14.7741 65.0323 16.084 63.7768 16.7576 62.8979L21.5417 64.2645C22.5323 64.5491 23.2258 65.4666 23.2258 66.4992V69.6774ZM24.3871 63.4553C23.811 62.7947 23.0597 62.2833 22.1796 62.0315L17.4194 60.6729V58.5987C18.8409 57.3223 19.7419 55.4771 19.7419 53.4194V51.0968C19.7419 49.3106 19.0615 47.6861 17.9535 46.4516H22.0645V49.9355H24.3871V46.4516H30.8207C29.7127 47.6861 29.0323 49.3106 29.0323 51.0968V53.4194C29.0323 55.476 29.9333 57.3211 31.3548 58.5987V60.674L26.5946 62.0326C25.7145 62.2833 24.9632 62.7947 24.3871 63.4553ZM46.4516 69.6774H25.5484V66.4992C25.5484 65.4666 26.2419 64.5491 27.2325 64.2656L32.0166 62.8991C32.6902 63.7768 34.0001 65.0323 36 65.0323C37.9999 65.0323 39.3098 63.7768 39.9834 62.8979L44.7675 64.2645C45.7581 64.5491 46.4516 65.4666 46.4516 66.4992V69.6774ZM47.6129 63.4553C47.0368 62.7947 46.2855 62.2833 45.4054 62.0315L40.6452 60.6729V58.5987C42.0667 57.3223 42.9677 55.4771 42.9677 53.4194V51.0968C42.9677 49.3106 42.2873 47.6861 41.1793 46.4516H47.6129V49.9355H49.9355V46.4516H54.0465C52.9385 47.6861 52.2581 49.3106 52.2581 51.0968V53.4194C52.2581 55.476 53.1591 57.3211 54.5806 58.5987V60.674L49.8204 62.0326C48.9403 62.2833 48.189 62.7947 47.6129 63.4553ZM69.6774 69.6774H48.7742V66.4992C48.7742 65.4666 49.4677 64.5491 50.4583 64.2656L55.2424 62.8991C55.916 63.7768 57.2259 65.0323 59.2258 65.0323C61.2257 65.0323 62.5356 63.7768 63.2092 62.8979L67.9933 64.2645C68.9839 64.5491 69.6774 65.4666 69.6774 66.4992V69.6774Z" fill="black"/>
<path d="M55.7422 39.4839H58.0648V41.8064H55.7422V39.4839Z" fill="black"/>
<path d="M51.0977 39.4839H53.4202V41.8064H51.0977V39.4839Z" fill="black"/>
<path d="M46.4512 39.4839H48.7738V41.8064H46.4512V39.4839Z" fill="black"/>
<path d="M19.7419 31.3548L12.7311 25.5484H2.32258C1.03938 25.5484 0 24.509 0 23.2258V16.2581C0 14.9749 1.03938 13.9355 2.32258 13.9355H23.2258C24.509 13.9355 25.5484 14.9749 25.5484 16.2581V23.2258C25.5484 24.509 24.509 25.5484 23.2258 25.5484H19.7419V31.3548Z" fill="#F9BA48"/>
<path d="M4.64453 18.5806H6.96711V20.9032H4.64453V18.5806Z" fill="black"/>
<path d="M9.29102 18.5806H20.9039V20.9032H9.29102V18.5806Z" fill="black"/>
<path d="M56.9041 26.7097V20.9032H53.4202C52.137 20.9032 51.0977 19.8638 51.0977 18.5806V11.6129C51.0977 10.3297 52.137 9.29032 53.4202 9.29032H69.6783C70.9615 9.29032 72.0009 10.3297 72.0009 11.6129V18.5806C72.0009 19.8638 70.9615 20.9032 69.6783 20.9032H63.9149L56.9041 26.7097Z" fill="#F9BA48"/>
<path d="M65.0332 13.9355H67.3558V16.2581H65.0332V13.9355Z" fill="black"/>
<path d="M55.7422 13.9355H62.7099V16.2581H55.7422V13.9355Z" fill="black"/>
</g>
<defs>
<clipPath id="clip0">
<rect width="72" height="72" fill="white"/>
</clipPath>
</defs>
</svg>
