<svg width="72" height="72" viewBox="0 0 72 72" fill="none" xmlns="http://www.w3.org/2000/svg">
<path d="M54 5.625H47.3411C44.532 8.09887 42.75 11.7124 42.75 15.75C42.75 17.7604 43.2011 19.6605 43.9898 21.375H51.75C53.6108 21.375 55.125 19.8608 55.125 18C55.125 16.1392 53.6108 14.625 51.75 14.625H49.5C48.879 14.625 48.375 14.1199 48.375 13.5C48.375 12.8801 48.879 12.375 49.5 12.375H54C55.8608 12.375 57.375 10.8608 57.375 9C57.375 7.13925 55.8608 5.625 54 5.625Z" fill="#F0BC5E"/>
<path d="M69.75 15.75C69.75 15.3698 69.7241 14.9974 69.6938 14.625H60.75C58.8892 14.625 57.375 16.1392 57.375 18C57.375 19.8608 58.8892 21.375 60.75 21.375H63C63.621 21.375 64.125 21.8801 64.125 22.5C64.125 23.1199 63.621 23.625 63 23.625H56.25C54.3892 23.625 52.875 25.1392 52.875 27C52.875 27.7391 53.1214 28.4186 53.5252 28.9744C54.4061 29.1555 55.3163 29.25 56.25 29.25C63.7054 29.25 69.75 23.2054 69.75 15.75Z" fill="#F0BC5E"/>
<path d="M65.1679 5.63293C63.3454 5.67793 61.875 7.16743 61.875 9.00006C61.875 10.8608 63.3893 12.3751 65.25 12.3751H69.3079C68.6239 9.72343 67.1603 7.39131 65.1679 5.63293Z" fill="#F0BC5E"/>
<path d="M28.125 21.375H10.125V14.625H28.125V21.375Z" fill="#F0BC5E"/>
<path d="M69.2471 60.3653L58.7655 55.125H38.223C38.7203 54.468 39.0915 53.7109 39.2614 52.875H64.125C65.3659 52.875 66.375 51.8659 66.375 50.625V26.2789C69.1425 23.616 70.875 19.8844 70.875 15.75C70.875 7.68601 64.314 1.12501 56.25 1.12501C51.0863 1.12501 46.5491 3.82276 43.9459 7.87501H43.875C40.2829 7.87501 36.72 8.97751 33.75 10.9935C30.78 8.97751 27.2171 7.87501 23.625 7.87501H19.125V0.689636L14.625 2.18926L10.125 0.689636V7.87501H7.875C6.63412 7.87501 5.625 8.88414 5.625 10.125H3.375C2.13412 10.125 1.125 11.1341 1.125 12.375V50.625C1.125 51.8659 2.13412 52.875 3.375 52.875H28.2386C28.4085 53.7109 28.7798 54.468 29.277 55.125H6.75C3.64838 55.125 1.125 57.6484 1.125 60.75V65.25C1.125 68.3516 3.64838 70.875 6.75 70.875H58.7655L69.2471 65.6348C70.2506 65.1319 70.875 64.1216 70.875 63C70.875 61.8784 70.2506 60.8681 69.2471 60.3653ZM57.375 61.875H16.875V57.375H57.375V61.875ZM14.625 68.625H12.375V57.375H14.625V68.625ZM16.875 64.125H57.375V68.625H16.875V64.125ZM59.625 58.0703L64.125 60.3203V65.6786L59.625 67.9286V58.0703ZM56.25 3.37501C63.0731 3.37501 68.625 8.92689 68.625 15.75C68.625 22.5731 63.0731 28.125 56.25 28.125C49.4269 28.125 43.875 22.5731 43.875 15.75C43.875 8.92689 49.4269 3.37501 56.25 3.37501ZM50.625 29.2466V30.375H41.625V23.625H43.9459C45.5445 26.1135 47.8676 28.0935 50.625 29.2466ZM48.375 32.625H52.875V29.9666C53.6063 30.1399 54.3566 30.2591 55.125 30.3188V38.25H48.375V32.625ZM42.7534 21.375H39.375V32.625H46.125V40.5H57.375V30.3176C58.1434 30.2591 58.8937 30.1399 59.625 29.9655V43.875H43.875C40.725 43.875 37.5986 44.7221 34.875 46.2893V12.9656C37.1903 11.3546 39.9263 10.3793 42.7365 10.1723C42.0233 11.8924 41.625 13.7745 41.625 15.75C41.625 17.7424 42.0289 19.6425 42.7534 21.375ZM12.375 3.81039L14.625 4.56076L16.875 3.81039V7.87501H12.375V3.81039ZM7.875 10.125H23.625C26.8279 10.125 29.997 11.1375 32.625 12.9656V46.2904C29.9014 44.7221 26.775 43.875 23.625 43.875H7.875V10.125ZM30.375 51.75V50.625H3.375V12.375H5.625V43.875C5.625 45.1159 6.63412 46.125 7.875 46.125H23.625C27.0101 46.125 30.366 47.2433 33.075 49.275L33.75 49.7813L34.425 49.275C37.134 47.2433 40.491 46.125 43.875 46.125H59.625C60.8659 46.125 61.875 45.1159 61.875 43.875V29.2466C62.6636 28.917 63.4129 28.5109 64.125 28.0541V50.625H37.125V51.75C37.125 53.6108 35.6107 55.125 33.75 55.125C31.8892 55.125 30.375 53.6108 30.375 51.75ZM3.375 65.25V60.75C3.375 58.8893 4.88925 57.375 6.75 57.375H10.125V68.625H6.75C4.88925 68.625 3.375 67.1108 3.375 65.25ZM68.2402 63.6221L66.375 64.5548V61.4464L68.2391 62.379C68.4776 62.4971 68.625 62.7356 68.625 63C68.625 63.2644 68.4776 63.5029 68.2402 63.6221Z" fill="black"/>
<path d="M10.125 23.625H28.125V25.875H10.125V23.625Z" fill="black"/>
<path d="M28.125 39.375V30.375H16.875V28.125H10.125V34.875H12.375V39.375H28.125ZM25.875 32.625V37.125H14.625V34.875H16.875V32.625H25.875ZM12.375 30.375H14.625V32.625H12.375V30.375Z" fill="black"/>
<path d="M39.375 34.875H43.875V37.125H39.375V34.875Z" fill="black"/>
<path d="M39.375 38.25H43.875V40.5H39.375V38.25Z" fill="black"/>
</svg>
