<svg width="72" height="72" viewBox="0 0 72 72" fill="none" xmlns="http://www.w3.org/2000/svg">
<path d="M44.8481 1.125H35.6974C27.7999 1.125 21.375 7.54987 21.375 15.4474C21.375 19.5345 23.1278 23.4371 26.1821 26.1529L32.625 31.8802V30.375L33.6735 30.1129C33.9097 30.0544 34.1381 29.9768 34.3642 29.8935L37.6853 25.3102L37.3331 24.9581C36.4793 24.1042 36 22.9466 36 21.7406C36 20.2961 37.1711 19.125 38.6156 19.125H39.375L40.5 13.5L47.25 10.9688L47.4176 10.8821L47.682 12.0724C49.4842 11.0565 50.625 9.15525 50.625 7.05487V6.90188C50.625 3.717 48.0341 1.125 44.8481 1.125Z" fill="#F9BA48"/>
<path d="M2.25 60.75H18V65.25H2.25V60.75Z" fill="#F9BA48"/>
<path d="M56.25 65.25H69.75V69.75H56.25V65.25Z" fill="#F9BA48"/>
<path d="M56.25 56.25H69.75V60.75H56.25V56.25Z" fill="#F9BA48"/>
<path d="M65.25 7.875C62.1484 7.875 59.625 10.3984 59.625 13.5V36C59.625 36.621 59.1199 37.125 58.5 37.125H45V36C45 34.5352 44.0561 33.2978 42.75 32.832V32.337C47.412 30.7721 50.625 26.3464 50.625 21.393C50.625 20.5504 50.5316 19.7078 50.3494 18.8888L48.1995 9.21038L46.9012 9.882L39.519 12.6664L38.4514 18.0034C36.4658 18.0889 34.875 19.7325 34.875 21.7395C34.875 23.2549 35.4645 24.6803 36.5378 25.7524L36.9304 26.145C36.2464 27.5749 34.9661 28.6301 33.4012 29.0216L31.5 29.4975V32.8331C30.1939 33.2989 29.25 34.5364 29.25 36.0011V37.1261H26.7941C23.0243 37.1261 19.5244 38.9992 17.433 42.1357L15.7129 44.7154L12.0532 30.078C11.4356 27.603 9.22275 25.875 6.67238 25.875C3.6135 25.875 1.125 28.3635 1.125 31.4224C1.125 32.3246 1.24875 33.2212 1.49175 34.0875L6.165 50.715C7.35975 54.6986 10.9575 57.375 15.1166 57.375C17.2316 57.375 19.305 56.6483 20.9801 55.305L23.625 53.0572V70.875H50.625V48.375H60.75C66.3323 48.375 70.875 43.8334 70.875 38.25V13.5C70.875 10.3984 68.3516 7.875 65.25 7.875ZM65.25 10.125C67.1107 10.125 68.625 11.6393 68.625 13.5V16.875H61.875V13.5C61.875 11.6393 63.3893 10.125 65.25 10.125ZM33.9469 31.203C36.4826 30.5696 38.4908 28.71 39.3176 26.2305L39.537 25.5712L38.1285 24.1616C37.4816 23.5147 37.125 22.6552 37.125 21.7395C37.125 20.9182 37.7933 20.25 38.6156 20.25H40.2975L41.481 14.3336L46.6065 12.4121L48.1545 19.3781C48.3008 20.0374 48.375 20.7146 48.375 21.3941C48.375 25.5206 45.6041 29.1949 41.6385 30.3266L40.5 30.6506V32.625H33.75V31.2525L33.9469 31.203ZM31.5 36C31.5 35.379 32.0051 34.875 32.625 34.875H41.625C42.2449 34.875 42.75 35.379 42.75 36V37.125H31.5V36ZM3.375 31.4224C3.375 29.6033 4.85325 28.125 6.67238 28.125C8.18888 28.125 9.504 29.1521 9.87075 30.6225L11.2736 36.2329L4.88138 37.8304L3.6585 33.4789C3.4695 32.8095 3.375 32.1187 3.375 31.4224ZM60.75 46.125H50.625V43.875H48.375V68.625H25.875V48.375H23.625V50.1052L19.548 53.5703C18.2959 54.5726 16.722 55.125 15.1166 55.125C11.9588 55.125 9.22725 53.0933 8.32613 50.0872L5.49 39.996L11.8192 38.4142L14.6587 49.7723L16.8413 49.2277L16.4509 47.664L19.305 43.3823C20.9779 40.8735 23.778 39.375 26.7941 39.375H58.5C60.3607 39.375 61.875 37.8608 61.875 36V19.125H68.625V38.25C68.625 42.5914 65.0925 46.125 60.75 46.125Z" fill="black"/>
<path d="M55.125 50.625H70.875V52.875H55.125V50.625Z" fill="black"/>
<path d="M50.625 30.375H52.875V32.625H50.625V30.375Z" fill="black"/>
<path d="M55.125 30.375H57.375V32.625H55.125V30.375Z" fill="black"/>
<path d="M50.625 25.875H57.375V28.125H50.625V25.875Z" fill="black"/>
<path d="M19.125 14.625H16.875V7.875H14.625V14.625H12.375V5.625H10.125V14.625H7.875V10.125H5.625V14.625H3.375V16.875H19.125V14.625Z" fill="black"/>
<path d="M13.9485 30.6L15.2996 32.4C17.0152 31.1107 17.9996 29.1431 17.9996 27C17.9996 23.2774 14.9722 20.25 11.2496 20.25C9.10649 20.25 7.13774 21.2344 5.84961 22.9489L7.64849 24.3C8.50799 23.1559 9.82086 22.5 11.2496 22.5C13.7314 22.5 15.7496 24.5182 15.7496 27C15.7496 28.4287 15.0937 29.7416 13.9485 30.6Z" fill="black"/>
<path d="M65.25 5.625V3.375C59.6678 3.375 55.125 7.91663 55.125 13.5H57.375C57.375 9.15863 60.9075 5.625 65.25 5.625Z" fill="black"/>
</svg>
