<svg width="92" height="92" viewBox="0 0 92 92" fill="none" xmlns="http://www.w3.org/2000/svg">
<path d="M15.8125 33.0625V42.6334H33.0625V33.0625C33.0625 31.4741 31.7759 30.1875 30.1875 30.1875H18.6875C17.0991 30.1875 15.8125 31.4741 15.8125 33.0625Z" fill="#F9BA48"/>
<path d="M40.1293 7.77544L40.0703 7.73519C39.0727 4.01925 35.7176 1.4375 31.8564 1.4375C30.5411 1.4375 29.2258 1.748 28.0528 2.33594L27.3125 2.70537C25.6421 1.87594 23.7734 1.4375 21.9104 1.4375C19.2136 1.4375 16.8619 2.87356 15.5293 5.00825C8.89956 7.02362 4.3125 13.1531 4.3125 20.1379C4.3125 21.1758 4.416 22.218 4.62012 23.2415L5.48262 27.5482L6.003 28.7902C6.58375 27.0983 8.17219 25.875 10.0625 25.875H11.5V23C11.5 19.8246 14.0746 17.25 17.25 17.25H19.2179H19.2409C20.0848 18.9477 21.8184 20.125 23.8424 20.125C25.1433 20.125 26.3925 19.6075 27.3125 18.6875L28.3892 20.3032C29.5133 21.988 31.4036 23 33.4291 23C34.7472 23 36.0223 22.5688 37.0645 21.7868C37.2614 22.5673 37.375 23.3723 37.375 24.1902V25.875H38.8125C39.767 25.875 40.641 26.1956 41.3554 26.7202L41.9391 26.6369L44.1816 18.791C44.4331 17.8983 44.5625 16.9798 44.5625 16.0569C44.5625 12.7219 42.9065 9.6255 40.1293 7.77544V7.77544Z" fill="#F9BA48"/>
<path d="M71.9795 55.2532C71.0178 55.6183 70.0145 55.8497 68.9996 55.9662V53.0897C70.2488 52.9316 71.4764 52.578 72.6077 52.0317L71.3556 49.4428C68.9996 50.5827 66.1102 50.5784 63.7599 49.4385L62.505 52.0245C63.6391 52.5751 64.8711 52.9316 66.126 53.0897V55.9662C65.1111 55.8497 64.1078 55.6183 63.1461 55.2532L62.124 57.9398C63.8663 58.6025 65.6962 58.9375 67.5621 58.9375C69.428 58.9375 71.2579 58.6025 73.0016 57.9398L71.9795 55.2532Z" fill="black"/>
<path d="M20.125 24.4375C19.3315 24.4375 18.6875 25.0815 18.6875 25.875C18.6875 26.6685 19.3315 27.3125 20.125 27.3125C20.9185 27.3125 21.5625 26.6685 21.5625 25.875C21.5625 25.0815 20.9185 24.4375 20.125 24.4375Z" fill="black"/>
<path d="M28.75 24.4375C27.9565 24.4375 27.3125 25.0815 27.3125 25.875C27.3125 26.6685 27.9565 27.3125 28.75 27.3125C29.5435 27.3125 30.1875 26.6685 30.1875 25.875C30.1875 25.0815 29.5435 24.4375 28.75 24.4375Z" fill="black"/>
<path d="M58.9375 39.8116C61.2274 41.8657 64.2447 43.125 67.5625 43.125C70.8803 43.125 73.8976 41.8657 76.1875 39.8116V33.0625C76.1875 31.4741 74.9009 30.1875 73.3125 30.1875H61.8125C60.2241 30.1875 58.9375 31.4741 58.9375 33.0625V39.8116Z" fill="#F9BA48"/>
<path d="M63.25 24.4375C62.4565 24.4375 61.8125 25.0815 61.8125 25.875C61.8125 26.6685 62.4565 27.3125 63.25 27.3125C64.0435 27.3125 64.6875 26.6685 64.6875 25.875C64.6875 25.0815 64.0435 24.4375 63.25 24.4375Z" fill="black"/>
<path d="M71.875 24.4375C71.0815 24.4375 70.4375 25.0815 70.4375 25.875C70.4375 26.6685 71.0815 27.3125 71.875 27.3125C72.6685 27.3125 73.3125 26.6685 73.3125 25.875C73.3125 25.0815 72.6685 24.4375 71.875 24.4375Z" fill="black"/>
<path d="M82.9955 54.1248L80.8867 56.0783C85.2725 60.8163 87.6875 66.9789 87.6875 73.4318V76.1875H81.9375V71.1562H79.0625V87.6875H56.0625V71.1562H53.1875V76.1875H47.4375V73.4318C47.4375 66.9789 49.8525 60.8163 54.2369 56.0798L52.1281 54.1262C49.3163 57.1636 47.2607 60.7373 45.9986 64.5854C43.6253 57.3778 38.4301 51.2656 31.4137 47.8659L30.5469 44.4001C34.7717 43.6324 38.0794 40.2155 38.6946 35.9389H38.8125C41.9836 35.9389 44.5625 33.3601 44.5625 30.1889C44.5625 27.0178 41.9836 24.4389 38.8125 24.4389V24.1917C38.8125 21.229 37.6108 18.3296 35.5163 16.2351L33.4837 18.2678C34.3002 19.0843 34.9284 20.0661 35.3467 21.1312C34.7458 21.4044 34.0917 21.5625 33.4291 21.5625C31.8809 21.5625 30.4448 20.7934 29.5852 19.5054L27.5353 16.4306L26.2962 17.6697C25.6407 18.3267 24.7681 18.6875 23.8424 18.6875C21.7925 18.6875 20.125 17.02 20.125 14.9701V14.375H17.25V14.9701C17.25 15.2591 17.2989 15.5336 17.3348 15.8125H17.25C13.2868 15.8125 10.0625 19.0368 10.0625 23V24.4375C6.89137 24.4375 4.3125 27.0164 4.3125 30.1875C4.3125 33.3586 6.89137 35.9375 10.0625 35.9375H10.1775C10.7942 40.2141 14.1019 43.631 18.3253 44.3986L17.4584 47.8644C7.70213 52.5924 1.4375 62.5528 1.4375 73.4318V90.5625H90.5625V73.4318C90.5625 66.2529 87.8758 59.3961 82.9955 54.1248V54.1248ZM38.8125 27.3125C40.3981 27.3125 41.6875 28.6019 41.6875 30.1875C41.6875 31.7731 40.3981 33.0625 38.8125 33.0625V27.3125ZM10.0625 33.0625C8.47694 33.0625 7.1875 31.7731 7.1875 30.1875C7.1875 28.6019 8.47694 27.3125 10.0625 27.3125V33.0625ZM32.3984 51.6939L30.9163 55.3984L27.0092 53.0538L30.3399 50.5569C31.0471 50.9062 31.7343 51.2842 32.3984 51.6939V51.6939ZM24.4375 51.3906L20.3133 48.2971L21.2462 44.5625H27.6273L28.5603 48.2986L24.4375 51.3906ZM12.9375 34.5V29.3451L15.9189 32.3265C16.1819 31.3332 16.9582 30.5569 17.9515 30.2939L12.9375 25.2799V23C12.9375 20.6224 14.8724 18.6875 17.25 18.6875H18.4057C19.5946 20.4211 21.5869 21.5625 23.8424 21.5625C24.9507 21.5625 26.0187 21.2793 26.9589 20.7489L27.1932 21.1011C28.5861 23.1897 30.9177 24.4375 33.4291 24.4375C34.2815 24.4375 35.1268 24.2794 35.9274 23.9962C35.9289 24.0609 35.9375 24.1256 35.9375 24.1902V25.2799L30.9235 30.2939C31.9168 30.5569 32.6931 31.3332 32.9561 32.3265L35.9375 29.3451V34.5C35.9375 38.4632 32.7132 41.6875 28.75 41.6875H20.125C16.1618 41.6875 12.9375 38.4632 12.9375 34.5V34.5ZM18.5351 50.5569L21.8658 53.0538L17.9587 55.3984L16.4766 51.6939C17.1407 51.2842 17.8279 50.9062 18.5351 50.5569V50.5569ZM10.0625 87.6875H4.3125V79.0625H10.0625V87.6875ZM44.5625 87.6875H38.8125V79.0625H44.5625V87.6875ZM44.5625 76.1875H38.8125V71.0326C38.8125 70.1054 39.1733 69.2343 39.8288 68.5788L37.7962 66.5462C36.5973 67.7451 35.9375 69.3378 35.9375 71.0326V87.6875H12.9375V71.0326C12.9375 69.3378 12.2777 67.7451 11.0788 66.5462L9.04619 68.5788C9.70169 69.2343 10.0625 70.1069 10.0625 71.0326V76.1875H4.3125V73.4318C4.3125 65.5213 8.00687 58.1641 14.0559 53.3873L16.5413 59.6016L24.4375 54.8636L32.3323 59.6016L34.8177 53.3873C40.8681 58.1641 44.5625 65.5213 44.5625 73.4318V76.1875ZM53.1875 87.6875H47.4375V79.0625H53.1875V87.6875ZM81.9375 87.6875V79.0625H87.6875V87.6875H81.9375Z" fill="black"/>
<path d="M87.6875 21.5625C87.6875 10.465 78.66 1.4375 67.5625 1.4375C56.465 1.4375 47.4375 10.465 47.4375 21.5625V38.893C47.4375 42.4954 48.9124 45.8217 51.4194 48.2181L51.3403 48.3359C50.6676 49.3451 50.3125 50.5195 50.3125 51.7299C50.3125 53.0524 50.7409 54.2901 51.4798 55.3121L51.3389 55.5234C50.6676 56.5326 50.3125 57.707 50.3125 58.9174C50.3125 61.2504 51.6077 63.3492 53.6964 64.3928L56.0323 65.5601L55.1339 66.4585C53.8962 67.6962 53.1875 69.4068 53.1875 71.1562C53.1875 72.9057 53.8962 74.6163 55.1339 75.854L57.5 78.2201L59.8661 75.854C61.1038 74.6163 61.8125 72.9057 61.8125 71.1562C61.8125 69.4068 61.1038 67.6962 59.8661 66.4585L58.9677 65.5601L61.3036 64.3928C63.3923 63.3492 64.6875 61.2504 64.6875 58.9174C64.6875 57.7056 64.3324 56.5326 63.6597 55.5234L63.5188 55.3121C64.2591 54.2915 64.6875 53.0524 64.6875 51.7299C64.6875 50.5181 64.3324 49.3451 63.6597 48.3359L63.1106 47.5137C64.0018 46.115 64.5308 44.4921 64.6458 42.7829C58.9088 41.4589 54.625 36.3285 54.625 30.1875V22.6636C54.625 21.2132 55.7046 19.9913 57.1435 19.8102L58.0563 19.6966C62.7153 19.1144 67.0824 17.1637 70.6143 14.1105L70.5568 13.9653C72.105 16.4939 74.5401 18.423 77.4856 19.2639L78.4156 19.5299C79.649 19.8821 80.5 21.0105 80.5 22.2942V30.1875C80.5 36.3285 76.2162 41.4589 70.4777 42.7829C70.5927 44.4921 71.1218 46.115 72.013 47.5137L71.4639 48.3359C70.7926 49.3451 70.4375 50.5195 70.4375 51.7299C70.4375 53.0524 70.8659 54.2901 71.6048 55.3121L71.4639 55.5234C70.7926 56.5326 70.4375 57.707 70.4375 58.9174C70.4375 61.2504 71.7327 63.3492 73.8214 64.3928L76.1573 65.5601L75.2589 66.4585C74.0212 67.6962 73.3125 69.4068 73.3125 71.1562C73.3125 72.9057 74.0212 74.6163 75.2589 75.854L77.625 78.2201L79.9911 75.854C81.2288 74.6163 81.9375 72.9057 81.9375 71.1562C81.9375 69.4068 81.2288 67.6962 79.9911 66.4585L79.0927 65.5601L81.4286 64.3928C83.5173 63.3492 84.8125 61.2504 84.8125 58.9174C84.8125 57.7056 84.4574 56.5326 83.7847 55.5234L83.6438 55.3121C84.3841 54.2915 84.8125 53.0524 84.8125 51.7299C84.8125 50.5181 84.4574 49.3451 83.7847 48.3359L83.7056 48.2181C86.2126 45.8217 87.6875 42.4954 87.6875 38.893V21.5625Z" fill="#F9BA48"/>
<path d="M78.8109 18.1484L77.8794 17.8796C74.0528 16.7871 71.1922 13.6835 70.4102 9.7793L67.5913 10.3442C67.8328 11.5532 68.2309 12.7017 68.7657 13.7669C65.6075 16.2207 61.8657 17.7704 57.8766 18.2692L56.9652 18.3842C54.8119 18.653 53.1875 20.493 53.1875 22.6636V30.1875C53.1875 38.1139 59.6361 44.5625 67.5625 44.5625C75.4889 44.5625 81.9375 38.1139 81.9375 30.1875V22.2942C81.9375 20.3794 80.6509 18.6731 78.8109 18.1484ZM67.5625 41.6875C61.2217 41.6875 56.0625 36.5283 56.0625 30.1875L59.0194 32.4055C59.2566 31.395 60.0271 30.5986 61.019 30.3125L56.0625 26.5937V22.6622C56.0625 21.9391 56.6044 21.3253 57.3232 21.2362L58.2346 21.1212C62.6549 20.5692 66.8064 18.8744 70.3297 16.1905C72.036 18.2936 74.3719 19.8691 77.0888 20.6439L78.0203 20.9127C78.6341 21.0867 79.0625 21.6545 79.0625 22.2942V26.5937L74.106 30.3111C75.0979 30.5972 75.8684 31.3921 76.1056 32.4041L79.0625 30.1875C79.0625 36.5283 73.9033 41.6875 67.5625 41.6875V41.6875Z" fill="black"/>
</svg>
