<svg width="92" height="92" viewBox="0 0 92 92" fill="none" xmlns="http://www.w3.org/2000/svg">
<path d="M17.25 15.8125C14.8724 15.8125 12.9375 13.8776 12.9375 11.5C12.9375 9.12237 14.8724 7.1875 17.25 7.1875C19.6276 7.1875 21.5625 9.12237 21.5625 11.5C21.5625 13.8776 19.6276 15.8125 17.25 15.8125Z" fill="#F9BA48"/>
<path d="M28.75 24.4375C28.75 23.644 29.394 23 30.1875 23H44.5625V21.5625C44.5625 15.2217 39.4033 10.0625 33.0625 10.0625C27.7366 10.0625 23.1969 13.6807 21.9247 18.699C18.6501 18.5049 15.8125 21.1456 15.8125 24.4375C15.8125 27.6086 18.3914 30.1875 21.5625 30.1875H28.75V24.4375Z" fill="#F9BA48"/>
<path d="M59.7324 39.7584L41.3842 30.5842C40.8638 30.3255 40.2816 30.1875 39.7009 30.1875C37.6251 30.1875 35.9375 31.8766 35.9375 33.9509V52.2991C35.9375 53.1817 36.2552 53.9824 36.7655 54.625H43.4643L59.7324 46.4916C61.0147 45.8491 61.8125 44.5596 61.8125 43.125C61.8125 41.6904 61.0147 40.4009 59.7324 39.7584V39.7584Z" fill="#F9BA48"/>
<path d="M67.2994 65.2582C66.2357 63.1336 64.0996 61.8125 61.7219 61.8125C59.4895 61.8125 57.4152 63.0171 56.3083 64.9549L54.5603 68.0139L54.3979 67.7422C53.2666 65.8576 51.1994 64.6875 49.0001 64.6875C46.6009 64.6875 44.4446 66.0215 43.3708 68.1662L36.4866 81.9375H33.0625V79.7812L35.1124 78.2431C37.4296 76.5066 38.8125 73.7394 38.8125 70.8443C38.8125 69.4154 38.4747 67.9851 37.8364 66.7072L34.9916 61.0176C34.3505 59.7353 33.0596 58.9375 31.625 58.9375C30.1904 58.9375 28.8995 59.7353 28.2584 61.0176L25.875 65.7857L23.4916 61.019C22.8505 59.7353 21.5596 58.9375 20.125 58.9375C18.6904 58.9375 17.3995 59.7353 16.7584 61.0176L13.9136 66.7072C13.2753 67.9851 12.9375 69.4154 12.9375 70.8443C12.9375 73.7394 14.3204 76.5052 16.6376 78.2417L18.6875 79.7812V81.9375H12.9375V84.8125H79.0625V81.9375H75.6384L67.2994 65.2582ZM58.8038 66.3809C59.4004 65.3358 60.5188 64.6875 61.7219 64.6875C63.0028 64.6875 64.1542 65.3991 64.7277 66.5447L72.4241 81.9375H49.9143L58.8038 66.3809ZM45.9439 69.4514C46.5261 68.287 47.6977 67.5625 49.0001 67.5625C50.1946 67.5625 51.3173 68.1979 51.9311 69.2214L52.923 70.8759L46.6037 81.9375H39.7009L45.9439 69.4514ZM27.9853 67.9937L30.8301 62.3041C30.9824 62.0008 31.2857 61.8125 31.625 61.8125C31.9643 61.8125 32.2676 62.0008 32.4199 62.3041L35.2647 67.9937C35.7046 68.8735 35.9375 69.8611 35.9375 70.8443C35.9375 72.8396 34.9844 74.7457 33.3874 75.9431L33.0625 76.1875V71.875H30.1875V76.1875L29.8626 75.9431C28.2656 74.7457 27.3125 72.8396 27.3125 70.8443C27.3125 69.8611 27.5454 68.8735 27.9853 67.9937ZM18.3626 75.9431C16.7656 74.7457 15.8125 72.8396 15.8125 70.8443C15.8125 69.8596 16.0454 68.8735 16.4853 67.9937L19.3301 62.3041C19.4824 62.0008 19.7857 61.8125 20.125 61.8125C20.4643 61.8125 20.7676 62.0008 20.9199 62.3041L23.7647 67.9937C24.2046 68.8735 24.4375 69.8611 24.4375 70.8443C24.4375 72.8396 23.4844 74.7457 21.8874 75.9431L21.5625 76.1875V71.875H18.6875V76.1875L18.3626 75.9431ZM21.5625 79.7812L23.6124 78.2431C24.5209 77.5618 25.2799 76.7179 25.875 75.7735C26.4701 76.7179 27.2277 77.5618 28.1376 78.2431L30.1875 79.7812V81.9375H21.5625V79.7812Z" fill="black"/>
<path d="M81.9375 38.8125H73.3125V53.1875H70.4375V24.4375C70.4375 22.8519 69.1481 21.5625 67.5625 21.5625H50.3125V4.3125C50.3125 2.72694 49.0231 1.4375 47.4375 1.4375H10.0625C8.47694 1.4375 7.1875 2.72694 7.1875 4.3125V33.0625C7.1875 34.6481 8.47694 35.9375 10.0625 35.9375H27.3125V53.1875H18.6875V38.8125H10.0625C5.30581 38.8125 1.4375 42.6808 1.4375 47.4375V81.9375C1.4375 86.6942 5.30581 90.5625 10.0625 90.5625H81.9375C86.6942 90.5625 90.5625 86.6942 90.5625 81.9375V47.4375C90.5625 42.6808 86.6942 38.8125 81.9375 38.8125ZM76.1875 41.6875H81.9375C85.1086 41.6875 87.6875 44.2664 87.6875 47.4375C87.6875 50.6086 85.1086 53.1875 81.9375 53.1875H76.1875V41.6875ZM10.0625 33.0625V4.3125H47.4375V21.5625H30.1875C28.6019 21.5625 27.3125 22.8519 27.3125 24.4375V33.0625H10.0625ZM30.1875 24.4375H67.5625V53.1875H30.1875V24.4375ZM10.0625 41.6875H15.8125V53.1875H10.0625C6.89137 53.1875 4.3125 50.6086 4.3125 47.4375C4.3125 44.2664 6.89137 41.6875 10.0625 41.6875ZM81.9375 87.6875H10.0625C6.89137 87.6875 4.3125 85.1086 4.3125 81.9375V53.8487C5.84056 55.2201 7.85163 56.0625 10.0625 56.0625H81.9375C84.1484 56.0625 86.1594 55.2201 87.6875 53.8487V81.9375C87.6875 85.1086 85.1086 87.6875 81.9375 87.6875Z" fill="black"/>
</svg>
