<svg width="72" height="72" viewBox="0 0 72 72" fill="none" xmlns="http://www.w3.org/2000/svg">
<path d="M11.6133 5.80646H16.2584V27.871H11.6133V5.80646Z" fill="#F9BA48"/>
<path d="M20.9043 15.0968H25.5495V27.871H20.9043V15.0968Z" fill="#F9BA48"/>
<path d="M30.1934 9.29031H34.8385V27.871H30.1934V9.29031Z" fill="#F9BA48"/>
<path d="M39.4844 18.5807H44.1295V27.871H39.4844V18.5807Z" fill="#F9BA48"/>
<path d="M31.3555 33.6774H49.9361V42.9678H31.3555V33.6774Z" fill="#F9BA48"/>
<path d="M5.80664 33.6774H29.0324V61.5484H5.80664V33.6774Z" fill="#F9BA48"/>
<path d="M67.3548 11.6129H55.7419V0H0V62.7097C0 67.8323 4.16772 72 9.29032 72H62.7097C67.8323 72 72 67.8323 72 62.7097V16.2581C72 13.6962 69.9167 11.6129 67.3548 11.6129ZM63.3555 13.9355C62.9558 14.6216 62.7097 15.4081 62.7097 16.2581V49.9355H55.7419V13.9355H63.3555ZM9.29032 69.6774C5.44752 69.6774 2.32258 66.5525 2.32258 62.7097V2.32258H53.4194V62.7097C53.4194 65.4819 54.6396 67.974 56.5709 69.6774H9.29032ZM69.6774 62.7097C69.6774 66.5525 66.5525 69.6774 62.7097 69.6774C58.8669 69.6774 55.7419 66.5525 55.7419 62.7097V52.2581H65.0323V16.2581C65.0323 14.9771 66.0739 13.9355 67.3548 13.9355C68.6358 13.9355 69.6774 14.9771 69.6774 16.2581V62.7097Z" fill="black"/>
<path d="M12.7732 6.96775H15.0958V27.871H22.0636V16.2581H24.3862V27.871H31.3539V10.4516H33.6765V27.871H40.6442V19.7419H42.9668V27.871H48.7732V25.5484H45.2894V17.4194H38.3216V25.5484H35.9991V8.12904H29.0313V25.5484H26.7087V13.9355H19.741V25.5484H17.4184V4.64517H10.4507V25.5484H6.9668V27.871H12.7732V6.96775Z" fill="black"/>
<path d="M5.80664 37.1613H16.2583V39.4839H5.80664V37.1613Z" fill="black"/>
<path d="M18.5801 37.1613H29.0317V39.4839H18.5801V37.1613Z" fill="black"/>
<path d="M5.80664 55.7419H16.2583V58.0645H5.80664V55.7419Z" fill="black"/>
<path d="M18.5801 55.7419H29.0317V58.0645H18.5801V55.7419Z" fill="black"/>
<path d="M5.80664 41.8065H16.2583V44.129H5.80664V41.8065Z" fill="black"/>
<path d="M18.5801 41.8065H29.0317V44.129H18.5801V41.8065Z" fill="black"/>
<path d="M5.80664 32.5161H29.0324V34.8387H5.80664V32.5161Z" fill="black"/>
<path d="M5.80664 46.4516H29.0324V48.7742H5.80664V46.4516Z" fill="black"/>
<path d="M31.3555 37.1613H39.4845V39.4839H31.3555V37.1613Z" fill="black"/>
<path d="M41.8066 37.1613H49.9357V39.4839H41.8066V37.1613Z" fill="black"/>
<path d="M31.3555 32.5161H49.9361V34.8387H31.3555V32.5161Z" fill="black"/>
<path d="M31.3555 41.8065H49.9361V44.129H31.3555V41.8065Z" fill="black"/>
<path d="M5.80664 51.0968H29.0324V53.4194H5.80664V51.0968Z" fill="black"/>
<path d="M5.80664 60.3871H29.0324V62.7097H5.80664V60.3871Z" fill="black"/>
<path d="M42.3863 49.9355H41.8056V47.6129H39.4831V49.9355H38.9024C36.6609 49.9355 34.8379 51.7585 34.8379 54C34.8379 56.2415 36.6609 58.0645 38.9024 58.0645H42.3863C43.3468 58.0645 44.1282 58.8459 44.1282 59.8065C44.1282 60.767 43.3468 61.5484 42.3863 61.5484H38.9024C37.9418 61.5484 37.1605 60.767 37.1605 59.8065V59.2258H34.8379V59.8065C34.8379 62.048 36.6609 63.871 38.9024 63.871H39.4831V66.1936H41.8056V63.871H42.3863C44.6278 63.871 46.4508 62.048 46.4508 59.8065C46.4508 57.565 44.6278 55.7419 42.3863 55.7419H38.9024C37.9418 55.7419 37.1605 54.9606 37.1605 54C37.1605 53.0395 37.9418 52.2581 38.9024 52.2581H42.3863C43.3468 52.2581 44.1282 53.0395 44.1282 54V54.5807H46.4508V54C46.4508 51.7585 44.6278 49.9355 42.3863 49.9355Z" fill="black"/>
</svg>
