<svg width="72" height="72" viewBox="0 0 72 72" fill="none" xmlns="http://www.w3.org/2000/svg">
<path d="M31.2165 58.5H30.375C30.6675 58.5 30.9476 58.5427 31.2277 58.5855L31.2165 58.5Z" fill="#F9BA48"/>
<path d="M30.375 58.5L27.9056 42.0334C25.7299 40.3144 23.0614 39.375 20.25 39.375C13.4269 39.375 7.875 44.9269 7.875 51.75C7.875 58.5731 13.4269 64.125 20.25 64.125C21.8464 64.125 23.3831 63.8111 24.8411 63.2261C25.2731 60.5497 27.576 58.5 30.375 58.5Z" fill="#F9BA48"/>
<path d="M51.75 34.875C51.5385 34.875 51.3247 34.8255 51.1324 34.731C44.5725 31.4494 40.5 24.8614 40.5 17.532V10.0935L41.5024 9.98324C44.8954 9.61199 48.24 8.49149 51.174 6.74324L51.75 6.40012L52.326 6.74324C55.26 8.49149 58.6058 9.61199 61.9976 9.98324L63 10.0935V17.532C63 24.8614 58.9275 31.4494 52.3721 34.7276C52.1888 34.8221 51.9694 34.875 51.75 34.875ZM51.3709 32.7127C51.3652 32.715 51.3596 32.7184 51.3529 32.7217C51.3596 32.7184 51.3652 32.715 51.3709 32.7127Z" fill="#F9BA48"/>
<path d="M63.7369 30.375C66.15 26.6276 67.5 22.2041 67.5 17.532V5.625H64.5784C60.1886 5.625 55.8821 4.11412 52.452 1.37137L51.75 0.809998L51.0469 1.37137C47.6179 4.11412 43.3114 5.625 38.9216 5.625H36V17.532C36 22.2041 37.35 26.6276 39.7631 30.375H27.2936L25.0245 15.2494C24.7781 13.6114 23.3438 12.375 21.6877 12.375H12.375C10.5142 12.375 9 13.8892 9 15.75C9 17.6107 10.5142 19.125 12.375 19.125H23.3314L25.8379 35.8369C25.3057 35.6501 24.7669 35.4803 24.219 35.3486L23.3111 32.625H17.19L16.2821 35.3475C14.5777 35.7581 12.9622 36.4286 11.4615 37.3466L8.892 36.0619L4.563 40.3909L5.84888 42.9593C4.92975 44.46 4.25925 46.0766 3.84975 47.781L1.125 48.6889V54.81L3.8475 55.7179C4.257 57.4223 4.9275 59.0389 5.84662 60.5396L4.56075 63.108L8.88975 67.437L11.4592 66.1523C12.96 67.0703 14.5766 67.7408 16.2799 68.1514L17.1889 70.875H23.31L24.2179 68.1514C24.4271 68.1008 24.6285 68.0299 24.8355 67.9725C26.0561 69.7241 28.0823 70.875 30.375 70.875C34.0976 70.875 37.125 67.8476 37.125 64.125C37.125 62.3948 36.4657 60.8209 35.3925 59.625H56.8575C55.7843 60.8209 55.125 62.3948 55.125 64.125C55.125 67.8476 58.1524 70.875 61.875 70.875C65.5976 70.875 68.625 67.8476 68.625 64.125C68.625 60.4024 65.5976 57.375 61.875 57.375H31.3436L30.6686 52.875H63.5265C66.3581 52.875 68.7578 50.7566 69.1076 47.9475L70.8649 33.8895L70.875 30.375H63.7369ZM12.375 16.875C11.7551 16.875 11.25 16.371 11.25 15.75C11.25 15.129 11.7551 14.625 12.375 14.625H21.6877C22.2401 14.625 22.7183 15.0367 22.8004 15.5835L22.9939 16.875H12.375ZM68.625 33.6803L68.1941 37.125H63V32.625H68.625V33.6803ZM28.6436 39.375H33.75V43.875H29.3186L28.6436 39.375ZM36 39.375H40.5V43.875H36V39.375ZM60.75 37.125H57.1545C58.464 36.2351 59.6632 35.2249 60.75 34.1168V37.125ZM49.5 39.375H54V43.875H49.5V39.375ZM47.25 43.875H42.75V39.375H47.25V43.875ZM42.75 37.125V34.1168C43.8379 35.2249 45.0371 36.2362 46.3455 37.125H42.75ZM40.5 37.125H36V32.625H40.5V37.125ZM40.5 46.125V50.625H36V46.125H40.5ZM42.75 46.125H47.25V50.625H42.75V46.125ZM49.5 46.125H54V50.625H49.5V46.125ZM56.25 46.125H60.75V50.625H56.25V46.125ZM56.25 43.875V39.375H60.75V43.875H56.25ZM63 39.375H67.9129L67.3504 43.875H63V39.375ZM38.25 7.875H38.9216C43.5251 7.875 48.0465 6.38662 51.75 3.6675C55.4535 6.38662 59.9749 7.875 64.5784 7.875H65.25V17.532C65.25 25.7186 60.7016 33.0784 53.379 36.7403C52.371 37.2431 51.129 37.2431 50.1221 36.7403C42.7984 33.0784 38.25 25.7186 38.25 17.532V7.875ZM33.75 32.625V37.125H28.3061L27.6311 32.625H33.75ZM23.1311 66.0881L22.4921 66.2164L21.6889 68.625H18.81L18.0068 66.2153L17.3666 66.0881C15.4991 65.7146 13.7452 64.9867 12.1511 63.9248L11.6089 63.5625L9.33525 64.6999L7.30012 62.6648L8.4375 60.3923L8.07525 59.8489C7.01325 58.2559 6.28538 56.4998 5.913 54.6334L5.78588 53.9921L3.375 53.1889V50.31L5.78475 49.5079L5.91188 48.8666C6.28538 47.0003 7.01325 45.2441 8.07413 43.6511L8.4375 43.1077L7.30012 40.8341L9.33525 38.799L11.6089 39.9364L12.1523 39.5741C13.7464 38.5121 15.5002 37.7843 17.3678 37.4108L18.0079 37.2836L18.8111 34.875H21.69L22.4932 37.2836L23.1334 37.4119C24.201 37.6256 25.2326 37.9845 26.2282 38.4311L29.0891 57.5021C25.9796 58.104 23.625 60.8434 23.625 64.125C23.625 64.737 23.7139 65.3265 23.8669 65.8901C23.6205 65.9531 23.3809 66.0386 23.1311 66.0881ZM34.875 64.125C34.875 66.6068 32.8568 68.625 30.375 68.625C27.8932 68.625 25.875 66.6068 25.875 64.125C25.875 61.6433 27.8932 59.625 30.375 59.625C32.8568 59.625 34.875 61.6433 34.875 64.125ZM66.375 64.125C66.375 66.6068 64.3568 68.625 61.875 68.625C59.3932 68.625 57.375 66.6068 57.375 64.125C57.375 61.6433 59.3932 59.625 61.875 59.625C64.3568 59.625 66.375 61.6433 66.375 64.125ZM29.6561 46.125H33.75V50.625H30.3311L29.6561 46.125ZM63.5276 50.625H63V46.125H67.0691L66.8756 47.6685C66.6664 49.3538 65.2264 50.625 63.5276 50.625Z" fill="black"/>
<path d="M59.2958 17.6704L57.7051 16.0797L49.5005 24.2843L46.9208 21.7047L45.3301 23.2954L49.5005 27.4658L59.2958 17.6704Z" fill="black"/>
</svg>
