<svg width="92" height="92" viewBox="0 0 92 92" fill="none" xmlns="http://www.w3.org/2000/svg">
<path d="M38.8125 89.125H30.1875V73.3125H38.8125V89.125Z" fill="#F9BA48"/>
<path d="M27.3125 89.125H18.6875V73.3125H27.3125V89.125Z" fill="#F9BA48"/>
<path d="M15.8125 89.125H7.1875V73.3125H15.8125V89.125Z" fill="#F9BA48"/>
<path d="M58.9375 63.25H50.3125V56.0625H58.9375V63.25Z" fill="#F9BA48"/>
<path d="M70.4375 63.25H61.8125V56.0625H70.4375V63.25Z" fill="#F9BA48"/>
<path d="M81.9375 63.25H73.3125V56.0625H81.9375V63.25Z" fill="#F9BA48"/>
<path d="M87.6875 44.5625H84.8125V21.5625H70.4375V44.5625H61.8125V38.8125H53.1875V27.3125H32.8943L31.4568 15.8125H17.4182L15.9807 27.3125H12.9375V61.8125H4.3125V67.5625H1.4375V90.5625H90.5625V61.8125H87.6875V44.5625ZM84.8125 47.4375V50.3125H47.4375V47.4375H84.8125ZM61.8125 82.6764L57.7573 76.1875L61.8125 69.6986V82.6764ZM56.0625 73.4764L50.5698 64.6875H61.5552L56.0625 73.4764ZM50.3125 69.6986L54.3677 76.1875L50.3125 82.6764V69.6986ZM56.0625 78.8986L61.5552 87.6875H50.5698L56.0625 78.8986ZM64.6875 64.6875H67.5625V87.6875H64.6875V64.6875ZM81.9375 82.6764L77.8823 76.1875L81.9375 69.6986V82.6764ZM76.1875 73.4764L70.6948 64.6875H81.6802L76.1875 73.4764ZM70.4375 69.6986L74.4927 76.1875L70.4375 82.6764V69.6986ZM76.1875 78.8986L81.6802 87.6875H70.6948L76.1875 78.8986ZM47.4375 61.8125V53.1875H84.8125V61.8125H47.4375ZM81.9375 24.4375V27.3125H73.3125V24.4375H81.9375ZM73.3125 30.1875H81.9375V44.5625H73.3125V30.1875ZM58.9375 44.5625H50.3125V41.6875H58.9375V44.5625ZM21.5625 61.8125V58.9375H27.3125V61.8125H21.5625ZM27.3125 56.0625H21.5625V53.1875H27.3125V56.0625ZM27.3125 50.3125H21.5625V47.4375H27.3125V50.3125ZM27.3125 44.5625H21.5625V41.6875H27.3125V44.5625ZM27.3125 38.8125H21.5625V35.9375H27.3125V38.8125ZM27.3125 33.0625H21.5625V30.1875H27.3125V33.0625ZM19.9568 18.6875H28.9182L29.9963 27.3125H18.8772L19.9568 18.6875ZM15.8125 30.1875H18.6875V61.8125H15.8125V30.1875ZM35.9375 64.6875V67.5625H7.1875V64.6875H35.9375ZM41.6875 87.6875H4.3125V70.4375H5.75H7.1875H35.9375H37.375H41.6875V87.6875ZM41.6875 67.5625H38.8125V61.8125H30.1875V30.1875H50.3125V38.8125H47.4375V44.5625H44.5625V61.8125H41.6875V67.5625ZM44.5625 64.6875H47.4375V87.6875H44.5625V64.6875ZM87.6875 87.6875H84.8125V64.6875H87.6875V87.6875Z" fill="black"/>
<path d="M28.75 11.5C28.75 10.7079 29.394 10.0625 30.1875 10.0625H43.125C45.5026 10.0625 47.4375 8.12763 47.4375 5.75C47.4375 3.37237 45.5026 1.4375 43.125 1.4375H31.625V4.3125H43.125C43.9185 4.3125 44.5625 4.95794 44.5625 5.75C44.5625 6.54206 43.9185 7.1875 43.125 7.1875H30.1875C27.8099 7.1875 25.875 9.12237 25.875 11.5V12.9375H28.75V11.5Z" fill="black"/>
<path d="M10.0625 10.0625H18.6875C19.481 10.0625 20.125 10.7079 20.125 11.5V12.9375H23V11.5C23 9.12237 21.0651 7.1875 18.6875 7.1875H10.0625C9.269 7.1875 8.625 6.54206 8.625 5.75C8.625 4.95794 9.269 4.3125 10.0625 4.3125H23V1.4375H10.0625C7.68487 1.4375 5.75 3.37237 5.75 5.75C5.75 8.12763 7.68487 10.0625 10.0625 10.0625Z" fill="black"/>
<path d="M80.5 5.75V7.1875H84.8125C86.3981 7.1875 87.6875 8.47694 87.6875 10.0625C87.6875 11.6481 86.3981 12.9375 84.8125 12.9375H83.375C80.9974 12.9375 79.0625 14.8724 79.0625 17.25V18.6875H81.9375V17.25C81.9375 16.4579 82.5815 15.8125 83.375 15.8125H84.8125C87.9836 15.8125 90.5625 13.2336 90.5625 10.0625C90.5625 6.89137 87.9836 4.3125 84.8125 4.3125H83.1292C82.5355 2.63925 80.937 1.4375 79.0625 1.4375H73.3125V4.3125H79.0625C79.856 4.3125 80.5 4.95794 80.5 5.75Z" fill="black"/>
<path d="M63.25 15.8125H71.875C72.6685 15.8125 73.3125 16.4579 73.3125 17.25V18.6875H76.1875V17.25C76.1875 14.8724 74.2526 12.9375 71.875 12.9375H63.25C62.4565 12.9375 61.8125 12.2921 61.8125 11.5C61.8125 10.7079 62.4565 10.0625 63.25 10.0625H74.75V7.1875H63.25C60.8724 7.1875 58.9375 9.12237 58.9375 11.5C58.9375 13.8776 60.8724 15.8125 63.25 15.8125Z" fill="black"/>
</svg>
