<svg width="72" height="72" viewBox="0 0 72 72" fill="none" xmlns="http://www.w3.org/2000/svg">
<path d="M28.125 28.125V33.75H35.4375C36.9911 33.75 38.25 35.0089 38.25 36.5625C38.25 38.1161 36.9911 39.375 35.4375 39.375H28.125V46.125H41.625V28.125H28.125Z" fill="#F9BA48"/>
<path d="M61.1347 13.5922L61.875 23.625L59.625 25.875L57.375 23.625L58.1153 13.5911L61.1347 13.5922Z" fill="#F9BA48"/>
<path d="M63.7832 13.1816C65.3582 11.9441 66.3753 10.0283 66.3753 7.875C66.3753 4.15238 63.3478 1.125 59.6252 1.125C57.1671 1.125 55.0172 2.45025 53.8371 4.42013C53.1362 3.77662 52.2115 3.375 51.1877 3.375C49.0165 3.375 47.2502 5.14125 47.2502 7.3125V18.1181L43.1372 18.5749C44.2971 17.2035 45.0002 15.4328 45.0002 13.5C45.0002 9.1575 41.4677 5.625 37.1252 5.625C32.7827 5.625 29.2502 9.1575 29.2502 13.5C29.2502 15.7928 30.2402 17.8526 31.8085 19.2926C28.4335 19.8281 25.5107 21.7226 23.6252 24.4069C21.8371 26.5871 21.3753 30.6995 21.3752 34.2495C21.3777 35.0467 21.3752 34.875 21.3752 34.875C21.3752 37.9766 23.8986 40.5 27.0002 40.5H35.4377C37.609 40.5 39.3752 38.7337 39.3752 36.5625C39.3752 34.3913 37.609 32.625 35.4377 32.625H25.8752V34.875H35.4377C36.3681 34.875 37.1252 35.6321 37.1252 36.5625C37.1252 37.4929 36.3681 38.25 35.4377 38.25H27.0002C25.1395 38.25 23.6252 36.7358 23.6252 34.875V31.5C23.6252 25.9178 28.168 21.375 33.7502 21.375H38.2502L49.5002 20.1319V7.3125C49.5002 6.38212 50.2573 5.625 51.1877 5.625C52.1181 5.625 52.8752 6.38212 52.8752 7.3125V20.7776C52.8752 22.4764 51.604 23.9164 49.9187 24.1267L43.8752 24.8816V65.8125C43.8752 67.3639 42.613 68.625 41.0627 68.625C39.5125 68.625 38.2502 67.3639 38.2502 65.8125V46.125H36.0002V65.8125C36.0002 67.3639 34.738 68.625 33.1877 68.625C31.6375 68.625 30.3752 67.3639 30.3752 65.8125V46.125H28.1252V65.8125C28.1252 68.6036 30.3966 70.875 33.1877 70.875C34.7863 70.875 36.1971 70.1156 37.1252 68.9557C38.0533 70.1156 39.4641 70.875 41.0627 70.875C43.8538 70.875 46.1252 68.6036 46.1252 65.8125V26.8684L48.3752 26.5871V30.375C48.3752 32.8568 50.3935 34.875 52.8752 34.875V53.4375C52.8752 55.6088 54.6415 57.375 56.8127 57.375C57.9152 57.375 58.9097 56.9171 59.6252 56.1848C60.3407 56.9171 61.3352 57.375 62.4377 57.375C64.609 57.375 66.3753 55.6088 66.3753 53.4375V34.875C68.857 34.875 70.8753 32.8568 70.8753 30.375V23.625C70.8753 18.891 67.9322 14.8387 63.7832 13.1816ZM31.5002 13.5C31.5002 10.3984 34.0236 7.875 37.1252 7.875C40.2268 7.875 42.7502 10.3984 42.7502 13.5C42.7502 16.6016 40.2268 19.125 37.1252 19.125C34.0236 19.125 31.5002 16.6016 31.5002 13.5ZM59.6252 3.375C62.107 3.375 64.1252 5.39325 64.1252 7.875C64.1252 10.3568 62.107 12.375 59.6252 12.375C57.1435 12.375 55.1252 10.3568 55.1252 7.875C55.1252 5.39325 57.1435 3.375 59.6252 3.375ZM55.4841 13.194C55.3648 13.2412 55.2433 13.2818 55.1252 13.3335V12.8925C55.2422 12.9971 55.3603 13.0984 55.4841 13.194ZM50.6252 30.375V26.2643C51.4588 26.0933 52.225 25.7524 52.8752 25.2608V32.625C51.6343 32.625 50.6252 31.6159 50.6252 30.375ZM68.6253 30.375C68.6253 31.6159 67.6161 32.625 66.3753 32.625V24.75H64.1252V53.4375C64.1252 54.3679 63.3681 55.125 62.4377 55.125C61.5073 55.125 60.7502 54.3679 60.7502 53.4375V31.5H58.5002V53.4375C58.5002 54.3679 57.7431 55.125 56.8127 55.125C55.8823 55.125 55.1252 54.3679 55.1252 53.4375V24.75H53.4501C54.4795 23.7251 55.1252 22.3223 55.1252 20.7776V15.858C56.491 15.0638 58.0277 14.625 59.6252 14.625C64.5876 14.625 68.6253 18.6626 68.6253 23.625V30.375Z" fill="black"/>
</svg>
