<svg width="72" height="72" viewBox="0 0 72 72" fill="none" xmlns="http://www.w3.org/2000/svg">
<path d="M33.75 32.625H11.25C9.38925 32.625 7.875 31.1108 7.875 29.25V15.75C7.875 13.8892 9.38925 12.375 11.25 12.375H33.75C35.6108 12.375 37.125 13.8892 37.125 15.75V29.25C37.125 31.1108 35.6108 32.625 33.75 32.625Z" fill="#F9BA48"/>
<path d="M61.4092 6.75L51.2314 16.9279C49.6181 17.1787 48.375 18.5659 48.375 20.25V42.75H50.625V56.25C50.625 56.871 50.1199 57.375 49.5 57.375C48.8801 57.375 48.375 56.871 48.375 56.25V48.375C48.375 46.5143 46.8607 45 45 45H41.625V9.918C42.9311 9.45225 43.875 8.21475 43.875 6.75V4.5C43.875 2.63925 42.3607 1.125 40.5 1.125H4.5C2.63925 1.125 1.125 2.63925 1.125 4.5V6.75C1.125 8.21475 2.06887 9.45225 3.375 9.918V62.0831C2.06887 62.5478 1.125 63.7853 1.125 65.25V67.5C1.125 69.3607 2.63925 70.875 4.5 70.875H40.5C42.3607 70.875 43.875 69.3607 43.875 67.5V65.25C43.875 63.7853 42.9311 62.5477 41.625 62.082V47.25H45C45.6199 47.25 46.125 47.754 46.125 48.375V56.25C46.125 58.1107 47.6393 59.625 49.5 59.625C51.3607 59.625 52.875 58.1107 52.875 56.25V42.75H55.125V38.25C55.125 36.3893 56.6393 34.875 58.5 34.875C60.3607 34.875 61.875 33.3607 61.875 31.5V20.25C61.875 19.1509 61.3395 18.1834 60.5239 17.5669L64.5908 13.5H70.875V6.75H61.4092ZM5.625 61.875V10.125H39.375V61.875H5.625ZM3.375 4.5C3.375 3.879 3.88013 3.375 4.5 3.375H40.5C41.1199 3.375 41.625 3.879 41.625 4.5V6.75C41.625 7.371 41.1199 7.875 40.5 7.875H4.5C3.88013 7.875 3.375 7.371 3.375 6.75V4.5ZM41.625 67.5C41.625 68.121 41.1199 68.625 40.5 68.625H4.5C3.88013 68.625 3.375 68.121 3.375 67.5V65.25C3.375 64.629 3.88013 64.125 4.5 64.125H40.5C41.1199 64.125 41.625 64.629 41.625 65.25V67.5ZM58.5 32.625C55.3984 32.625 52.875 35.1484 52.875 38.25V40.5H50.625V20.25C50.625 19.629 51.1301 19.125 51.75 19.125H58.5C59.1199 19.125 59.625 19.629 59.625 20.25V21.375H55.125V30.375H59.625V31.5C59.625 32.121 59.1199 32.625 58.5 32.625ZM59.625 23.625V28.125H57.375V23.625H59.625ZM68.625 11.25H63.6592L58.0342 16.875H54.4658L62.3408 9H68.625V11.25Z" fill="black"/>
<path d="M33.75 59.625H11.25C9.38925 59.625 7.875 58.1108 7.875 56.25V38.25C7.875 36.3892 9.38925 34.875 11.25 34.875H33.75C35.6108 34.875 37.125 36.3892 37.125 38.25V56.25C37.125 58.1108 35.6108 59.625 33.75 59.625ZM11.25 37.125C10.6301 37.125 10.125 37.629 10.125 38.25V56.25C10.125 56.871 10.6301 57.375 11.25 57.375H33.75C34.3699 57.375 34.875 56.871 34.875 56.25V38.25C34.875 37.629 34.3699 37.125 33.75 37.125H11.25Z" fill="black"/>
<path d="M22.5551 55.125C19.3736 55.125 16.875 52.6264 16.875 49.5551C16.875 48.5876 17.1293 47.6314 17.6085 46.7921L22.5 38.232L27.3915 46.791C27.8707 47.6314 28.125 48.5865 28.125 49.5551C28.125 52.6264 25.6264 55.125 22.5551 55.125Z" fill="#F9BA48"/>
<path d="M32.625 23.625H12.375V16.875H32.625V23.625ZM14.625 21.375H30.375V19.125H14.625V21.375Z" fill="black"/>
<path d="M12.375 25.875H14.625V28.125H12.375V25.875Z" fill="black"/>
<path d="M16.875 25.875H19.125V28.125H16.875V25.875Z" fill="black"/>
<path d="M30.375 25.875H32.625V28.125H30.375V25.875Z" fill="black"/>
<path d="M25.875 25.875H28.125V28.125H25.875V25.875Z" fill="black"/>
<path d="M12.375 39.375H14.625V41.625H12.375V39.375Z" fill="black"/>
<path d="M12.375 43.875H14.625V46.125H12.375V43.875Z" fill="black"/>
<path d="M12.375 48.375H14.625V50.625H12.375V48.375Z" fill="black"/>
<path d="M30.375 52.875H32.625V55.125H30.375V52.875Z" fill="black"/>
<path d="M30.375 48.375H32.625V50.625H30.375V48.375Z" fill="black"/>
<path d="M30.375 43.875H32.625V46.125H30.375V43.875Z" fill="black"/>
</svg>
