<svg width="72" height="72" viewBox="0 0 72 72" fill="none" xmlns="http://www.w3.org/2000/svg">
<path d="M0 72H17.4195V69.6774H2.32263V31.3548H17.4195V29.0324H0V72Z" fill="#333333"/>
<path d="M54.5801 29.0324V31.3548H69.6769V69.6774H54.5801V72H71.9995V29.0324H54.5801Z" fill="#333333"/>
<path d="M12.7743 34.8387H5.80664V41.8063H12.7743V34.8387ZM10.4517 39.4839H8.12902V37.1613H10.4517V39.4839Z" fill="#333333"/>
<path d="M12.7743 45.2903H5.80664V52.2579H12.7743V45.2903ZM10.4517 49.9355H8.12902V47.6129H10.4517V49.9355Z" fill="#333333"/>
<path d="M5.80664 62.7097H12.7743V55.7421H5.80664V62.7097ZM8.12902 58.0644H10.4517V60.3871H8.12902V58.0644Z" fill="#333333"/>
<path d="M66.1942 34.8387H59.2266V41.8063H66.1942V34.8387ZM63.8718 39.4839H61.5492V37.1613H63.8718V39.4839Z" fill="#333333"/>
<path d="M59.2266 52.2582H66.1942V45.2905H59.2266V52.2582ZM61.5492 47.6129H63.8718V49.9355H61.5492V47.6129Z" fill="#333333"/>
<path d="M59.2266 62.7097H66.1942V55.7421H59.2266V62.7097ZM61.5492 58.0644H63.8718V60.3871H61.5492V58.0644Z" fill="#333333"/>
<path d="M55.7415 72H16.2578V9.29028H55.7418L55.7415 72Z" fill="#F9BA48"/>
<path d="M54.581 2.32263V0H52.2586H51.0973H20.9036H19.7423H17.4199V2.32263H19.7423V10.4516H22.0649V2.32263H49.936V10.4516H52.2586V2.32263H54.581Z" fill="#333333"/>
<path d="M29.0323 15.0968H22.0645V22.0645H29.0321L29.0323 15.0968ZM26.7097 19.7418H24.3871V17.4192H26.7097V19.7418Z" fill="#333333"/>
<path d="M39.4833 15.0968H32.5156V22.0645H39.4833V15.0968ZM37.1606 19.7418H34.838V17.4192H37.1606V19.7418Z" fill="#333333"/>
<path d="M49.9347 15.0968H42.9668V22.0645H49.9344L49.9347 15.0968ZM47.6121 19.7418H45.2894V17.4192H47.6121V19.7418Z" fill="#333333"/>
<path d="M47.6121 51.0969H24.3863H23.225H20.9023V53.4195H23.225V72H48.7734V53.4195H51.096V51.0969H48.7734H47.6121ZM25.5476 53.4195H34.8379V58.0647H33.6766C31.7558 58.0647 30.1926 59.628 30.1926 61.5487C30.1926 63.4694 31.7558 65.0326 33.6766 65.0326H34.8379V69.6779H25.5476V53.4195ZM34.8379 62.7098H33.6766C33.0366 62.7098 32.5152 62.1896 32.5152 61.5484C32.5152 60.9073 33.0366 60.3871 33.6766 60.3871H34.8379V62.7098ZM37.1605 60.3871H38.3218C38.9617 60.3871 39.4831 60.9073 39.4831 61.5484C39.4831 62.1896 38.9617 62.7098 38.3218 62.7098H37.1605V60.3871ZM46.4508 69.6774H37.1605V65.0321H38.3218C40.2425 65.0321 41.8058 63.4689 41.8058 61.5482C41.8058 59.6275 40.2425 58.0643 38.3218 58.0643H37.1605V53.419H46.4508V69.6774Z" fill="#333333"/>
<path d="M22.0645 32.516H29.0321V25.5484H22.0645V32.516ZM24.3871 27.871H26.7097V30.1936H24.3871V27.871Z" fill="#333333"/>
<path d="M32.5156 32.516H39.4833V25.5484H32.5156V32.516ZM34.8382 27.871H37.1609V30.1936H34.8382V27.871Z" fill="#333333"/>
<path d="M42.9668 32.516H49.9344V25.5484H42.9668V32.516ZM45.2894 27.871H47.6121V30.1936H45.2894V27.871Z" fill="#333333"/>
<path d="M22.0645 42.9676H29.0321V36H22.0645V42.9676ZM24.3871 38.3226H26.7097V40.6452H24.3871V38.3226Z" fill="#333333"/>
<path d="M32.5156 42.9676H39.4833V36H32.5156V42.9676ZM34.8382 38.3226H37.1609V40.6452H34.8382V38.3226Z" fill="#333333"/>
<path d="M42.9668 42.9676H49.9344V36H42.9668V42.9676ZM45.2894 38.3226H47.6121V40.6452H45.2894V38.3226Z" fill="#333333"/>
<path d="M46.4508 46.4516H20.9023V48.7742H46.4508V46.4516Z" fill="#333333"/>
<path d="M51.0961 46.4516H48.7734V48.7742H51.0961V46.4516Z" fill="#333333"/>
</svg>
