<svg width="72" height="72" viewBox="0 0 72 72" fill="none" xmlns="http://www.w3.org/2000/svg">
<path d="M31.5 38.0048V41.625C31.5 42.6892 30.9971 43.6275 30.2276 44.2451C32.4034 46.4771 33.75 49.5203 33.75 52.875C33.75 59.6981 28.1981 65.25 21.375 65.25C14.5519 65.25 9 59.6981 9 52.875C9 46.0519 14.5519 40.5 21.375 40.5C22.5461 40.5 23.6756 40.6744 24.75 40.9792V35.2024C23.6554 34.9943 22.5292 34.875 21.375 34.875C11.4503 34.875 3.375 42.9503 3.375 52.875C3.375 62.7997 11.4503 70.875 21.375 70.875C31.2997 70.875 39.375 62.7997 39.375 52.875C39.375 46.7021 36.2497 41.2481 31.5 38.0048Z" fill="#F9BA48"/>
<path d="M69.9559 62.3205C70.5251 61.5667 70.875 60.6398 70.875 59.625C70.875 57.1432 68.8568 55.125 66.375 55.125H62.6681L58.3763 43.1077C57.5786 40.8746 55.4501 39.375 53.0786 39.375H52.875V38.25C52.875 36.3893 51.3607 34.875 49.5 34.875H48.2434L47.2331 26.7907C46.7573 22.9837 44.4082 19.8146 41.1874 18.1451C44.1124 16.6579 46.125 13.6249 46.125 10.125C46.125 5.16263 42.0874 1.125 37.125 1.125C32.1626 1.125 28.125 5.16263 28.125 10.125C28.125 13.1985 29.6753 15.9143 32.0333 17.5387C29.5211 18.3915 27.3724 20.0261 25.875 22.1569V19.125C25.875 16.6432 23.8568 14.625 21.375 14.625H5.625C3.14325 14.625 1.125 16.6432 1.125 19.125C1.125 21.6068 3.14325 23.625 5.625 23.625H16.875V35.4679C17.6096 35.2778 18.3577 35.1281 19.125 35.0314V21.375H5.625C4.38412 21.375 3.375 20.3659 3.375 19.125C3.375 17.8841 4.38412 16.875 5.625 16.875H21.375C22.6159 16.875 23.625 17.8841 23.625 19.125V29.25V35.0392V39.5696C22.8836 39.4459 22.1321 39.375 21.375 39.375C13.9309 39.375 7.875 45.4309 7.875 52.875C7.875 60.3191 13.9309 66.375 21.375 66.375C28.8191 66.375 34.875 60.3191 34.875 52.875C34.875 49.6969 33.7691 46.6785 31.7565 44.2586C32.2965 43.5173 32.625 42.6116 32.625 41.625V37.125H49.5C50.1199 37.125 50.625 37.6301 50.625 38.25V40.5C50.625 41.1199 50.1199 41.625 49.5 41.625H35.4116C35.9797 42.3315 36.4894 43.0864 36.9473 43.875H49.5C50.9647 43.875 52.2023 42.9311 52.668 41.625H53.0786C54.5018 41.625 55.7786 42.525 56.2568 43.8649L61.0819 57.375H66.375C67.6159 57.375 68.625 58.3841 68.625 59.625C68.625 60.8659 67.6159 61.875 66.375 61.875H58.6283C57.6799 61.875 56.8282 61.2754 56.5099 60.381L51.9514 47.6179C51.6319 46.7246 50.7802 46.125 49.8319 46.125H38.0554C38.3512 46.8529 38.6044 47.6032 38.8046 48.375H49.5V49.5C49.5 51.3607 47.9857 52.875 46.125 52.875H39.375C39.375 53.6389 39.312 54.3859 39.2186 55.125H43.6522L42.8479 60.057C40.8116 60.9041 39.375 62.9111 39.375 65.25C39.375 68.3516 41.8984 70.875 45 70.875C46.8304 70.875 48.4436 69.9829 49.4707 68.625H68.625C69.8659 68.625 70.875 67.6159 70.875 66.375V64.125C70.875 63.3836 70.5105 62.73 69.9559 62.3205ZM30.375 10.125C30.375 6.40238 33.4024 3.375 37.125 3.375C40.8476 3.375 43.875 6.40238 43.875 10.125C43.875 13.8476 40.8476 16.875 37.125 16.875C33.4024 16.875 30.375 13.8476 30.375 10.125ZM23.625 52.875C23.625 54.1159 22.6159 55.125 21.375 55.125C20.1341 55.125 19.125 54.1159 19.125 52.875C19.125 51.6341 20.1341 50.625 21.375 50.625C22.6159 50.625 23.625 51.6341 23.625 52.875ZM20.25 48.5347C19.8416 48.6405 19.458 48.8025 19.1036 49.0129L14.2605 44.1698C15.9277 42.8051 17.991 41.9074 20.25 41.6824V48.5347ZM17.5129 50.6036C17.3036 50.9591 17.1416 51.3416 17.0347 51.75H10.1824C10.4074 49.491 11.3051 47.4277 12.6698 45.7605L17.5129 50.6036ZM17.0347 54C17.1405 54.4084 17.3025 54.792 17.5129 55.1464L12.6698 59.9895C11.304 58.3223 10.4074 56.259 10.1824 54H17.0347ZM19.1036 56.7371C19.4591 56.9464 19.8416 57.1084 20.25 57.2153V64.0676C17.991 63.8426 15.9277 62.9449 14.2605 61.5802L19.1036 56.7371ZM22.5 57.2153C22.9084 57.1095 23.292 56.9475 23.6464 56.7371L28.4895 61.5802C26.8222 62.9449 24.759 63.8426 22.5 64.0676V57.2153ZM25.2371 55.1464C25.4464 54.7909 25.6084 54.4084 25.7153 54H32.5676C32.3426 56.259 31.4449 58.3223 30.0803 59.9895L25.2371 55.1464ZM25.7153 51.75C25.6095 51.3416 25.4475 50.958 25.2371 50.6036L30.0825 45.7583C31.4888 47.4739 32.3505 49.545 32.5688 51.75H25.7153ZM23.6464 49.0129C23.2909 48.8036 22.9084 48.6416 22.5 48.5347V41.7015C22.8881 41.7397 23.2706 41.8039 23.6509 41.8826C23.76 43.7726 25.0312 45.3375 26.766 45.8921L23.6464 49.0129ZM32.9546 22.8296C31.2907 24.4924 30.375 26.7041 30.375 29.0576V41.625C30.375 42.8659 29.3659 43.875 28.125 43.875C26.8841 43.875 25.875 42.8659 25.875 41.625V36.3195V29.25C25.875 23.6677 30.4177 19.125 36 19.125C40.5653 19.125 44.4341 22.5405 45 27.0697L45.9754 34.875H32.625V29.0576C32.625 27.306 33.3068 25.659 34.5454 24.4204L32.9546 22.8296ZM45 68.625C43.1393 68.625 41.625 67.1107 41.625 65.25C41.625 63.3893 43.1393 61.875 45 61.875C46.8607 61.875 48.375 63.3893 48.375 65.25C48.375 67.1107 46.8607 68.625 45 68.625ZM47.5571 60.2685C46.8416 59.8995 46.0462 59.6745 45.1946 59.6441L45.9326 55.125H46.125C46.9631 55.125 47.7506 54.9281 48.4661 54.5985L47.5571 60.2685ZM51.1504 52.0673L54.3904 61.1381C54.4837 61.398 54.6041 61.6421 54.7402 61.875H49.5788L51.1504 52.0673ZM68.625 66.375H50.5114C50.5856 66.0116 50.625 65.6348 50.625 65.25C50.625 64.8652 50.5856 64.4884 50.5114 64.125H58.6283H66.375H68.625V66.375Z" fill="black"/>
</svg>
