<svg width="72" height="72" viewBox="0 0 72 72" fill="none" xmlns="http://www.w3.org/2000/svg">
<path d="M20.6955 20.8541C21.2737 19.827 22.3616 19.125 23.625 19.125H25.1066V19.1689C25.8626 17.1742 27.7774 15.75 30.0375 15.75H37.6695C38.7821 15.75 39.87 15.4204 40.7948 14.8039L41.8804 14.0805C42.4474 13.7014 43.1134 13.5 43.7962 13.5C45.7043 13.5 47.25 15.0469 47.25 16.9537V19.125H48.375C49.6012 19.125 50.6633 19.7854 51.255 20.763L51.4586 20.3738C52.3845 18.6086 52.875 16.6196 52.875 14.625C52.875 10.9924 50.4 7.81875 46.8315 6.88387C44.4994 3.31988 40.4674 1.125 36.1901 1.125H32.9996C25.3485 1.125 19.125 7.34963 19.125 14.9996C19.125 16.8863 19.5907 18.765 20.4727 20.4334L20.6955 20.8541Z" fill="#F9BA48"/>
<path d="M41.5081 27.5321L41.5666 27.3589L39.4336 26.6411L39.3751 26.8177C38.8891 28.2724 37.5335 29.25 36.0001 29.25C34.4667 29.25 33.1111 28.2724 32.6251 26.8144L32.5666 26.6411L30.4336 27.3589L30.4921 27.5287C31.283 29.9047 33.4958 31.5 36.0001 31.5C38.5043 31.5 40.7172 29.9047 41.5081 27.5321Z" fill="black"/>
<path d="M47.8687 38.0048L41.283 36.1755L41.0006 35.6107C44.8999 34.5071 47.8508 31.1276 48.3086 27H48.375C50.8568 27 52.875 24.9818 52.875 22.5C52.875 20.0182 50.8568 18 48.375 18V16.9537C48.375 14.4292 46.3208 12.375 43.7962 12.375C42.8872 12.375 42.0098 12.6405 41.256 13.1445L40.1704 13.869C39.4279 14.3629 38.5628 14.625 37.6684 14.625H30.0375C27.5996 14.625 25.4756 15.9919 24.3911 18H23.625C21.1432 18 19.125 20.0182 19.125 22.5C19.125 24.9818 21.1432 27 23.625 27H23.6914C24.1504 31.1276 27.1001 34.5071 30.9994 35.6107L30.717 36.1755L24.1313 38.0048C15.885 40.2953 10.125 47.8732 10.125 56.4311V70.875H61.875V56.4311C61.875 47.8732 56.115 40.2953 47.8687 38.0048ZM21.375 22.5C21.375 21.2591 22.3841 20.25 23.625 20.25H23.6779C23.6464 20.5087 23.625 20.7698 23.625 21.0375V24.75C22.3841 24.75 21.375 23.7409 21.375 22.5ZM44.8616 57.1421L37.7483 65.8361L43.3834 39.5392L46.9834 44.9392L42.6139 50.4L44.8616 57.1421ZM25.0166 44.9392L28.6166 39.5392L34.2517 65.8361L27.1384 57.1421L29.3861 50.4L25.0166 44.9392ZM40.0489 44.3621L39.438 41.7645L41.0918 38.4581L41.3021 38.5166L40.0489 44.3621ZM37.359 42.75L38.9475 49.5068L36 63.2576L33.0536 49.5068L34.641 42.75H37.359ZM30.9083 38.457L32.562 41.7634L31.9511 44.361L30.6979 38.5144L30.9083 38.457ZM50.625 22.5C50.625 23.7409 49.6159 24.75 48.375 24.75V20.25C49.6159 20.25 50.625 21.2591 50.625 22.5ZM25.875 25.875V21.0375C25.875 18.7425 27.7425 16.875 30.0375 16.875H37.6684C39.0083 16.875 40.3054 16.4824 41.418 15.7399L42.5048 15.0154C42.8873 14.76 43.335 14.625 43.7962 14.625C45.081 14.625 46.125 15.6701 46.125 16.9537V25.875C46.125 30.2175 42.5914 33.75 38.25 33.75H33.75C29.4086 33.75 25.875 30.2175 25.875 25.875ZM33.75 36H38.25C38.3918 36 38.529 35.9843 38.6685 35.9786L39.2423 37.125L37.5548 40.5H34.4452L32.7577 37.125L33.3315 35.9786C33.471 35.9843 33.6082 36 33.75 36ZM12.375 56.4311C12.375 48.8801 17.4578 42.1931 24.7331 40.1715L25.6635 39.9128L22.2322 45.0596L26.8628 50.8489L24.6105 57.6068L33.6251 68.625H20.25V51.75H18V68.625H12.375V56.4311ZM59.625 68.625H54V51.75H51.75V68.625H38.3749L47.3884 57.6079L45.1361 50.85L49.7666 45.0608L46.3354 39.9139L47.2658 40.1726C54.5423 42.1931 59.625 48.8801 59.625 56.4311V68.625Z" fill="black"/>
<path d="M30.375 21.375C30.9963 21.375 31.5 20.8713 31.5 20.25C31.5 19.6287 30.9963 19.125 30.375 19.125C29.7537 19.125 29.25 19.6287 29.25 20.25C29.25 20.8713 29.7537 21.375 30.375 21.375Z" fill="black"/>
<path d="M41.625 21.375C42.2463 21.375 42.75 20.8713 42.75 20.25C42.75 19.6287 42.2463 19.125 41.625 19.125C41.0037 19.125 40.5 19.6287 40.5 20.25C40.5 20.8713 41.0037 21.375 41.625 21.375Z" fill="black"/>
<path d="M57.375 39.375H59.625V41.625H57.375V39.375Z" fill="black"/>
<path d="M64.5097 7.25288C64.0068 6.24937 62.9977 5.625 61.8749 5.625C60.7522 5.625 59.7431 6.24937 59.2402 7.25288L53.3047 19.125H57.3749V37.125H59.6249V16.875H56.9452L61.2528 8.25975C61.4902 7.78387 62.2597 7.785 62.4959 8.25975L66.8047 16.875H64.1249V66.375H66.3749V19.125H70.4452L64.5097 7.25288Z" fill="black"/>
<path d="M64.125 68.625H66.375V70.875H64.125V68.625Z" fill="black"/>
<path d="M12.375 39.375H14.625V41.625H12.375V39.375Z" fill="black"/>
<path d="M10.7471 18.3847L15.0547 27H12.3749V37.125H14.6249V29.25H18.6952L12.7597 17.3779C12.2568 16.3744 11.2477 15.75 10.1249 15.75C9.00219 15.75 7.99306 16.3744 7.49019 17.3779L1.55469 29.25H5.62494V66.375H7.87494V27H5.19519L9.50281 18.3847C9.74019 17.9089 10.5097 17.91 10.7471 18.3847Z" fill="black"/>
<path d="M5.625 68.625H7.875V70.875H5.625V68.625Z" fill="black"/>
</svg>
