<svg width="72" height="72" viewBox="0 0 72 72" fill="none" xmlns="http://www.w3.org/2000/svg">
<path d="M49.5 18C45.1508 18 41.625 21.5257 41.625 25.875C41.625 29.4412 43.9976 32.4506 47.25 33.4192V28.125C47.25 26.8819 48.2569 25.875 49.5 25.875C50.7431 25.875 51.75 26.8819 51.75 28.125V33.4192C55.0024 32.4506 57.375 29.4412 57.375 25.875C57.375 21.5257 53.8492 18 49.5 18Z" fill="#F9BA48"/>
<path d="M5.625 7.875V32.625C5.625 33.8681 6.63188 34.875 7.875 34.875H34.875C36.1181 34.875 37.125 33.8681 37.125 32.625V7.875C37.125 6.63188 36.1181 5.625 34.875 5.625H7.875C6.63188 5.625 5.625 6.63188 5.625 7.875ZM11.25 29.25C11.25 27.252 12.5741 25.497 14.4956 24.948L19.125 23.625V21.8756C17.7851 21.096 16.875 19.6616 16.875 18V15.75C16.875 13.1321 19.1115 11.0362 21.7778 11.268C24.1425 11.4727 25.875 13.6103 25.875 15.984V18C25.875 19.6616 24.9649 21.096 23.625 21.8756V23.625L28.2544 24.948C30.1759 25.497 31.5 27.252 31.5 29.25H11.25Z" fill="#F9BA48"/>
<path d="M65.25 1.125H6.75C3.64838 1.125 1.125 3.64838 1.125 6.75V42.75C1.125 45.8516 3.64838 48.375 6.75 48.375H37.7156L39.2209 59.6576C39.3547 60.6712 39.7643 61.6297 40.4033 62.4285L43.1359 65.844C43.6129 66.4425 43.875 67.1906 43.875 67.9534V70.875H61.875V67.7374C61.875 67.068 62.0708 66.4211 62.442 65.8654L65.43 61.3834C66.0488 60.4564 66.375 59.3775 66.375 58.2626V48.2614C68.9389 47.7382 70.875 45.4669 70.875 42.75V6.75C70.875 3.64838 68.3516 1.125 65.25 1.125ZM64.125 58.2626C64.125 58.932 63.9292 59.5789 63.558 60.1346L60.57 64.6166C59.9513 65.5436 59.625 66.6225 59.625 67.7374V68.625H46.125V67.9534C46.125 66.6821 45.6862 65.4334 44.892 64.4389L42.1594 61.0234C41.7757 60.5441 41.5305 59.9692 41.4495 59.3606L39.3829 43.8671C39.3784 43.8232 39.375 43.7794 39.375 43.7355C39.375 43.1921 39.8171 42.75 40.3594 42.75H40.941C41.4304 42.75 41.8387 43.101 41.913 43.5848L43.5465 54.1969C43.83 56.0385 45.387 57.375 47.25 57.375H48.375V28.125C48.375 27.5051 48.879 27 49.5 27C50.121 27 50.625 27.5051 50.625 28.125V39.375V48.375V52.875H52.875V48.375V39.375C52.875 38.7551 53.379 38.25 54 38.25C54.621 38.25 55.125 38.7551 55.125 39.375V41.625V52.875H57.375V41.625C57.375 41.0051 57.879 40.5 58.5 40.5C59.121 40.5 59.625 41.0051 59.625 41.625V45V50.625V52.875H61.875V50.625V45C61.875 44.3801 62.379 43.875 63 43.875C63.621 43.875 64.125 44.3801 64.125 45V58.2626ZM68.625 42.75C68.625 44.2147 67.6811 45.4523 66.375 45.918V45C66.375 43.1393 64.8607 41.625 63 41.625C62.604 41.625 62.2282 41.706 61.875 41.832V41.625C61.875 39.7643 60.3607 38.25 58.5 38.25C58.0556 38.25 57.6337 38.3411 57.2445 38.4975C56.8564 37.0631 55.5559 36 54 36C53.604 36 53.2282 36.081 52.875 36.207V28.125C52.875 26.2642 51.3607 24.75 49.5 24.75C47.6393 24.75 46.125 26.2642 46.125 28.125V54.6199C45.9416 54.4106 45.8156 54.1496 45.7706 53.8549L44.1371 43.2427C43.893 41.6531 42.5475 40.5 40.941 40.5H40.3594C38.5762 40.5 37.125 41.9512 37.125 43.7355C37.125 43.8773 37.1351 44.019 37.1531 44.1619L37.4152 46.125H6.75C4.88925 46.125 3.375 44.6107 3.375 42.75V6.75C3.375 4.88925 4.88925 3.375 6.75 3.375H65.25C67.1107 3.375 68.625 4.88925 68.625 6.75V42.75Z" fill="black"/>
<path d="M28.5637 23.8658L24.75 22.7768V22.4775C26.1518 21.4211 27 19.7595 27 18.0011V15.9851C27 12.9611 24.7489 10.3984 21.8756 10.1486C20.2972 10.0091 18.7324 10.5424 17.5747 11.6044C16.4149 12.6664 15.75 14.1784 15.75 15.75V18C15.75 19.7584 16.5982 21.4211 18 22.4764V22.7756L14.1862 23.8658C11.7945 24.5486 10.125 26.7626 10.125 29.25V30.375H32.625V29.25C32.625 26.7626 30.9555 24.5486 28.5637 23.8658ZM12.5719 28.125C12.9296 27.1294 13.7498 26.3306 14.8039 26.0291L20.25 24.4733V21.2288L19.6909 20.9036C18.6322 20.2871 18 19.2015 18 18V15.75C18 14.8073 18.3983 13.8994 19.0958 13.2615C19.8 12.6158 20.7225 12.3098 21.681 12.3885C23.4022 12.5381 24.75 14.1165 24.75 15.984V18C24.75 19.2015 24.1178 20.2871 23.0591 20.9036L22.5 21.2288V24.4733L27.9461 26.0291C29.0014 26.3306 29.8204 27.1294 30.1781 28.125H12.5719Z" fill="black"/>
<path d="M9 37.125C7.13925 37.125 5.625 38.6392 5.625 40.5C5.625 42.3608 7.13925 43.875 9 43.875C10.8608 43.875 12.375 42.3608 12.375 40.5C12.375 38.6392 10.8608 37.125 9 37.125ZM9 41.625C8.379 41.625 7.875 41.1199 7.875 40.5C7.875 39.8801 8.379 39.375 9 39.375C9.621 39.375 10.125 39.8801 10.125 40.5C10.125 41.1199 9.621 41.625 9 41.625Z" fill="black"/>
<path d="M18 37.125C16.1392 37.125 14.625 38.6392 14.625 40.5C14.625 42.3608 16.1392 43.875 18 43.875C19.8608 43.875 21.375 42.3608 21.375 40.5C21.375 38.6392 19.8608 37.125 18 37.125ZM18 41.625C17.379 41.625 16.875 41.1199 16.875 40.5C16.875 39.8801 17.379 39.375 18 39.375C18.621 39.375 19.125 39.8801 19.125 40.5C19.125 41.1199 18.621 41.625 18 41.625Z" fill="black"/>
<path d="M27 37.125C25.1392 37.125 23.625 38.6392 23.625 40.5C23.625 42.3608 25.1392 43.875 27 43.875C28.8608 43.875 30.375 42.3608 30.375 40.5C30.375 38.6392 28.8608 37.125 27 37.125ZM27 41.625C26.379 41.625 25.875 41.1199 25.875 40.5C25.875 39.8801 26.379 39.375 27 39.375C27.621 39.375 28.125 39.8801 28.125 40.5C28.125 41.1199 27.621 41.625 27 41.625Z" fill="black"/>
<path d="M63 5.625C61.1392 5.625 59.625 7.13925 59.625 9C59.625 10.8608 61.1392 12.375 63 12.375C64.8608 12.375 66.375 10.8608 66.375 9C66.375 7.13925 64.8608 5.625 63 5.625ZM63 10.125C62.379 10.125 61.875 9.61987 61.875 9C61.875 8.38013 62.379 7.875 63 7.875C63.621 7.875 64.125 8.38013 64.125 9C64.125 9.61987 63.621 10.125 63 10.125Z" fill="black"/>
<path d="M54 5.625C52.1392 5.625 50.625 7.13925 50.625 9C50.625 10.8608 52.1392 12.375 54 12.375C55.8608 12.375 57.375 10.8608 57.375 9C57.375 7.13925 55.8608 5.625 54 5.625ZM54 10.125C53.379 10.125 52.875 9.61987 52.875 9C52.875 8.38013 53.379 7.875 54 7.875C54.621 7.875 55.125 8.38013 55.125 9C55.125 9.61987 54.621 10.125 54 10.125Z" fill="black"/>
<path d="M45 5.625C43.1392 5.625 41.625 7.13925 41.625 9C41.625 10.8608 43.1392 12.375 45 12.375C46.8608 12.375 48.375 10.8608 48.375 9C48.375 7.13925 46.8608 5.625 45 5.625ZM45 10.125C44.379 10.125 43.875 9.61987 43.875 9C43.875 8.38013 44.379 7.875 45 7.875C45.621 7.875 46.125 8.38013 46.125 9C46.125 9.61987 45.621 10.125 45 10.125Z" fill="black"/>
</svg>
